<svg width="350" height="91" viewBox="0 0 350 91" fill="none" xmlns="http://www.w3.org/2000/svg">
<path d="M45.0531 0C33.1043 0 21.6449 4.74666 13.1958 13.1958C4.74666 21.6449 0 33.1043 0 45.0531C0 57.002 4.74666 68.4614 13.1958 76.9105C21.6449 85.3596 33.1043 90.1063 45.0531 90.1063C57.002 90.1063 68.4614 85.3596 76.9105 76.9105C85.3596 68.4614 90.1063 57.002 90.1063 45.0531C90.1063 33.1043 85.3596 21.6449 76.9105 13.1958C68.4614 4.74666 57.002 0 45.0531 0Z" fill="white"/>
<path d="M69.6279 14.1489C64.0428 28.484 49.5216 26.6223 39.2822 26.9947L36.6758 36.6755C49.5216 26.4361 66.2769 36.6755 64.6013 52.3138C64.1299 56.8694 62.2697 61.17 59.2727 64.6332C56.2757 68.0964 52.2867 70.5548 47.846 71.6755C39.096 73.7233 29.6014 70.5584 25.3195 61.8084L23.8301 58.085L32.9524 55.6648C32.9524 56.2233 33.3248 56.5957 33.5109 57.1542C39.6546 67.0212 52.1279 61.9946 53.4311 51.7553C54.9205 41.5159 40.3992 35.9308 33.6971 48.0319L25.5056 44.6808L28.4844 32.3936L30.5322 24.2021L31.0907 22.3404C36.3035 8.75 46.5428 7.44681 55.6652 7.44681H56.7822C47.3573 4.65194 37.2286 5.47496 28.3786 9.75478C19.5285 14.0346 12.5942 21.4631 8.93286 30.5864C5.27149 39.7097 5.14663 49.871 8.58271 59.0815C12.0188 68.292 18.7685 75.8886 27.5107 80.3846C36.2529 84.8806 46.3583 85.9523 55.849 83.3898C65.3397 80.8274 73.5326 74.8154 78.824 66.5304C84.1155 58.2454 86.1246 48.284 84.4581 38.5957C82.7917 28.9074 77.5697 20.1897 69.8141 14.1489H69.6279Z" fill="#E52322"/>
<path d="M66.0906 11.5425C65.5289 13.6457 64.4768 15.5857 63.0206 17.2037C61.5644 18.8218 59.7455 20.0717 57.713 20.851C53.4311 22.7127 48.2183 22.7127 43.1917 22.7127H35.3726C39.8406 12.4734 47.4736 11.5425 55.6651 11.5425C59.137 11.3577 62.6143 11.2956 66.0906 11.3564V11.5425Z" fill="#00923A"/>
<path d="M129.389 53.4308H133.112V67.5797H126.038V60.5053H105.559V67.3935H98.2983V53.2446H102.022C103.883 50.4521 105 46.3563 105 40.7712V23.4574H129.203V53.2446L129.389 53.4308ZM121.942 53.4308V30.3457H112.261V41.3297C112.261 46.7287 111.33 50.6382 109.655 53.617H122.128L121.942 53.4308ZM148.192 61.2499C144.468 61.2499 140.931 59.9467 138.325 57.1542C137.036 55.8623 136.024 54.3208 135.352 52.6241C134.68 50.9275 134.361 49.1114 134.415 47.2872C134.364 45.4396 134.69 43.601 135.374 41.8837C136.057 40.1665 137.084 38.6067 138.391 37.2997C139.698 35.9928 141.257 34.9662 142.975 34.2827C144.692 33.5991 146.53 33.2731 148.378 33.3244C152.101 33.3244 155.453 34.8138 158.059 37.4202C159.382 38.6962 160.428 40.2306 161.132 41.928C161.837 43.6254 162.185 45.4496 162.155 47.2872C162.155 51.1968 160.851 54.5478 158.059 57.1542C156.776 58.468 155.241 59.5083 153.545 60.2123C151.849 60.9162 150.028 61.2692 148.192 61.2499ZM148.192 54.5478C150.24 54.5478 151.915 53.8031 153.405 52.6861C154.708 51.1968 155.266 49.3351 155.266 47.2872C155.291 46.3426 155.127 45.4026 154.782 44.5227C154.438 43.6428 153.921 42.8408 153.261 42.164C152.602 41.4872 151.814 40.9494 150.943 40.5823C150.072 40.2152 149.137 40.0262 148.192 40.0266C147.223 39.9971 146.258 40.1726 145.362 40.5415C144.465 40.9104 143.657 41.4645 142.989 42.1674C142.321 42.8703 141.809 43.7062 141.487 44.6206C141.164 45.5349 141.038 46.507 141.117 47.4734C141.117 49.3351 141.862 51.1968 142.979 52.4999C144.469 53.8031 146.144 54.5478 148.192 54.5478ZM168.484 57.1542C167.204 55.8559 166.198 54.3132 165.527 52.6181C164.855 50.923 164.531 49.11 164.575 47.2872C164.524 45.4396 164.85 43.601 165.533 41.8837C166.217 40.1665 167.243 38.6067 168.55 37.2997C169.857 35.9928 171.417 34.9662 173.134 34.2827C174.851 33.5991 176.69 33.2731 178.538 33.3244C180.937 33.2812 183.302 33.9015 185.372 35.117C187.442 36.3325 189.135 38.0959 190.266 40.2127L184.309 43.5638C183.749 42.4736 182.893 41.5634 181.839 40.9377C180.785 40.3121 179.577 39.9962 178.351 40.0266C177.382 39.9971 176.418 40.1726 175.521 40.5415C174.625 40.9104 173.816 41.4645 173.148 42.1674C172.481 42.8703 171.969 43.7062 171.646 44.6206C171.324 45.5349 171.198 46.507 171.277 47.4734C171.277 49.3351 172.022 51.1968 173.325 52.4999C174.628 53.8031 176.304 54.3616 178.351 54.3616C181.144 54.3616 183.378 53.0585 184.495 51.0106L190.266 54.3616C189.089 56.439 187.385 58.1694 185.326 59.3787C183.267 60.5879 180.925 61.2334 178.538 61.2499C174.442 61.2499 171.091 59.9467 168.484 57.1542ZM232.713 44.3085V60.5053H226.011V44.6808C226.011 41.5159 224.335 39.6542 221.543 39.6542C218.564 39.6542 216.702 41.8883 216.702 45.6117V60.5053H210V44.6808C210 41.5159 208.139 39.6542 205.532 39.6542C202.554 39.6542 200.506 41.8883 200.506 45.6117V60.5053H193.804V33.8829H200.506V36.6755C202.181 34.4415 204.601 33.1383 207.952 33.1383C211.117 33.1383 213.538 34.4415 215.027 36.8617C216.889 34.4415 219.495 33.1383 222.846 33.1383C228.99 33.1383 232.899 37.4202 232.899 44.1223L232.713 44.3085ZM257.66 34.0691H264.362V60.5053H257.66V57.3404C256.63 58.5955 255.316 59.5878 253.827 60.2352C252.338 60.8826 250.716 61.1666 249.096 61.0638C245.373 61.0638 242.394 59.9467 239.788 57.3404C237.276 54.6074 235.939 50.9969 236.064 47.2872C236.064 43.5638 237.553 40.2127 239.788 37.4202C242.394 34.8138 245.373 33.3244 249.096 33.3244C252.819 33.3244 255.612 34.6276 257.66 37.234V34.0691ZM250.213 54.734C252.447 54.734 253.936 53.9893 255.426 52.6861C256.143 51.9833 256.711 51.1427 257.094 50.2149C257.478 49.2871 257.671 48.2912 257.66 47.2872C257.66 45.0532 256.915 43.3776 255.426 42.0744C254.765 41.3534 253.959 40.7812 253.06 40.396C252.161 40.0109 251.191 39.8214 250.213 39.8404C248.165 39.8404 246.49 40.5851 245 42.0744C243.697 43.3776 243.139 45.0532 243.139 47.2872C243.078 48.2653 243.212 49.2457 243.531 50.1722C243.851 51.0987 244.35 51.953 245 52.6861C246.49 53.9893 248.165 54.734 250.213 54.734ZM293.218 53.0585C293.218 57.3404 290.053 60.5053 284.468 60.5053H270.506V33.8829H283.351C288.936 33.8829 292.101 36.8617 292.101 41.3297C292.101 43.75 291.17 45.4255 289.495 46.9148C291.915 48.0319 293.218 50.0797 293.218 52.8723V53.0585ZM276.835 39.6542V44.4946H282.793C284.654 44.4946 285.585 43.75 285.585 42.0744C285.585 40.5851 284.654 39.6542 282.793 39.6542H276.835ZM283.537 54.734C285.399 54.734 286.516 53.8031 286.516 52.1276C286.516 50.6382 285.399 49.8936 283.537 49.8936H276.835V54.734H283.537ZM321.702 60.5053H313.883L304.202 48.5904V60.5053H297.5V33.8829H304.202V45.6117L313.325 33.8829H321.33L310.904 46.9148L321.702 60.3191V60.5053ZM343.298 34.0691H350V60.5053H343.298V57.3404C342.249 58.6224 340.906 59.6309 339.382 60.2794C337.857 60.9279 336.199 61.1971 334.548 61.0638C331.011 61.0638 328.032 59.9467 325.612 57.3404C323.1 54.6074 321.763 50.9969 321.888 47.2872C321.888 43.5638 323.006 40.2127 325.612 37.4202C328.032 34.8138 331.197 33.3244 334.548 33.3244C338.271 33.3244 341.25 34.6276 343.298 37.234V34.0691ZM335.851 54.734C338.085 54.734 339.575 53.9893 341.064 52.6861C342.553 51.1968 343.298 49.5212 343.298 47.2872C343.298 45.0532 342.553 43.3776 341.064 42.0744C340.403 41.3534 339.597 40.7812 338.698 40.396C337.799 40.0109 336.829 39.8214 335.851 39.8404C333.803 39.8404 332.128 40.5851 330.639 42.0744C329.335 43.3776 328.777 45.0532 328.777 47.2872C328.725 48.2629 328.876 49.2389 329.22 50.1534C329.564 51.0679 330.094 51.9013 330.776 52.6009C331.458 53.3006 332.278 53.8513 333.183 54.2184C334.089 54.5855 335.061 54.7611 336.037 54.734H335.851Z" fill="#E52322"/>
</svg>
