<svg width="266" height="314" viewBox="0 0 266 314" fill="none" xmlns="http://www.w3.org/2000/svg">
<g clip-path="url(#clip0_307_6200)">
<path d="M179.79 178.96C179.79 178.96 179.81 179.01 179.82 179.04C179.83 179.04 179.84 179.04 179.86 179.03C179.84 179.01 179.82 178.99 179.79 178.97V178.96Z" fill="#FDC333"/>
<path d="M148.94 180.06C149.48 180.66 150.01 181.26 150.55 181.86C150.01 181.26 149.48 180.66 148.94 180.06Z" fill="#FDC333"/>
<path d="M163.31 198.53C163.08 200.79 161.87 201.18 159.97 200.58C159.44 199.57 158.5 199.25 157.46 199.08C157.41 199.08 157.38 199.08 157.34 199.08C164.26 204.2 171.17 209.33 178.07 214.49C177.98 214.42 177.89 214.35 177.8 214.29C177.82 214.22 177.82 214.15 177.8 214.05C177.76 213.89 177.47 213.8 177.23 213.64C177.19 213.68 177.15 213.73 177.1 213.77C175.15 212.31 173.21 210.86 171.26 209.41C171.38 209.4 171.52 209.34 171.69 209.21C172.53 208.59 171.44 207.46 170.83 206.71C170.63 206.46 170.3 206.32 170.03 206.12C168.65 205.51 168.24 206.13 167.87 206.88C165.97 205.47 164.07 204.07 162.17 202.66C162.87 202.3 163.68 202.16 164.67 202.53C165.06 202.68 165.48 202.4 165.71 202C165.98 201.51 165.63 201.27 165.3 200.99C164.68 200.48 164.06 199.78 165.05 199.23C165.35 199.07 165.56 198.89 165.71 198.7C167.75 200.95 169.77 203.21 171.81 205.45C169.32 202.71 166.84 199.95 164.36 197.2C163.8 197.45 163.39 197.88 163.32 198.54L163.31 198.53ZM169.51 207.6C169.67 207.64 169.83 207.67 169.99 207.71C170.48 207.84 170.58 208.59 170.8 209.04C170.23 208.62 169.67 208.19 169.1 207.77C169.23 207.7 169.37 207.63 169.51 207.59V207.6Z" fill="#FDC333"/>
<path d="M71.8602 91.5696C71.7402 91.4296 71.6202 91.2796 71.4902 91.1396C71.6102 91.2796 71.7302 91.4296 71.8602 91.5696Z" fill="#FDC333"/>
<path d="M175.07 209.36C174.96 209.11 174.85 208.88 174.74 208.65C176.98 211.11 179.23 213.56 181.48 216.01C181.28 216.18 181.16 216.44 181.16 216.78C181.54 217.06 181.92 217.35 182.3 217.63C182.39 217.63 182.48 217.63 182.56 217.64C182.7 217.64 182.84 217.64 182.99 217.64C183.11 217.77 183.22 217.89 183.34 218.02C183.28 218.1 183.21 218.17 183.13 218.24C183.56 218.56 183.99 218.88 184.41 219.2C180.2 214.61 175.99 210.03 171.8 205.42C172.09 205.74 172.38 206.06 172.67 206.38C172.93 207.48 173.26 208.66 175.07 209.35V209.36Z" fill="#FDC333"/>
<path d="M179.65 215.32C179.53 215.23 179.28 215.2 179.05 215.2C179.68 215.67 180.31 216.14 180.93 216.61C180.73 216.46 180.53 216.31 180.33 216.16C180.22 215.85 180 215.56 179.65 215.32Z" fill="#FDC333"/>
<path d="M40.2402 53.8799C45.4902 60.2099 50.7602 66.5299 56.0502 72.8399C50.7602 66.5399 45.4902 60.2199 40.2402 53.8799Z" fill="#FDC333"/>
<path d="M152.16 34.7303C153.17 35.9503 154.21 34.5103 154.93 35.4603C156.62 37.6903 156.76 35.5603 157.11 34.6003C157.55 33.4003 157.13 32.2803 156.27 31.0703C155.25 32.7803 153.97 33.9503 152.16 34.7303Z" fill="#FDC333"/>
<path d="M169.66 23.6804C169.52 23.7304 169.41 24.0704 169.44 24.2704C169.46 24.4404 169.68 24.5804 169.88 24.8204C170.05 24.5304 170.23 24.3504 170.24 24.1604C170.25 23.8204 170.04 23.5404 169.67 23.6804H169.66Z" fill="#FDC333"/>
<path d="M129.76 174.52C129.25 173.41 128.54 173.31 127.61 174.02C128.29 174.19 128.79 175.17 129.76 174.52Z" fill="#FDC333"/>
<path d="M151.15 35.6297C150.48 35.7697 149.93 36.2397 149.92 36.9797C149.92 37.5497 150.38 37.9097 150.92 37.7697C151.53 37.6097 152.23 37.3897 152.15 36.3697C151.98 35.9997 151.72 35.4997 151.15 35.6197V35.6297Z" fill="#FDC333"/>
<path d="M89.9302 150.12C91.4502 151.2 92.9702 152.29 94.4902 153.38C92.9702 152.29 91.4502 151.21 89.9302 150.12Z" fill="#FDC333"/>
<path d="M51.54 123.03C56.54 126.52 61.53 130.03 66.52 133.54C61.53 130.03 56.54 126.52 51.54 123.03Z" fill="#FDC333"/>
<path d="M158.82 138.78C158.8 139.19 158.72 139.56 158.32 139.77C157.98 139.77 157.64 139.77 157.29 139.77C154.77 139.17 155.81 141.36 155.29 142.32C154.51 142.36 153.02 142.07 153.09 142.61C153.41 145.2 151.28 144.19 150.27 144.78C149.27 144.62 148.26 144.45 147.26 144.29C146.02 144.49 144.78 144.13 143.54 144.07C143.47 143.96 143.4 143.86 143.33 143.75C144.4 145.41 145.47 147.08 146.54 148.74C146.6 148.59 146.67 148.44 146.76 148.3C147.4 147.75 146.84 146.9 147.26 146.29C147.93 146.63 148.6 146.96 149.27 147.3C149.77 147.46 150.27 147.62 150.78 147.78C151.14 147.42 151.54 147.15 151.97 146.94C151.54 147.15 151.14 147.42 150.78 147.78C152.53 147.64 153.54 148.98 154.8 149.82C154.96 150.65 155.13 151.48 155.29 152.31V152.33C153.99 154.41 152.27 155.04 150.02 153.84C149.96 153.81 149.88 153.83 149.8 153.83C149.35 153.14 148.91 152.44 148.46 151.75C149.5 153.37 150.54 154.98 151.58 156.6C151.65 156.35 151.71 156.1 151.78 155.85C151.71 156.1 151.65 156.35 151.58 156.6C154.71 161.47 157.84 166.34 160.97 171.2C160.32 170.19 159.67 169.18 159.02 168.17C159.62 166.84 161.32 166.82 162.42 166.64C163.25 166.51 164.86 167.7 164.81 169.38C164.64 169.54 164.47 169.7 164.31 169.86C163.67 169.89 163.33 170.23 163.31 170.88C162.74 171.32 161.9 171.31 161.32 171.72C172.18 188.62 182.76 205.92 194.97 221.92C190.6 213.37 186.54 204.66 182.76 195.83C175.91 179.83 169.94 163.48 164.46 146.97C163.92 147.24 163.37 147.52 162.83 147.79C162.32 147.78 161.89 147.64 161.53 147.44C161.9 147.65 162.32 147.78 162.83 147.79C163.37 147.52 163.92 147.24 164.46 146.97C163.22 143.23 162 139.49 160.81 135.73C160.75 135.72 160.69 135.71 160.63 135.71C159.36 135.75 159.92 137.96 158.83 138.76L158.82 138.78ZM158.82 144.79C158.53 144.68 158.1 144.45 157.87 144.39C158.11 144.45 158.54 144.68 158.82 144.79ZM158.44 167.24C157.02 165.02 155.59 162.81 154.17 160.59C154.18 160.44 154.2 160.29 154.2 160.11C155.56 160.8 157.14 160.82 158.32 161.85C158.32 162.51 158.32 163.18 158.33 163.84C157.75 164.95 157.77 165.66 159.33 165.36C159.24 166.18 158.93 166.8 158.44 167.23V167.24ZM170.89 166.38C170.87 166.54 170.86 166.7 170.85 166.87C170.54 167.06 170.23 167.21 169.9 167.3C170.23 167.21 170.54 167.06 170.85 166.87C170.86 166.71 170.87 166.55 170.89 166.39C170.46 165.95 170.14 165.34 169.77 164.8C170.14 165.34 170.46 165.95 170.89 166.39V166.38ZM165.87 163.86C166 164.33 166.14 164.79 166.24 165.26C166.14 164.79 165.99 164.32 165.86 163.86H165.87ZM165.69 152.89C165.74 153.16 165.66 153.46 165.34 153.82C165.66 153.46 165.74 153.15 165.69 152.89ZM163.83 159.86C164.09 160.01 164.35 160.15 164.6 160.26C164.85 160.37 165.1 160.44 165.34 160.45C165.1 160.44 164.85 160.37 164.6 160.26C164.35 160.15 164.09 160.01 163.83 159.86C163.67 160.16 163.42 160.28 163.14 160.33C163.42 160.28 163.67 160.16 163.83 159.86ZM162.83 161.35C162.83 161.57 162.83 161.78 162.84 161.98C162.82 161.78 162.82 161.57 162.83 161.35ZM162.34 149.82C162.01 149.82 161.67 149.82 161.34 149.82C161.67 149.82 162.01 149.82 162.34 149.82ZM160.56 146.66C160.7 146.82 160.86 146.96 161.02 147.1C160.86 146.97 160.71 146.82 160.56 146.66Z" fill="#FDC333"/>
<path d="M73.3599 138.36C75.8699 140.13 78.3799 141.91 80.8799 143.68C78.3699 141.9 75.8699 140.13 73.3599 138.36Z" fill="#FDC333"/>
<path d="M200.94 223.22C202.16 223.91 203.38 224.6 204.59 225.29C204.88 225.45 205.17 225.59 205.45 225.58C204.03 219.37 202.63 213.16 201.28 206.94C201.39 207.43 201.49 207.91 201.6 208.4C200.85 207.48 200.26 206.43 199.93 205.15C199.89 204.31 200.13 203.86 200.58 203.72C200.43 203.03 200.28 202.33 200.13 201.64C199.73 201.64 199.33 201.64 198.94 201.64C198.56 200.89 198.69 200.32 199.58 200.2C199.66 200.19 199.73 200.18 199.81 200.17C199.58 199.09 199.36 198.01 199.13 196.93C199.06 197 199 197.06 198.93 197.13C197.99 197.23 196.51 196.72 196.28 197.78C195.66 200.62 194.12 199.91 192.41 199.15C191.91 199.15 191.41 199.15 190.91 199.15V199.13C190.87 198.49 191.05 197.58 190.21 197.5C189.43 197.42 188.99 198.26 188.61 198.88C188.49 199.08 188.44 199.32 188.39 199.57C187.73 198.09 187.08 196.6 186.44 195.11C188.06 194.04 190.38 194.16 191.42 192.13C194.37 191.85 192.26 190.56 191.92 189.62C192.09 189.45 192.25 189.28 192.42 189.12C193.04 189.99 193.9 190.26 194.92 190.12C194.86 189.13 195.22 188.59 196.32 188.6C196.67 188.6 197.02 188.6 197.37 188.58C197.35 188.47 197.32 188.36 197.3 188.25C195.15 177.82 193.09 167.36 191.13 156.89C191.06 156.93 190.99 156.96 190.93 157C190.91 157.15 190.91 157.3 190.91 157.46C190.91 157.3 190.91 157.15 190.93 157C191 156.96 191.07 156.93 191.13 156.89C188.96 145.34 186.91 133.76 184.96 122.17C184.93 122.22 184.89 122.27 184.86 122.33C184.03 122.33 183.2 122.35 182.38 122.36C183.21 122.36 184.03 122.34 184.86 122.33C184.88 122.27 184.93 122.22 184.96 122.17C184.71 120.69 184.46 119.21 184.22 117.72C183.78 117.67 183.34 117.62 182.92 117.54C183.34 117.62 183.78 117.67 184.22 117.72C183.58 113.82 182.95 109.92 182.33 106.01C182.16 106.44 181.85 106.67 181.39 106.44C180.08 105.77 179 106.54 177.85 106.27C177.23 105.94 176.6 105.69 175.87 105.77H175.81H175.87C174.81 104.26 173.12 103.5 171.82 102.27C170.96 100.78 170.66 98.0203 168 100.66C167.7 100.95 166.89 100.73 166.31 100.75C166.31 100.59 166.3 100.42 166.29 100.26C166.21 99.8103 166.5 99.0803 165.83 99.0203C165.14 98.9603 165.1 99.7903 164.78 100.24C163.96 101.02 162.6 99.8803 162.25 100.47C160.94 102.65 159.61 101.13 158.27 100.75C158.22 99.8103 158.36 99.3203 156.92 99.9303C155.82 100.4 154.76 100.56 153.81 100.47C152.33 95.4103 150.87 90.3603 149.42 85.3003C149.47 85.0703 149.46 84.7903 149.39 84.5903C148.84 82.9203 149.68 81.7703 150.72 80.6703C151.06 80.5003 151.39 80.3403 151.73 80.1703C152.63 80.2803 153.28 79.8803 153.92 79.2703C154.81 78.4203 155.2 79.4503 155.68 79.8703C156.29 80.4103 157.11 81.0203 155.75 81.6703C154.91 82.2303 153.64 83.0503 154.53 83.9403C155.91 85.3003 154.86 85.5203 154.05 86.1903C153.27 86.8403 152.47 87.4103 151.5 87.7203C151.18 87.8203 150.88 87.9803 150.85 88.3803C150.82 88.7703 151.04 89.1203 151.37 89.1103C152.69 89.0603 154.44 89.9703 155.12 88.1603C155.75 86.4903 156.91 86.6203 158.15 86.7703C159.3 86.9103 160.43 87.2203 161.64 87.4703C160.98 85.0603 158.84 84.7103 157.26 83.6903C157.59 83.6903 157.92 83.6803 158.24 83.6903C160.19 83.7703 161.33 83.3803 159.68 81.2903C159.59 81.1803 159.73 80.8903 159.77 80.6803C160.66 80.7103 161.54 80.8403 162.42 80.9303C164.2 81.1003 166.05 81.5703 167.8 80.6903C168.78 79.7303 168.11 79.1803 167.3 78.6703C168.15 77.3503 168.99 76.6203 170.92 76.9803C173.39 77.4303 175.87 76.7203 177.61 74.5303C177.61 74.5303 177.61 74.5303 177.61 74.5203C177.54 74.0103 177.47 73.5103 177.4 73.0003C177.19 73.0703 176.99 73.2403 176.78 73.3703C174.7 74.7103 172.86 74.4003 171.27 72.5303C170.94 72.1403 170.6 71.6103 170.07 71.8303C168.79 72.3603 167.76 71.9603 167.5 70.7603C167.24 69.5403 168.37 69.2603 169.4 68.9603C170.23 68.7203 170.84 67.8103 170.46 67.0003C170.12 66.2703 169.11 66.6403 168.39 66.6903C167.34 66.7603 166.98 68.4503 165.61 67.9303C165.89 66.7103 167.12 66.4303 167.78 65.6203C169.5 64.6703 171.53 64.8603 173.3 64.1103C174.3 64.3603 175.3 64.5803 176.28 64.8803C176.19 64.1903 176.09 63.4903 176 62.8003C175.1 62.9703 174.22 63.1703 173.3 63.1103C172.97 62.4303 172.45 61.9403 171.8 61.5903V61.6203C171.71 62.2403 171.53 62.7003 171.28 63.0303C170.99 63.4103 170.61 63.6303 170.18 63.7703C170.61 63.6303 170.99 63.4003 171.28 63.0303C171.54 62.7003 171.72 62.2403 171.79 61.6203L171.8 61.5903C172.23 59.3303 173.79 58.8303 175.43 58.4203C174.08 48.0803 172.82 37.7303 171.65 27.3703C171.2 26.9003 171.34 25.9503 170.45 26.0603C169.33 26.1903 169.58 27.3003 169.17 27.9303C168.33 29.2203 168.23 30.5603 168.3 31.9903C168.3 33.8303 168.3 35.6703 168.29 37.5103C168.13 37.6803 167.96 37.8503 167.8 38.0203C166.7 37.9203 166.95 39.1803 166.29 39.5203C165.15 37.6103 163.47 36.7803 161.27 37.0103C160.6 37.0103 159.94 37.0103 159.27 37.0103C157.46 37.4203 156.49 39.5403 157.57 40.7203C159.25 42.567 159.147 44.0037 157.26 45.0303C155.68 45.0603 154.24 45.0103 155.11 42.7203C155.36 42.0603 155.02 41.3803 154.3 41.6303C153.08 42.0403 153.35 40.7403 152.75 40.5103C152.66 39.9903 152.5 39.7703 151.83 39.6803C150.77 39.5403 149.02 39.2403 148.84 38.6303C148.09 36.0403 146.15 36.1503 144.2 36.0103C142.01 34.5103 142.45 32.1303 142.19 29.9803C142.6 29.4103 143.03 29.6003 143.44 29.9703C143.97 30.4303 144.49 30.5103 144.93 29.8903C145.33 29.3303 145.2 28.7603 144.74 28.3003C144.04 27.6103 143.49 26.4603 142.42 26.5403C140.02 26.7203 139 25.7503 139.15 23.3903C139.19 22.8003 138.77 22.4203 138.18 22.5603C137.56 22.7103 136.98 23.2503 137.48 23.8303C138.69 25.2203 138.43 27.4303 140.19 28.4703C141.01 30.2203 142.25 31.9803 140.02 33.6403C139.96 33.6803 140.01 34.0003 140.1 34.0803C141.54 35.4203 141.23 37.6803 142.69 39.0003C141.91 39.1103 141.21 39.3703 140.7 40.0103C140.65 41.0903 140.9 41.9503 142.2 42.0203C142.03 42.5203 141.86 43.0203 141.69 43.5203C141.36 43.5203 141.03 43.5203 140.69 43.5203C140.31 42.8503 140.17 42.1303 140.14 41.3603C140.12 40.9003 139.85 40.5803 139.33 40.6403C138.95 40.6903 138.74 40.9903 138.74 41.3403C138.74 42.6303 138.21 43.7603 137.76 44.9203C138.71 48.2003 139.67 51.4903 140.62 54.7703C140.51 54.3803 140.39 53.9803 140.28 53.5903C140.41 53.5903 140.54 53.5903 140.68 53.5703C140.94 54.3403 141 55.0303 140.87 55.6303C141.34 57.2503 141.81 58.8603 142.28 60.4803C150.63 89.2703 158.67 118.46 168.24 147.05C168.73 147.23 168.96 147.63 169.13 148.07C168.96 147.62 168.72 147.23 168.24 147.05C171.84 157.8 175.66 168.47 179.79 179.01C179.81 179.03 179.84 179.05 179.86 179.07C179.85 179.07 179.84 179.07 179.82 179.08C182.94 187.03 186.25 194.91 189.78 202.68C189.97 202.68 190.15 202.68 190.34 202.67C191.22 202.64 192 202.76 192.41 203.68C192.06 203.84 191.72 204.08 191.34 204.16C191.07 204.21 190.75 204.22 190.49 204.28C191.75 207.02 193.04 209.75 194.36 212.47C193.25 210.17 192.15 207.87 191.08 205.55C191.21 205.52 191.34 205.49 191.47 205.47C191.76 205.43 192.09 205.61 192.41 205.7C193.49 206.37 194.69 206.61 195.93 206.7C196.43 206.87 196.93 207.04 197.43 207.21C198.55 207.94 198.34 208.81 197.65 209.67C196.73 210.82 195.65 211.78 194.36 212.48C197.15 218.24 200.08 223.95 203.16 229.57C202.16 227.73 201.17 225.89 200.19 224.03C200.44 223.78 200.69 223.52 200.94 223.27V223.22ZM196.82 185.91C196.76 185.98 196.69 186.05 196.63 186.1C196.69 186.05 196.76 185.97 196.82 185.91ZM192.4 177.54C192.04 177.98 191.78 178.59 191.47 179.12C191.78 178.6 192.03 177.98 192.4 177.54ZM171.32 39.4503C171.43 39.6403 171.54 39.8203 171.64 40.0103C171.54 39.8203 171.43 39.6303 171.32 39.4503ZM172.31 51.5003C172.27 50.9503 172.37 50.5503 172.63 50.3003C172.38 50.5503 172.27 50.9503 172.31 51.5003C171.81 51.6703 171.31 51.8403 170.82 52.0103C171.32 51.8403 171.82 51.6703 172.31 51.5003ZM170.32 53.5303C170.37 53.5303 170.43 53.5303 170.48 53.5303C170.43 53.5303 170.37 53.5303 170.32 53.5303C170.32 54.2003 170.32 54.8703 170.32 55.5303C170.32 54.8603 170.32 54.1903 170.32 53.5303ZM168.82 41.9803H169.06H168.82C168.82 42.0603 168.82 42.1403 168.82 42.2303C168.82 42.1503 168.82 42.0703 168.82 41.9803ZM166.3 44.3903C166.27 44.5703 166.26 44.7703 166.28 45.0003C166.26 44.7703 166.27 44.5703 166.3 44.3903ZM151.73 79.1503V79.1303V79.1503ZM151.41 73.6103C151.98 72.1103 153.24 71.2903 154.58 71.3103C153.24 71.2903 151.98 72.1103 151.41 73.6103ZM156.75 72.1203C156.83 71.4703 157.14 71.1603 157.62 71.1403C157.14 71.1503 156.83 71.4703 156.75 72.1203ZM157.76 59.5703C157.53 59.9603 157.03 60.1703 156.83 60.5803C157.03 60.1703 157.53 59.9603 157.76 59.5703C158.95 59.7603 160.12 59.6303 161.28 59.4503C160.12 59.6203 158.95 59.7503 157.76 59.5703ZM161.12 66.0803C160.5 66.0603 159.88 66.0903 159.26 66.0803C159.88 66.0803 160.5 66.0503 161.12 66.0803ZM158.21 82.0603C158.25 82.0003 158.31 81.9403 158.38 81.9003C158.31 81.9403 158.26 81.9903 158.21 82.0603ZM163.78 63.0703C163.79 63.2303 163.82 63.3603 163.87 63.4803C163.83 63.3703 163.8 63.2403 163.78 63.0703ZM165.84 72.2703C166.61 71.8003 167.46 72.7303 167.65 73.5603C167.92 74.7403 166.9 74.5903 166.18 74.6203C163.47 74.7503 161.88 76.9103 159.77 78.1403C158.73 78.2303 157.51 79.3203 156.76 77.6403C157.26 76.8103 157.76 75.9803 158.27 75.1403C159.56 74.5003 159.97 73.1403 160.78 72.1203C162.44 72.7403 164.02 73.3903 165.84 72.2703ZM150.24 54.0503C151.69 54.0303 152.97 54.1003 152.89 51.8703C152.84 50.5903 153.78 49.4303 155.55 49.8603C156.26 50.0303 157.02 49.9803 157.76 50.0203C158.27 50.8203 158.76 50.1503 159.26 50.0103C160.14 49.9703 161 50.0403 161.78 50.5203C161.78 50.8503 161.78 51.1803 161.78 51.5203C161.8 52.3403 161.84 53.1603 161.86 53.9703C161.83 53.1503 161.8 52.3303 161.78 51.5203C160.24 52.4803 158.97 53.8903 159.47 55.6403C160.02 57.5503 159 57.9703 157.77 58.5403C157.57 57.6103 158.18 55.7903 156.28 56.5403C155.5 56.8503 154.29 57.7003 154.25 59.0503C153.03 59.3703 152.35 58.0603 151.24 58.0503C151.88 56.0103 150.46 57.0503 149.74 57.0503C148.81 55.8703 149.57 54.9603 150.24 54.0503ZM141.69 52.0303C141.31 52.1903 141.05 52.4303 140.88 52.7303C141.04 52.4303 141.31 52.1903 141.69 52.0303C141.69 51.8703 141.69 51.7103 141.69 51.5403C141.69 51.7003 141.69 51.8703 141.69 52.0303ZM146.21 55.5503C146.08 55.8303 145.91 56.0403 145.69 56.2003C145.91 56.0403 146.08 55.8203 146.21 55.5503ZM145.22 47.0103C145.45 47.1503 145.61 47.3703 145.76 47.6003C145.61 47.3703 145.46 47.1503 145.22 47.0103C145.04 46.7003 144.9 46.3803 144.81 46.0503C144.9 46.3803 145.05 46.7003 145.22 47.0103ZM146.21 64.0803C145.69 64.0303 145.26 64.1103 144.9 64.3303C145.26 64.1103 145.69 64.0303 146.21 64.0803C146.43 63.9403 146.65 63.7903 146.87 63.6503C146.65 63.7903 146.43 63.9403 146.21 64.0803ZM159.26 116.31C159.1 116.31 158.93 116.3 158.77 116.3C158.93 116.3 159.1 116.3 159.26 116.31C159.26 116.46 159.26 116.6 159.26 116.74C159.26 116.6 159.26 116.46 159.26 116.31ZM159.38 117.32C159.44 117.46 159.54 117.58 159.68 117.66C159.54 117.58 159.44 117.46 159.38 117.32ZM159.73 120.32C159.73 120.32 159.76 120.32 159.77 120.31C159.76 120.31 159.74 120.31 159.73 120.32ZM160.28 118.82C160.55 118.8 160.84 118.82 161.11 118.77C160.85 118.82 160.56 118.8 160.28 118.82ZM159.87 111.97C160.05 112.12 160.2 112.37 160.28 112.78C160.39 112.88 160.5 112.96 160.62 113.01C160.5 112.95 160.39 112.88 160.28 112.78C160.2 112.38 160.05 112.13 159.87 111.97ZM160.28 105.74C160.12 105.24 159.95 104.75 159.79 104.25C159.95 104.75 160.12 105.24 160.28 105.74C160.62 105.98 160.99 106.11 161.36 106.18C160.99 106.11 160.63 105.98 160.28 105.74ZM163.28 114.8C163.28 114.63 163.28 114.46 163.28 114.28C163.28 114.45 163.28 114.62 163.28 114.8ZM163.62 105.59C163.68 105.48 163.74 105.37 163.8 105.26C163.74 105.37 163.68 105.48 163.62 105.59ZM169.29 112.76C170.07 111.86 170.87 111.27 171.73 111.12C170.87 111.26 170.07 111.85 169.29 112.76C168.96 112.76 168.64 112.76 168.31 112.76C168.64 112.76 168.96 112.76 169.29 112.76ZM167.29 114.29C168.19 114.69 168.7 115.33 169.06 116.07C168.7 115.33 168.19 114.69 167.29 114.29ZM167.45 134.14C167.87 133.68 168.29 133.24 168.79 132.89C168.29 133.24 167.87 133.69 167.45 134.14ZM169.13 132.82C169.29 132.77 169.44 132.71 169.54 132.6C169.43 132.71 169.29 132.77 169.13 132.82ZM168.3 124.85C168.76 124.79 169.24 124.85 169.76 124.82C169.24 124.85 168.76 124.79 168.3 124.85ZM169.82 131.85C170.02 131.86 170.22 131.89 170.39 131.96C170.22 131.88 170.02 131.86 169.82 131.85ZM171.31 122.31C171.12 122.02 171 121.72 170.92 121.41C171 121.72 171.12 122.02 171.31 122.31C171.53 122.03 171.77 121.81 172.02 121.65C171.77 121.81 171.53 122.03 171.31 122.31ZM174.85 159.93C174.9 159.64 174.89 159.32 174.82 158.97C173.94 158.81 173.24 157.99 173.11 157.41C173.25 157.98 173.95 158.8 174.82 158.97C174.89 159.32 174.9 159.64 174.85 159.93ZM176.34 139.89C176.16 139.68 175.97 139.56 175.77 139.48C175.97 139.56 176.17 139.68 176.34 139.89ZM178.34 152.95C178.44 153.19 178.57 153.39 178.74 153.56C178.57 153.39 178.44 153.19 178.34 152.95C178.13 152.95 177.94 152.92 177.76 152.84C177.93 152.91 178.13 152.94 178.34 152.95ZM177.42 172.87C178.23 172.75 179.03 172.64 179.84 172.52C179.03 172.64 178.23 172.75 177.42 172.87ZM179.84 110.77C180.02 111.12 180.16 111.51 180.3 111.89C180.16 111.51 180.03 111.12 179.84 110.77ZM181.86 152.45C182.56 151.99 183.32 151.93 184.1 151.93C183.33 151.93 182.56 151.99 181.86 152.45ZM188.38 142.41C188.38 142.53 188.37 142.64 188.34 142.74C188.36 142.64 188.38 142.53 188.38 142.41ZM187.38 186.59L187.4 186.58H187.38V186.59ZM186.38 142.42C186.55 142.42 186.72 142.42 186.89 142.42C186.72 142.42 186.55 142.42 186.38 142.42C186.21 141.79 186.02 141.17 185.88 140.54C186.02 141.17 186.21 141.8 186.38 142.42ZM185.88 152.45C186.38 152.12 186.89 151.79 187.39 151.46C186.89 151.79 186.38 152.12 185.88 152.45C185.55 152.29 185.22 152.12 184.89 151.96C185.22 152.12 185.55 152.29 185.88 152.45ZM185.88 170.23C186.24 170.2 186.59 170.15 186.92 170.05C186.59 170.16 186.24 170.2 185.88 170.23ZM186.39 181.08C186.23 181.08 186.07 181.08 185.91 181.09C186.07 181.09 186.23 181.09 186.39 181.08ZM185.4 188.1C185.56 188.1 185.72 188.12 185.87 188.13C186.3 188.4 186.67 188.77 187.05 189.12C186.67 188.77 186.29 188.4 185.87 188.13C185.71 188.11 185.55 188.1 185.4 188.1ZM195.71 215.23C195.8 215.23 195.87 215.23 195.97 215.23C196.63 215.2 197.29 215.22 197.94 215.22C198.27 215.22 198.61 215.22 198.94 215.22C200.59 214.98 201.97 215.73 203.38 216.38C203.81 218.31 204.24 220.23 204.68 222.16C203.87 221.8 202.87 221.89 201.96 221.75C200.48 221.58 199.33 220.59 198.06 219.9C197.27 218.35 196.49 216.79 195.71 215.22V215.23Z" fill="#FDC333"/>
<path d="M138.41 78.5295C137.4 78.5395 136.27 79.1095 136.5 79.9595C136.81 81.1095 137.13 83.2195 138.36 83.0595C140.39 82.7995 138.04 80.3295 139.59 79.4795C139.56 78.5495 138.99 78.5195 138.41 78.5195V78.5295Z" fill="#FDC333"/>
<path d="M194.92 190.08C194.47 190.7 193.22 191.49 195.25 191.58C195.81 191.6 196.37 191.58 196.93 191.58C197.31 191.55 197.67 191.57 198.02 191.62C198.22 192.59 198.43 193.55 198.63 194.52C198.37 193.31 198.12 192.1 197.87 190.89C197.56 190.81 197.25 190.71 196.93 190.58C196.26 190.41 195.59 190.24 194.92 190.08Z" fill="#FDC333"/>
<path d="M142.44 91.0197C142.48 92.4797 143.36 93.8597 141.75 94.5797C140.24 94.4097 140.18 93.4497 140.38 92.2297C140.96 88.7797 138.46 86.5497 137.07 83.1797C136.71 85.1197 136.17 86.1997 135.22 87.0497C132.92 86.9297 130.28 87.7197 129.22 84.4897C129.05 83.9597 128.44 84.6297 128.19 85.0397C127.71 85.2297 127.38 85.5697 127.19 86.0497C124.47 86.0297 121.71 86.3597 119.16 85.0397C117.99 84.1697 116.68 82.8297 115.28 83.9097C114.14 84.7897 116.51 85.3997 116.15 86.5397C115.51 89.3397 117.46 91.8197 117.15 94.5797C117.47 96.0497 116.79 96.6197 114.84 96.2297C116.22 97.6397 118.24 97.6697 118.16 99.5997C118.02 100.45 118.47 101.41 117.66 102.12C116.26 101.5 116.46 99.8197 115.64 98.7197C115.38 99.0797 115.19 99.4297 115.06 99.7797C116.2 101.56 117.35 103.34 118.49 105.12C118.23 104.71 117.97 104.31 117.71 103.9C118.04 104.03 118.35 104.26 118.64 104.63V105.37C126.56 117.67 134.48 129.98 142.39 142.28C143.06 141.54 143.95 140.89 143.76 139.77C143.59 139.77 143.42 139.77 143.25 139.77C143.42 139.77 143.59 139.77 143.76 139.77C145.5 139.73 147.01 138.48 148.48 138.33C150.89 138.08 150.87 136.9 150.78 135.25C151.94 135.58 152.25 133.55 153.53 134.25C155.1 135.12 155.49 134.63 154.95 133.04C154.78 132.53 154.81 132.08 155.29 131.74C157.44 133.2 157.54 130.36 158.88 129.94C158.91 129.94 158.93 129.92 158.96 129.91C158.96 129.91 158.96 129.91 158.96 129.92C158.85 129.55 158.73 129.19 158.62 128.82C158.46 128.61 158.31 128.4 158.28 128.19C158.28 128.04 158.28 127.9 158.28 127.75C156.41 121.72 154.59 115.68 152.79 109.63C152.79 109.63 152.78 109.63 152.77 109.63C152.47 109.42 152.45 109.12 152.54 108.78C152.33 108.06 152.11 107.34 151.9 106.62C151.86 106.62 151.82 106.6 151.77 106.6C151.44 106.27 151.1 105.94 150.77 105.6C150.59 105.27 150.42 104.94 150.24 104.61C150.56 104.41 150.78 104.07 151.08 103.84C151.23 104.35 151.38 104.86 151.53 105.37C150.95 103.4 150.38 101.43 149.8 99.4697C148.4 100.11 149.39 100.6 150.28 101.12C150.37 101.41 150.45 101.71 150.54 102C149.8 102.32 149.24 102.96 148.43 103.9C148.77 102.34 148.41 101.42 147.41 101.74C146.51 102.02 145.83 103.4 146.21 104.08C147.03 105.57 146.15 106 145.23 106.6C144.83 106.38 144.75 106.01 144.74 105.6C144.57 105.26 144.4 104.92 144.24 104.58C144.24 104.25 144.24 103.92 144.24 103.6C143.44 102.61 143.08 101.35 141.51 100.93C140.31 100.6 140.23 99.0997 141.32 98.5097C142.08 98.0897 142.14 97.7197 142.26 97.0597C142.64 95.0097 143.84 94.3397 145.75 95.0497C146.65 95.3897 147.75 96.1697 148.18 94.6897C148.23 94.5297 148.26 94.3697 148.28 94.2097C148.33 94.3997 148.39 94.5797 148.44 94.7697C148.19 93.9097 147.93 93.0397 147.68 92.1797C147.39 91.9197 147.02 91.7097 146.51 91.6097C145.23 91.3497 143.89 91.7297 142.43 90.9897L142.44 91.0197ZM120.65 104.11C120.34 104.29 120.02 104.44 119.69 104.53C120.02 104.44 120.34 104.29 120.65 104.11C120.65 103.95 120.66 103.79 120.67 103.62C120.67 103.78 120.66 103.94 120.65 104.11ZM128.2 104.63C128.2 104.79 128.19 104.95 128.18 105.12C127.18 106.15 126.17 103.75 125.17 105.12C124.77 105.17 124.23 105.07 124 105.29C122.13 107.05 121.49 105.99 121.16 104.12C122.16 103.6 122.42 102.9 121.72 101.93C120.46 100.19 120.16 98.1797 120.16 96.0997C120.5 95.3897 118.51 94.0297 120.8 93.8297C121.12 93.7997 121.25 93.1697 121.03 93.0197C119.07 91.7597 120.06 89.7197 119.66 88.0597C119.52 88.3197 119.38 88.5797 119.18 88.7397C119.38 88.5797 119.52 88.3097 119.66 88.0597C119.49 87.7297 119.32 87.3897 119.15 87.0597C119.64 87.0997 120.54 87.0797 120.55 87.1897C121.04 90.2797 122.24 87.9497 123.16 87.5597C123.03 89.0397 123.94 89.1897 125.06 89.0197C125.62 88.9297 126.25 88.5797 126.48 89.4197C126.64 90.0297 125.85 90.1097 125.67 90.5597C125.03 90.6997 124.38 90.8197 123.76 90.9997C122.55 91.3497 121.91 91.8697 123.21 92.9797C123.86 93.5297 123.62 94.3597 123.67 95.0897C124.12 96.6197 125.45 96.7897 126.72 97.1297C127.91 97.4497 127.68 97.8297 126.67 98.1097C125.4 98.1997 123.55 97.9597 125.48 99.9997C126.08 100.63 125.62 100.82 125.24 101.11C124.48 101.69 124.49 102.45 125.02 103.07C125.63 103.8 126.44 103.89 127.17 103.12C127.51 103.08 127.84 102.56 128.18 103.12C128.18 103.63 128.18 104.13 128.18 104.64L128.2 104.63ZM136.22 91.5697C135.76 91.1697 135.7 90.6897 135.71 90.1997C135.69 90.6897 135.76 91.1697 136.22 91.5697ZM133.62 115.4C133.46 115.38 133.32 115.31 133.23 115.15C133.17 114.89 133.1 114.64 133.04 114.38C133.1 114.64 133.17 114.89 133.23 115.15C133.32 115.31 133.46 115.38 133.62 115.4C133.67 115.4 133.73 115.4 133.79 115.4C133.73 115.4 133.68 115.4 133.62 115.4ZM135.42 126.81C134.93 126.91 134.76 127.24 134.76 127.7C134.76 127.24 134.93 126.91 135.42 126.81C135.67 126.83 135.86 126.9 135.98 127.03C135.86 126.9 135.67 126.83 135.42 126.81ZM138.23 107.14C137.06 108.18 135.24 108.27 134.47 109.99C134.03 110.98 133.67 109.7 133.22 109.65C132.61 107.85 134.86 105.79 132.72 104.12C132.65 102.82 131.79 102.57 130.71 102.62C130.71 101.65 130.54 100.61 131.72 100.11C132.27 102.35 133.9 101.06 135.02 100.99C135.63 100.96 136.19 100.38 136.74 101.11C137.11 102.5 135.7 104.55 138.25 105.12C138.66 105.34 138.74 105.72 138.74 106.14C138.34 106.36 138.26 106.74 138.24 107.15L138.23 107.14ZM138.76 95.5797C138.69 94.7597 138.72 93.9397 138.75 93.1097C138.72 93.9297 138.69 94.7597 138.76 95.5797C138.92 95.5797 139.08 95.5897 139.25 95.5997C139.09 95.5997 138.93 95.5897 138.76 95.5797ZM158.3 127.73C157.58 127.71 157.1 127.55 156.78 127.3C157.1 127.55 157.58 127.71 158.3 127.73ZM156.3 121.69C156.3 121.58 156.32 121.47 156.32 121.36C156.32 121.47 156.31 121.58 156.3 121.69C155.47 121.69 154.64 121.69 153.81 121.69C154.64 121.69 155.47 121.69 156.3 121.69ZM152.57 131.49C151.97 131.81 151.49 132.32 151.29 133.25C151.49 132.32 151.97 131.82 152.57 131.49ZM148.25 111.74C147.85 111.86 147.52 112.13 147.27 112.64C147.11 112.64 146.95 112.64 146.79 112.64C146.95 112.64 147.11 112.64 147.27 112.64C147.52 112.14 147.85 111.87 148.25 111.74ZM145.28 107.13C145.44 107.13 145.6 107.15 145.77 107.16C146.5 107.15 147.04 106.78 147.52 106.32C147.03 106.77 146.5 107.14 145.77 107.16C145.61 107.14 145.45 107.13 145.28 107.13C145.28 107.02 145.28 106.91 145.27 106.81C145.27 106.92 145.27 107.03 145.28 107.13ZM141.57 139.08C141.49 139.5 141.41 139.91 141.24 140.27C141.4 139.9 141.49 139.49 141.57 139.08Z" fill="#FDC333"/>
<path d="M93.5801 55.6102C92.3101 49.8102 88.5901 44.8902 88.2401 38.8202C87.9501 33.7402 90.0601 28.7902 93.2101 24.9102C94.0701 23.8602 95.0001 22.8902 95.9901 21.9902C94.9301 22.9402 93.9401 23.9702 93.0301 25.0802C89.8701 28.9702 87.7601 33.9202 88.0601 38.9902C88.4101 45.0602 92.1301 49.9802 93.4001 55.7802C94.0701 58.8402 93.5101 62.1902 91.7801 63.9902C91.8301 63.9402 91.8901 63.8902 91.9401 63.8402C93.6901 62.0502 94.2501 58.6802 93.5801 55.6102Z" fill="#FDC333"/>
<path d="M176.79 68.31C176.76 68.12 176.74 67.93 176.71 67.74C176.6 67.74 176.5 67.71 176.38 67.71C176.47 67.92 176.61 68.11 176.78 68.3L176.79 68.31Z" fill="#FDC333"/>
<path d="M257.47 311.4C252.28 306.53 247.63 300.91 243.12 295.43C234.04 284.4 225.84 272.68 218.03 260.72C213.98 254.52 210.03 248.25 206.11 241.97C205.11 240.37 203.74 238.56 202.64 236.66C200.29 237.03 197.83 236.79 195.44 236.26C193.72 235.88 192.05 235.36 190.49 234.82C184.67 232.83 179.16 230.02 173.9 226.84C166.78 222.54 160.03 217.69 153.04 213.22C145.53 209.23 137.99 205.28 130.44 201.37C111.09 193.23 90.3698 188.54 70.1998 182.9C58.2598 179.56 46.3998 175.87 34.9698 171.02C24.9098 166.75 14.4198 161.61 7.31981 153.02C3.68981 148.62 1.53981 143.75 0.659813 138.64C0.419813 137.26 0.269813 135.86 0.219813 134.45C0.0498128 130.11 0.719813 125.64 2.14981 121.19C4.49981 113.87 7.86981 106.76 11.5298 99.8196C12.0998 98.7296 12.6898 97.6496 13.2698 96.5696C15.5898 92.2896 17.9798 88.0696 20.2598 83.8996C23.4798 78.0096 26.7398 72.1296 30.2098 66.3896C32.5998 62.4396 35.2498 58.4996 38.6198 55.3096C35.1698 58.5396 32.4598 62.5396 30.0398 66.5596C26.5698 72.2996 23.3098 78.1896 20.0898 84.0696C17.8098 88.2396 15.4198 92.4596 13.0998 96.7396C12.5098 97.8196 11.9298 98.8996 11.3598 99.9896C7.69981 106.93 4.32981 114.04 1.97981 121.36C0.549813 125.81 -0.120187 130.28 0.0498128 134.62C0.0998129 136.03 0.249813 137.43 0.489813 138.81C1.36981 143.92 3.51981 148.79 7.14981 153.19C14.2498 161.78 24.7498 166.92 34.7998 171.19C46.2298 176.04 58.0898 179.73 70.0298 183.07C90.1998 188.71 110.91 193.4 130.27 201.54C137.82 205.45 145.36 209.4 152.87 213.39C159.86 217.87 166.61 222.72 173.73 227.01C178.99 230.18 184.5 233 190.32 234.99C191.88 235.52 193.56 236.04 195.27 236.43C197.66 236.96 200.13 237.21 202.47 236.83C203.57 238.73 204.95 240.55 205.94 242.14C209.86 248.42 213.81 254.69 217.86 260.89C225.67 272.84 233.87 284.56 242.95 295.6C247.46 301.09 252.12 306.7 257.3 311.57C259.49 313.63 262.95 314.41 264.69 312.46C262.9 314.18 259.6 313.39 257.48 311.4H257.47Z" fill="#FDC333"/>
<path d="M167.56 86.9404C167.69 87.1704 168.02 87.3304 168.29 87.4304C168.36 87.4604 168.56 87.1504 168.77 86.9204C168.45 86.6904 168.23 86.4104 167.96 86.3504C167.5 86.2604 167.4 86.6404 167.57 86.9404H167.56Z" fill="#FDC333"/>
<path d="M89.94 140.11C90.07 140.34 90.4 140.5 90.67 140.6C90.74 140.63 90.94 140.32 91.15 140.08C90.83 139.84 90.6 139.56 90.33 139.51C89.87 139.42 89.76 139.8 89.94 140.11Z" fill="#FDC333"/>
<path d="M190.49 204.24C190.26 203.73 190.03 203.22 189.8 202.7C190.03 203.21 190.26 203.73 190.49 204.24Z" fill="#FDC333"/>
<path d="M179.74 89.0801C179.85 89.7901 179.95 90.5001 180.06 91.2101C179.95 90.5001 179.85 89.7901 179.74 89.0801Z" fill="#FDC333"/>
<path d="M111.78 164.93C113.03 164.63 114.4 166.08 115.62 164.63C115.84 164.37 116.4 164.74 116.57 165.18C116.76 165.65 116.5 166.03 116.12 166.22C115.38 166.59 114.56 166.8 113.84 167.2C113.82 167.21 113.79 167.23 113.76 167.24C114.58 167.83 115.41 168.42 116.23 169.02C116.25 169 116.27 168.98 116.29 168.96C117.72 168.64 119.04 168.17 119.3 166.45C120.4 165.87 121.5 165.26 122.82 165.44C123.49 165.44 124.15 165.45 124.82 165.46C124.96 166.73 124.66 167.51 123.12 167.54C122.35 167.56 121.22 167.66 121.65 169.2C121.88 170 121.09 171.08 120.09 171.82C120.73 172.28 121.37 172.75 122.01 173.21C121.84 173.09 121.67 172.96 121.5 172.84C121.75 172.84 122 173.04 122.23 173.37C123.02 173.94 123.8 174.52 124.59 175.09C125.68 174.28 126.58 173.28 126.94 171.7C127.15 170.8 127.84 169.9 128.84 169.48C129.36 170.44 130.24 170.9 131.07 170.18C132.76 168.7 134.38 167.13 136.2 165.81C125.34 153.57 114.56 141.27 103.84 128.91C103.85 128.92 103.86 128.93 103.87 128.95C103.79 129.03 103.72 129.12 103.63 129.2C103.16 129.65 102.4 130.27 102.95 130.88C103.84 131.86 104.66 131.28 105.49 130.84C110.03 136.07 114.59 141.28 119.15 146.49C119.03 146.46 118.91 146.43 118.8 146.41C117.66 146.69 116.67 147.46 115.43 147.39C115.73 150.14 113.37 150.72 111.77 151.93C110.15 152.42 109.74 154.31 108.26 154.96C106.01 155.93 106.39 158.2 105.76 159.97C105.59 160.3 105.42 160.63 105.24 160.96C105.21 160.99 105.17 161.03 105.14 161.06C107.25 162.57 109.35 164.09 111.46 165.61C111.55 165.39 111.65 165.17 111.78 164.97V164.93ZM115.79 150.88C116.65 151.6 117.54 152.01 118.4 152.12C117.54 152.01 116.64 151.6 115.79 150.88C115.15 151.15 114.49 151.36 113.82 151.53C114.49 151.37 115.15 151.15 115.79 150.88Z" fill="#FDC333"/>
<path d="M206.44 235.39C205.37 233.52 204.32 231.64 203.29 229.75C204.32 231.64 205.37 233.52 206.44 235.39Z" fill="#FDC333"/>
<path d="M152.76 193.53C152.79 193.07 152.44 192.83 152.03 192.71C151.46 192.72 151.15 193.06 151.04 193.58C150.95 194.03 151.12 194.41 151.61 194.46C152.25 194.52 152.73 194.23 152.76 193.54V193.53Z" fill="#FDC333"/>
<path d="M170.29 14.7201C170.28 14.5901 170.26 14.4601 170.25 14.3301C170.26 14.4601 170.28 14.5901 170.29 14.7201Z" fill="#FDC333"/>
<path d="M262.93 303C260.3 299.5 257.66 296 255.02 292.51C250.04 285.9 245.06 279.29 240.08 272.69L209.76 232.45C209.15 233.29 208.41 234.05 207.56 234.68C207.29 234.88 207.02 235.07 206.73 235.24C206.63 235.3 206.53 235.34 206.43 235.4C205.23 236.06 203.95 236.46 202.63 236.67C203.73 238.57 205.11 240.39 206.1 241.98C210.02 248.26 213.97 254.53 218.02 260.73C225.83 272.68 234.03 284.4 243.11 295.44C247.62 300.93 252.28 306.54 257.46 311.41C259.58 313.4 262.88 314.19 264.67 312.47C265.33 311.83 265.79 310.85 265.9 309.44C266.08 306.93 264.32 304.89 262.92 303.01L262.93 303Z" fill="#561F01"/>
<path d="M7.31014 153.03C14.4101 161.62 24.9101 166.76 34.9601 171.03C46.3901 175.88 58.2501 179.57 70.1901 182.91C90.3601 188.55 111.07 193.24 130.43 201.38C87.7601 179.26 44.4701 158.35 0.640137 138.65C1.52014 143.76 3.67014 148.63 7.30014 153.03H7.31014Z" fill="#FCB400"/>
<path d="M177.89 48.9704C185.58 110.25 196.52 171.12 210.52 231.28C211.7 229.07 212.04 226.46 211.07 224.03C210.81 223.37 210.37 222.91 209.87 222.61C205.33 164.94 202.78 107.12 202.26 49.2704C202.19 41.8604 202.36 34.4304 202.1 27.0304C201.89 21.1704 201.07 15.1604 198.11 10.0004C195.57 5.57043 191.56 1.98043 186.55 0.670432C181.97 -0.529568 177.19 0.0904322 172.53 0.860432C174.11 16.9204 175.88 32.9604 177.89 48.9704Z" fill="#FCB400"/>
<path d="M73.33 87.71C109.76 130.7 147.03 172.97 185.08 214.53C183.41 212.17 181.76 209.79 180.14 207.39C162.62 181.48 146.12 154.83 129.2 128.52L88.42 65.11C87.56 65.03 86.61 64.75 85.55 64.19C80.08 61.32 75.43 56.88 70.07 53.75C61.49 48.74 51.76 46.76 43.23 51.77C53.21 63.8 63.23 75.79 73.33 87.71Z" fill="#FCB400"/>
<path d="M195.46 232.09C189.41 227.52 183.36 222.95 177.29 218.41C122.88 177.71 67.6002 138.19 11.5102 99.8301C7.8502 106.77 4.4802 113.88 2.1302 121.2C0.700204 125.65 0.0302035 130.12 0.200203 134.46C14.1702 140.72 28.0802 147.1 41.9402 153.61C93.9702 178.05 145.18 204.24 195.46 232.09Z" fill="#FCB400"/>
<path d="M153.03 213.22C160.02 217.7 166.77 222.55 173.89 226.84C179.15 230.01 184.66 232.83 190.48 234.82C192.04 235.35 193.72 235.87 195.43 236.26C189.34 232.88 183.23 229.51 177.11 226.17C169.1 221.81 161.07 217.49 153.02 213.22H153.03Z" fill="#FCB400"/>
<path d="M130.43 201.37C137.98 205.28 145.52 209.23 153.03 213.22C149.45 210.93 145.8 208.73 142.01 206.76C138.22 204.79 134.35 203.02 130.43 201.37Z" fill="#561F01"/>
<path d="M56.05 72.8398C61.18 78.9598 66.33 85.0598 71.49 91.1398C71.61 91.2798 71.73 91.4298 71.86 91.5698C82.46 104.06 93.12 116.5 103.85 128.87C114.57 141.23 125.36 153.53 136.21 165.77C140.44 170.54 144.69 175.3 148.95 180.05C149.49 180.65 150.02 181.25 150.56 181.85C155.15 186.97 159.75 192.08 164.36 197.17C166.85 199.92 169.32 202.68 171.81 205.42C176 210.03 180.21 214.61 184.42 219.2C183.99 218.88 183.56 218.56 183.14 218.24C182.86 218.03 182.59 217.83 182.31 217.62C181.93 217.34 181.55 217.05 181.17 216.77C181.09 216.71 181.01 216.65 180.93 216.59C180.3 216.12 179.67 215.65 179.05 215.18C178.72 214.94 178.4 214.69 178.07 214.45C171.18 209.3 164.27 204.16 157.34 199.04C151.9 195.02 146.45 191.01 141 187.01C135.54 183.01 130.07 179.02 124.6 175.04C123.81 174.47 123.03 173.89 122.24 173.32C122.17 173.27 122.09 173.21 122.02 173.16C121.38 172.7 120.74 172.23 120.1 171.77C118.82 170.84 117.53 169.91 116.25 168.99C115.43 168.4 114.6 167.8 113.78 167.21C113.01 166.65 112.24 166.1 111.47 165.54C109.37 164.02 107.26 162.5 105.15 160.99C101.6 158.44 98.05 155.9 94.49 153.36C92.97 152.27 91.45 151.19 89.93 150.1C86.92 147.95 83.9 145.81 80.88 143.67C78.37 141.89 75.87 140.12 73.36 138.35C71.08 136.74 68.8 135.13 66.52 133.52C61.53 130.01 56.54 126.5 51.54 123.01C38.82 114.13 26.06 105.32 13.26 96.5598C12.67 97.6398 12.09 98.7198 11.52 99.8098C67.6 138.17 122.89 177.69 177.3 218.39C183.37 222.93 189.42 227.5 195.47 232.07C145.18 204.22 93.98 178.03 41.95 153.59C28.1 147.08 14.18 140.7 0.209961 134.44C0.259961 135.85 0.409961 137.25 0.649961 138.63C44.48 158.33 87.7599 179.24 130.43 201.35C134.35 203 138.21 204.77 142.01 206.74C145.8 208.71 149.45 210.91 153.03 213.2C161.08 217.47 169.12 221.79 177.12 226.15C183.24 229.48 189.34 232.85 195.44 236.24C197.83 236.77 200.3 237.02 202.64 236.64C203.95 236.43 205.23 236.03 206.44 235.37C205.37 233.5 204.32 231.62 203.29 229.73C203.25 229.65 203.21 229.58 203.17 229.5C200.09 223.87 197.16 218.17 194.37 212.41C193.05 209.69 191.76 206.97 190.5 204.22C190.27 203.71 190.04 203.2 189.81 202.68C189.81 202.66 189.79 202.64 189.78 202.62C186.25 194.85 182.95 186.97 179.82 179.02C179.82 179.02 179.8 178.97 179.79 178.94C175.66 168.41 171.84 157.74 168.24 146.98C158.67 118.39 150.63 89.1998 142.28 60.4098C141.81 58.7898 141.34 57.1798 140.87 55.5598C140.79 55.2698 140.7 54.9898 140.62 54.6998C139.67 51.4198 138.72 48.1298 137.76 44.8498C134.32 32.9998 130.88 21.1498 127.44 9.2998C127.31 9.3298 127.18 9.3598 127.05 9.3898C126.01 9.6398 124.95 9.8998 123.88 10.1598C131.8 37.4998 139.67 64.8598 147.68 92.1798C147.93 93.0398 148.19 93.9098 148.44 94.7698C148.9 96.3298 149.36 97.8998 149.82 99.4598C150.4 101.43 150.97 103.4 151.55 105.36C151.67 105.77 151.8 106.19 151.92 106.6C152.13 107.32 152.35 108.04 152.56 108.76C152.64 109.04 152.73 109.33 152.81 109.61C154.61 115.66 156.43 121.7 158.3 127.73C158.41 128.08 158.52 128.43 158.63 128.78C158.74 129.15 158.86 129.51 158.97 129.88C159.58 131.83 160.19 133.77 160.81 135.71C162 139.46 163.22 143.21 164.46 146.95C169.94 163.46 175.91 179.8 182.76 195.81C186.54 204.64 190.6 213.35 194.97 221.9C182.76 205.89 172.18 188.6 161.32 171.7C161.21 171.52 161.09 171.34 160.98 171.16C157.85 166.29 154.72 161.42 151.59 156.56C150.55 154.94 149.51 153.33 148.47 151.71C147.83 150.71 147.18 149.71 146.54 148.71C145.47 147.05 144.4 145.38 143.33 143.72C143.02 143.23 142.7 142.74 142.39 142.26C134.48 129.96 126.56 117.65 118.65 105.35C118.6 105.27 118.54 105.18 118.49 105.1C117.35 103.32 116.2 101.54 115.06 99.7598C113.24 96.9298 111.42 94.1098 109.61 91.2798C103.72 82.1198 97.83 72.9698 91.95 63.8098C91.9 63.8598 91.84 63.9098 91.79 63.9598C90.93 64.7598 89.81 65.1998 88.43 65.0798L129.21 128.49C146.13 154.8 162.63 181.44 180.15 207.36C181.77 209.76 183.42 212.14 185.09 214.5C147.04 172.94 109.77 130.67 73.34 87.6798C63.24 75.7598 53.22 63.7698 43.24 51.7398C42.29 52.2998 41.36 52.9298 40.44 53.6698C40.37 53.7198 40.31 53.7798 40.24 53.8398C45.49 60.1698 50.76 66.4898 56.05 72.7998V72.8398Z" fill="#DD9900"/>
<path d="M170.25 14.3304C170.26 14.4604 170.28 14.5904 170.29 14.7204C170.74 18.9204 171.2 23.1203 171.67 27.3204C172.84 37.6804 174.1 48.0303 175.45 58.3703C175.64 59.8303 175.84 61.3004 176.03 62.7603C176.12 63.4503 176.22 64.1503 176.31 64.8403C176.44 65.8103 176.57 66.7803 176.7 67.7504C176.73 67.9404 176.75 68.1303 176.78 68.3204C176.99 69.8604 177.2 71.4003 177.41 72.9503C177.48 73.4604 177.55 73.9604 177.62 74.4704C178.3 79.3503 179.01 84.2203 179.73 89.0903C179.84 89.8003 179.94 90.5104 180.05 91.2204C180.79 96.1404 181.54 101.07 182.31 105.99C182.93 109.9 183.56 113.8 184.2 117.7C184.44 119.18 184.7 120.66 184.94 122.15C186.88 133.74 188.94 145.32 191.11 156.87C193.08 167.34 195.13 177.79 197.28 188.23C197.3 188.34 197.33 188.45 197.35 188.56C197.51 189.34 197.68 190.13 197.84 190.91C198.09 192.12 198.35 193.33 198.6 194.54C198.77 195.33 198.93 196.12 199.1 196.92C199.33 198 199.55 199.08 199.78 200.16C199.89 200.65 200 201.15 200.1 201.64C200.25 202.33 200.4 203.03 200.55 203.72C200.78 204.79 201.02 205.87 201.25 206.94C202.61 213.16 204 219.38 205.42 225.58C206.12 228.61 206.81 231.65 207.52 234.68C208.37 234.06 209.1 233.3 209.72 232.45C209.99 232.07 210.25 231.69 210.47 231.28C196.47 171.12 185.54 110.26 177.84 48.9704C175.83 32.9604 174.06 16.9204 172.48 0.860352C171.27 1.06035 170.07 1.27035 168.88 1.46035C169.3 5.75035 169.74 10.0404 170.2 14.3304H170.25Z" fill="#DD9900"/>
<path d="M170 207.72C169.84 207.68 169.68 207.64 169.52 207.61C169.38 207.65 169.24 207.71 169.11 207.79C169.68 208.21 170.24 208.64 170.81 209.06C170.59 208.61 170.49 207.86 170 207.73V207.72Z" fill="#FCB400"/>
<path d="M165.04 199.21C164.05 199.76 164.67 200.46 165.29 200.97C165.62 201.24 165.97 201.49 165.7 201.98C165.48 202.38 165.05 202.65 164.66 202.51C163.67 202.14 162.86 202.28 162.16 202.64C164.06 204.05 165.97 205.45 167.86 206.86C168.23 206.11 168.64 205.49 170.02 206.1C170.29 206.29 170.61 206.44 170.82 206.69C171.43 207.44 172.52 208.57 171.68 209.19C171.5 209.32 171.36 209.38 171.25 209.39C173.2 210.84 175.15 212.3 177.09 213.75C177.13 213.71 177.18 213.67 177.22 213.62C177.45 213.78 177.75 213.87 177.79 214.03C177.81 214.13 177.81 214.2 177.79 214.27C177.88 214.34 177.97 214.41 178.06 214.47C178.39 214.71 178.71 214.96 179.04 215.2C179.27 215.2 179.52 215.23 179.64 215.32C179.99 215.57 180.21 215.85 180.32 216.16C180.52 216.31 180.72 216.46 180.92 216.61C181 216.67 181.08 216.73 181.16 216.79C181.16 216.44 181.28 216.19 181.48 216.02C179.23 213.57 176.98 211.11 174.74 208.66C174.84 208.89 174.95 209.12 175.07 209.37C173.26 208.67 172.94 207.5 172.67 206.4C172.38 206.08 172.09 205.76 171.8 205.44C169.76 203.19 167.73 200.94 165.7 198.69C165.55 198.88 165.34 199.05 165.04 199.22V199.21Z" fill="#FCB400"/>
<path d="M128.85 169.45C127.84 169.87 127.15 170.78 126.95 171.67C126.58 173.25 125.69 174.25 124.6 175.06C130.08 179.04 135.54 183.03 141 187.03C146.46 191.03 151.9 195.04 157.34 199.06C157.38 199.06 157.42 199.06 157.46 199.06C158.49 199.23 159.44 199.55 159.97 200.56C161.87 201.16 163.08 200.78 163.31 198.51C163.38 197.85 163.79 197.42 164.35 197.17C159.74 192.07 155.14 186.96 150.55 181.85C150.01 181.25 149.48 180.65 148.94 180.05C144.68 175.3 140.44 170.54 136.2 165.77C134.39 167.09 132.77 168.66 131.07 170.14C130.24 170.87 129.36 170.41 128.84 169.44L128.85 169.45ZM129.76 174.52C128.79 175.16 128.28 174.19 127.61 174.02C128.54 173.31 129.25 173.42 129.76 174.52ZM151.04 193.58C151.15 193.06 151.46 192.73 152.03 192.71C152.45 192.84 152.79 193.08 152.76 193.53C152.72 194.22 152.24 194.51 151.61 194.45C151.12 194.4 150.95 194.03 151.04 193.57V193.58Z" fill="#FCB400"/>
<path d="M182.99 217.66C182.85 217.66 182.71 217.66 182.56 217.66C182.48 217.66 182.39 217.65 182.3 217.65C182.58 217.86 182.85 218.06 183.13 218.27C183.2 218.2 183.27 218.14 183.34 218.05C183.22 217.92 183.11 217.8 182.99 217.67V217.66Z" fill="#FCB400"/>
<path d="M121.5 172.81C121.67 172.93 121.84 173.06 122.01 173.18C122.08 173.23 122.16 173.29 122.23 173.34C121.99 173.01 121.75 172.81 121.5 172.81Z" fill="#FCB400"/>
<path d="M118.41 152.12C117.55 152.01 116.65 151.6 115.8 150.88C115.16 151.15 114.5 151.36 113.83 151.53C114.5 151.37 115.16 151.15 115.8 150.88C116.66 151.6 117.55 152.01 118.41 152.12Z" fill="#FCB400"/>
<path d="M30.1998 66.4001C26.7298 72.1401 23.4698 78.0301 20.2498 83.9101C17.9698 88.0801 15.5798 92.3001 13.2598 96.5801C26.0598 105.34 38.8198 114.15 51.5398 123.03C56.5398 126.52 61.5298 130.03 66.5198 133.54C68.7998 135.15 71.0798 136.76 73.3598 138.37C75.8698 140.14 78.3798 141.92 80.8798 143.69C83.8998 145.83 86.9098 147.98 89.9298 150.12C91.4498 151.2 92.9698 152.29 94.4898 153.38C98.0398 155.92 101.6 158.46 105.15 161.01C105.15 161.01 105.22 160.94 105.25 160.91C105.42 160.58 105.59 160.25 105.77 159.92C106.4 158.15 106.03 155.87 108.27 154.91C109.75 154.25 110.16 152.37 111.78 151.88C113.38 150.68 115.75 150.09 115.44 147.34C116.68 147.42 117.67 146.64 118.81 146.36C118.93 146.38 119.05 146.41 119.16 146.44C114.6 141.23 110.04 136.02 105.5 130.79C104.66 131.23 103.85 131.81 102.96 130.83C102.41 130.22 103.17 129.6 103.64 129.15C103.72 129.07 103.8 128.99 103.88 128.9C103.87 128.89 103.86 128.88 103.85 128.86C93.1198 116.48 82.4498 104.05 71.8598 91.5601C71.7398 91.4201 71.6198 91.2701 71.4898 91.1301C66.3298 85.0401 61.1798 78.9401 56.0498 72.8301C50.7598 66.5301 45.4898 60.2101 40.2398 53.8701C39.6798 54.3301 39.1398 54.8101 38.6098 55.3101C35.2398 58.5101 32.5898 62.4401 30.1998 66.3901V66.4001ZM90.6698 140.6C90.3998 140.5 90.0698 140.34 89.9398 140.11C89.7698 139.81 89.8798 139.42 90.3298 139.51C90.5998 139.57 90.8298 139.85 91.1498 140.08C90.9398 140.32 90.7398 140.62 90.6698 140.6Z" fill="#FCB400"/>
<path d="M121.66 169.18C121.23 167.65 122.36 167.54 123.13 167.52C124.67 167.48 124.97 166.71 124.83 165.44C124.16 165.44 123.5 165.43 122.83 165.42C121.51 165.24 120.41 165.85 119.31 166.43C119.04 168.15 117.73 168.62 116.3 168.94C116.28 168.96 116.26 168.98 116.24 169C117.52 169.93 118.81 170.86 120.09 171.78C121.09 171.05 121.88 169.97 121.65 169.16L121.66 169.18Z" fill="#FCB400"/>
<path d="M116.13 166.21C116.51 166.02 116.76 165.65 116.58 165.17C116.41 164.74 115.85 164.37 115.63 164.62C114.41 166.07 113.04 164.62 111.79 164.92C111.66 165.12 111.56 165.33 111.47 165.56C112.24 166.12 113.01 166.67 113.78 167.23C113.78 167.23 113.83 167.2 113.86 167.19C114.58 166.79 115.4 166.58 116.14 166.21H116.13Z" fill="#FCB400"/>
<path d="M152.79 109.64C152.79 109.64 152.8 109.64 152.81 109.64C152.73 109.36 152.64 109.07 152.56 108.79C152.48 109.13 152.49 109.43 152.79 109.64Z" fill="#FCB400"/>
<path d="M158.33 163.85C158.33 163.19 158.33 162.53 158.32 161.86C157.15 160.83 155.56 160.82 154.2 160.12C154.2 160.29 154.19 160.45 154.17 160.6C155.59 162.82 157.02 165.03 158.44 167.25C158.93 166.82 159.24 166.21 159.33 165.38C157.77 165.68 157.75 164.96 158.33 163.86V163.85Z" fill="#FCB400"/>
<path d="M170.89 166.38C170.46 165.94 170.14 165.33 169.77 164.79C170.14 165.33 170.46 165.95 170.89 166.38Z" fill="#FCB400"/>
<path d="M151.59 156.59C151.66 156.34 151.72 156.09 151.79 155.84C151.72 156.09 151.66 156.34 151.59 156.59Z" fill="#FCB400"/>
<path d="M158.82 144.79C158.53 144.68 158.1 144.45 157.87 144.39C158.11 144.45 158.54 144.68 158.82 144.79Z" fill="#FCB400"/>
<path d="M164.6 160.26C164.85 160.37 165.1 160.44 165.34 160.45C165.1 160.44 164.85 160.37 164.6 160.26Z" fill="#FCB400"/>
<path d="M163.83 159.86C164.09 160.01 164.35 160.15 164.6 160.26C164.35 160.15 164.09 160.01 163.83 159.86C163.67 160.16 163.42 160.28 163.14 160.33C163.42 160.28 163.67 160.16 163.83 159.86Z" fill="#FCB400"/>
<path d="M165.87 163.86C166 164.33 166.15 164.79 166.25 165.26C166.15 164.79 166 164.32 165.88 163.86H165.87Z" fill="#FCB400"/>
<path d="M169.9 167.29C170.23 167.2 170.54 167.05 170.85 166.86C170.85 166.7 170.87 166.54 170.89 166.38C170.87 166.54 170.86 166.7 170.85 166.86C170.54 167.05 170.23 167.2 169.9 167.29Z" fill="#FCB400"/>
<path d="M150.26 104.63C150.44 104.96 150.61 105.29 150.79 105.62C151.12 105.95 151.46 106.28 151.79 106.62C151.84 106.62 151.87 106.63 151.92 106.64C151.8 106.23 151.67 105.81 151.55 105.4C151.4 104.89 151.25 104.38 151.1 103.87C150.81 104.1 150.58 104.44 150.26 104.64V104.63Z" fill="#FCB400"/>
<path d="M138.24 105.11C135.69 104.54 137.1 102.49 136.73 101.1C136.18 100.36 135.62 100.94 135.01 100.98C133.88 101.04 132.25 102.33 131.71 100.1C130.54 100.6 130.71 101.64 130.7 102.61C131.78 102.56 132.63 102.82 132.71 104.11C134.85 105.77 132.6 107.83 133.21 109.64C133.66 109.69 134.02 110.97 134.46 109.98C135.22 108.27 137.04 108.17 138.22 107.13C138.24 106.72 138.32 106.34 138.72 106.12C138.72 105.7 138.64 105.33 138.23 105.1L138.24 105.11Z" fill="#FCB400"/>
<path d="M135.71 90.2002C135.69 90.6902 135.76 91.1702 136.22 91.5702C135.76 91.1702 135.7 90.6902 135.71 90.2002Z" fill="#FCB400"/>
<path d="M138.73 93.1104C138.7 93.9304 138.67 94.7604 138.74 95.5804C138.9 95.5804 139.06 95.5903 139.23 95.6003C139.07 95.6003 138.91 95.5904 138.74 95.5804C138.67 94.7604 138.7 93.9404 138.73 93.1104Z" fill="#FCB400"/>
<path d="M127.19 103.12C126.45 103.89 125.65 103.79 125.04 103.07C124.51 102.45 124.5 101.69 125.26 101.11C125.64 100.82 126.09 100.63 125.5 99.9996C123.58 97.9596 125.42 98.1996 126.69 98.1096C127.69 97.8296 127.92 97.4496 126.74 97.1296C125.47 96.7896 124.14 96.6196 123.69 95.0896C123.64 94.3596 123.88 93.5296 123.23 92.9796C121.93 91.8796 122.57 91.3596 123.78 90.9996C124.41 90.8196 125.05 90.6996 125.69 90.5596C125.87 90.1096 126.66 90.0296 126.5 89.4196C126.28 88.5896 125.64 88.9296 125.08 89.0196C123.97 89.1996 123.05 89.0396 123.18 87.5596C122.25 87.9596 121.05 90.2796 120.57 87.1896C120.55 87.0696 119.65 87.0996 119.17 87.0596C119.34 87.3896 119.51 87.7296 119.68 88.0596C119.54 88.3196 119.4 88.5796 119.2 88.7396C119.4 88.5796 119.54 88.3096 119.68 88.0596C120.08 89.7196 119.09 91.7596 121.05 93.0196C121.27 93.1596 121.14 93.7996 120.82 93.8296C118.53 94.0296 120.52 95.3896 120.18 96.0996C120.18 98.1796 120.48 100.19 121.74 101.93C122.44 102.9 122.19 103.6 121.18 104.12C121.51 105.99 122.15 107.05 124.02 105.29C124.26 105.07 124.8 105.17 125.19 105.12C126.19 103.74 127.2 106.14 128.2 105.12C128.2 104.96 128.2 104.8 128.22 104.63C128.22 104.12 128.22 103.62 128.22 103.11C127.88 102.55 127.55 103.08 127.21 103.11L127.19 103.12Z" fill="#FCB400"/>
<path d="M148.18 94.7298C147.75 96.2098 146.65 95.4198 145.75 95.0898C143.84 94.3698 142.64 95.0498 142.26 97.0998C142.14 97.7498 142.08 98.1298 141.32 98.5498C140.24 99.1498 140.31 100.65 141.51 100.97C143.08 101.4 143.44 102.65 144.24 103.64C144.24 103.97 144.24 104.3 144.24 104.62C144.41 104.96 144.58 105.3 144.74 105.64C144.75 106.05 144.84 106.42 145.23 106.64C146.15 106.04 147.03 105.6 146.21 104.12C145.84 103.44 146.52 102.06 147.41 101.78C148.42 101.46 148.77 102.39 148.43 103.94C149.24 103 149.8 102.35 150.54 102.04C150.45 101.75 150.37 101.45 150.28 101.16C149.39 100.64 148.39 100.15 149.8 99.5098C149.34 97.9498 148.88 96.3798 148.42 94.8198C148.37 94.6298 148.31 94.4498 148.26 94.2598C148.24 94.4198 148.2 94.5798 148.16 94.7398L148.18 94.7298Z" fill="#FCB400"/>
<path d="M150.03 153.83C152.28 155.03 154 154.4 155.3 152.32V152.3C155.14 151.47 154.97 150.64 154.81 149.81C153.55 148.98 152.55 147.64 150.79 147.77C151.15 147.41 151.55 147.14 151.98 146.93C151.55 147.14 151.15 147.41 150.79 147.77C150.29 147.61 149.79 147.45 149.28 147.29C148.61 146.95 147.94 146.62 147.27 146.28C146.85 146.88 147.41 147.74 146.77 148.29C146.68 148.43 146.61 148.58 146.55 148.73C147.19 149.73 147.84 150.73 148.48 151.73C148.93 152.42 149.37 153.12 149.82 153.81C149.9 153.81 149.98 153.79 150.04 153.82L150.03 153.83Z" fill="#FCB400"/>
<path d="M134.75 127.7C134.75 127.24 134.92 126.91 135.41 126.81C135.66 126.83 135.85 126.9 135.97 127.03C135.85 126.9 135.66 126.83 135.41 126.81C134.92 126.91 134.75 127.24 134.75 127.7Z" fill="#FCB400"/>
<path d="M120.66 106.63L120.65 106.64L120.66 106.63Z" fill="#FCB400"/>
<path d="M133.22 115.15C133.15 114.89 133.09 114.64 133.03 114.38C133.09 114.64 133.16 114.89 133.22 115.15C133.31 115.31 133.45 115.38 133.61 115.4C133.45 115.38 133.31 115.31 133.22 115.15Z" fill="#FCB400"/>
<path d="M165.34 153.83C165.66 153.47 165.74 153.16 165.69 152.9C165.74 153.17 165.66 153.47 165.34 153.83Z" fill="#FCB400"/>
<path d="M147.51 106.32C147.02 106.77 146.49 107.14 145.76 107.16C146.49 107.15 147.03 106.78 147.51 106.32Z" fill="#FCB400"/>
<path d="M146.77 112.64C146.93 112.64 147.09 112.64 147.25 112.64C147.5 112.14 147.83 111.87 148.23 111.74C147.83 111.86 147.5 112.13 147.25 112.64C147.09 112.64 146.93 112.64 146.77 112.64Z" fill="#FCB400"/>
<path d="M145.75 107.16C145.59 107.14 145.43 107.13 145.26 107.13C145.26 107.02 145.25 106.91 145.25 106.81C145.25 106.92 145.25 107.03 145.26 107.13C145.42 107.13 145.58 107.15 145.75 107.16Z" fill="#FCB400"/>
<path d="M141.56 139.07C141.48 139.49 141.39 139.9 141.23 140.26C141.39 139.89 141.48 139.48 141.56 139.07Z" fill="#FCB400"/>
<path d="M93.2098 24.9004C90.0498 28.7904 87.9398 33.7404 88.2398 38.8104C88.5898 44.8804 92.3098 49.8004 93.5798 55.6004C94.2498 58.6804 93.6898 62.0404 91.9398 63.8304C97.8298 72.9804 103.71 82.1404 109.6 91.3004C111.42 94.1304 113.24 96.9504 115.05 99.7804C115.18 99.4304 115.37 99.0804 115.63 98.7204C116.44 99.8204 116.25 101.5 117.65 102.12C118.46 101.41 118.01 100.45 118.15 99.6004C118.23 97.6704 116.21 97.6404 114.83 96.2304C116.78 96.6204 117.46 96.0504 117.14 94.5804C117.45 91.8204 115.49 89.3404 116.14 86.5404C116.51 85.4004 114.14 84.7904 115.27 83.9104C116.66 82.8304 117.98 84.1704 119.15 85.0404C121.7 86.3504 124.46 86.0304 127.18 86.0504C127.37 85.5704 127.7 85.2304 128.18 85.0404C128.43 84.6404 129.04 83.9604 129.21 84.4904C130.27 87.7204 132.91 86.9304 135.21 87.0504C136.15 86.2004 136.7 85.1204 137.06 83.1804C138.45 86.5504 140.95 88.7904 140.37 92.2304C140.16 93.4604 140.23 94.4104 141.74 94.5804C143.36 93.8604 142.47 92.4804 142.43 91.0204C143.88 91.7504 145.23 91.3804 146.51 91.6404C147.02 91.7404 147.4 91.9504 147.68 92.2104C139.68 64.8904 131.81 37.5304 123.88 10.1904C114.23 12.5204 103.38 15.2504 95.9798 21.9804C94.9898 22.8804 94.0498 23.8504 93.1998 24.9004H93.2098ZM138.36 83.0604C137.12 83.2204 136.8 81.1004 136.5 79.9604C136.27 79.1104 137.4 78.5404 138.41 78.5304C138.99 78.5304 139.56 78.5504 139.59 79.4904C138.04 80.3404 140.4 82.8104 138.36 83.0704V83.0604Z" fill="#FCB400"/>
<path d="M158.89 129.94C157.55 130.36 157.45 133.21 155.3 131.74C154.82 132.08 154.79 132.53 154.96 133.04C155.5 134.63 155.11 135.12 153.54 134.25C152.26 133.54 151.95 135.58 150.79 135.25C150.87 136.9 150.9 138.08 148.49 138.33C147.01 138.48 145.51 139.73 143.77 139.77C143.6 139.77 143.43 139.77 143.26 139.77C143.43 139.77 143.6 139.77 143.77 139.77C143.96 140.9 143.07 141.54 142.4 142.28C142.71 142.77 143.03 143.26 143.34 143.74C143.41 143.85 143.48 143.95 143.55 144.06C144.79 144.12 146.03 144.48 147.27 144.28C148.27 144.44 149.28 144.61 150.28 144.77C151.29 144.18 153.42 145.19 153.1 142.6C153.03 142.06 154.52 142.36 155.3 142.31C155.83 141.35 154.79 139.16 157.3 139.76C157.64 139.76 157.98 139.76 158.33 139.76C158.73 139.55 158.81 139.17 158.83 138.77C159.92 137.98 159.36 135.76 160.63 135.72C160.69 135.72 160.76 135.72 160.81 135.74C160.19 133.8 159.58 131.85 158.97 129.91C158.97 129.91 158.97 129.91 158.97 129.9C158.95 129.91 158.92 129.92 158.89 129.93V129.94Z" fill="#FCB400"/>
<path d="M117.71 103.9C117.97 104.31 118.23 104.71 118.49 105.12C118.54 105.2 118.6 105.29 118.65 105.37V104.63C118.35 104.26 118.04 104.03 117.71 103.9Z" fill="#FCB400"/>
<path d="M119.68 104.53C120.01 104.44 120.33 104.29 120.64 104.11C120.64 103.95 120.65 103.79 120.66 103.62C120.66 103.78 120.65 103.94 120.64 104.11C120.33 104.29 120.01 104.44 119.68 104.53Z" fill="#FCB400"/>
<path d="M162.82 161.35C162.82 161.57 162.82 161.78 162.83 161.98C162.81 161.78 162.81 161.57 162.82 161.35Z" fill="#FCB400"/>
<path d="M158.63 128.83C158.52 128.48 158.41 128.13 158.3 127.78C158.3 127.93 158.3 128.07 158.3 128.22C158.33 128.42 158.47 128.64 158.64 128.85L158.63 128.83Z" fill="#FCB400"/>
<path d="M164.46 146.99C163.92 147.26 163.37 147.54 162.83 147.81C163.37 147.54 163.92 147.26 164.46 146.99Z" fill="#FCB400"/>
<path d="M163.32 170.88C163.34 170.23 163.68 169.9 164.32 169.86C164.49 169.7 164.66 169.54 164.82 169.38C164.88 167.69 163.26 166.51 162.43 166.64C161.33 166.82 159.62 166.84 159.03 168.17C159.68 169.18 160.33 170.19 160.98 171.2C161.09 171.38 161.21 171.56 161.32 171.74C161.9 171.33 162.74 171.33 163.31 170.9L163.32 170.88Z" fill="#FCB400"/>
<path d="M156.31 121.36C156.31 121.47 156.3 121.58 156.29 121.69C155.46 121.69 154.63 121.69 153.8 121.69C154.63 121.69 155.46 121.69 156.29 121.69C156.29 121.58 156.3 121.47 156.31 121.36Z" fill="#FCB400"/>
<path d="M158.29 127.73C157.57 127.71 157.09 127.55 156.77 127.3C157.09 127.55 157.57 127.71 158.29 127.73Z" fill="#FCB400"/>
<path d="M162.83 147.81C162.32 147.8 161.89 147.66 161.53 147.46C161.9 147.67 162.32 147.8 162.83 147.81Z" fill="#FCB400"/>
<path d="M152.55 131.49C151.95 131.81 151.47 132.32 151.27 133.25C151.47 132.32 151.95 131.82 152.55 131.49Z" fill="#FCB400"/>
<path d="M190.9 157.42C190.9 157.26 190.9 157.11 190.92 156.96C190.99 156.92 191.06 156.89 191.12 156.85C191.05 156.89 190.98 156.92 190.92 156.96C190.9 157.11 190.9 157.26 190.9 157.42Z" fill="#FCB400"/>
<path d="M188.39 142.39C188.39 142.51 188.38 142.62 188.35 142.72C188.37 142.62 188.39 142.51 188.39 142.39Z" fill="#FCB400"/>
<path d="M192.41 177.53C192.05 177.98 191.79 178.59 191.48 179.12C191.79 178.6 192.04 177.98 192.41 177.54V177.53Z" fill="#FCB400"/>
<path d="M178.75 153.54C178.58 153.37 178.45 153.17 178.35 152.93C178.14 152.93 177.95 152.9 177.77 152.82C177.94 152.89 178.14 152.92 178.35 152.93C178.45 153.17 178.58 153.37 178.75 153.54Z" fill="#FCB400"/>
<path d="M169.08 116.05C168.72 115.31 168.21 114.67 167.31 114.27C168.21 114.67 168.72 115.31 169.08 116.05Z" fill="#FCB400"/>
<path d="M176.35 139.87C176.17 139.66 175.98 139.54 175.78 139.46C175.98 139.54 176.18 139.66 176.35 139.87Z" fill="#FCB400"/>
<path d="M173.12 157.4C173.26 157.97 173.96 158.79 174.83 158.96C174.9 159.31 174.91 159.63 174.86 159.92C174.91 159.63 174.9 159.31 174.83 158.96C173.95 158.8 173.25 157.98 173.12 157.4Z" fill="#FCB400"/>
<path d="M186.89 142.39C186.72 142.39 186.55 142.39 186.38 142.39C186.21 141.76 186.02 141.14 185.88 140.51C186.02 141.14 186.21 141.77 186.38 142.39C186.55 142.39 186.72 142.39 186.89 142.39Z" fill="#FCB400"/>
<path d="M199.94 205.14C200.26 206.42 200.86 207.47 201.61 208.39C201.5 207.9 201.4 207.42 201.29 206.93C201.06 205.86 200.82 204.78 200.59 203.71C200.14 203.85 199.9 204.3 199.94 205.14Z" fill="#FCB400"/>
<path d="M187.38 186.57L187.4 186.56L187.38 186.57Z" fill="#FCB400"/>
<path d="M186.38 181.04C186.22 181.04 186.06 181.04 185.9 181.05C186.06 181.05 186.22 181.05 186.38 181.04Z" fill="#FCB400"/>
<path d="M205.46 225.58C205.18 225.58 204.89 225.45 204.6 225.29C203.38 224.6 202.16 223.91 200.95 223.22C200.7 223.47 200.45 223.73 200.2 223.98C201.17 225.83 202.16 227.68 203.17 229.52C203.21 229.6 203.25 229.67 203.29 229.75C204.32 231.64 205.37 233.52 206.44 235.39C206.54 235.34 206.64 235.29 206.74 235.23C207.03 235.06 207.3 234.87 207.57 234.67C206.86 231.64 206.16 228.61 205.47 225.57L205.46 225.58Z" fill="#FCB400"/>
<path d="M182.38 122.32C183.21 122.32 184.03 122.3 184.86 122.29C184.88 122.23 184.93 122.18 184.96 122.13C184.93 122.18 184.89 122.23 184.86 122.29C184.03 122.29 183.2 122.31 182.38 122.32Z" fill="#FCB400"/>
<path d="M185.87 188.1C185.71 188.08 185.55 188.07 185.4 188.07C185.56 188.07 185.72 188.09 185.87 188.1C186.3 188.37 186.67 188.74 187.05 189.09C186.67 188.74 186.29 188.37 185.87 188.1Z" fill="#FCB400"/>
<path d="M186.9 170.01C186.57 170.12 186.22 170.16 185.86 170.19C186.22 170.16 186.57 170.11 186.9 170.01Z" fill="#FCB400"/>
<path d="M163.64 105.57C163.7 105.46 163.76 105.35 163.82 105.24C163.76 105.35 163.7 105.46 163.64 105.57Z" fill="#FCB400"/>
<path d="M187.39 151.42C186.89 151.75 186.38 152.08 185.88 152.41C185.55 152.25 185.22 152.08 184.89 151.92C185.22 152.08 185.55 152.25 185.88 152.41C186.38 152.08 186.89 151.75 187.39 151.42Z" fill="#FCB400"/>
<path d="M177.43 172.85C178.24 172.73 179.04 172.62 179.85 172.5C179.04 172.62 178.24 172.73 177.43 172.85Z" fill="#FCB400"/>
<path d="M166.29 44.9996C166.27 44.7696 166.28 44.5696 166.31 44.3896C166.28 44.5696 166.27 44.7696 166.29 44.9996Z" fill="#FCB400"/>
<path d="M158.27 75.1196C157.77 75.9496 157.27 76.7796 156.76 77.6196C157.51 79.2996 158.73 78.1996 159.77 78.1196C161.88 76.8996 163.47 74.7396 166.18 74.5996C166.9 74.5596 167.92 74.7196 167.65 73.5396C167.46 72.7196 166.62 71.7796 165.84 72.2496C164.02 73.3596 162.44 72.7196 160.78 72.0996C159.97 73.1296 159.55 74.4896 158.27 75.1196Z" fill="#FCB400"/>
<path d="M151.25 58.04C152.36 58.05 153.04 59.36 154.26 59.04C154.3 57.69 155.52 56.83 156.29 56.53C158.19 55.78 157.58 57.6 157.78 58.53C159.01 57.96 160.03 57.54 159.48 55.63C158.97 53.87 160.25 52.47 161.79 51.51C161.81 52.33 161.85 53.15 161.87 53.96C161.84 53.14 161.81 52.32 161.79 51.51C161.79 51.18 161.79 50.85 161.79 50.51C161.01 50.03 160.16 49.96 159.27 50C158.77 50.14 158.27 50.81 157.77 50.01C157.03 49.96 156.27 50.02 155.56 49.85C153.79 49.42 152.85 50.58 152.9 51.86C152.98 54.09 151.7 54.01 150.25 54.04C149.58 54.96 148.82 55.86 149.75 57.04C150.47 57.04 151.89 56 151.25 58.04Z" fill="#FCB400"/>
<path d="M163.78 63.0498C163.79 63.2098 163.83 63.3398 163.87 63.4598C163.83 63.3498 163.8 63.2198 163.78 63.0498Z" fill="#FCB400"/>
<path d="M170.93 76.9304C168.99 76.5804 168.16 77.3004 167.31 78.6204C168.12 79.1304 168.79 79.6804 167.81 80.6404C166.06 81.5204 164.21 81.0504 162.43 80.8804C161.55 80.8004 160.67 80.6604 159.78 80.6304C159.75 80.8404 159.61 81.1304 159.69 81.2404C161.34 83.3304 160.2 83.7204 158.25 83.6404C157.92 83.6304 157.59 83.6404 157.27 83.6404C158.85 84.6604 161 85.0104 161.65 87.4204C160.43 87.1704 159.3 86.8604 158.16 86.7204C156.92 86.5704 155.76 86.4404 155.13 88.1104C154.45 89.9104 152.7 89.0104 151.38 89.0604C151.06 89.0704 150.83 88.7204 150.86 88.3304C150.89 87.9304 151.18 87.7704 151.51 87.6704C152.49 87.3704 153.28 86.7904 154.06 86.1404C154.87 85.4704 155.92 85.2504 154.54 83.8904C153.64 83.0004 154.92 82.1804 155.76 81.6204C157.12 80.9704 156.3 80.3504 155.69 79.8204C155.2 79.4004 154.81 78.3704 153.93 79.2204C153.3 79.8204 152.64 80.2204 151.74 80.1204C151.4 80.2904 151.07 80.4504 150.73 80.6204C149.68 81.7204 148.85 82.8704 149.4 84.5404C149.47 84.7504 149.48 85.0204 149.43 85.2504C150.88 90.3004 152.34 95.3604 153.82 100.42C154.77 100.5 155.83 100.34 156.93 99.8804C158.37 99.2704 158.23 99.7604 158.28 100.7C159.62 101.08 160.95 102.6 162.26 100.42C162.61 99.8304 163.97 100.97 164.79 100.19C165.11 99.7404 165.14 98.9104 165.84 98.9704C166.5 99.0304 166.22 99.7504 166.3 100.21C166.3 100.37 166.31 100.54 166.32 100.7C166.89 100.68 167.71 100.91 168.01 100.61C170.68 97.9604 170.97 100.73 171.83 102.22C173.12 103.45 174.82 104.22 175.88 105.72H175.82H175.88C176.6 105.64 177.24 105.89 177.86 106.22C179 106.49 180.08 105.71 181.4 106.39C181.86 106.62 182.17 106.39 182.34 105.96C181.56 101.04 180.81 96.1204 180.08 91.1904C179.97 90.4804 179.87 89.7704 179.76 89.0604C179.04 84.1904 178.33 79.3204 177.65 74.4404C177.65 74.4404 177.65 74.4404 177.65 74.4504C175.91 76.6404 173.43 77.3604 170.96 76.9004L170.93 76.9304ZM168.28 87.4304C168.01 87.3304 167.68 87.1704 167.55 86.9404C167.38 86.6404 167.49 86.2504 167.94 86.3504C168.21 86.4104 168.43 86.6904 168.75 86.9204C168.54 87.1604 168.34 87.4604 168.27 87.4304H168.28Z" fill="#FCB400"/>
<path d="M146.22 55.5303C146.09 55.8103 145.92 56.0203 145.7 56.1803C145.92 56.0203 146.09 55.8003 146.22 55.5303Z" fill="#FCB400"/>
<path d="M144.9 64.3099C145.26 64.0899 145.69 64.0099 146.21 64.0599C146.43 63.9199 146.65 63.7699 146.87 63.6299C146.65 63.7699 146.43 63.9199 146.21 64.0599C145.69 64.0099 145.26 64.0899 144.9 64.3099Z" fill="#FCB400"/>
<path d="M145.76 47.5803C145.61 47.3503 145.46 47.1303 145.22 46.9903C145.04 46.6803 144.9 46.3603 144.81 46.0303C144.9 46.3603 145.05 46.6803 145.22 46.9903C145.45 47.1303 145.61 47.3503 145.76 47.5803Z" fill="#FCB400"/>
<path d="M171.33 39.4502C171.44 39.6402 171.55 39.8202 171.65 40.0102C171.55 39.8202 171.44 39.6302 171.33 39.4502Z" fill="#FCB400"/>
<path d="M172.63 50.2998C172.38 50.5498 172.27 50.9498 172.31 51.4998C171.81 51.6698 171.31 51.8398 170.82 52.0098C171.32 51.8398 171.82 51.6698 172.31 51.4998C172.27 50.9498 172.37 50.5498 172.63 50.2998Z" fill="#FCB400"/>
<path d="M170.49 53.5195C170.44 53.5195 170.38 53.5195 170.33 53.5195C170.33 54.1895 170.33 54.8595 170.33 55.5195C170.33 54.8495 170.33 54.1795 170.33 53.5195C170.38 53.5195 170.44 53.5195 170.49 53.5195Z" fill="#FCB400"/>
<path d="M159.79 104.23C159.95 104.73 160.12 105.22 160.28 105.72C160.62 105.96 160.99 106.09 161.36 106.16C160.99 106.09 160.63 105.96 160.28 105.72C160.12 105.22 159.95 104.73 159.79 104.23Z" fill="#FCB400"/>
<path d="M167.81 65.5798C167.15 66.3898 165.92 66.6598 165.64 67.8898C167.01 68.3998 167.37 66.7198 168.42 66.6498C169.14 66.5998 170.15 66.2398 170.49 66.9598C170.87 67.7698 170.25 68.6798 169.43 68.9198C168.4 69.2198 167.27 69.4998 167.53 70.7198C167.79 71.9298 168.82 72.3198 170.1 71.7898C170.63 71.5698 170.97 72.0998 171.3 72.4898C172.89 74.3598 174.73 74.6698 176.81 73.3298C177.01 73.1998 177.22 73.0298 177.43 72.9598C177.22 71.4198 177.01 69.8798 176.8 68.3298C176.63 68.1498 176.49 67.9498 176.4 67.7398C176.51 67.7398 176.62 67.7598 176.73 67.7698C176.6 66.7998 176.47 65.8298 176.34 64.8598C175.36 64.5598 174.35 64.3398 173.36 64.0898C171.58 64.8298 169.55 64.6498 167.84 65.5998L167.81 65.5798Z" fill="#FCB400"/>
<path d="M169.06 41.9805H168.82C168.82 42.0605 168.82 42.1505 168.82 42.2305C168.82 42.1505 168.82 42.0705 168.82 41.9805H169.06Z" fill="#FCB400"/>
<path d="M171.83 61.5404C172.49 61.8904 173 62.3804 173.33 63.0604C174.25 63.1204 175.14 62.9204 176.03 62.7504C175.84 61.2904 175.64 59.8304 175.45 58.3604C173.82 58.7704 172.26 59.2703 171.82 61.5303L171.83 61.5404Z" fill="#FCB400"/>
<path d="M170.21 63.7205C170.64 63.5805 171.02 63.3505 171.31 62.9805C171.02 63.3605 170.64 63.5805 170.21 63.7205Z" fill="#FCB400"/>
<path d="M171.31 62.98C171.57 62.65 171.75 62.19 171.82 61.57V61.54V61.57C171.75 62.19 171.57 62.65 171.31 62.98Z" fill="#FCB400"/>
<path d="M159.39 117.31C159.45 117.45 159.55 117.57 159.69 117.65C159.55 117.57 159.45 117.45 159.39 117.31Z" fill="#FCB400"/>
<path d="M158.77 116.28C158.93 116.28 159.1 116.28 159.26 116.29C159.26 116.43 159.26 116.58 159.26 116.72C159.26 116.58 159.26 116.44 159.26 116.29C159.1 116.29 158.93 116.28 158.77 116.28Z" fill="#FCB400"/>
<path d="M157.77 59.5497C157.54 59.9397 157.04 60.1497 156.84 60.5597C157.04 60.1497 157.54 59.9397 157.77 59.5497C158.96 59.7397 160.13 59.6097 161.29 59.4297C160.13 59.5997 158.96 59.7297 157.77 59.5497Z" fill="#FCB400"/>
<path d="M169.13 148.03C168.96 147.58 168.72 147.19 168.24 147.01C168.72 147.19 168.96 147.58 169.13 148.03Z" fill="#FCB400"/>
<path d="M171.74 111.11C170.88 111.25 170.08 111.84 169.3 112.75C168.97 112.75 168.65 112.75 168.32 112.75C168.65 112.75 168.97 112.75 169.3 112.75C170.08 111.85 170.88 111.26 171.74 111.11Z" fill="#FCB400"/>
<path d="M160.28 118.8C160.55 118.78 160.84 118.8 161.11 118.75C160.85 118.8 160.56 118.78 160.28 118.8Z" fill="#FCB400"/>
<path d="M160.62 112.99C160.5 112.93 160.39 112.86 160.28 112.76C160.2 112.36 160.05 112.11 159.87 111.95C160.05 112.1 160.2 112.35 160.28 112.76C160.39 112.86 160.5 112.94 160.62 112.99Z" fill="#FCB400"/>
<path d="M140.89 52.7095C141.05 52.4095 141.32 52.1695 141.7 52.0095C141.7 51.8495 141.7 51.6795 141.7 51.5195C141.7 51.6795 141.7 51.8495 141.7 52.0095C141.32 52.1695 141.06 52.4095 140.89 52.7095Z" fill="#FCB400"/>
<path d="M159.27 66.07C159.89 66.07 160.51 66.04 161.13 66.07C160.51 66.05 159.89 66.08 159.27 66.07Z" fill="#FCB400"/>
<path d="M196.83 185.91C196.77 185.98 196.7 186.05 196.64 186.1C196.7 186.05 196.77 185.97 196.83 185.91Z" fill="#FCB400"/>
<path d="M140.69 53.5303C140.55 53.5503 140.42 53.5403 140.29 53.5503C140.4 53.9403 140.52 54.3403 140.63 54.7303C140.71 55.0203 140.8 55.3003 140.88 55.5903C141.01 54.9903 140.95 54.3003 140.69 53.5303Z" fill="#FCB400"/>
<path d="M157.63 71.1299C157.15 71.1399 156.84 71.4599 156.76 72.1099C156.84 71.4599 157.15 71.1499 157.63 71.1299Z" fill="#FCB400"/>
<path d="M151.42 73.6002C151.99 72.1002 153.25 71.2802 154.59 71.3002C153.25 71.2802 151.99 72.1002 151.42 73.6002Z" fill="#FCB400"/>
<path d="M137.77 44.8905C138.22 43.7305 138.75 42.5905 138.75 41.3105C138.75 40.9605 138.96 40.6605 139.34 40.6105C139.86 40.5505 140.13 40.8705 140.15 41.3305C140.18 42.1005 140.32 42.8205 140.7 43.4905C141.03 43.4905 141.36 43.4905 141.7 43.4905C141.87 42.9905 142.04 42.4905 142.21 41.9905C140.91 41.9205 140.66 41.0605 140.71 39.9805C141.22 39.3305 141.92 39.0705 142.7 38.9705C141.24 37.6505 141.56 35.3905 140.11 34.0505C140.02 33.9705 139.97 33.6505 140.03 33.6105C142.26 31.9505 141.02 30.1905 140.2 28.4405C138.45 27.4005 138.7 25.1905 137.49 23.8005C136.99 23.2205 137.57 22.6805 138.19 22.5305C138.78 22.3805 139.2 22.7705 139.16 23.3605C139.01 25.7305 140.03 26.6905 142.43 26.5105C143.5 26.4305 144.05 27.5705 144.75 28.2705C145.21 28.7305 145.34 29.3005 144.94 29.8605C144.5 30.4805 143.98 30.4005 143.45 29.9405C143.03 29.5705 142.61 29.3805 142.2 29.9505C142.46 32.1005 142.02 34.4705 144.21 35.9805C146.15 36.1205 148.1 36.0205 148.85 38.6005C149.02 39.2105 150.77 39.5105 151.84 39.6505C152.51 39.7405 152.67 39.9505 152.76 40.4805C153.36 40.7205 153.09 42.0205 154.31 41.6005C155.03 41.3605 155.37 42.0305 155.12 42.6905C154.25 44.9705 155.69 45.0305 157.27 45.0005C159.157 43.9738 159.26 42.5371 157.58 40.6905C156.51 39.5105 157.48 37.3905 159.28 36.9805C159.95 36.9805 160.61 36.9805 161.28 36.9805C163.49 36.7505 165.17 37.5705 166.3 39.4905C166.96 39.1405 166.71 37.8905 167.81 37.9905C167.97 37.8205 168.13 37.6505 168.3 37.4805C168.3 35.6405 168.3 33.8005 168.31 31.9605C168.24 30.5305 168.34 29.1905 169.18 27.9005C169.59 27.2705 169.34 26.1605 170.46 26.0305C171.35 25.9305 171.21 26.8805 171.66 27.3405C171.18 23.1405 170.72 18.9405 170.28 14.7405C170.27 14.6105 170.25 14.4805 170.24 14.3505C169.78 10.0605 169.34 5.77047 168.92 1.48047C168.87 1.48047 168.83 1.49047 168.78 1.50047C154.93 3.72047 141.08 6.03047 127.44 9.35047C130.88 21.2005 134.32 33.0505 137.76 44.9105L137.77 44.8905ZM150.92 37.7805C150.38 37.9205 149.91 37.5605 149.92 36.9905C149.93 36.2505 150.49 35.7805 151.15 35.6405C151.72 35.5205 151.99 36.0205 152.15 36.3905C152.23 37.4105 151.53 37.6305 150.92 37.7905V37.7805ZM157.11 34.6005C156.76 35.5605 156.62 37.6905 154.93 35.4605C154.21 34.5105 153.17 35.9505 152.16 34.7305C153.98 33.9505 155.26 32.7805 156.27 31.0705C157.12 32.2805 157.54 33.4005 157.11 34.6005ZM169.87 24.8105C169.67 24.5705 169.45 24.4305 169.43 24.2605C169.41 24.0705 169.52 23.7205 169.65 23.6705C170.02 23.5305 170.23 23.8005 170.22 24.1505C170.22 24.3405 170.03 24.5205 169.86 24.8105H169.87Z" fill="#FCB400"/>
<path d="M192.41 203.64C192 202.72 191.21 202.6 190.34 202.63C190.15 202.63 189.97 202.64 189.78 202.64C189.78 202.64 189.8 202.68 189.81 202.7C190.04 203.21 190.27 203.73 190.5 204.24C190.76 204.17 191.08 204.17 191.35 204.12C191.72 204.05 192.06 203.81 192.42 203.64H192.41Z" fill="#FCB400"/>
<path d="M184.21 117.68C183.77 117.63 183.33 117.58 182.91 117.5C183.33 117.58 183.77 117.63 184.21 117.68Z" fill="#FCB400"/>
<path d="M194.91 190.08C195.58 190.25 196.25 190.42 196.92 190.58C197.23 190.71 197.55 190.81 197.86 190.89C197.7 190.11 197.53 189.32 197.37 188.54C197.02 188.55 196.67 188.56 196.32 188.56C195.22 188.55 194.86 189.09 194.92 190.08H194.91Z" fill="#FCB400"/>
<path d="M181.87 152.43C182.57 151.97 183.33 151.91 184.11 151.91C183.34 151.91 182.57 151.97 181.87 152.43Z" fill="#FCB400"/>
<path d="M198.94 201.62C199.34 201.62 199.74 201.62 200.13 201.62C200.02 201.13 199.91 200.63 199.81 200.14C199.73 200.15 199.66 200.16 199.58 200.17C198.68 200.29 198.55 200.86 198.94 201.61V201.62Z" fill="#FCB400"/>
<path d="M197.65 209.62C198.34 208.76 198.54 207.88 197.43 207.16C196.93 206.99 196.43 206.82 195.93 206.65C194.69 206.56 193.49 206.32 192.41 205.65C192.1 205.57 191.77 205.38 191.47 205.42C191.35 205.44 191.21 205.47 191.08 205.5C192.15 207.82 193.25 210.12 194.36 212.42C195.65 211.72 196.73 210.76 197.65 209.61V209.62Z" fill="#FCB400"/>
<path d="M204.67 222.12C204.23 220.2 203.8 218.27 203.37 216.34C201.96 215.68 200.58 214.94 198.93 215.18C198.6 215.18 198.26 215.18 197.93 215.18C197.27 215.18 196.61 215.16 195.96 215.19C195.87 215.19 195.79 215.19 195.7 215.19C196.47 216.75 197.25 218.31 198.05 219.87C199.32 220.55 200.46 221.54 201.95 221.72C202.86 221.85 203.86 221.77 204.67 222.13V222.12Z" fill="#FCB400"/>
<path d="M196.92 191.59C196.36 191.59 195.8 191.61 195.24 191.59C193.22 191.5 194.46 190.71 194.91 190.09C193.89 190.23 193.03 189.96 192.41 189.09C192.24 189.26 192.08 189.43 191.91 189.59C192.25 190.53 194.35 191.82 191.41 192.1C190.37 194.13 188.04 194.01 186.43 195.08C187.07 196.57 187.72 198.06 188.38 199.54C188.43 199.3 188.48 199.05 188.6 198.85C188.99 198.23 189.42 197.4 190.2 197.47C191.04 197.55 190.86 198.46 190.91 199.1V199.12C191.4 199.12 191.9 199.12 192.4 199.12C194.11 199.88 195.66 200.59 196.27 197.75C196.5 196.69 197.98 197.2 198.92 197.1C198.99 197.02 199.06 196.96 199.12 196.9C198.95 196.11 198.79 195.32 198.62 194.52C198.42 193.55 198.21 192.59 198.01 191.62C197.66 191.57 197.3 191.55 196.92 191.58V191.59Z" fill="#FCB400"/>
<path d="M167.46 134.12C167.88 133.66 168.3 133.22 168.8 132.87C168.3 133.22 167.88 133.67 167.46 134.12Z" fill="#FCB400"/>
<path d="M169.55 132.59C169.44 132.7 169.3 132.76 169.14 132.81C169.3 132.76 169.45 132.7 169.55 132.59Z" fill="#FCB400"/>
<path d="M170.4 131.95C170.23 131.87 170.03 131.85 169.83 131.84C170.03 131.85 170.23 131.88 170.4 131.95Z" fill="#FCB400"/>
<path d="M168.31 124.83C168.77 124.77 169.25 124.83 169.77 124.8C169.25 124.83 168.77 124.77 168.31 124.83Z" fill="#FCB400"/>
<path d="M179.79 178.96C179.79 178.96 179.83 179 179.86 179.02C179.85 179.02 179.84 179.02 179.82 179.03C179.82 179.03 179.84 179.03 179.86 179.02C179.84 179 179.82 178.98 179.79 178.96Z" fill="#FCB400"/>
<path d="M171.32 122.29C171.13 122 171.01 121.7 170.93 121.39C171.01 121.7 171.13 122 171.32 122.29C171.54 122.01 171.78 121.79 172.03 121.63C171.78 121.79 171.54 122.01 171.32 122.29Z" fill="#FCB400"/>
<path d="M179.85 110.75C180.03 111.1 180.17 111.49 180.31 111.87C180.17 111.49 180.04 111.1 179.85 110.75Z" fill="#FCB400"/>
</g>
<defs>
<clipPath id="clip0_307_6200">
<rect width="265.92" height="313.58" fill="white"/>
</clipPath>
</defs>
</svg>
