<svg width="252" height="45" viewBox="0 0 252 45" fill="none" xmlns="http://www.w3.org/2000/svg">
<path d="M31.3885 30.4308H35.1119V44.5797H28.0374V37.5053H7.55873V44.3935H0.298096V30.2446H4.0215C5.8832 27.4521 7.00022 23.3563 7.00022 17.7712V0.457428H31.2023V30.2446L31.3885 30.4308ZM23.9417 30.4308V7.34572H14.2608V18.3297C14.2608 23.7287 13.33 27.6382 11.6545 30.617H24.1279L23.9417 30.4308ZM50.1917 38.2499C46.4683 38.2499 42.931 36.9467 40.3246 34.1542C39.0356 32.8623 38.024 31.3208 37.3517 29.6241C36.6794 27.9275 36.3607 26.1114 36.4151 24.2872C36.3637 22.4396 36.6898 20.601 37.3733 18.8837C38.0568 17.1665 39.0834 15.6067 40.3904 14.2997C41.6973 12.9928 43.2571 11.9662 44.9744 11.2827C46.6916 10.5991 48.5302 10.2731 50.3778 10.3244C54.1012 10.3244 57.4523 11.8138 60.0587 14.4202C61.3813 15.6962 62.4274 17.2306 63.132 18.928C63.8366 20.6254 64.1846 22.4496 64.1544 24.2872C64.1544 28.1968 62.8512 31.5478 60.0587 34.1542C58.776 35.468 57.2404 36.5083 55.5445 37.2123C53.8486 37.9162 52.0277 38.2692 50.1917 38.2499ZM50.1917 31.5478C52.2395 31.5478 53.9151 30.8031 55.4044 29.6861C56.7076 28.1968 57.2661 26.3351 57.2661 24.2872C57.291 23.3426 57.1264 22.4026 56.782 21.5227C56.4376 20.6428 55.9205 19.8408 55.261 19.164C54.6016 18.4872 53.8133 17.9494 52.9426 17.5823C52.072 17.2152 51.1366 17.0262 50.1917 17.0266C49.2226 16.9971 48.2582 17.1726 47.3616 17.5415C46.465 17.9104 45.6563 18.4645 44.9885 19.1674C44.3208 19.8703 43.8089 20.7062 43.4864 21.6206C43.164 22.5349 43.0381 23.507 43.1172 24.4734C43.1172 26.3351 43.8619 28.1968 44.9789 29.4999C46.4683 30.8031 48.1438 31.5478 50.1917 31.5478ZM70.4842 34.1542C69.2039 32.8559 68.198 31.3132 67.5264 29.6181C66.8547 27.923 66.5311 26.11 66.5746 24.2872C66.5233 22.4396 66.8493 20.601 67.5328 18.8837C68.2164 17.1665 69.243 15.6067 70.5499 14.2997C71.8568 12.9928 73.4166 11.9662 75.1339 11.2827C76.8512 10.5991 78.6898 10.2731 80.5374 10.3244C82.9371 10.2812 85.3021 10.9015 87.3717 12.117C89.4413 13.3325 91.135 15.0959 92.2661 17.2127L86.3086 20.5638C85.7488 19.4736 84.8928 18.5634 83.839 17.9377C82.7852 17.3121 81.5764 16.9962 80.3512 17.0266C79.3821 16.9971 78.4177 17.1726 77.5211 17.5415C76.6245 17.9104 75.8158 18.4645 75.1481 19.1674C74.4803 19.8703 73.9684 20.7062 73.646 21.6206C73.3235 22.5349 73.1977 23.507 73.2767 24.4734C73.2767 26.3351 74.0214 28.1968 75.3246 29.4999C76.6278 30.8031 78.3033 31.3616 80.3512 31.3616C83.1438 31.3616 85.3778 30.0585 86.4948 28.0106L92.2661 31.3616C91.0885 33.439 89.3845 35.1694 87.3255 36.3787C85.2665 37.5879 82.9252 38.2334 80.5374 38.2499C76.4416 38.2499 73.0906 36.9467 70.4842 34.1542ZM134.713 21.3085V37.5053H128.011V21.6808C128.011 18.5159 126.335 16.6542 123.543 16.6542C120.564 16.6542 118.702 18.8883 118.702 22.6117V37.5053H112V21.6808C112 18.5159 110.138 16.6542 107.532 16.6542C104.553 16.6542 102.505 18.8883 102.505 22.6117V37.5053H95.8033V10.8829H102.505V13.6755C104.181 11.4415 106.601 10.1383 109.952 10.1383C113.117 10.1383 115.537 11.4415 117.027 13.8617C118.888 11.4415 121.495 10.1383 124.846 10.1383C130.989 10.1383 134.899 14.4202 134.899 21.1223L134.713 21.3085ZM159.66 11.0691H166.362V37.5053H159.66V34.3404C158.63 35.5955 157.316 36.5878 155.827 37.2352C154.338 37.8826 152.716 38.1666 151.096 38.0638C147.372 38.0638 144.394 36.9467 141.787 34.3404C139.276 31.6074 137.938 27.9969 138.064 24.2872C138.064 20.5638 139.553 17.2127 141.787 14.4202C144.394 11.8138 147.372 10.3244 151.096 10.3244C154.819 10.3244 157.612 11.6276 159.66 14.234V11.0691ZM152.213 31.734C154.447 31.734 155.936 30.9893 157.426 29.6861C158.143 28.9833 158.71 28.1427 159.094 27.2149C159.478 26.2871 159.67 25.2912 159.66 24.2872C159.66 22.0532 158.915 20.3776 157.426 19.0744C156.765 18.3534 155.959 17.7812 155.06 17.396C154.161 17.0109 153.19 16.8214 152.213 16.8404C150.165 16.8404 148.489 17.5851 147 19.0744C145.697 20.3776 145.138 22.0532 145.138 24.2872C145.078 25.2653 145.212 26.2457 145.531 27.1722C145.851 28.0987 146.35 28.953 147 29.6861C148.489 30.9893 150.165 31.734 152.213 31.734ZM195.218 30.0585C195.218 34.3404 192.053 37.5053 186.468 37.5053H172.505V10.8829H185.351C190.936 10.8829 194.101 13.8617 194.101 18.3297C194.101 20.75 193.17 22.4255 191.495 23.9148C193.915 25.0319 195.218 27.0797 195.218 29.8723V30.0585ZM178.835 16.6542V21.4946H184.793C186.654 21.4946 187.585 20.75 187.585 19.0744C187.585 17.5851 186.654 16.6542 184.793 16.6542H178.835ZM185.537 31.734C187.399 31.734 188.516 30.8031 188.516 29.1276C188.516 27.6382 187.399 26.8936 185.537 26.8936H178.835V31.734H185.537ZM223.702 37.5053H215.883L206.202 25.5904V37.5053H199.5V10.8829H206.202V22.6117L215.324 10.8829H223.33L212.904 23.9148L223.702 37.3191V37.5053ZM245.298 11.0691H252V37.5053H245.298V34.3404C244.249 35.6224 242.905 36.6309 241.381 37.2794C239.857 37.9279 238.199 38.1971 236.548 38.0638C233.011 38.0638 230.032 36.9467 227.612 34.3404C225.1 31.6074 223.763 27.9969 223.888 24.2872C223.888 20.5638 225.005 17.2127 227.612 14.4202C230.032 11.8138 233.197 10.3244 236.548 10.3244C240.271 10.3244 243.25 11.6276 245.298 14.234V11.0691ZM237.851 31.734C240.085 31.734 241.574 30.9893 243.064 29.6861C244.553 28.1968 245.298 26.5212 245.298 24.2872C245.298 22.0532 244.553 20.3776 243.064 19.0744C242.403 18.3534 241.597 17.7812 240.698 17.396C239.799 17.0109 238.829 16.8214 237.851 16.8404C235.803 16.8404 234.128 17.5851 232.638 19.0744C231.335 20.3776 230.777 22.0532 230.777 24.2872C230.725 25.2629 230.876 26.2389 231.22 27.1534C231.564 28.0679 232.094 28.9013 232.776 29.6009C233.458 30.3006 234.278 30.8513 235.183 31.2184C236.089 31.5855 237.06 31.7611 238.037 31.734H237.851Z" fill="#E52322"/>
</svg>
