<svg width="83" height="100" viewBox="0 0 83 100" fill="none" xmlns="http://www.w3.org/2000/svg">
<path d="M17.5067 6.71248C18.7242 6.49805 19.9761 6.77521 20.987 7.48297C21.9979 8.19073 22.6849 9.27112 22.8969 10.4865L29.5594 48.6739C29.7008 49.4841 30.1588 50.2044 30.8327 50.6762C31.5066 51.148 32.3412 51.3328 33.1529 51.1899C33.9646 51.0469 34.6869 50.5879 35.1609 49.9139C35.6349 49.2399 35.8217 48.4061 35.6804 47.5959L32.9802 32.1193L33.5023 32.0021C35.4299 31.5871 37.3928 31.2666 38.5258 31.2875C39.3748 31.308 40.4277 31.5571 41.462 31.9165C41.9781 32.0901 42.5368 32.653 42.7149 33.6734L44.8618 45.9789C45.0032 46.7891 45.4612 47.5094 46.1351 47.9812C46.809 48.453 47.6436 48.6378 48.4553 48.4949C49.267 48.3519 49.9892 47.893 50.4632 47.219C50.9372 46.5449 51.1241 45.7111 50.9827 44.9009L49.3144 35.3387C49.5265 35.278 49.7393 35.2195 49.9526 35.1634C51.8612 34.6761 53.5166 34.4727 54.3289 34.6446C55.1002 34.7984 56.3858 35.5859 57.762 36.7479C58.3602 37.2472 58.8827 37.7471 59.2623 38.1148L60.6972 46.3389C60.8385 47.1491 61.2965 47.8694 61.9704 48.3412C62.6443 48.813 63.4789 48.9978 64.2906 48.8549C65.1023 48.7119 65.8246 48.2529 66.2986 47.5789C66.7726 46.9049 66.9595 46.0711 66.8181 45.2609L65.7521 39.1509L67.8455 38.7822C68.7009 38.6315 69.5781 38.6615 70.4204 38.8703C71.2627 39.079 72.0515 39.4618 72.7358 39.994C73.4202 40.5262 73.9849 41.196 74.3935 41.9602C74.8022 42.7243 75.0457 43.5659 75.1084 44.4306L76.3438 61.3113C76.5016 63.4809 76.2004 65.6603 75.4599 67.708L69.5244 84.1324C69.3384 84.6471 69.0196 85.1039 68.6002 85.4564C68.1809 85.809 67.6759 86.0448 67.1365 86.14L28.0542 93.023C27.5502 93.1115 27.0323 93.0744 26.5467 92.9149C26.061 92.7555 25.6225 92.4786 25.2702 92.1089L14.207 80.5172C13.18 79.4424 12.4265 78.1368 12.0096 76.71L6.58798 58.1104C6.36998 57.3651 6.44014 56.5646 6.78459 55.8672C7.12905 55.1699 7.72271 54.6264 8.4482 54.3442L14.3743 52.041L15.3231 57.4788C15.4644 58.2891 15.9224 59.0093 16.5963 59.4812C17.2702 59.953 18.1048 60.1378 18.9165 59.9948C19.7282 59.8519 20.4505 59.3929 20.9245 58.7189C21.3985 58.0449 21.5854 57.2111 21.444 56.4008L13.7155 12.1035C13.5034 10.8881 13.7838 9.63736 14.4947 8.62636C15.2057 7.61535 16.2892 6.92691 17.5067 6.71248ZM31.9131 26.0032L29.0179 9.40847C28.5231 6.57265 26.92 4.05174 24.5614 2.4003C22.2027 0.748856 19.2816 0.102169 16.4407 0.602499C13.5998 1.10283 11.0718 2.70919 9.4128 5.0682C7.75383 7.42722 7.09978 10.3456 7.59454 13.1815L13.287 45.8088L6.19769 48.5688C4.02489 49.4159 2.24701 51.0445 1.21469 53.1336C0.182374 55.2226 -0.0294406 57.6204 0.621022 59.854L6.04375 78.4597C6.73858 80.8378 7.9944 83.0137 9.706 84.8052L20.7692 96.3969C21.8266 97.5046 23.1421 98.334 24.5989 98.8113C26.0557 99.2886 27.6088 99.3991 29.1203 99.133L68.2025 92.25C69.8208 91.9644 71.3356 91.257 72.5937 90.1993C73.8517 89.1417 74.8081 87.7714 75.3661 86.2273L81.3027 69.809C82.3406 66.939 82.7621 63.8843 82.5397 60.8436L81.3043 43.9629C81.1781 42.2341 80.6905 40.5518 79.8729 39.0242C79.0553 37.4967 77.9258 36.1579 76.5574 35.0942C75.1889 34.0304 73.6118 33.2653 71.9277 32.8482C70.2435 32.431 68.4898 32.3711 66.7795 32.6722L63.2232 33.2985C62.7508 32.8486 62.2646 32.4134 61.7652 31.9935C60.352 30.8002 58.0381 29.0728 55.6156 28.5674C53.2319 28.0677 50.2965 28.6728 48.4124 29.1558L47.6172 29.3714C46.675 27.8211 45.2212 26.6476 43.5051 26.0525C41.9555 25.4898 40.3289 25.1648 38.6808 25.0884C36.7172 25.0437 34.0956 25.5306 32.2048 25.9392L31.9131 26.0032Z" fill="white"/>
</svg>
