<svg width="26" height="37" viewBox="0 0 26 37" fill="none" xmlns="http://www.w3.org/2000/svg">
<path d="M7.42017 5.48335V25.1522C7.42017 26.0217 7.7141 26.8555 8.23731 27.4702C8.76052 28.085 9.47015 28.4304 10.2101 28.4304H21.3697C22.1097 28.4304 22.8193 28.085 23.3425 27.4702C23.8657 26.8555 24.1596 26.0217 24.1596 25.1522V10.7972C24.1596 10.3605 24.0853 9.92821 23.9411 9.52571C23.7969 9.1232 23.5857 8.75861 23.3199 8.45335L18.6956 3.13947C18.1744 2.54065 17.4744 2.20531 16.7454 2.2052H10.2101C9.47015 2.2052 8.76052 2.55058 8.23731 3.16535C7.7141 3.78012 7.42017 4.61393 7.42017 5.48335V5.48335Z" stroke="white" stroke-width="3" stroke-linecap="round" stroke-linejoin="round"/>
<path d="M18.5798 28.4304V31.7086C18.5798 32.578 18.2859 33.4118 17.7627 34.0266C17.2395 34.6414 16.5298 34.9867 15.7899 34.9867H4.63024C3.89031 34.9867 3.18069 34.6414 2.65748 34.0266C2.13427 33.4118 1.84033 32.578 1.84033 31.7086V13.6788C1.84033 12.8094 2.13427 11.9756 2.65748 11.3608C3.18069 10.746 3.89031 10.4006 4.63024 10.4006H7.42016" stroke="white" stroke-width="3" stroke-linecap="round" stroke-linejoin="round"/>
</svg>
