<svg width="366" height="126" viewBox="0 0 366 126" fill="none" xmlns="http://www.w3.org/2000/svg">
<path d="M0 65.6139H48.8459V87.4852H0V65.6139Z" fill="url(#paint0_linear_404_85315)"/>
<path d="M113.318 38.8216C113.318 28.7365 107.546 23.6939 96.0031 23.6939C89.9277 23.6939 84.5206 24.909 79.7818 27.3391C75.0431 29.7693 71.1548 32.807 68.1171 36.4522H64.2897V8.93078C68.7854 6.0146 73.828 3.82747 79.4173 2.36938C85.0067 0.789794 91.8111 0 99.8305 0C105.784 0 111.252 0.850551 116.234 2.55165C121.216 4.13124 125.469 6.50063 128.992 9.65982C132.637 12.6975 135.432 16.4642 137.376 20.96C139.442 25.4558 140.475 30.5591 140.475 36.2699C140.475 40.4012 140.049 44.2286 139.199 47.7523C138.47 51.2761 137.073 54.7998 135.007 58.3235C133.063 61.8472 130.39 65.5532 126.987 69.4414C123.585 73.3296 119.332 77.6431 114.229 82.3819L94.9095 100.243H141.933V123.937H59.7332V103.889L97.2789 67.801C100.681 64.5203 103.415 61.6042 105.481 59.0525C107.668 56.5009 109.308 54.1315 110.402 51.9443C111.617 49.7572 112.407 47.6308 112.771 45.5652C113.136 43.4996 113.318 41.2517 113.318 38.8216Z" fill="url(#paint1_linear_404_85315)"/>
<path d="M184.336 44.8362C191.626 44.8362 198.066 45.9297 203.655 48.1169C209.245 50.1825 213.862 53.0379 217.507 56.6831C221.274 60.2068 224.068 64.3988 225.891 69.2591C227.835 74.1194 228.807 79.2835 228.807 84.7513C228.807 90.3406 227.835 95.6262 225.891 100.608C223.947 105.59 220.97 109.964 216.96 113.731C212.95 117.376 207.908 120.292 201.833 122.479C195.757 124.666 188.649 125.76 180.508 125.76C167.385 125.76 156.571 122.783 148.066 116.829V89.3078H151.893C155.052 93.1961 158.941 96.2945 163.558 98.6031C168.297 100.912 173.947 102.066 180.508 102.066C186.948 102.066 191.99 100.426 195.636 97.1451C199.281 93.8643 201.104 89.6723 201.104 84.569C201.104 79.9518 199.159 76.0635 195.271 72.9044C191.504 69.7452 185.429 68.1656 177.045 68.1656C173.886 68.1656 170.97 68.3478 168.297 68.7124C165.623 69.0769 163.254 69.5021 161.188 69.9882C158.758 70.4742 156.51 71.0817 154.445 71.8108V66.8897L161.553 1.82261H222.428V25.5165H182.331L180.144 45.0184C180.873 44.8969 181.541 44.8362 182.148 44.8362C182.877 44.8362 183.606 44.8362 184.336 44.8362Z" fill="url(#paint2_linear_404_85315)"/>
<path d="M263.525 26.1089C268.431 26.1089 272.712 26.9265 276.367 28.5618C280.119 30.1009 283.245 32.169 285.746 34.7663C288.247 37.3635 290.123 40.3936 291.373 43.8565C292.624 47.2233 293.249 50.6862 293.249 54.2454C293.249 57.9007 292.624 61.4118 291.373 64.7785C290.123 68.1453 288.247 71.1273 285.746 73.7245C283.245 76.3217 280.119 78.438 276.367 80.0733C272.712 81.6124 268.431 82.3819 263.525 82.3819C258.62 82.3819 254.291 81.6124 250.539 80.0733C246.884 78.438 243.806 76.3217 241.305 73.7245C238.804 71.1273 236.928 68.1453 235.678 64.7785C234.427 61.4118 233.802 57.9007 233.802 54.2454C233.802 50.6862 234.427 47.2233 235.678 43.8565C236.928 40.3936 238.804 37.3635 241.305 34.7663C243.806 32.169 246.884 30.1009 250.539 28.5618C254.291 26.9265 258.62 26.1089 263.525 26.1089ZM346.059 26.2532L272.183 125.38H251.982L325.859 26.2532H346.059ZM263.525 66.7986C266.411 66.7986 268.72 65.5962 270.451 63.1914C272.183 60.7865 273.049 57.8045 273.049 54.2454C273.049 50.6862 272.183 47.7043 270.451 45.2994C268.72 42.8946 266.411 41.6922 263.525 41.6922C260.64 41.6922 258.331 42.8946 256.6 45.2994C254.868 47.7043 254.002 50.6862 254.002 54.2454C254.002 57.8045 254.868 60.7865 256.6 63.1914C258.331 65.5962 260.64 66.7986 263.525 66.7986ZM335.67 67.8086C340.576 67.8086 344.857 68.6263 348.512 70.2616C352.264 71.8007 355.39 73.8688 357.891 76.466C360.392 79.0632 362.268 82.0933 363.518 85.5563C364.769 88.923 365.394 92.386 365.394 95.9452C365.394 99.6005 364.769 103.112 363.518 106.478C362.268 109.845 360.392 112.827 357.891 115.424C355.39 118.022 352.264 120.138 348.512 121.773C344.857 123.312 340.576 124.082 335.67 124.082C330.765 124.082 326.436 123.312 322.684 121.773C319.029 120.138 315.951 118.022 313.45 115.424C310.949 112.827 309.073 109.845 307.822 106.478C306.572 103.112 305.947 99.6005 305.947 95.9452C305.947 92.386 306.572 88.923 307.822 85.5563C309.073 82.0933 310.949 79.0632 313.45 76.466C315.951 73.8688 319.029 71.8007 322.684 70.2616C326.436 68.6263 330.765 67.8086 335.67 67.8086ZM335.67 83.3919C332.785 83.3919 330.476 84.5944 328.744 86.9992C327.013 89.404 326.147 92.386 326.147 95.9452C326.147 99.5043 327.013 102.486 328.744 104.891C330.476 107.296 332.785 108.498 335.67 108.498C338.556 108.498 340.865 107.296 342.596 104.891C344.328 102.486 345.194 99.5043 345.194 95.9452C345.194 92.386 344.328 89.404 342.596 86.9992C340.865 84.5944 338.556 83.3919 335.67 83.3919Z" fill="url(#paint3_linear_404_85315)"/>
<mask id="mask0_404_85315" style="mask-type:alpha" maskUnits="userSpaceOnUse" x="0" y="0" width="366" height="126">
<path d="M0 65.6139H48.8459V87.4852H0V65.6139Z" fill="url(#paint4_linear_404_85315)"/>
<path d="M113.318 38.8216C113.318 28.7365 107.546 23.6939 96.0031 23.6939C89.9277 23.6939 84.5206 24.909 79.7818 27.3391C75.0431 29.7693 71.1548 32.807 68.1171 36.4522H64.2897V8.93078C68.7854 6.0146 73.828 3.82747 79.4173 2.36938C85.0067 0.789794 91.8111 0 99.8305 0C105.784 0 111.252 0.850551 116.234 2.55165C121.216 4.13124 125.469 6.50063 128.992 9.65982C132.637 12.6975 135.432 16.4642 137.376 20.96C139.442 25.4558 140.475 30.5591 140.475 36.2699C140.475 40.4012 140.049 44.2286 139.199 47.7523C138.47 51.2761 137.073 54.7998 135.007 58.3235C133.063 61.8472 130.39 65.5532 126.987 69.4414C123.585 73.3296 119.332 77.6431 114.229 82.3819L94.9095 100.243H141.933V123.937H59.7332V103.889L97.2789 67.801C100.681 64.5203 103.415 61.6042 105.481 59.0525C107.668 56.5009 109.308 54.1315 110.402 51.9443C111.617 49.7572 112.407 47.6308 112.771 45.5652C113.136 43.4996 113.318 41.2517 113.318 38.8216Z" fill="url(#paint5_linear_404_85315)"/>
<path d="M184.336 44.8362C191.626 44.8362 198.066 45.9297 203.655 48.1169C209.245 50.1825 213.862 53.0379 217.507 56.6831C221.274 60.2068 224.068 64.3988 225.891 69.2591C227.835 74.1194 228.807 79.2835 228.807 84.7513C228.807 90.3406 227.835 95.6262 225.891 100.608C223.947 105.59 220.97 109.964 216.96 113.731C212.95 117.376 207.908 120.292 201.833 122.479C195.757 124.666 188.649 125.76 180.508 125.76C167.385 125.76 156.571 122.783 148.066 116.829V89.3078H151.893C155.052 93.1961 158.941 96.2945 163.558 98.6031C168.297 100.912 173.947 102.066 180.508 102.066C186.948 102.066 191.99 100.426 195.636 97.1451C199.281 93.8643 201.104 89.6723 201.104 84.569C201.104 79.9518 199.159 76.0635 195.271 72.9044C191.504 69.7452 185.429 68.1656 177.045 68.1656C173.886 68.1656 170.97 68.3478 168.297 68.7124C165.623 69.0769 163.254 69.5021 161.188 69.9882C158.758 70.4742 156.51 71.0817 154.445 71.8108V66.8897L161.553 1.82261H222.428V25.5165H182.331L180.144 45.0184C180.873 44.8969 181.541 44.8362 182.148 44.8362C182.877 44.8362 183.606 44.8362 184.336 44.8362Z" fill="url(#paint6_linear_404_85315)"/>
<path d="M263.525 26.1089C268.431 26.1089 272.712 26.9265 276.367 28.5618C280.119 30.1009 283.245 32.169 285.746 34.7663C288.247 37.3635 290.123 40.3936 291.373 43.8565C292.624 47.2233 293.249 50.6862 293.249 54.2454C293.249 57.9007 292.624 61.4118 291.373 64.7785C290.123 68.1453 288.247 71.1273 285.746 73.7245C283.245 76.3217 280.119 78.438 276.367 80.0733C272.712 81.6124 268.431 82.3819 263.525 82.3819C258.62 82.3819 254.291 81.6124 250.539 80.0733C246.884 78.438 243.806 76.3217 241.305 73.7245C238.804 71.1273 236.928 68.1453 235.678 64.7785C234.427 61.4118 233.802 57.9007 233.802 54.2454C233.802 50.6862 234.427 47.2233 235.678 43.8565C236.928 40.3936 238.804 37.3635 241.305 34.7663C243.806 32.169 246.884 30.1009 250.539 28.5618C254.291 26.9265 258.62 26.1089 263.525 26.1089ZM346.059 26.2532L272.183 125.38H251.982L325.859 26.2532H346.059ZM263.525 66.7986C266.411 66.7986 268.72 65.5962 270.451 63.1914C272.183 60.7865 273.049 57.8045 273.049 54.2454C273.049 50.6862 272.183 47.7043 270.451 45.2994C268.72 42.8946 266.411 41.6922 263.525 41.6922C260.64 41.6922 258.331 42.8946 256.6 45.2994C254.868 47.7043 254.002 50.6862 254.002 54.2454C254.002 57.8045 254.868 60.7865 256.6 63.1914C258.331 65.5962 260.64 66.7986 263.525 66.7986ZM335.67 67.8086C340.576 67.8086 344.857 68.6263 348.512 70.2616C352.264 71.8007 355.39 73.8688 357.891 76.466C360.392 79.0632 362.268 82.0933 363.518 85.5563C364.769 88.923 365.394 92.386 365.394 95.9452C365.394 99.6005 364.769 103.112 363.518 106.478C362.268 109.845 360.392 112.827 357.891 115.424C355.39 118.022 352.264 120.138 348.512 121.773C344.857 123.312 340.576 124.082 335.67 124.082C330.765 124.082 326.436 123.312 322.684 121.773C319.029 120.138 315.951 118.022 313.45 115.424C310.949 112.827 309.073 109.845 307.822 106.478C306.572 103.112 305.947 99.6005 305.947 95.9452C305.947 92.386 306.572 88.923 307.822 85.5563C309.073 82.0933 310.949 79.0632 313.45 76.466C315.951 73.8688 319.029 71.8007 322.684 70.2616C326.436 68.6263 330.765 67.8086 335.67 67.8086ZM335.67 83.3919C332.785 83.3919 330.476 84.5944 328.744 86.9992C327.013 89.404 326.147 92.386 326.147 95.9452C326.147 99.5043 327.013 102.486 328.744 104.891C330.476 107.296 332.785 108.498 335.67 108.498C338.556 108.498 340.865 107.296 342.596 104.891C344.328 102.486 345.194 99.5043 345.194 95.9452C345.194 92.386 344.328 89.404 342.596 86.9992C340.865 84.5944 338.556 83.3919 335.67 83.3919Z" fill="url(#paint7_linear_404_85315)"/>
</mask>
<g mask="url(#mask0_404_85315)">
<path opacity="0.8" d="M388.009 111.507C387.162 104.528 382.714 99.3558 379.021 93.8151C377.79 94.0744 376.647 93.8713 375.6 93.1729C374.427 93.2206 372.242 92.9193 373.085 91.8318C378.177 85.2274 372.95 80.9836 370.047 76.1431C367.021 75.4057 364.089 75.7823 359.657 77.7192C364.605 70.2651 365.696 62.119 373.486 58.5692C376.247 57.3034 378.117 55.8658 376.373 52.5671C372.69 50.2647 371.1 53.9823 368.186 56.0406C367.683 52.0737 365.063 49.8562 363.848 46.9166C362.232 43.0433 364.476 40.3763 367.832 39.3109C371.431 38.1382 371.355 41.4628 371.892 43.741C373.061 48.6067 376.059 50.1093 380.753 48.0519C382.233 47.3952 383.094 47.0133 384.98 47.9763C387.694 49.3555 390.62 47.1455 389.637 44.2505C388.344 40.4738 390.392 38.0259 391.294 35.032C391.964 34.5788 392.633 34.1257 393.283 33.6859C393.746 32.8846 394.195 32.0637 394.658 31.2624C395.472 30.683 396.12 29.9859 396.006 28.8853C393.519 27.8408 391.434 26.6682 389.54 30.3615C388.681 32.0625 384.939 32.5569 383.122 31.1449C381.086 29.5367 382.483 27.5286 386.101 26.0854C382.299 25.6436 379.936 25.3765 378.108 23.3975C376.945 25.8789 380.65 34.1103 372.835 27.6552C371.21 26.3145 368.571 29.9669 366.277 31.1173C365.48 32.1451 364.702 33.1596 363.905 34.1874C359.561 37.357 360.264 32.2012 358.856 30.8854C356.825 28.9869 357.246 26.0029 358.684 24.1396C360.272 22.117 362.295 23.7056 363.77 25.2056C364.5 25.9458 365.958 26.9118 366.203 26.0856C367.464 21.5855 373.143 23.4849 374.936 19.601C376.417 16.359 378.772 15.5116 380.792 19.514C381.681 21.2951 383.63 20.7803 385.046 21.4299C385.476 20.6223 385.905 19.8147 386.322 18.9874C386.538 17.8647 386.741 16.7223 386.977 15.5863C383.924 9.92902 391.732 12.6842 391.749 9.39962C391.509 9.04515 391.282 8.71038 391.056 8.3756C389.781 7.25671 388.507 6.13781 387.233 5.01891C385.493 5.16295 383.867 5.60295 382.517 6.74674C380.872 8.26191 379.359 10.7787 377.067 7.47722C374.001 4.7286 374.234 4.94465 377.061 1.82518C378.795 -0.0665422 376.867 -3.29798 378.678 -5.50022C377.848 -8.21169 374.557 -7.30501 373.205 -9.26094C374.306 -9.2884 375.267 -9.47979 376.115 -9.8814C375.267 -9.47979 374.306 -9.2884 373.205 -9.26094C373.033 -9.3455 372.8 -9.56151 372.688 -9.51456C366.624 -7.10461 365.479 -12.4454 362.944 -15.6396C362.944 -15.6396 362.944 -15.6396 362.931 -15.6593C355.756 -13.6175 355.22 -13.9435 355.034 -20.709C353.941 -21.3477 351.874 -21.8147 351.74 -21.1213C350.753 -15.1985 344.898 -18.7586 342.008 -16.0278C340.377 -14.493 341.062 -20.1829 338 -19.5745C338.076 -17.214 337.826 -15.1215 334.564 -15.7847C334.004 -16.6118 333.616 -17.3544 333.387 -18.0321C333.636 -17.3677 334.024 -16.6252 334.564 -15.7847C333.005 -16.1366 331.539 -16.3506 330.599 -15.9154C330.612 -14.115 330.644 -12.3279 330.656 -10.5275C331.277 -9.56889 331.804 -8.57668 330.703 -7.65885C330.264 -5.38043 331.839 -2.62803 336.189 0.744825C336.969 1.9397 337.839 3.73416 337.821 5.87114C337.793 8.4171 336.479 10.0816 335.481 11.7902C332.62 16.5983 332.251 21.4418 331.928 25.2495C331.48 31.0366 333.413 30.1592 333.416 37.1633C333.405 44.062 331.511 50.5122 334.008 52.0381C334.034 52.0774 336.107 53.3161 336.756 54.5712C336.849 54.7091 337.017 55.0839 337.007 55.5786C336.929 57.6698 335.046 57.2213 333.756 57.6062C328.902 56.5848 327.519 55.0511 327.181 53.7872C326.645 51.7662 328.939 50.6158 328.663 47.9598C328.387 45.2181 325.782 45.144 323.639 41.426C321.549 37.7868 323.374 36.6661 321.229 32.5194C319.383 28.9445 317.516 28.7729 316.947 25.7694C316.515 23.3915 317.512 22.5733 317.54 19.9416C317.578 17.8771 317.03 14.946 314.268 11.3313C309.394 13.2515 307.299 9.73104 305.351 6.51295C304.116 4.47702 304.564 1.53244 301.391 0.492717C300.148 0.0990633 300.869 -1.50858 301.679 -2.60246C302.803 -4.16675 303.935 -5.42114 306.093 -5.24494C308.079 -5.0675 308.605 -3.4422 309.518 -2.13607C310.384 -0.856044 308.614 1.6625 311.024 1.95566C313.704 2.26675 313.716 -0.641847 314.847 -2.15346C315.683 -3.29364 316.493 -4.47325 317.269 -5.65922C317.227 -8.81804 317.199 -11.9572 317.17 -15.0963C317.05 -15.2735 316.93 -15.4508 316.81 -15.628C314.918 -13.6296 317.215 -9.64234 314.517 -8.7068C310.991 -7.46869 312.056 -12.6402 309.518 -13.5063C308.698 -13.7842 307.534 -14.2311 307.94 -15.6255C306.108 -16.3382 305.149 -17.6704 305.194 -19.6823C304.006 -18.9353 302.892 -17.9515 301.602 -17.4808C297.569 -16.0149 295.042 -11.4334 297.736 -8.26007C301.48 -3.78824 297.772 -3.03032 295.457 -1.23345C295.692 0.387329 295.744 2.1611 297.156 3.18671C299.184 4.6565 301.013 6.80701 298.842 8.5633C296.147 10.7321 295.586 6.89097 294.119 5.61516C292.757 8.94864 293.168 11.973 296.105 14.2345C298.041 15.7379 298.126 17.518 297.659 19.5856C299.671 20.5213 301.021 22.1343 302.083 23.9999C304.437 25.8236 306.369 27.7887 304.407 31.0407C302.581 34.0279 300.836 37.2189 296.397 35.2845C294.503 36.0495 293.053 39.0407 290.745 37.2431C288.902 35.7918 291.264 34.1067 291.596 32.4754C292.265 29.1797 291.529 26.6061 287.425 26.483C286.344 28.4493 285.09 30.2454 282.39 30.7523C280.579 27.3551 282.06 24.0274 282.882 20.9153C283.962 16.8253 285.458 19.5453 286.734 21.0071C292.7 13.9548 293.007 11.6509 289.001 4.62855C285.803 2.83055 282.605 1.03258 279.401 -0.732393C277.24 0.614881 275.066 1.9425 273.975 4.40353C274.583 10.2229 276.975 16.4717 270.058 20.4639C271.607 23.1769 268.422 24.2411 268.027 26.2884C271.244 32.6964 273.196 39.2714 272.041 46.686C271.586 49.5778 276.412 49.2408 277.137 52.0519C268.355 53.3728 268.421 53.3855 266.83 60.7503C266.504 62.2629 266.202 63.3862 267.555 64.5375C271.762 68.1224 271.726 72.4821 269.714 77.1458C268.94 79.6508 268.133 82.1494 267.359 84.6544C264.844 86.2416 249.123 77.0981 249.386 70.2306C248.428 69.0699 248.476 66.5963 248.116 65.0028C245.581 66.5176 241.95 65.9889 240.798 70.1849C240.412 71.566 236.866 73.7935 234.543 72.6094C232.22 71.4253 230.658 68.7782 231.627 65.797C232.918 61.7649 232.511 58.2789 228.651 55.2061C227.829 62.1368 224.731 64.348 219.871 62.555C218.183 62.6063 215.752 62.9596 213.666 64.5439C208.719 68.3508 211.227 75.1528 205.841 79.286C204.089 80.6436 200.947 82.1099 199.001 81.0155C197.842 80.364 197.734 79.1446 196.358 78.5541C194.843 77.8853 193.048 78.5837 191.806 79.2519C190.748 78.8768 189.929 77.7942 189.156 76.6521C188.595 76.5438 188.001 76.4293 187.439 76.3211C184.519 83.2071 181.526 77.5956 178.576 76.3763C177.036 75.9253 175.451 75.6198 173.976 75.0101C172.739 74.4977 169.928 75.3088 170.683 72.9028C171.289 70.9134 170.524 68.0432 173.914 67.0699C180.983 65.0421 182.281 62.0388 180.125 54.4825C179.445 53.4781 178.765 52.4738 178.086 51.4694C177.039 46.1478 172.375 49.7351 169.831 48.0975C162.834 53.8379 155.804 59.572 148.807 65.3125C148.325 68.0793 146.132 67.6394 144.735 66.8907C143.511 66.2266 144.68 64.6883 145.281 63.7938C146.502 61.9914 146.339 59.4599 148.421 58.166C147.819 56.0465 150.911 56.7966 150.813 55.0825C153.204 51.7418 155.291 48.4626 151.392 46.3068C150.418 46.7356 149.445 47.1645 148.492 47.5801C148.673 48.0603 148.822 48.5341 148.7 48.99C148.397 50.1133 147.06 51.1911 146.831 50.5133C146.588 49.8159 146.274 49.2246 145.862 48.6998C145.355 48.8419 141.588 49.7255 138.267 47.2359C134.256 44.2366 134.735 39.1747 134.76 38.9569C133.617 35.8255 131.45 33.3872 129.795 30.6023C128.436 31.5219 127.077 32.4415 125.718 33.3612L122.666 35.427C117.506 38.9188 99.0667 44.6797 104.608 37.2544C110.003 34.493 108.531 28.5412 110.644 24.2395C110.417 23.9047 110.191 23.5699 109.951 23.2155C109.281 23.6686 108.592 24.1351 107.923 24.5882C106.277 28.8602 100.604 29.5989 99.3779 34.4483C99.0567 35.6707 97.1397 35.0443 96.9702 33.4362C96.6585 30.3452 95.2121 28.1657 92.0163 28.5771C88.3791 29.0575 90.2961 32.5265 89.3998 34.5113C88.0484 37.4358 88.1578 39.8885 90.2067 42.4067C91.1181 43.5414 91.7314 45.4233 90.1866 46.153C88.0238 47.1574 87.7638 44.864 87.1604 43.4634C85.4507 39.4523 85.3936 35.0405 85.3382 30.8858C85.305 27.0608 87.1185 23.2493 92.2567 23.3322C92.5915 23.1056 92.9263 22.8791 93.2808 22.6392C90.5139 16.4721 95.6948 12.248 97.1761 7.13956C97.3179 6.67029 98.4752 6.17422 99.1483 6.23547C100.33 6.32616 100.456 7.44649 100.746 8.42715C101.159 9.84227 98.0396 11.8096 101.429 12.7027C103.268 11.6016 104.895 10.2713 105.817 8.24009C105.8 6.72989 109.764 4.01801 104.278 4.142C101.68 4.20627 101.946 1.67182 103.023 0.0814498C104.244 -1.72096 105.942 -3.15736 107.434 -4.77041C107.543 -5.33176 107.67 -5.90644 107.765 -6.48749C101.137 -4.6144 96.3128 -6.94846 93.0333 -12.8547C91.2353 -12.4992 89.2563 -13.5143 87.5772 -12.1769C83.2569 -9.3966 81.1669 -12.1455 79.3495 -15.5096C78.5524 -15.3721 77.7623 -15.1819 76.9716 -15.0775C75.2784 -14.8217 73.9513 -12.2007 72.1134 -13.7708C70.0566 -15.5372 71.9666 -17.806 72.7147 -19.2886C75.5248 -24.8943 76.9059 -18.8231 79.0072 -18.264C83.262 -18.1287 87.1894 -18.6046 88.8377 -23.424C88.1935 -25.9455 83.7646 -27.3986 86.7408 -30.9346C86.5733 -31.3094 86.4058 -31.6841 86.2383 -32.0589C83.5295 -29.9097 80.8009 -27.7473 78.1054 -25.5784C78.2468 -25.1573 78.3089 -24.7686 78.1919 -24.5172C77.7947 -23.7889 77.1013 -23.9226 76.643 -24.3877C65.9136 -15.7193 55.2774 -6.91305 44.7543 2.01771C43.1349 3.40079 41.5022 4.76422 39.8829 6.14733C37.5621 8.14865 35.2413 10.15 32.9205 12.1514C30.9079 13.8867 28.8889 15.6551 26.8896 17.4102C24.8051 19.2517 22.727 21.06 20.6559 22.9211C18.3815 24.9485 16.0874 26.9893 13.8263 29.0364C11.9845 30.6848 10.156 32.353 8.31428 34.0014C5.65357 36.4338 3.01251 38.8529 0.384813 41.2917C-1.07643 42.6539 -2.55097 43.9964 -3.99255 45.3453C-8.10754 49.1926 -12.1895 53.0463 -16.2448 56.9394C-42.8436 82.4637 -68.1804 109.259 -91.9645 137.415C-94.0905 139.916 -93.8582 142.975 -92.4112 145.24C-91.9847 145.87 -91.4858 146.48 -90.8954 146.97C-90.305 147.461 -89.6428 147.845 -88.9285 148.137C-88.578 148.273 -88.2014 148.363 -87.8249 148.453C-86.3193 148.726 -84.6724 148.444 -83.0773 147.364C-75.7522 142.321 -66.7439 149.777 -64.1946 156.895C-60.6305 166.743 -67.1213 177.941 -72.6003 185.755C-76.3095 191.05 -80.204 196.241 -84.1913 201.381C-96.1665 216.778 -109.082 231.635 -121.23 246.777C-124.585 250.942 -122.239 256.36 -117.401 257.738C-109.887 259.888 -102.387 262.019 -94.8733 264.169C-107.783 285.568 -120.692 306.968 -133.595 328.334C-134.123 329.208 -134.361 330.173 -134.327 331.155C-134.307 332.118 -134.037 333.112 -133.589 333.986C-133.294 334.591 -132.908 335.162 -132.456 335.66C-132.23 335.909 -132.004 336.158 -131.739 336.38C-129.986 337.951 -127.594 338.686 -125.346 337.595C-117.419 333.695 -109.22 334.865 -102.254 338.879C-101.79 339.139 -101.333 339.433 -100.876 339.727C-96.3377 342.656 -92.4244 346.784 -89.5426 351.466C-89.2557 351.933 -88.9886 352.412 -88.7214 352.892C-88.1871 353.851 -87.7055 354.817 -87.2633 355.81C-86.6067 357.289 -86.0618 358.816 -85.6224 360.356C-84.4728 364.43 -83.9494 368.555 -83.9601 372.697C-83.9502 389.258 -92.0311 406.04 -99.2702 420.586C-99.8817 421.804 -100.473 423.009 -101.059 424.18C-101.872 425.821 -101.866 427.655 -101.274 429.293C-100.884 430.378 -100.237 431.376 -99.3807 432.175C-99.1617 432.371 -98.956 432.548 -98.7173 432.731C-97.7828 433.391 -96.6653 433.811 -95.458 433.856C-95.1678 433.86 -94.8579 433.852 -94.5416 433.81C-89.4742 433.194 -84.387 432.565 -79.3329 431.93C-79.7365 432.691 -80.1864 433.426 -80.6497 434.142C-82.0789 436.315 -83.8326 438.306 -85.9767 440.101C-91.1499 444.464 -88.669 452.203 -81.7691 452.385C-79.4339 452.442 -77.1724 452.347 -74.9712 452.12C-55.7463 450.192 -40.078 438.555 -22.9967 429.981C-22.3329 429.646 -21.6888 429.325 -21.0117 429.01C-19.6905 428.375 -18.356 427.759 -17.0081 427.162C-14.5556 426.077 -11.9578 425.036 -9.30598 424.16C-7.97024 423.716 -6.62754 423.324 -5.25819 422.971C-3.20416 422.443 -1.1559 422.033 0.926587 421.801C2.31046 421.639 3.69494 421.564 5.06669 421.554C5.75256 421.549 6.43206 421.578 7.12489 421.625C9.86321 421.811 12.5779 422.385 15.2034 423.422C23.6559 426.833 32.7116 436.352 29.3967 446.176C27.1673 452.767 34.0463 458.477 39.4919 454.389C39.8661 454.136 40.2199 453.81 40.5668 453.432C65.0559 428.015 92.1043 405.488 121.362 385.802C125.448 394.809 129.553 403.803 133.639 412.81C135.501 416.919 140.044 418.582 143.642 416.262C144.154 415.915 144.659 415.516 145.131 415.025L211.557 343.94C214.427 350.64 217.302 357.308 220.172 364.008C221.935 368.098 226.656 369.813 230.208 367.467C230.719 367.12 231.192 366.715 231.65 366.204C235.386 362.009 239.077 357.789 242.721 353.543C243.447 352.707 244.153 351.884 244.866 351.028C248.386 346.895 251.878 342.722 255.312 338.504C255.92 337.748 256.528 336.991 257.149 336.255C260.491 332.156 263.786 328.031 267.041 323.846C267.316 323.488 267.604 323.15 267.878 322.792C271.31 318.402 274.682 313.966 278.008 309.504C278.635 308.649 279.276 307.814 279.903 306.959C283.209 302.51 286.469 298.036 289.702 293.522C290.075 293.011 290.414 292.495 290.786 291.984C293.895 287.583 296.99 283.163 300.006 278.71C300.339 278.226 300.672 277.742 301.025 277.245C304.184 272.58 307.298 267.889 310.365 263.172C310.854 262.41 311.337 261.681 311.826 260.919C314.932 256.089 318.024 251.24 321.037 246.358C321.077 246.332 321.089 246.266 321.115 246.219C324.174 241.278 327.16 236.271 330.106 231.291C330.413 230.768 330.712 230.278 331.019 229.755C333.926 224.801 336.773 219.802 339.587 214.796C339.9 214.24 340.213 213.684 340.525 213.128C346.238 202.859 351.738 192.446 357.034 181.942C357.281 181.459 357.534 180.943 357.782 180.46C360.423 175.198 362.998 169.924 365.513 164.604C365.656 164.306 365.799 164.008 365.929 163.691C371.063 152.865 375.96 141.942 380.638 130.909C380.898 130.274 381.047 129.943 381.255 129.486C384.486 121.787 386.705 115.605 388.159 111.348L388.009 111.507ZM350.547 -4.0049C350.011 -5.22129 350.804 -5.87316 351.671 -6.37385C352.348 -6.77429 353.236 -7.11681 353.763 -6.21034C354.337 -5.27782 354.159 -4.26749 353.227 -3.60808C352.262 -2.95503 351.363 -3.26534 350.547 -4.0049ZM336.915 35.8001C336.515 35.1235 336.205 34.2419 337.079 33.7082C338.011 33.1345 338.962 33.3522 339.701 34.2308C340.262 35.2293 340.163 36.2721 339.264 36.8521C338.161 37.5985 337.435 36.6538 336.915 35.8001ZM336.108 47.8024C335.643 45.4182 336.605 43.3604 338.025 41.6819C339.287 40.1958 341.327 40.452 342.215 42.0616C343.217 43.8815 344.587 46.4573 341.973 47.9396C340.376 48.8477 338.104 49.3516 336.108 47.8024ZM293.232 38.2018C296.252 41.9862 296.019 44.527 294.304 47.2101C294.016 44.7059 293.695 42.1953 293.232 38.2018ZM288.774 58.2165C288.695 54.4512 285.237 52.1406 285.192 47.6627C287.245 48.8289 288.537 49.763 289.966 50.3467C293.035 51.5718 294.252 55.9161 292.073 58.4243C290.883 59.8044 288.798 59.6937 288.755 58.2298L288.774 58.2165ZM348.352 81.3792C347.553 80.1977 346.806 79.0091 348.676 77.6573C352.528 79.6156 354.305 71.4647 357.622 75.2206C359.63 77.5084 355.776 81.0637 353.879 83.2665C352.466 84.912 349.765 83.3809 348.339 81.3595L348.352 81.3792ZM73.9551 32.8184C71.4264 32.4337 72.1168 29.2962 72.4576 27.0844C73.9543 17.2471 76.0655 10.4106 78.7912 6.57521C80.4705 9.05649 77.9321 12.0091 79.872 14.0269C81.8958 12.9444 82.8054 10.9793 83.9137 9.13806C85.0024 7.31015 86.3027 6.51627 88.0051 8.52254C94.6063 12.2094 87.8433 15.5806 87.7293 19.1032C85.6043 23.6424 81.1581 25.3881 77.2171 27.7108C77.2675 30.2034 76.8273 33.2865 73.9487 32.8515L73.9551 32.8184ZM82.7993 42.2803C86.9991 44.9221 84.2318 47.197 81.8275 48.5657C80.1721 49.5138 77.7212 52.723 75.6715 49.1429C73.1878 44.7941 78.6941 42.7904 79.4794 39.0718C79.8815 37.163 81.9497 40.5583 82.7993 42.2803ZM168.008 68.4829C167.418 69.0542 166.33 69.0156 165.869 68.2076C164.293 65.4552 165.525 63.2438 167.874 60.6486C169.307 63.7846 170.333 66.1913 168.008 68.4829ZM138.305 71.5588C138.581 71.458 139.489 72.1639 139.518 72.5463C139.686 74.7875 138.374 75.8189 135.765 76.2064C135.536 73.6623 136.377 72.2318 138.305 71.5588ZM144.588 56.1943C144.497 59.2419 144.571 63.126 139.595 62.732C137.51 63.5116 138.386 67.2252 135.919 67.0577C134.078 66.9255 133.218 64.6363 132.638 62.9322C132.066 61.2808 131.161 59.137 132.767 57.7342C134.367 56.3645 134.991 58.8993 136.214 59.2205C136.914 59.4069 137.763 59.091 138.534 58.9999C138.789 56.8744 136.466 53.7381 140.18 53.0329C141.926 52.6844 144.657 53.7931 144.582 56.2273L144.588 56.1943ZM244.94 95.7786C241.439 95.9085 238.94 95.9919 236.079 96.091C237.037 93.6045 236.926 90.0042 239.898 89.601C241.13 89.4275 242.864 93.1352 244.94 95.7786ZM216.736 74.5538C219.634 73.9136 220.626 77.1186 222.659 78.3839C223.421 78.8733 223.094 80.2144 222.29 80.2991C219.424 80.6884 217.34 78.7969 215.382 77.1354C214.487 76.3634 215.456 75.3344 216.723 74.5341L216.736 74.5538Z" fill="#FF3300"/>
</g>
<defs>
<linearGradient id="paint0_linear_404_85315" x1="0" y1="-4.73741" x2="79.3975" y2="225.951" gradientUnits="userSpaceOnUse">
<stop offset="0.0885417" stop-color="#EB4023"/>
<stop offset="1" stop-color="#FF8807"/>
</linearGradient>
<linearGradient id="paint1_linear_404_85315" x1="0" y1="-4.73741" x2="79.3975" y2="225.951" gradientUnits="userSpaceOnUse">
<stop offset="0.0885417" stop-color="#EB4023"/>
<stop offset="1" stop-color="#FF8807"/>
</linearGradient>
<linearGradient id="paint2_linear_404_85315" x1="0" y1="-4.73741" x2="79.3975" y2="225.951" gradientUnits="userSpaceOnUse">
<stop offset="0.0885417" stop-color="#EB4023"/>
<stop offset="1" stop-color="#FF8807"/>
</linearGradient>
<linearGradient id="paint3_linear_404_85315" x1="0" y1="-4.73741" x2="79.3975" y2="225.951" gradientUnits="userSpaceOnUse">
<stop offset="0.0885417" stop-color="#EB4023"/>
<stop offset="1" stop-color="#FF8807"/>
</linearGradient>
<linearGradient id="paint4_linear_404_85315" x1="0" y1="-4.73741" x2="79.3975" y2="225.951" gradientUnits="userSpaceOnUse">
<stop offset="0.0885417" stop-color="#EB4023"/>
<stop offset="1" stop-color="#FF8807"/>
</linearGradient>
<linearGradient id="paint5_linear_404_85315" x1="0" y1="-4.73741" x2="79.3975" y2="225.951" gradientUnits="userSpaceOnUse">
<stop offset="0.0885417" stop-color="#EB4023"/>
<stop offset="1" stop-color="#FF8807"/>
</linearGradient>
<linearGradient id="paint6_linear_404_85315" x1="0" y1="-4.73741" x2="79.3975" y2="225.951" gradientUnits="userSpaceOnUse">
<stop offset="0.0885417" stop-color="#EB4023"/>
<stop offset="1" stop-color="#FF8807"/>
</linearGradient>
<linearGradient id="paint7_linear_404_85315" x1="0" y1="-4.73741" x2="79.3975" y2="225.951" gradientUnits="userSpaceOnUse">
<stop offset="0.0885417" stop-color="#EB4023"/>
<stop offset="1" stop-color="#FF8807"/>
</linearGradient>
</defs>
</svg>
