<svg width="259" height="199" viewBox="0 0 259 199" fill="none" xmlns="http://www.w3.org/2000/svg">
<g clip-path="url(#clip0_307_6901)">
<path d="M54.0298 11.1904C54.7098 11.6604 55.3898 12.1404 56.0598 12.6304C55.3898 12.1404 54.7098 11.6604 54.0298 11.1904Z" fill="#A5AC33"/>
<path d="M4.14992 37.4502C4.48992 37.4502 4.82992 37.4502 5.16992 37.4502C4.78992 36.5102 4.36992 35.5702 4.03992 34.6102C3.77992 33.8602 2.75992 33.1702 3.50992 32.3102C4.17992 31.5402 4.63992 32.7502 5.28992 32.7502C5.95992 32.7502 6.64992 32.9502 7.17992 32.2902C7.75992 31.5802 7.57992 30.8902 7.29992 30.1302C7.09992 29.5902 6.71992 28.9602 6.28992 29.3002C5.17992 30.1702 4.26992 29.3202 3.25992 29.2602C2.35992 29.2102 1.40992 29.1602 0.669922 29.5302C1.00992 31.3302 1.47992 33.0902 2.03992 34.7802C2.63992 36.5802 3.34992 38.3302 4.12992 40.0402C3.73992 39.1902 3.35992 38.3202 3.01992 37.4402C3.39992 37.4402 3.77992 37.4402 4.15992 37.4402L4.14992 37.4502Z" fill="#A5AC33"/>
<path d="M51.7598 9.66992C52.4398 10.1099 53.1198 10.5599 53.7998 11.0199C53.1298 10.5599 52.4498 10.1099 51.7598 9.66992Z" fill="#A5AC33"/>
<path d="M254.27 7.86035C254.39 7.95035 254.52 8.04035 254.64 8.13035C254.52 8.03035 254.39 7.95035 254.27 7.86035Z" fill="#A5AC33"/>
<path d="M4.70996 7.79012C5.03996 7.39012 5.37996 7.00012 5.73996 6.62012C5.37996 7.00012 5.02996 7.39012 4.70996 7.79012Z" fill="#A5AC33"/>
<path d="M5.75 6.6102C6.14 6.2102 6.54 5.8202 6.97 5.4502C6.54 5.8202 6.13 6.2102 5.75 6.6102Z" fill="#A5AC33"/>
<path d="M6.97998 5.44035C7.40998 5.07035 7.86998 4.71035 8.33998 4.36035C7.85998 4.70035 7.40998 5.06035 6.97998 5.44035Z" fill="#A5AC33"/>
<path d="M44.9702 5.7998C45.6602 6.1498 46.3502 6.4998 47.0302 6.8698C46.3502 6.4998 45.6702 6.1498 44.9702 5.7998Z" fill="#A5AC33"/>
<path d="M118.94 158.89C119.37 158.48 119.81 158.09 120.27 157.7C119.81 158.09 119.37 158.48 118.94 158.89C118.24 159.17 117.66 159.72 117.42 160.54C117.07 160.98 116.76 161.46 116.46 161.96C116.75 161.46 117.07 160.98 117.42 160.54C117.66 159.72 118.24 159.17 118.94 158.89Z" fill="#A5AC33"/>
<path d="M112.57 197.24C112.69 197.1 112.81 196.95 112.92 196.78C115.68 192.3 117.89 187.56 119.52 182.64C117.89 187.56 115.68 192.3 112.92 196.78C112.81 196.95 112.7 197.11 112.57 197.24Z" fill="#A5AC33"/>
<path d="M107.75 194.6C109.63 186.95 111.51 179.29 113.38 171.64C113.47 171.25 113.57 170.87 113.66 170.48C113.57 170.87 113.48 171.26 113.38 171.64C111.5 179.29 109.62 186.95 107.75 194.6C107.37 196.16 108.24 197.39 109.41 197.89C108.24 197.39 107.37 196.16 107.75 194.6Z" fill="#A5AC33"/>
<path d="M126.6 159.65C126.99 159.28 127.37 158.91 127.72 158.53C127.36 158.91 126.99 159.28 126.6 159.65Z" fill="#A5AC33"/>
<path d="M3.68018 9.17973C3.96018 8.75973 4.26018 8.35973 4.57018 7.96973C4.26018 8.36973 3.96018 8.76973 3.68018 9.17973Z" fill="#A5AC33"/>
<path d="M104.29 137.85C104.51 138.24 104.79 138.56 105.14 138.84C104.8 138.56 104.51 138.23 104.29 137.85Z" fill="#A5AC33"/>
<path d="M149 139.14C144.95 140.22 140.47 140.57 136.13 140.78C140.47 140.57 144.95 140.22 149 139.14C151.38 138.5 153.08 136.83 153.58 134.83C153.08 136.83 151.38 138.51 149 139.14Z" fill="#A5AC33"/>
<path d="M106.31 139.55C108.04 140.32 110.35 140.47 112.15 140.62C113.31 140.72 114.48 140.8 115.64 140.87C114.48 140.8 113.31 140.72 112.15 140.62C110.35 140.47 108.04 140.32 106.31 139.55Z" fill="#A5AC33"/>
<path d="M122.63 141.13C123.8 141.14 124.96 141.15 126.13 141.13C126.07 141.67 126.03 142.2 126.01 142.74C126.04 142.2 126.07 141.66 126.13 141.13C124.96 141.14 123.8 141.14 122.63 141.13Z" fill="#A5AC33"/>
<path d="M125.94 146.8C125.94 147.07 125.94 147.34 125.93 147.61C125.91 148.6 125.82 149.5 125.66 150.33C125.82 149.5 125.9 148.6 125.93 147.61C125.93 147.34 125.93 147.07 125.94 146.8Z" fill="#A5AC33"/>
<path d="M183.01 110.63C182.42 111.14 181.83 111.65 181.23 112.15C181.83 111.65 182.42 111.14 183.01 110.63Z" fill="#A5AC33"/>
<path d="M190.15 104.3C189.67 104.74 189.18 105.17 188.7 105.61C189.18 105.17 189.67 104.74 190.15 104.3Z" fill="#A5AC33"/>
<path d="M205.09 90.25C203.59 91.67 202.09 93.1 200.59 94.53C202.09 93.1 203.59 91.68 205.09 90.25Z" fill="#A5AC33"/>
<path d="M186.61 107.49C186.05 107.99 185.48 108.48 184.92 108.98C185.48 108.49 186.05 107.99 186.61 107.49Z" fill="#A5AC33"/>
<path d="M212.57 83.1104C210.17 85.4104 207.77 87.7004 205.36 89.9804C207.77 87.7004 210.17 85.4004 212.57 83.1104Z" fill="#A5AC33"/>
<path d="M230.32 65.5703C228.68 67.2503 227.03 68.9303 225.38 70.5903C227.04 68.9303 228.69 67.2503 230.32 65.5703Z" fill="#A5AC33"/>
<path d="M2.06006 12.1396C2.22006 11.7896 2.38006 11.4396 2.56006 11.0996C2.38006 11.4396 2.22006 11.7896 2.06006 12.1396Z" fill="#A5AC33"/>
<path d="M225.25 70.71C223.49 72.48 221.71 74.23 219.93 75.97C221.71 74.22 223.49 72.47 225.25 70.71Z" fill="#A5AC33"/>
<path d="M236.66 58.9404C234.99 60.7204 233.3 62.4904 231.6 64.2504C233.3 62.4904 234.99 60.7304 236.66 58.9404Z" fill="#A5AC33"/>
<path d="M179.19 113.85C178.64 114.3 178.1 114.76 177.55 115.2C178.1 114.76 178.64 114.3 179.19 113.85Z" fill="#A5AC33"/>
<path d="M177.11 109.49C176.34 109.7 176.1 110.35 176.1 111.06C176.1 111.42 176.4 111.63 176.83 111.65C177.48 111.31 177.7 110.65 177.8 109.99C177.87 109.55 177.44 109.4 177.11 109.49Z" fill="#A5AC33"/>
<path d="M1.20996 14.3902C1.30996 14.0802 1.41996 13.7602 1.52996 13.4502C1.41996 13.7602 1.30996 14.0702 1.20996 14.3902Z" fill="#A5AC33"/>
<path d="M129.6 156.1C129.07 156.98 128.43 157.77 127.72 158.53C128.43 157.77 129.06 156.97 129.6 156.1Z" fill="#A5AC33"/>
<path d="M0.660176 29.5304C0.580176 29.0904 0.500176 28.6404 0.430176 28.1904C0.500176 28.6404 0.570176 29.0804 0.660176 29.5304Z" fill="#A5AC33"/>
<path d="M1.62012 13.2298C1.73012 12.9298 1.86012 12.6298 1.98012 12.3398C1.85012 12.6398 1.73012 12.9298 1.62012 13.2298Z" fill="#A5AC33"/>
<path d="M0.399766 28.0005C0.189766 26.5905 0.0597656 25.1605 0.00976562 23.7305C0.0497656 25.1605 0.189766 26.5905 0.399766 28.0005Z" fill="#A5AC33"/>
<path d="M110.81 198.12C110.33 198.16 109.85 198.08 109.41 197.89C109.85 198.08 110.33 198.16 110.81 198.12Z" fill="#A5AC33"/>
<path d="M125.37 151.52C125.49 151.14 125.59 150.74 125.67 150.32C125.59 150.74 125.49 151.13 125.37 151.52Z" fill="#A5AC33"/>
<path d="M106.31 139.55C105.88 139.36 105.48 139.13 105.14 138.85C105.48 139.13 105.88 139.36 106.31 139.55Z" fill="#A5AC33"/>
<path d="M62.3901 30.4599C62.1301 30.5699 61.8601 30.8999 61.8101 31.1699C61.7301 31.6099 62.1301 31.6899 62.4801 31.6699C62.8901 31.6399 63.0101 31.3299 63.0401 30.9699C63.0201 30.5399 62.7301 30.3299 62.3901 30.4699V30.4599Z" fill="#A5AC33"/>
<path d="M66.23 24.5203C67.51 26.4303 68.19 25.3303 68.83 24.0003C67.79 23.3103 66.81 22.9003 66.23 24.5203Z" fill="#A5AC33"/>
<path d="M93.6602 109.45C93.6602 109.45 93.6602 109.46 93.6702 109.47C93.6702 109.47 93.6702 109.46 93.6602 109.45Z" fill="#A5AC33"/>
<path d="M93.0601 108.37C93.0601 108.37 93.0901 108.43 93.1001 108.46C93.0901 108.43 93.0701 108.4 93.0601 108.37Z" fill="#A5AC33"/>
<path d="M94.3501 110.38C94.4001 110.44 94.4401 110.49 94.4901 110.55C94.4401 110.49 94.3901 110.44 94.3501 110.38Z" fill="#A5AC33"/>
<path d="M168.46 56.1201C168.08 56.1801 167.43 56.2801 167.37 57.0101C167.32 57.5801 167.85 57.6001 168.27 57.6001C168.82 57.6001 169.32 57.3801 169.46 56.8401C169.6 56.3001 169.16 56.1401 168.46 56.1201Z" fill="#A5AC33"/>
<path d="M212.13 81.51C210.32 81.99 208.68 79.28 206.85 81.31C206.78 81.39 206.25 81.06 205.94 80.93C205.46 80.68 205.18 80.41 205.22 79.75C205.33 77.98 204.64 76.47 203.36 75.23C203.51 73.93 204.54 74.28 205.33 74.19C205.87 74.13 206.39 74.01 206.3 73.32C206.24 72.8 205.78 72.71 205.34 72.68C203.57 72.53 201.86 72.51 201.28 74.74C201.11 74.91 200.94 75.08 200.76 75.26C200.24 75.09 199.72 74.91 199.2 74.74C198.86 74.74 198.51 74.74 198.17 74.74C195.9 74.95 194.45 73.54 192.99 72.15C192.24 72.23 191.57 71.99 190.92 71.63C192.21 69.52 189.76 69.83 189.09 69.15C189.56 67.99 191.81 69.15 191.14 67.45C190.84 66.71 189.94 64.66 188.07 66.27C187.06 67.14 185.97 67.18 185.74 65.41C185.73 63.7 186.04 61.88 184.2 60.78C184.07 60.57 183.94 60.39 183.79 60.25C182.93 50.59 182.85 40.91 183.57 31.25C187.59 28.32 191.75 25.58 196.02 23.01C191.76 25.58 187.59 28.32 183.57 31.25C181.56 32.72 179.58 34.24 177.63 35.79C171.44 40.72 165.59 46.07 160.13 51.8C158.2 53.82 156.33 55.89 154.5 58C154.31 58.21 154.14 58.44 153.95 58.65C154.02 58.67 154.09 58.69 154.16 58.71C154.28 58.83 154.4 58.95 154.52 59.07C154.52 59.59 154.54 60.11 154.55 60.62C154.03 60.24 153.6 59.44 153.17 60.23C152.71 61.08 153.95 61.07 154.57 61.46C154.58 61.89 154.59 62.32 154.61 62.76C154.31 62.87 153.91 62.82 153.51 62.76C152.7 62.63 151.77 61.47 151.13 62.02C151.89 61.09 152.67 60.18 153.45 59.26C152.59 60.26 151.74 61.27 150.91 62.29C150.91 62.29 150.91 62.29 150.9 62.31C150.42 63.19 152.05 63.97 152.51 64.96C152.7 65.37 153.25 65.63 153.63 65.95C152.15 65.44 150.48 65.18 149.52 64.04C149.86 63.62 150.19 63.19 150.53 62.77C149.62 63.89 148.72 65.02 147.84 66.17C139.56 76.99 130.78 89.74 127.14 103.02C126.75 104.43 126.46 105.86 126.27 107.31C125.38 100.88 123.93 94.54 121.94 88.35C121.41 86.7 119.88 86.18 118.55 86.47C108.85 70.32 97.7098 55.04 85.2698 40.89C83.5998 38.99 81.9098 37.11 80.1898 35.25C79.6498 34.67 79.0998 34.09 78.5598 33.52C78.4198 33.84 78.2698 34.15 78.1198 34.41C78.1098 34.57 78.0998 34.73 78.0898 34.89C77.9298 34.73 77.7698 34.56 77.5998 34.4C77.3498 33.41 77.2198 32.68 77.2598 32.13C75.8698 30.67 74.4798 29.22 73.0698 27.79C69.3398 24.02 65.4598 20.3 61.3498 16.86C60.9198 16.5 60.4798 16.15 60.0398 15.8C59.1698 15.09 58.2898 14.4 57.3898 13.72C56.9398 13.38 56.4998 13.03 56.0498 12.7C55.8798 14.47 55.7498 16.23 55.6498 18C55.5498 17.95 55.4598 17.9 55.3498 17.85C55.1098 18.06 54.6298 18.32 54.6598 18.49C55.0598 21.04 53.7498 20.63 52.2498 19.92C52.8298 18.8 52.2198 18.45 51.2298 18.36C51.2998 17.61 51.0498 16.94 50.7098 16.3C50.8798 15.09 51.0498 13.88 51.2198 12.68C51.3898 11.7 51.8698 10.77 51.7498 9.73998C50.2098 8.74998 48.6298 7.80998 47.0198 6.92998C47.0198 8.50998 47.1098 10.09 47.5898 11.64C46.5498 11.47 45.5798 10.94 44.4898 11.13C43.4598 10.54 42.4198 9.19998 41.3898 11.13C40.5298 10.69 41.2098 9.49998 40.3798 9.04998C40.3698 8.87998 40.3598 8.70998 40.3598 8.53998C40.9698 8.16998 40.8398 7.54998 40.8898 6.98998C41.1298 6.90998 41.3698 6.80998 41.6198 6.75998C42.2198 6.63998 42.7298 7.96998 43.3298 6.94998C43.7098 6.30998 43.3198 5.65998 42.8898 5.06998C42.8298 4.98998 42.7798 4.88998 42.7398 4.78998C43.4498 5.10998 44.1598 5.44998 44.8498 5.78998C44.0098 5.37998 43.1698 4.96998 42.3198 4.59998C41.0898 4.05998 39.8098 3.53998 38.4998 3.05998C36.6598 2.38998 34.7598 1.79998 32.8198 1.32998C24.7198 -0.720018 15.9998 -0.740018 8.98977 3.89998C8.76977 4.04998 8.54977 4.19998 8.33977 4.35998C9.27977 4.87998 10.2098 5.43998 11.3698 5.37998C11.1798 6.26998 12.4698 6.70998 12.0798 7.73998C10.6598 7.76998 9.09977 6.67998 7.91977 8.45998C7.16977 9.58998 5.80977 10.23 4.57977 9.63998C4.27977 9.49998 3.96977 9.33998 3.66977 9.17998C3.25977 9.79998 2.88977 10.43 2.54977 11.09C3.38977 11.31 4.24977 11.48 5.13977 11.59C5.75977 12.21 5.38977 13.56 6.68977 13.67C6.44977 17.02 9.18977 17.67 11.3598 18.83C11.9598 19.79 11.9098 20.86 11.8698 21.93C10.4898 22.62 9.10977 23.31 7.73977 24.01C4.34977 23.75 3.61977 23.1 2.56977 19.36C3.37977 19.26 4.68977 19.38 3.50977 18.04C2.73977 17.16 2.02977 16.08 0.819774 15.69C0.919774 15.31 1.01977 14.94 1.13977 14.57C0.789774 15.69 0.529774 16.83 0.339774 18C0.389774 18.11 0.439774 18.21 0.499774 18.32C0.419774 18.43 0.339774 18.51 0.259774 18.6C0.039774 20.28 -0.040226 22 0.019774 23.73C0.189774 23.66 0.349774 23.59 0.509774 23.5C1.11977 24.15 1.75977 24.55 2.73977 24.22C4.21977 23.73 5.36977 24.29 6.20977 25.56C5.41977 25.77 3.94977 25.06 4.06977 26.51C4.16977 27.67 5.34977 27.54 6.33977 27.19C7.02977 26.94 7.66977 27.34 8.27977 27.64C8.35977 28.87 7.74977 30.35 10.1898 30.09C11.9298 29.91 12.9298 31.86 12.4898 33.61C12.3498 34.17 12.4298 34.79 12.4098 35.38C11.7198 34.9 11.0398 34.92 10.3498 35.38C9.95977 34.91 9.52977 35.22 9.23977 35.43C8.33977 36.11 6.78977 34.51 6.38977 36.04C6.08977 37.2 8.00977 37.34 8.25977 38.47C7.74977 38.47 7.23977 38.47 6.72977 38.47C6.51977 38 6.19977 37.64 5.69977 37.48C5.52977 37.48 5.34977 37.47 5.17977 37.46C4.95977 38.37 5.79977 39.7 4.14977 40.05C4.14977 40.05 4.12977 40.05 4.11977 40.05C8.74977 50.14 16.3498 58.62 24.2798 66.31C25.2898 67.29 26.3098 68.25 27.3298 69.22C27.6998 69.06 28.0798 68.84 28.4498 68.51C28.2798 68.34 28.1098 68.16 27.9398 67.99C28.1098 68.16 28.2798 68.34 28.4498 68.51C28.0798 68.83 27.6998 69.06 27.3298 69.22C31.6898 73.35 36.1098 77.41 40.2598 81.76C43.3498 84.99 46.2498 88.39 49.1398 91.81C49.1398 91.8 49.1498 91.79 49.1598 91.78C49.1498 91.71 49.1198 91.64 49.0898 91.57C49.1298 91.64 49.1498 91.71 49.1598 91.78C49.1598 91.79 49.1498 91.8 49.1398 91.81C50.7698 93.74 52.3998 95.68 54.0498 97.6C62.9198 107.91 72.6898 116.42 85.1098 122.18C88.7598 123.87 92.4898 125.36 96.2698 126.73C96.2898 126.61 96.3198 126.49 96.3698 126.39C96.3198 126.5 96.2998 126.61 96.2798 126.73C99.3598 127.84 102.46 128.88 105.58 129.86C106.22 130.06 106.9 130.3 107.62 130.56C107.4 130.69 107.18 130.82 106.97 130.96C107.18 130.82 107.4 130.69 107.62 130.56C109.81 129.3 112.51 128.53 114.34 127.89C118.47 126.47 122.75 125.63 127.09 125.28C126.81 125 126.54 124.7 126.26 124.4C126.53 124.7 126.81 125 127.09 125.28C127.16 125.28 127.23 125.27 127.3 125.26C128.63 125.16 129.96 125.11 131.29 125.09C131.44 125.09 131.6 125.09 131.75 125.09C131.93 125.09 132.09 125.11 132.25 125.14C134.87 124.95 137.51 124.99 140.14 125.31C144.13 125.81 149.88 126.56 152.5 130.05C152.74 130.37 152.93 130.69 153.1 131.02C155.59 130.21 158.05 129.02 160.43 127.64C160.43 127.42 160.44 127.19 160.44 126.97C160.44 127.19 160.42 127.42 160.43 127.64C164.79 125.12 168.87 121.97 172.39 119.25C170.83 120.45 169.15 121.74 167.4 123.03C167.13 122.64 166.88 122.22 166.64 121.79C166.12 120.9 164.98 120.08 166.72 119.14C168.15 118.37 167.05 117.66 166.33 117.36C165.66 117.08 164.82 117.2 164.05 117.14C162.85 115.57 161.24 117.27 159.92 116.63C159.15 115.18 157.91 113.83 158.89 111.99C159.05 111.81 159.21 111.63 159.37 111.46C160.57 111.18 161.75 110.79 163.02 110.93C163.36 110.94 163.7 110.96 164.04 110.97C164.72 111.89 166.18 111.82 166.65 113.01C166.7 113.9 167.15 114.43 168.05 114.56C168.48 114.62 169.04 114.67 169.09 115.14C169.48 118.88 171.53 116.14 172.87 116.13C173.54 116.54 174.2 116.95 174.87 117.35C175.78 116.64 176.68 115.94 177.58 115.22C177.31 114.61 177.04 113.99 176.49 113.54C176.15 113.37 175.8 113.19 175.46 113.02C175.43 111.55 174.13 111.4 173.21 110.87C172.17 110.28 170.84 110.46 169.86 109.67C169.12 109.08 168.13 108.3 167.43 109.32C166.65 110.47 168.57 110.41 168.79 111.42C166.1 111.22 166.57 108.72 165.63 107.33C165.9 106.64 166.51 106.33 167.11 106.05C168.72 105.3 168.38 104.53 167.18 103.71C168.19 102.63 168.86 103.54 169.44 104.19C170.26 105.1 171.21 105.38 172.37 105.25H172.62H172.87C174.94 105.32 177.11 104.8 178.72 106.82C179.26 107.5 180.3 107.35 181.16 107.33C183.06 105.77 185.14 104.4 186.35 102.16C187.83 100.69 189.4 101.16 191.3 102.06C190.25 102.11 189.5 102.12 188.76 102.19C188 102.27 187.4 102.66 187.5 103.5C187.59 104.31 188.39 104.36 188.91 104.2C189.27 104.09 189.72 104.18 190.21 104.32C193.4 101.41 196.55 98.44 199.68 95.47C197.9 97.16 196.11 98.85 194.32 100.53C194.12 100.33 193.75 100.22 193.46 100.22C191.55 100.2 190.39 98.85 188.93 98.03C188.93 97.86 188.93 97.69 188.93 97.51C191.51 97.51 193.96 95.59 196.62 96.96C197.38 97.35 197.92 97.19 198.38 96.53C198.93 95.74 198.23 95.51 197.78 95.16C197.24 94.74 196.72 94.31 196.19 93.88C196.19 93.54 196.19 93.19 196.19 92.85C196.38 90.86 196.53 88.91 197.59 87.07C198.06 86.27 196.79 86 196.19 85.6C196.36 85.09 196.54 84.57 196.71 84.05C196.88 84.05 197.05 84.05 197.22 84.05C198.57 84.96 199.32 86.39 198.52 87.73C197.4 89.62 198.52 89.86 199.81 90.26C200.48 90.56 201.23 91.11 201.37 89.75C201.72 89.51 202.04 89.2 202.42 89.04C204.39 88.22 205.94 87.31 203.77 85.07C203.44 84.73 203.54 84.28 203.9 83.94C204.26 83.6 204.63 83.68 205.07 83.85C205.89 84.17 205.4 84.5 205.22 84.97C204.99 85.59 205.42 86.12 205.92 86.46C206.29 86.71 206.74 86.58 207.08 86.26C207.69 85.69 207.32 85.23 206.97 84.71C206.75 84.37 206.68 83.94 206.54 83.54C208.47 82.29 210.48 82.63 212.7 83.09C214.77 81.1 216.84 79.1 218.89 77.1C217.15 78.79 215.41 80.48 213.66 82.17C213.25 81.66 212.8 81.39 212.2 81.55L212.13 81.51ZM8.44977 10.24C8.73977 10.14 9.03977 10.1 9.35977 10.13C9.04977 10.09 8.74977 10.13 8.44977 10.24ZM14.8898 4.22998C14.7198 4.39998 14.5798 4.60998 14.4798 4.85998C14.5798 4.60998 14.7198 4.39998 14.8898 4.22998ZM15.0098 45.73C14.6598 45.9 14.3098 46.08 13.9698 46.25C14.3198 46.08 14.6698 45.9 15.0098 45.73ZM16.5698 43.17C16.3198 43.03 16.0898 42.87 15.8798 42.7C16.0898 42.87 16.3198 43.02 16.5698 43.17ZM16.3698 5.75998C16.4998 5.44998 16.5598 5.08998 16.5598 4.71998C16.5598 5.08998 16.4998 5.45998 16.3698 5.75998ZM17.7898 4.05998C17.3898 4.12998 16.9498 4.28998 16.5498 4.34998C16.9498 4.28998 17.3898 4.12998 17.7898 4.05998C18.0598 4.00998 18.3098 4.00998 18.5298 4.09998C18.3198 4.00998 18.0598 4.01998 17.7898 4.05998ZM19.1498 52.98C18.9498 53.02 18.6598 53.05 18.4298 53.08C18.6698 53.04 18.9498 53.02 19.1498 52.98ZM19.6698 40.07C19.6798 39.68 19.6498 39.31 19.5498 38.98C19.6498 39.31 19.6798 39.68 19.6698 40.07ZM19.1498 33.85C19.4898 33.85 19.8398 33.85 20.1798 33.85C19.9998 34.7 20.1398 35.44 20.4398 36.11C20.1398 35.44 19.9998 34.7 20.1798 33.85C19.8398 33.85 19.4898 33.85 19.1498 33.85ZM20.7098 50.95C20.5398 50.82 20.4198 50.69 20.3298 50.56C20.4098 50.69 20.5398 50.82 20.7098 50.95ZM25.3598 32.32C25.4398 31.91 25.5498 31.55 25.7298 31.27C25.5498 31.55 25.4398 31.91 25.3598 32.32ZM26.9098 16.78C26.8798 18.18 26.2098 18.82 25.3698 19.15C26.2098 18.82 26.8798 18.18 26.9098 16.78C26.9098 16.61 26.9098 16.44 26.9098 16.27C26.9098 16.44 26.9098 16.61 26.9098 16.78ZM117.38 94.72C117.53 95.05 117.46 95.44 116.96 95.94C117.46 95.44 117.53 95.05 117.38 94.72ZM113.84 82.49C114.38 82.13 114.93 81.76 115.47 81.4C114.93 81.76 114.38 82.13 113.84 82.49ZM113.33 90.74C113.5 90.75 113.67 90.76 113.84 90.76C113.67 90.76 113.5 90.76 113.33 90.74ZM106.59 71.11C107.11 71.92 107.63 72.72 108.17 73.56C107.63 72.72 107.11 71.91 106.59 71.11C106.25 71.11 105.91 71.1 105.57 71.09C105.91 71.09 106.25 71.1 106.59 71.11ZM105.06 81.45C104.63 81.45 104.27 81.31 103.96 81.1C104.26 81.31 104.62 81.45 105.06 81.45ZM104.8 89.72C104.41 89.75 104.02 89.84 103.64 90C104.03 89.83 104.42 89.75 104.8 89.72ZM101.44 63.85C101.14 64.3 100.84 64.74 100.54 65.19C100.84 64.74 101.14 64.3 101.44 63.85ZM101.51 71.69C101.35 72.04 101.11 72.34 100.91 72.65C101.11 72.34 101.35 72.04 101.51 71.69ZM101.95 89.73C102.12 90.07 102.3 90.42 102.47 90.76C102.73 90.53 102.99 90.35 103.25 90.2C102.99 90.35 102.73 90.53 102.47 90.76C102.3 91.28 102.12 91.79 101.95 92.31C101.61 92.49 101.27 92.66 100.93 92.84C100.83 93.08 100.69 93.29 100.52 93.46C100.69 93.29 100.83 93.08 100.93 92.84C101.27 92.66 101.61 92.49 101.95 92.31C102.12 91.79 102.3 91.28 102.47 90.76C102.3 90.42 102.12 90.07 101.95 89.73C101.35 89.27 100.77 89 100.2 88.88C100.77 89 101.36 89.27 101.95 89.73ZM97.8198 59.2C98.3898 59.33 98.9698 59.54 99.5398 59.64C98.9798 59.54 98.3898 59.33 97.8198 59.2C97.6398 59.03 97.4698 58.85 97.2898 58.68C97.4698 58.85 97.6398 59.03 97.8198 59.2ZM99.5398 69.03C99.4498 68.83 99.3298 68.63 99.1998 68.44C99.0998 68.29 98.9798 68.13 98.8498 67.99C98.9798 68.14 99.0998 68.29 99.1998 68.44C99.3298 68.63 99.4498 68.83 99.5398 69.03ZM97.4298 66.66C97.3898 66.59 97.3298 66.53 97.3098 66.44C97.5098 66.35 97.6698 66.24 97.7898 66.14C97.6698 66.25 97.5098 66.35 97.3098 66.44C97.3298 66.53 97.3898 66.59 97.4298 66.66ZM98.0698 82.49C97.5298 82.41 96.8898 82.45 96.2598 82.47C96.8898 82.44 97.5298 82.4 98.0698 82.49ZM97.7198 90.79C97.2598 90.88 96.7698 91.04 96.2598 91.27C96.1498 91.33 96.0698 91.39 95.9998 91.47C96.0698 91.39 96.1498 91.33 96.2598 91.27C96.7698 91.05 97.2598 90.88 97.7198 90.79ZM96.1898 55.25C96.2498 55.44 96.2798 55.64 96.2798 55.84C96.2798 55.64 96.2498 55.44 96.1898 55.25C96.1398 55.09 96.0598 54.95 95.9598 54.8C96.0598 54.95 96.1498 55.1 96.1898 55.25ZM96.2498 57.65C96.0798 57.65 95.9098 57.65 95.7398 57.65C95.9098 57.65 96.0798 57.65 96.2498 57.65ZM95.2198 58.16C95.0498 58.34 94.8798 58.51 94.7098 58.69C94.8798 58.51 95.0498 58.34 95.2198 58.16ZM92.6398 59.73C92.6898 59.34 92.8098 59.09 92.9698 58.94C92.7998 59.09 92.6798 59.34 92.6398 59.73ZM93.8998 60.47C93.6198 60.17 93.0698 60.28 92.6498 60.23C92.6498 60.07 92.6398 59.91 92.6298 59.74C92.6298 59.9 92.6298 60.06 92.6498 60.23C93.0698 60.28 93.6098 60.18 93.8998 60.47ZM90.0498 67.99C90.9098 68.16 91.7798 68.33 92.6398 68.5C91.7798 68.33 90.9098 68.16 90.0498 67.99C90.0098 67.89 89.9798 67.8 89.9598 67.72C89.9798 67.8 90.0098 67.89 90.0498 67.99ZM88.1898 87.63C88.2898 87.65 88.3898 87.65 88.4998 87.66C88.4998 87.26 88.4998 86.86 88.6498 86.57C88.4998 86.86 88.4998 87.26 88.4998 87.66C88.3898 87.66 88.2898 87.65 88.1898 87.63C88.0898 87.61 87.9998 87.59 87.9098 87.55C87.9998 87.59 88.0898 87.61 88.1898 87.63ZM88.0398 106.92C87.6998 106.8 87.3598 106.68 87.0598 106.51C87.3598 106.67 87.6998 106.79 88.0398 106.92ZM85.9098 71.11C85.5698 70.93 85.2298 70.75 84.8798 70.57C84.9398 70.24 85.0498 69.97 85.2098 69.75C85.0598 69.97 84.9398 70.24 84.8898 70.57C85.2298 70.75 85.5698 70.93 85.9098 71.11ZM85.6098 54.09C85.5698 54.02 85.5098 53.97 85.4398 53.93C85.5098 53.97 85.5598 54.02 85.6098 54.09ZM84.5598 91.34C84.4698 91.2 84.4198 91.04 84.3898 90.86C84.4198 91.04 84.4698 91.2 84.5598 91.34ZM83.2898 90.35C83.6298 90.29 84.0098 90.3 84.3798 90.29C84.0098 90.3 83.6298 90.29 83.2898 90.35ZM84.1098 92.71C83.8698 92.76 83.6898 92.94 83.5498 93.17C83.6798 92.93 83.8698 92.76 84.1098 92.71ZM83.3598 93.85C83.2698 93.9 83.1798 93.96 83.0898 94.01C83.1798 93.96 83.2698 93.9 83.3598 93.85ZM78.9198 35.47C78.7398 35.21 78.4698 35 78.1298 34.85C78.4698 35 78.7398 35.21 78.9198 35.47ZM76.8498 35.9C76.5998 35.88 76.3398 35.88 76.0798 35.93C76.3398 35.88 76.5998 35.88 76.8498 35.9ZM75.5498 48.34H75.5698H75.5498ZM62.4298 39.98C62.3498 39.98 62.2798 39.96 62.2098 39.95C62.2798 39.97 62.3498 39.98 62.4298 39.98C62.5298 39.98 62.6198 39.95 62.6998 39.92C62.6198 39.95 62.5398 39.98 62.4298 39.98ZM39.8498 12.1C40.2398 12.3 40.5298 12.57 40.7398 12.87C40.5198 12.56 40.2398 12.3 39.8498 12.1C39.6698 11.77 39.4698 11.46 39.2598 11.18C39.4698 11.46 39.6698 11.76 39.8498 12.1ZM32.8098 2.28998C32.7198 2.17998 32.6198 2.07998 32.5098 2.00998C32.6198 2.08998 32.7198 2.18998 32.8098 2.28998ZM30.5498 5.36998C30.5498 5.53998 30.5498 5.70998 30.5498 5.87998C30.9898 5.92998 31.2998 6.09998 31.5498 6.33998C31.2998 6.09998 30.9898 5.92998 30.5498 5.87998C30.5498 5.70998 30.5498 5.53998 30.5498 5.36998ZM31.0398 11.58C31.0398 11.41 31.0398 11.24 31.0398 11.06C31.0398 11.23 31.0398 11.4 31.0398 11.58C31.8598 11.15 32.5398 11.27 33.1698 11.58L33.3398 15.9C32.3298 15.05 31.1298 14.39 30.5098 13.14C30.5698 12.58 30.4298 11.95 31.0398 11.58ZM32.4998 55.47C32.4498 55.32 32.3798 55.16 32.2998 55C32.2198 54.84 32.1498 54.68 32.0898 54.53C32.1498 54.68 32.2298 54.84 32.2998 55C32.3798 55.16 32.4498 55.32 32.4998 55.47ZM27.9498 8.49998C28.0498 8.72998 28.1498 8.96998 28.2298 9.18998C28.1398 8.96998 28.0398 8.72998 27.9498 8.49998C28.2898 8.49998 28.6298 8.48998 28.9698 8.47998C28.6298 8.47998 28.2898 8.49998 27.9498 8.49998ZM29.6398 18.28C29.6798 18.22 29.7198 18.17 29.7798 18.12C29.9398 17.97 30.1798 17.86 30.5298 17.78C30.7798 17.49 31.0698 17.36 31.3798 17.3C31.0698 17.36 30.7798 17.49 30.5298 17.78C30.1798 17.85 29.9398 17.97 29.7798 18.12C29.7298 18.17 29.6798 18.22 29.6398 18.28ZM30.5298 66.96C30.4098 66.72 30.3398 66.5 30.3198 66.32C30.3398 66.5 30.3998 66.72 30.5298 66.96C30.6898 67.03 30.8398 67.12 30.9998 67.2C30.8398 67.12 30.6898 67.03 30.5298 66.96ZM32.7598 57.17C32.2898 57.08 31.7698 57.06 31.5398 56.63C31.3798 56.62 31.2198 56.61 31.0598 56.6C31.2198 56.6 31.3798 56.62 31.5398 56.63C31.7698 57.06 32.2898 57.08 32.7598 57.17C32.9898 57.22 33.2198 57.28 33.3798 57.42C33.2198 57.28 32.9898 57.21 32.7598 57.17ZM34.6698 58.15C34.3298 58.15 33.9998 58.15 33.6598 58.15C33.9998 58.15 34.3298 58.15 34.6698 58.15C35.2198 57.78 35.7998 57.65 36.3798 57.62C35.7898 57.65 35.2198 57.78 34.6698 58.15ZM37.2998 61.25C37.2698 60.8 37.3198 60.41 37.4298 60.07C37.3098 60.41 37.2598 60.79 37.2998 61.25C37.5698 61.4 37.8398 61.55 38.0998 61.7C37.8298 61.55 37.5598 61.4 37.2998 61.25ZM39.0698 78.36C39.1698 78.22 39.2498 78.04 39.3198 77.83C39.0498 77.3 39.0598 77.05 39.1998 76.93C39.0598 77.05 39.0598 77.31 39.3198 77.83C39.2498 78.04 39.1598 78.21 39.0698 78.36ZM41.8898 23.9C41.6998 23.82 41.5398 23.69 41.3898 23.5C40.8698 23.5 40.3598 23.5 39.8398 23.5C40.3598 23.5 40.8698 23.5 41.3898 23.5C41.5298 23.69 41.6998 23.82 41.8898 23.9C41.9498 23.93 42.0198 23.95 42.0798 23.96C42.0098 23.94 41.9498 23.92 41.8898 23.9ZM47.1298 60.76C47.1198 60.59 47.1098 60.42 47.0998 60.24C47.1098 60.41 47.1198 60.58 47.1298 60.76C47.2698 60.8 47.4098 60.86 47.5498 60.92C47.4098 60.86 47.2598 60.8 47.1298 60.76ZM48.1298 45.23C47.4598 45.08 46.8998 45.19 46.4098 45.43C46.9098 45.19 47.4598 45.07 48.1298 45.23C48.2198 45.08 48.3298 44.97 48.4498 44.9C48.3298 44.97 48.2198 45.08 48.1298 45.23ZM46.3198 27.56C46.4898 27.82 46.7498 28.02 47.0898 28.16C46.7498 28.02 46.4898 27.81 46.3198 27.56ZM46.5898 22.98C45.7298 21.6 44.8598 21.62 43.9698 22.96C43.0698 22.49 42.4198 21.77 41.8898 20.93C41.7298 20.93 41.5698 20.92 41.3998 20.92C41.5598 20.92 41.7198 20.92 41.8898 20.93C41.2498 19.86 42.1198 17.69 39.8398 17.85C39.5798 17.87 39.3298 17.87 39.0798 17.86C39.0498 17.15 39.0298 16.44 38.9998 15.73C39.8698 15.65 40.7098 15.41 41.4298 14.68C41.9398 14.85 42.4498 15.03 42.9498 15.2C43.6398 15.49 44.3298 16.17 45.0398 15.23C45.7998 14.85 46.6198 14.36 47.2798 15.27C47.6298 15.75 48.5198 16.63 46.9298 16.78C46.3598 16.83 45.6198 16.73 45.6698 17.61C45.7098 18.43 46.5598 18.5 47.0898 18.86C47.3198 18.4 47.5298 18.03 47.7398 17.74C47.5298 18.03 47.3098 18.41 47.0898 18.86C47.4798 19.97 49.2698 19.94 49.1798 21.44C49.2798 23.55 47.6998 22.87 46.5998 22.99L46.5898 22.98ZM50.1998 78.87C50.1998 78.79 50.1998 78.72 50.1998 78.66C50.1898 78.53 50.1498 78.42 50.0898 78.31C50.0598 78.26 50.0298 78.21 49.9898 78.17C50.0298 78.22 50.0598 78.26 50.0898 78.31C50.1498 78.41 50.1898 78.53 50.1998 78.66C50.1998 78.73 50.1998 78.8 50.1998 78.87C50.2298 79.2 50.3498 79.46 50.5298 79.67C50.3498 79.46 50.2298 79.2 50.1998 78.87ZM51.7498 69.04C51.2198 68.99 50.7598 68.83 50.4198 68.54C50.7598 68.82 51.2198 68.99 51.7498 69.04C52.2198 69.34 52.7498 69.59 53.1898 69.92C52.7498 69.59 52.2098 69.35 51.7498 69.04ZM52.7998 29.71C52.4498 28.68 52.0998 27.64 51.7398 26.61C52.5598 26.62 53.2998 26.53 53.2898 25.45C53.2898 24.72 53.4298 24.09 54.3398 24.02C54.5898 23.88 55.0098 23.92 55.4598 23.97C55.4198 26.91 55.4598 29.86 55.6198 32.8C55.5398 32.8 55.4698 32.8 55.3798 32.82C55.0498 31.34 54.5698 30 52.8098 29.71H52.7998ZM57.8598 86.61C57.6098 86.21 57.4698 85.71 57.4398 85.09C57.0398 85.21 56.6598 85.28 56.3298 85.25C56.6598 85.28 57.0398 85.2 57.4398 85.09C57.4698 85.71 57.6098 86.21 57.8598 86.61C57.9398 86.74 58.0398 86.86 58.1498 86.97C58.0398 86.86 57.9498 86.74 57.8598 86.61ZM57.9498 52.47C57.8998 52.12 57.8298 51.84 57.7398 51.64C57.8298 51.85 57.8998 52.12 57.9498 52.47C58.2898 52.47 58.6398 52.48 58.9798 52.49C58.6398 52.49 58.2898 52.48 57.9498 52.47ZM60.0498 48.87C59.9898 48.66 59.8598 48.49 59.6998 48.35C59.8498 48.5 59.9798 48.66 60.0498 48.87ZM61.0298 87.65C60.6898 87.65 60.3598 87.66 60.0198 87.67C60.3598 87.67 60.6898 87.66 61.0298 87.65C61.0598 87.1 61.2598 86.68 61.6498 86.37C61.2698 86.68 61.0598 87.1 61.0298 87.65ZM61.0498 84.07C60.7298 84.03 60.3398 84.05 60.0498 83.95C60.3398 84.05 60.7298 84.03 61.0498 84.07C61.1998 84.42 61.4798 84.7 61.7098 85.01C61.4798 84.7 61.1998 84.41 61.0498 84.07ZM62.0898 86.11C62.3398 86.01 62.5698 85.82 62.7998 85.65C62.5698 85.82 62.3398 86.01 62.0898 86.11ZM62.5998 52.58C62.5998 53.15 62.6398 53.65 62.9598 53.93C62.6398 53.65 62.5898 53.14 62.5998 52.58ZM64.1898 87.67C63.7998 87.97 63.3998 88.15 63.0098 88.23C63.3998 88.15 63.7998 87.97 64.1898 87.67ZM64.6798 35.93C64.0298 35.76 63.2898 35.73 62.7498 35.38C62.2998 35.09 61.8298 35.06 61.3498 35.13C61.2198 33.16 61.1298 31.19 61.0798 29.22C62.3598 29.53 63.9498 28.01 64.7098 29C65.7998 30.4 66.9798 30.21 68.2998 30.24C68.2998 29.9 68.2998 29.55 68.2998 29.21C66.1798 27.19 63.4998 26.66 61.0398 27.54C60.9998 23.97 61.1098 20.4 61.3598 16.83C65.4698 20.27 69.3498 23.99 73.0798 27.76C73.7398 28.43 74.3898 29.11 75.0498 29.79C74.8598 29.91 74.6798 30.06 74.5098 30.23C74.2298 29.67 73.5798 28.97 73.2098 29.32C71.4598 30.95 69.9198 29.34 68.3098 29.2C68.3098 29.54 68.3098 29.89 68.3098 30.23C68.8298 31.43 69.3398 32.64 69.8598 33.84C69.0398 34.78 68.1298 35.54 66.7598 35.41C66.0398 35.47 65.2298 35.17 64.6798 35.92V35.93ZM67.5798 46.36C68.0398 46.7 68.4398 46.99 68.8498 47.29C69.6098 47.55 70.4798 47.29 71.3098 47.24C70.4798 47.3 69.6098 47.55 68.8498 47.29C68.4498 46.99 68.0398 46.7 67.5798 46.36ZM68.7398 91.9C68.4398 91.85 68.1098 91.83 67.7898 91.8C68.1098 91.83 68.4398 91.85 68.7398 91.9ZM67.6298 38.89C67.8298 38.72 68.0798 38.57 68.3098 38.42C68.0798 38.57 67.8198 38.72 67.6298 38.89ZM68.9898 36.28C69.0698 36.14 69.1798 36.02 69.3498 35.93C69.5098 35.72 69.6698 35.51 69.8398 35.31C69.6798 35.51 69.5198 35.72 69.3498 35.93C69.1698 36.02 69.0698 36.14 68.9898 36.28ZM70.3198 34.76C70.3198 34.76 70.3298 34.75 70.3398 34.74C70.3398 34.74 70.3298 34.75 70.3198 34.76ZM71.7998 50.12C71.5798 50.13 71.3698 50.1 71.1498 50.05C71.3598 50.1 71.5798 50.13 71.7998 50.12ZM71.6898 30.83C71.2698 30.86 70.9098 30.99 70.7298 31.31C70.9098 30.99 71.2698 30.86 71.6898 30.83C71.8698 30.87 72.0298 30.93 72.1498 31.04C72.0298 30.94 71.8698 30.87 71.6898 30.83ZM71.9298 60.77C72.4598 61.68 73.1498 62.21 73.9498 62.5C73.1498 62.2 72.4598 61.67 71.9298 60.77ZM72.4398 49.9C72.5898 50.32 72.6498 50.82 72.7798 51.27C72.8998 51.72 73.0898 52.11 73.4798 52.32C73.0898 52.11 72.8998 51.72 72.7798 51.27C72.6598 50.82 72.5898 50.32 72.4398 49.9ZM67.4898 47.29C67.0398 47.29 66.5998 47.39 66.2298 47.82C66.0498 47.84 65.8698 47.84 65.6798 47.83C65.8698 47.83 66.0498 47.83 66.2298 47.82C66.5998 47.39 67.0298 47.3 67.4898 47.29ZM66.7498 96.98C66.3598 96.98 65.9798 97.01 65.5898 97.05C65.9798 97.01 66.3598 96.98 66.7498 96.98ZM66.7398 91.94C66.7598 92.18 66.7598 92.47 66.7698 92.84C67.0198 92.74 67.2298 92.61 67.3998 92.43C67.2298 92.61 67.0198 92.74 66.7698 92.84C66.7698 92.48 66.7598 92.18 66.7398 91.94ZM83.8498 120.78C83.8498 120.96 83.8498 121.14 83.8498 121.32C83.8498 121.14 83.8498 120.96 83.8498 120.78ZM90.7098 124.61C90.0298 124.33 89.3498 124.05 88.6698 123.76C88.6698 123.29 88.6198 122.82 88.4998 122.34C89.6998 122.39 91.3498 121.79 90.6998 124.22C90.6698 124.34 90.6798 124.47 90.6998 124.61H90.7098ZM96.7798 125.96C97.0898 126.07 97.3198 126.19 97.4898 126.33C97.3198 126.19 97.0798 126.07 96.7798 125.96ZM96.9098 124.49C97.0198 124.49 97.1398 124.47 97.2798 124.43C97.2798 124.77 97.2798 125.11 97.2798 125.45C97.2798 125.11 97.2798 124.77 97.2798 124.43C97.1398 124.48 97.0198 124.49 96.9098 124.49ZM101.16 126.89C101.39 126.49 101.51 126.03 101.44 125.45C101.51 126.03 101.39 126.49 101.16 126.89ZM103.04 122.75C103.21 122.82 103.41 122.84 103.61 122.85C103.4 122.85 103.21 122.83 103.04 122.75ZM104.53 122.87C104.34 122.84 104.13 122.84 103.93 122.85C104.14 122.85 104.35 122.85 104.53 122.87C104.54 123.04 104.55 123.21 104.55 123.38C104.55 123.21 104.55 123.04 104.53 122.87ZM114.34 121.65C114.38 121.38 114.35 121.09 114.35 120.81H114.11H113.87C113.66 121.15 113.37 121.26 113.06 121.3C113.37 121.26 113.65 121.15 113.87 120.81H114.11H114.35C114.35 121.09 114.38 121.38 114.34 121.65ZM124.4 117.03C123.05 118.59 121.21 119.5 119.22 120.01C119.34 120.16 119.47 120.32 119.59 120.47C119.46 120.32 119.34 120.17 119.22 120.01C116.93 120.59 114.44 120.62 112.24 120.42C105.67 119.82 100.02 116.69 95.9598 111.97C95.7298 111.79 95.5098 111.6 95.3098 111.41C95.2798 111.44 95.2598 111.46 95.2298 111.49C94.2898 111.88 94.1498 112.68 94.2098 113.56C94.1898 113.9 94.1798 114.23 94.1598 114.57C93.1098 114.56 92.0398 114.48 91.0998 115.11C90.1998 115.1 89.3498 115.19 88.7098 116.14C89.4298 116.54 89.9898 116.86 90.5598 117.18C90.7398 116.66 90.9198 116.14 91.0998 115.62C90.9198 116.14 90.7398 116.66 90.5598 117.18C90.5598 117.35 90.5698 117.52 90.5798 117.69C89.0298 118.86 87.1198 118.74 85.3598 119.16C84.4598 119.38 84.7298 118.69 84.8798 118.21C86.5098 117.66 86.2298 116.65 85.0898 116.1C83.6498 115.4 81.9798 114.94 80.7398 116.66C79.6998 116.66 78.6598 116.66 77.6198 116.66C77.4498 116.49 77.2898 116.31 77.1198 116.14C78.6298 115.75 78.4198 114.87 77.3498 114.41C76.5898 114.09 76.4198 113.58 76.0798 113.05C75.9898 113.05 75.8998 113.05 75.8198 113.05C75.9098 113.05 75.9998 113.05 76.0798 113.05C79.2998 113.03 78.8598 113.05 78.7898 110.41C78.7098 107.23 77.5698 107.21 75.2698 108.3C74.7698 108.53 74.0898 108.36 73.4898 108.38C72.9798 108.55 72.4598 108.72 71.9498 108.89C71.7298 108.48 71.3398 108.38 70.9198 108.35C70.7398 108.02 70.5598 107.68 70.3798 107.35C69.9898 106.4 72.0998 105.8 70.7498 104.71C69.5398 103.74 68.7098 104.71 67.7998 105.27C67.6298 104.93 67.4598 104.58 67.2898 104.24C68.1798 103.79 68.5198 103.13 68.0598 102.17C67.7798 101.59 67.6898 101.04 68.3198 100.61C69.1598 100.31 69.2098 99.5 69.5398 98.83C70.0398 97.8 70.8098 97.28 71.9598 98.02C72.4698 98.19 72.9898 98.36 73.4998 98.53C73.4198 99.66 74.6998 100.45 74.2598 101.68C73.7798 103.02 73.8398 104.37 75.2598 104.99C76.6198 105.59 78.0998 105.57 79.1998 104.22C79.9198 104.16 80.7298 104.46 81.2798 103.72C81.6098 103.55 81.9498 103.38 82.2798 103.21L82.3098 103.19C81.8798 104.61 81.2898 106.12 83.8398 105.8C81.9698 106.65 80.9998 107.64 83.0098 109.46C83.6798 110.07 84.0698 111 83.2098 111.96C82.6698 112.55 83.0198 113.18 83.6698 113.36C84.4698 113.58 85.3298 113.65 86.1498 113.61C86.4898 113.59 86.4598 112.86 86.2198 112.77C84.3298 112.01 85.2098 110.53 85.1798 109.21C85.7698 109.53 86.2698 109.86 86.7998 110.08C88.0998 110.63 89.9198 110.99 90.6498 110.08C91.6198 108.87 89.3898 108.42 89.0298 107.35C90.0598 106.75 91.0998 107 92.1298 107.35C92.3098 107.35 92.4798 107.35 92.6598 107.35C92.5898 107.16 92.5298 106.97 92.4798 106.77C92.0498 105.94 91.6598 105.1 91.3098 104.22C90.7198 102.72 91.4498 101.61 92.5698 101.11C93.5398 98.04 96.0198 95.42 99.9098 94.57C103.26 93.83 106.76 94.37 110.07 95.68C110.39 95.37 110.58 95.09 110.64 94.83C110.66 94.74 110.67 94.66 110.67 94.58C110.67 94.66 110.67 94.74 110.64 94.83C110.57 95.09 110.39 95.37 110.07 95.68C111.64 96.3 113.18 97.1 114.64 98.02C114.73 98.02 114.82 98.02 114.91 98.02C114.82 98.02 114.73 98.02 114.64 98.02C118.08 100.2 121.1 103.07 123.23 105.94C125.64 109.19 127.46 113.53 124.42 117.04L124.4 117.03ZM164.05 122.87C163.95 123 163.84 123.18 163.74 123.32C163.84 123.17 163.95 122.99 164.05 122.87ZM160.42 89.92C160.07 89.69 159.73 89.47 159.38 89.24C159.73 89.47 160.07 89.69 160.42 89.92ZM159.46 87.61C159.59 87.46 159.75 87.32 159.91 87.17C160.08 87.17 160.25 87.17 160.42 87.17C160.25 87.17 160.08 87.17 159.91 87.17C159.75 87.31 159.6 87.46 159.46 87.6V87.61ZM157.03 84.78C156.47 84.5 155.78 84.37 155.25 84.06C155.35 84.06 155.46 84.05 155.55 84.03C155.45 84.05 155.35 84.05 155.25 84.06C155.79 84.37 156.47 84.51 157.03 84.78ZM155.24 74.23C155.06 74.23 154.88 74.23 154.72 74.21C154.89 74.23 155.06 74.23 155.24 74.23ZM153.18 78.36C153.2 78.15 153.2 77.98 153.18 77.82C153.2 77.98 153.2 78.16 153.18 78.36C153.03 78.7 152.83 78.96 152.57 79.14C152.83 78.97 153.03 78.71 153.18 78.36ZM148.52 69.57C149.21 69.94 149.54 69.81 149.69 69.52C149.54 69.81 149.21 69.93 148.52 69.57C147.66 69.5 146.79 69.43 145.98 69.28C146.8 69.43 147.66 69.51 148.52 69.57ZM147.98 74.21C148.23 73.62 148.84 73.29 149.34 72.88C148.83 73.29 148.22 73.63 147.98 74.21C147.13 74.21 146.27 74.23 145.42 74.24C146.27 74.23 147.13 74.22 147.98 74.21ZM139.22 92.33C139.04 92.12 138.84 91.99 138.63 91.91C138.84 91.99 139.04 92.12 139.22 92.33ZM130.4 99.58C131.35 99.67 131.63 100.31 131.87 100.99C131.64 100.3 131.35 99.66 130.4 99.58ZM150.09 123.4C149.75 123.51 149.39 123.55 149.02 123.59C149.39 123.55 149.75 123.51 150.09 123.4ZM154.92 112.57C150.08 118.61 137.34 128.21 131.92 117.42C131.78 117.14 131.67 116.85 131.56 116.56C131.35 116.77 131.14 116.97 130.93 117.18C131.14 116.97 131.35 116.77 131.56 116.56C130.39 113.55 130.62 109.96 131.79 106.55C131.5 106.99 131.21 107.43 130.93 107.87C131.22 107.43 131.51 106.99 131.8 106.55C133.08 102.82 135.46 99.31 138.3 96.99C142.36 91.9 148.08 87.83 154.04 90.03C163.63 93.57 159.51 106.85 154.93 112.57H154.92ZM159.89 109.41C160.39 109.38 160.89 109.36 161.34 109.43C160.89 109.36 160.39 109.38 159.89 109.41ZM161.97 102.69C161.75 103.46 161.85 104.03 162.11 104.49C161.85 104.04 161.75 103.47 161.97 102.69C162.28 102.68 162.59 102.67 162.9 102.67C162.59 102.67 162.28 102.67 161.97 102.69ZM164.04 96.5C164.25 96.13 164.38 95.75 164.46 95.37C164.38 95.75 164.25 96.13 164.04 96.5ZM166.61 91.32C166.5 91.65 166.26 91.96 166.01 92.27C166.25 91.96 166.49 91.65 166.61 91.32C166.61 91.23 166.61 91.14 166.61 91.05C166.61 91.14 166.61 91.23 166.61 91.32ZM165.58 73.2C163.99 72.65 162.4 72.91 160.82 73.1C160.65 70.55 160.51 67.99 160.41 65.44C160.57 65.2 160.78 65.02 161.14 65.02C162.17 65.01 161.25 66.03 161.72 66.41C161.91 66.56 162.05 66.8 162.18 67.02C163.51 69.14 164.01 69.14 166.1 67C166.41 68.14 167.55 68.86 167.65 70.11C167.21 71.31 164.48 70.98 165.58 73.21V73.2ZM167.67 100.64C167.67 100.98 167.67 101.32 167.67 101.66C167.67 101.32 167.67 100.98 167.67 100.64C167.71 100.65 167.74 100.66 167.78 100.67C167.74 100.67 167.71 100.66 167.67 100.64ZM171.27 98.05C171.63 97.98 171.98 97.98 172.33 98.01C171.98 97.98 171.63 97.98 171.27 98.05ZM175.41 98.56C175.44 97.69 175.18 96.84 174.98 96C175.18 96.85 175.44 97.69 175.41 98.56ZM175.37 87.75C175.13 87.97 174.95 88.27 174.89 88.73C174.72 88.73 174.55 88.73 174.38 88.73C174.55 88.73 174.72 88.73 174.89 88.73C174.95 88.27 175.13 87.96 175.37 87.75C175.45 87.68 175.54 87.62 175.64 87.56C175.55 87.61 175.46 87.67 175.37 87.75ZM175.42 84.6C175.89 84.76 176.33 84.85 176.73 84.85C176.33 84.85 175.89 84.75 175.42 84.6ZM175.42 57.69C176.14 57.62 176.56 57.27 176.32 56.52C176.13 55.94 175.7 55.47 175.11 55.3C174.52 55.12 174.2 55.59 173.92 56.03C173.39 56.85 173.28 57.77 173.35 58.72C173.4 59.05 173.6 59.61 173.48 59.69C170.4 61.82 173.47 61.6 174.41 62.2C174.68 62.37 174.87 62.67 175.31 63.13C173.7 63.26 173.51 64.58 172.82 65.44C173.25 63.68 171.92 63.33 170.75 62.84C169.74 61.69 168.84 60.39 167.67 59.44C166.85 58.77 165.36 57.01 164.66 58.58C163.6 60.96 162.06 60.37 160.4 60.27C160.34 60.28 160.29 60.28 160.24 60.29C160.18 57.46 160.14 54.64 160.16 51.81C165.62 46.08 171.47 40.74 177.66 35.8C177.22 44.69 177.45 53.58 178.36 62.46C178.39 62.79 178.48 63.07 178.6 63.34C178.24 63.38 177.87 63.39 177.49 63.37C176.74 61.5 176.54 59.43 175.43 57.69H175.42ZM179.04 83.05C178.73 83.9 178.28 84.41 177.72 84.66C178.28 84.41 178.73 83.89 179.04 83.05C179.04 82.88 179.04 82.7 179.04 82.53C178.61 82.35 178.21 82.1 177.8 81.88C178.21 82.09 178.61 82.35 179.04 82.53C179.04 82.7 179.04 82.88 179.04 83.05C179.73 83.05 180.42 83.03 181.11 83.02C180.42 83.02 179.73 83.04 179.04 83.05ZM183.71 80.95C183.09 80.56 182.7 79.93 182.31 79.28C182.7 79.93 183.09 80.56 183.71 80.95C184 80.94 184.32 80.98 184.59 80.92C184.32 80.98 183.99 80.94 183.71 80.95ZM185.77 98.05C185.62 98.44 185.46 98.84 185.3 99.23C185.45 98.84 185.62 98.45 185.77 98.05C186.29 97.96 186.79 97.78 187.3 97.65C186.79 97.78 186.29 97.96 185.77 98.05ZM187.31 79.92C187.1 79.8 186.89 79.65 186.68 79.52C186.89 79.65 187.1 79.8 187.31 79.92C187.48 79.75 187.65 79.57 187.83 79.4C187.66 79.57 187.49 79.75 187.31 79.92ZM191.55 94.86C191.68 94.71 191.44 94.12 189.49 93.27C190.59 93.59 191.35 93.89 191.93 94.15C191.86 94.47 191.72 94.78 191.54 94.86H191.55ZM194.14 79.02C194.31 78.96 194.47 78.95 194.61 79.01C194.47 78.95 194.31 78.96 194.14 79.02ZM194.61 79.01C194.74 79.07 194.85 79.2 194.91 79.4C194.85 79.19 194.75 79.07 194.61 79.01Z" fill="#A5AC33"/>
<path d="M62.5901 25.23C62.3101 25.31 62.0901 25.57 61.8501 25.75C61.9901 25.93 62.1101 26.22 62.2901 26.26C62.6701 26.35 62.8501 26.04 63.1301 25.37C63.0501 25.35 62.7901 25.17 62.6001 25.23H62.5901Z" fill="#A5AC33"/>
<path d="M140.13 125.3C137.49 124.97 134.85 124.93 132.24 125.13C132.08 125.1 131.92 125.08 131.74 125.08C131.59 125.08 131.43 125.08 131.28 125.08C129.95 125.09 128.62 125.15 127.29 125.25C127.22 125.25 127.15 125.26 127.08 125.27C122.74 125.62 118.46 126.46 114.33 127.88C112.5 128.51 109.8 129.29 107.61 130.55C107.39 130.68 107.17 130.81 106.96 130.95C106.75 131.09 106.54 131.23 106.35 131.38C105.17 132.28 104.28 133.38 103.99 134.76C103.72 136.07 103.87 137.07 104.3 137.84C104.52 138.23 104.8 138.55 105.15 138.83C105.49 139.11 105.89 139.34 106.32 139.53C108.05 140.3 110.36 140.45 112.16 140.6C113.32 140.7 114.49 140.78 115.65 140.85C117.98 140.99 120.31 141.07 122.64 141.1C123.81 141.11 124.97 141.12 126.14 141.1C126.08 141.64 126.05 142.17 126.02 142.71C125.96 144.06 125.97 145.42 125.95 146.76C125.95 147.03 125.95 147.3 125.94 147.57C125.92 148.56 125.83 149.46 125.67 150.29C125.59 150.71 125.49 151.1 125.37 151.49C125.13 152.26 124.8 152.97 124.37 153.64C123.73 154.65 122.85 155.59 121.68 156.52C121.2 156.9 120.73 157.28 120.27 157.67C119.81 158.06 119.37 158.45 118.94 158.86C118.24 159.14 117.66 159.69 117.42 160.51C117.07 160.95 116.76 161.43 116.46 161.93C116.36 162.1 116.26 162.26 116.17 162.43C115.8 163.14 115.49 163.88 115.22 164.63C114.54 166.51 114.11 168.5 113.66 170.44C113.57 170.83 113.48 171.22 113.38 171.6C111.5 179.25 109.62 186.91 107.75 194.56C107.37 196.12 108.24 197.35 109.41 197.85C109.85 198.04 110.33 198.12 110.81 198.08C111.45 198.03 112.07 197.75 112.57 197.2C112.69 197.06 112.81 196.91 112.92 196.74C115.68 192.26 117.89 187.52 119.52 182.6C120.22 180.49 120.81 178.35 121.3 176.18C122.27 171.84 122.82 167.4 122.92 162.91C123.27 162.52 123.64 162.15 124.06 161.8C124.29 161.61 124.51 161.43 124.73 161.24C125.39 160.69 126.02 160.15 126.61 159.6C127 159.23 127.38 158.86 127.73 158.48C128.44 157.72 129.07 156.92 129.61 156.05C130.14 155.17 130.58 154.21 130.89 153.13C131.05 152.59 131.18 152.01 131.27 151.4C131.35 150.92 131.38 150.26 131.4 149.47C131.4 149.27 131.4 149.07 131.41 148.86C131.42 147.81 131.42 146.6 131.46 145.36C131.48 144.61 131.52 143.85 131.59 143.1C131.65 142.35 131.74 141.62 131.87 140.92C132.57 140.89 133.27 140.86 133.99 140.83C134.7 140.8 135.42 140.77 136.14 140.73C140.48 140.52 144.96 140.17 149.01 139.09C151.4 138.45 153.09 136.78 153.59 134.78C153.79 133.98 153.8 133.12 153.59 132.26C153.48 131.83 153.32 131.4 153.1 130.96C152.93 130.63 152.74 130.31 152.5 129.99C149.88 126.49 144.14 125.74 140.14 125.25L140.13 125.3Z" fill="#561F01"/>
<path d="M114.6 97.9904C113.14 97.0704 111.61 96.2704 110.03 95.6504C106.72 94.3404 103.22 93.8004 99.8702 94.5404C95.9902 95.3904 93.5002 98.0104 92.5302 101.08C91.4102 101.58 90.6802 102.69 91.2702 104.19C91.6202 105.07 92.0102 105.91 92.4402 106.74C92.4902 106.93 92.5602 107.13 92.6202 107.32C92.7402 107.68 92.8902 108.04 93.0602 108.39C93.0702 108.42 93.0902 108.45 93.1002 108.48C93.2702 108.82 93.4502 109.15 93.6602 109.47C93.6602 109.47 93.6602 109.48 93.6702 109.49C93.8702 109.8 94.1002 110.11 94.3402 110.4C94.3902 110.46 94.4302 110.51 94.4802 110.57C94.7302 110.86 94.9902 111.14 95.2702 111.4C95.4802 111.59 95.7002 111.78 95.9202 111.96C99.9802 116.68 105.63 119.81 112.2 120.41C114.4 120.61 116.89 120.58 119.18 120C121.17 119.5 123.01 118.58 124.36 117.02C127.4 113.51 125.59 109.17 123.17 105.92C121.04 103.06 118.02 100.19 114.58 98.0004L114.6 97.9904Z" fill="#424600"/>
<path d="M154.02 89.9899C148.07 87.7899 142.34 91.8599 138.28 96.9499C135.43 99.2599 133.05 102.78 131.78 106.51C130.61 109.92 130.38 113.51 131.55 116.52C131.66 116.81 131.77 117.1 131.91 117.38C137.33 128.18 150.07 118.58 154.91 112.53C159.49 106.8 163.61 93.5299 154.02 89.9899Z" fill="#424600"/>
<path d="M195.54 39.5603C195.49 40.0103 195.54 40.4103 195.65 40.7403C195.71 40.9103 195.79 41.0603 195.88 41.2003C196.06 41.4803 196.31 41.7103 196.6 41.8703C197.17 42.2103 197.9 42.3203 198.61 42.2003C199.85 42.0003 201.03 41.1103 201.2 39.5503C201.96 32.6103 202.71 25.6603 203.47 18.7203C215.03 12.5103 227.48 7.12029 240.65 5.85029C242.91 5.63029 245.41 5.45029 247.81 5.68029C245.41 5.46029 242.91 5.64029 240.65 5.85029C227.48 7.12029 215.03 12.5003 203.47 18.7203C203.26 18.8303 203.06 18.9403 202.85 19.0503C201.03 20.0403 199.23 21.0703 197.45 22.1203C196.82 27.9303 196.18 33.7403 195.55 39.5503L195.54 39.5603Z" fill="#A5AC33"/>
<path d="M153.66 65.91C153.28 65.58 152.73 65.33 152.54 64.92C152.08 63.93 150.44 63.14 150.93 62.27C150.93 62.27 150.93 62.26 150.94 62.25C150.81 62.41 150.69 62.57 150.56 62.73C150.22 63.15 149.89 63.58 149.55 64C150.52 65.14 152.18 65.4 153.66 65.91Z" fill="#8F9700"/>
<path d="M116.96 95.9397C117.46 95.4397 117.53 95.0497 117.38 94.7197C117.53 95.0497 117.46 95.4397 116.96 95.9397Z" fill="#8F9700"/>
<path d="M96.26 126.72C96.28 126.6 96.31 126.48 96.35 126.38C96.3 126.49 96.28 126.6 96.25 126.72H96.26Z" fill="#8F9700"/>
<path d="M155.24 84.03C155.78 84.34 156.46 84.48 157.02 84.75C156.46 84.47 155.78 84.34 155.24 84.03C155.34 84.03 155.45 84.02 155.54 84C155.44 84.02 155.34 84.02 155.24 84.03Z" fill="#8F9700"/>
<path d="M155.23 74.2104C155.05 74.2104 154.88 74.2104 154.71 74.1904C154.88 74.2104 155.05 74.2104 155.23 74.2104Z" fill="#8F9700"/>
<path d="M110.03 95.64C110.35 95.33 110.54 95.04 110.6 94.79C110.53 95.05 110.35 95.33 110.03 95.64Z" fill="#8F9700"/>
<path d="M103.95 81.0996C104.25 81.3096 104.61 81.4496 105.05 81.4496C104.62 81.4496 104.26 81.3096 103.95 81.0996Z" fill="#8F9700"/>
<path d="M95.1999 58.1504C95.0299 58.3304 94.8599 58.5004 94.6899 58.6804C94.8599 58.5004 95.0299 58.3304 95.1999 58.1504Z" fill="#8F9700"/>
<path d="M103.62 89.9997C104.01 89.8297 104.4 89.7497 104.78 89.7197C104.39 89.7497 104 89.8397 103.62 89.9997Z" fill="#8F9700"/>
<path d="M114.09 120.77H114.33C114.33 121.06 114.36 121.35 114.32 121.62C114.36 121.35 114.33 121.06 114.33 120.78H114.09V120.77Z" fill="#8F9700"/>
<path d="M149.68 69.4998C149.53 69.7898 149.2 69.9098 148.51 69.5498C147.65 69.4798 146.78 69.4098 145.97 69.2598C146.79 69.4098 147.65 69.4898 148.51 69.5498C149.2 69.9198 149.53 69.7898 149.68 69.4998Z" fill="#8F9700"/>
<path d="M139.2 92.2999C139.02 92.0899 138.82 91.9599 138.61 91.8799C138.82 91.9599 139.02 92.0899 139.2 92.2999Z" fill="#8F9700"/>
<path d="M131.77 106.51C131.48 106.95 131.19 107.39 130.9 107.83C131.19 107.39 131.48 106.95 131.76 106.51H131.77Z" fill="#8F9700"/>
<path d="M127.08 125.28C126.8 125 126.53 124.7 126.25 124.4C126.52 124.7 126.8 125 127.08 125.28Z" fill="#8F9700"/>
<path d="M131.85 100.96C131.62 100.27 131.33 99.6298 130.38 99.5498C131.33 99.6398 131.61 100.28 131.85 100.96Z" fill="#8F9700"/>
<path d="M150.08 123.37C149.74 123.48 149.38 123.52 149.01 123.56C149.38 123.52 149.74 123.48 150.08 123.37Z" fill="#8F9700"/>
<path d="M78.0998 34.8401C78.1098 34.6801 78.1198 34.5201 78.1298 34.3601C78.2898 34.1001 78.4298 33.7901 78.5698 33.4701C78.1398 33.0101 77.7098 32.5401 77.2698 32.0801C77.2298 32.6401 77.3598 33.3601 77.6098 34.3501C77.7698 34.5101 77.9298 34.6801 78.0998 34.8401Z" fill="#8F9700"/>
<path d="M149.33 72.8496C148.82 73.2596 148.21 73.5996 147.97 74.1796C147.12 74.1896 146.26 74.1996 145.41 74.2096C146.26 74.1996 147.12 74.1896 147.97 74.1796C148.22 73.5896 148.83 73.2596 149.33 72.8496Z" fill="#8F9700"/>
<path d="M92.6201 59.7305C92.6201 59.8905 92.6201 60.0505 92.6401 60.2205C93.0601 60.2705 93.6001 60.1705 93.8901 60.4605C93.6101 60.1605 93.0601 60.2705 92.6401 60.2205C92.6401 60.0605 92.6301 59.9005 92.6201 59.7305Z" fill="#8F9700"/>
<path d="M66.76 92.8102C66.76 92.4502 66.75 92.1502 66.73 91.9102C66.75 92.1502 66.75 92.4402 66.76 92.8102C67.01 92.7102 67.22 92.5802 67.39 92.4002C67.22 92.5802 67.01 92.7102 66.76 92.8102Z" fill="#8F9700"/>
<path d="M84.3498 90.2695C83.9798 90.2795 83.5998 90.2695 83.2598 90.3295C83.5998 90.2695 83.9798 90.2795 84.3498 90.2695Z" fill="#8F9700"/>
<path d="M84.0898 92.6904C83.8498 92.7404 83.6698 92.9204 83.5298 93.1504C83.6598 92.9104 83.8498 92.7404 84.0898 92.6904Z" fill="#8F9700"/>
<path d="M83.3398 93.8398C83.2498 93.8898 83.1598 93.9498 83.0698 93.9998C83.1598 93.9498 83.2498 93.8898 83.3398 93.8398Z" fill="#8F9700"/>
<path d="M75.5298 48.3303L75.5398 48.3203L75.5298 48.3303Z" fill="#8F9700"/>
<path d="M73.4798 52.3C73.0898 52.09 72.8998 51.7 72.7798 51.25C72.8998 51.7 73.0898 52.09 73.4798 52.3Z" fill="#8F9700"/>
<path d="M76.8301 35.8904C76.5801 35.8704 76.3201 35.8704 76.0601 35.9204C76.3201 35.8704 76.5801 35.8704 76.8301 35.8904Z" fill="#8F9700"/>
<path d="M84.8701 70.5602C85.2101 70.7402 85.5501 70.9202 85.9001 71.1002C85.5601 70.9202 85.2201 70.7402 84.8801 70.5602C84.9401 70.2302 85.0501 69.9602 85.2001 69.7402C85.0501 69.9602 84.9301 70.2302 84.8701 70.5602Z" fill="#8F9700"/>
<path d="M78.8901 35.4598C78.7101 35.1998 78.4401 34.9898 78.1001 34.8398C78.4401 34.9898 78.7101 35.1998 78.8901 35.4598Z" fill="#8F9700"/>
<path d="M84.3701 90.8398C84.4001 91.0198 84.4501 91.1798 84.5401 91.3198C84.4501 91.1798 84.4001 91.0198 84.3701 90.8398Z" fill="#8F9700"/>
<path d="M72.4302 49.8701C72.5802 50.2901 72.6402 50.7901 72.7702 51.2401C72.6502 50.7901 72.5802 50.2901 72.4302 49.8701Z" fill="#8F9700"/>
<path d="M87.04 106.5C87.34 106.66 87.68 106.78 88.02 106.91C87.68 106.79 87.34 106.67 87.04 106.5Z" fill="#8F9700"/>
<path d="M92.6201 59.7099C92.6701 59.3199 92.7901 59.0699 92.9501 58.9199C92.7801 59.0699 92.6601 59.3199 92.6201 59.7099Z" fill="#8F9700"/>
<path d="M92.6302 68.49C91.7702 68.32 90.9002 68.15 90.0402 67.98C90.0002 67.88 89.9702 67.79 89.9502 67.71C89.9702 67.79 90.0002 67.88 90.0402 67.98C90.9102 68.15 91.7702 68.32 92.6302 68.49Z" fill="#8F9700"/>
<path d="M88.6299 86.5596C88.4799 86.8496 88.4799 87.2496 88.4799 87.6496C88.3699 87.6496 88.2699 87.6396 88.1699 87.6196C88.2699 87.6396 88.3699 87.6396 88.4799 87.6496C88.4799 87.2496 88.4799 86.8496 88.6299 86.5596Z" fill="#8F9700"/>
<path d="M73.9399 62.48C73.1399 62.18 72.4499 61.65 71.9199 60.75C72.4499 61.66 73.1399 62.19 73.9399 62.48Z" fill="#8F9700"/>
<path d="M71.1401 50.0303C71.3601 50.0803 71.5701 50.1103 71.7901 50.1003C71.5701 50.1103 71.3601 50.0803 71.1401 50.0303Z" fill="#8F9700"/>
<path d="M68.74 91.8695C68.44 91.8195 68.11 91.7995 67.79 91.7695C68.11 91.7995 68.44 91.8195 68.74 91.8695Z" fill="#8F9700"/>
<path d="M131.55 116.52C131.34 116.73 131.13 116.93 130.92 117.14C131.13 116.93 131.34 116.73 131.55 116.52Z" fill="#8F9700"/>
<path d="M113.04 121.26C113.35 121.23 113.63 121.11 113.85 120.77H114.09H113.85C113.64 121.11 113.35 121.22 113.04 121.26Z" fill="#8F9700"/>
<path d="M91.08 115.59C90.9 116.11 90.72 116.63 90.54 117.15C90.72 116.63 90.9 116.11 91.08 115.59Z" fill="#8F9700"/>
<path d="M94.3498 110.38C94.1098 110.09 93.8798 109.78 93.6798 109.47C93.6798 109.47 93.6798 109.46 93.6698 109.45C93.4598 109.13 93.2798 108.8 93.1098 108.46C93.0998 108.43 93.0798 108.4 93.0698 108.37C92.8998 108.02 92.7598 107.67 92.6298 107.3C92.4498 107.3 92.2798 107.3 92.0998 107.3C91.0698 106.96 90.0298 106.7 88.9998 107.3C89.3598 108.38 91.5898 108.82 90.6198 110.04C89.8898 110.96 88.0698 110.6 86.7698 110.04C86.2398 109.81 85.7398 109.49 85.1498 109.17C85.1898 110.49 84.2998 111.97 86.1898 112.73C86.4198 112.82 86.4598 113.55 86.1198 113.57C85.2998 113.62 84.4298 113.54 83.6398 113.32C82.9898 113.14 82.6398 112.51 83.1798 111.92C84.0398 110.97 83.6498 110.03 82.9798 109.42C80.9698 107.6 81.9298 106.62 83.8098 105.76C81.2698 106.08 81.8498 104.57 82.2798 103.15L82.2498 103.17C81.9198 103.34 81.5798 103.51 81.2498 103.68C80.6998 104.43 79.8898 104.12 79.1698 104.18C78.0698 105.53 76.5998 105.55 75.2298 104.95C73.8098 104.33 73.7498 102.98 74.2298 101.64C74.6698 100.41 73.3898 99.6198 73.4698 98.4898C72.9598 98.3198 72.4398 98.1498 71.9298 97.9798C70.7898 97.2398 70.0098 97.7598 69.5098 98.7898C69.1898 99.4598 69.1298 100.27 68.2898 100.57C67.6698 101 67.7598 101.55 68.0298 102.13C68.4798 103.08 68.1498 103.75 67.2598 104.2C67.4298 104.54 67.5998 104.89 67.7698 105.23C68.6898 104.68 69.5198 103.7 70.7198 104.67C72.0698 105.76 69.9598 106.36 70.3498 107.31C70.5298 107.64 70.7098 107.98 70.8898 108.31C71.3098 108.34 71.6998 108.43 71.9198 108.85C72.4298 108.68 72.9498 108.51 73.4598 108.34C74.0598 108.33 74.7498 108.5 75.2398 108.26C77.5398 107.17 78.6798 107.19 78.7598 110.37C78.8298 113 79.2798 112.99 76.0498 113.01C75.9598 113.01 75.8698 113.01 75.7898 113.01C75.8798 113.01 75.9698 113.01 76.0498 113.01C76.3798 113.54 76.5598 114.05 77.3198 114.37C78.3798 114.82 78.5998 115.71 77.0898 116.1C77.2598 116.27 77.4198 116.45 77.5898 116.62C78.6298 116.62 79.6698 116.62 80.7098 116.62C81.9598 114.9 83.6298 115.36 85.0598 116.06C86.1898 116.61 86.4698 117.62 84.8498 118.17C84.6998 118.65 84.4298 119.34 85.3298 119.12C87.0898 118.7 88.9998 118.81 90.5498 117.65C90.5498 117.48 90.5298 117.31 90.5298 117.14C89.9598 116.82 89.3898 116.5 88.6798 116.1C89.3198 115.15 90.1698 115.06 91.0698 115.07C92.0098 114.44 93.0798 114.52 94.1298 114.53C94.1498 114.19 94.1598 113.86 94.1798 113.52C94.1198 112.63 94.2598 111.84 95.1998 111.45C95.2298 111.43 95.2498 111.4 95.2798 111.37C94.9898 111.1 94.7298 110.82 94.4898 110.54C94.4398 110.48 94.3898 110.43 94.3498 110.37V110.38Z" fill="#8F9700"/>
<path d="M71.2998 47.2003C70.4698 47.2603 69.5998 47.5103 68.8398 47.2503C68.4298 46.9503 68.0298 46.6603 67.5698 46.3203C68.0298 46.6603 68.4298 46.9503 68.8398 47.2503C69.5998 47.5103 70.4698 47.2503 71.2998 47.2003Z" fill="#8F9700"/>
<path d="M164.03 122.84C163.93 122.97 163.82 123.15 163.72 123.29C163.82 123.14 163.93 122.96 164.03 122.84Z" fill="#8F9700"/>
<path d="M96.2402 82.4699C96.8702 82.4399 97.5102 82.3999 98.0502 82.4899C97.5102 82.4099 96.8702 82.4499 96.2402 82.4699Z" fill="#8F9700"/>
<path d="M160.43 126.96C160.43 127.18 160.41 127.41 160.42 127.63C160.42 127.41 160.43 127.18 160.43 126.96Z" fill="#8F9700"/>
<path d="M97.29 66.4397C97.31 66.5297 97.37 66.5897 97.41 66.6597C97.37 66.5897 97.31 66.5297 97.29 66.4397C97.49 66.3497 97.65 66.2396 97.77 66.1396C97.65 66.2496 97.49 66.3497 97.29 66.4397Z" fill="#8F9700"/>
<path d="M99.52 59.6397C98.96 59.5397 98.37 59.3297 97.8 59.1997C97.62 59.0297 97.45 58.8497 97.27 58.6797C97.45 58.8497 97.62 59.0297 97.8 59.1997C98.37 59.3297 98.95 59.5397 99.52 59.6397Z" fill="#8F9700"/>
<path d="M98.8301 67.9805C98.9601 68.1305 99.0801 68.2805 99.1801 68.4305C99.0801 68.2805 98.9601 68.1205 98.8301 67.9805Z" fill="#8F9700"/>
<path d="M99.1802 68.4404C99.3102 68.6304 99.4302 68.8304 99.5202 69.0304C99.4302 68.8304 99.3102 68.6304 99.1802 68.4404Z" fill="#8F9700"/>
<path d="M188.86 104.17C188.34 104.33 187.54 104.28 187.45 103.47C187.35 102.64 187.95 102.24 188.71 102.16C189.45 102.08 190.2 102.08 191.25 102.03C189.35 101.13 187.78 100.67 186.3 102.13C185.08 104.37 183.01 105.74 181.11 107.3C180.25 107.32 179.21 107.47 178.67 106.79C177.06 104.77 174.89 105.29 172.82 105.22H172.57H172.32C171.17 105.35 170.21 105.07 169.39 104.16C168.81 103.51 168.14 102.6 167.13 103.68C168.33 104.5 168.66 105.27 167.06 106.02C166.46 106.3 165.84 106.61 165.58 107.3C166.52 108.69 166.05 111.19 168.74 111.39C168.53 110.38 166.6 110.44 167.38 109.29C168.08 108.27 169.07 109.05 169.81 109.64C170.8 110.43 172.12 110.25 173.16 110.84C174.09 111.37 175.38 111.52 175.41 112.99C175.75 113.16 176.1 113.34 176.44 113.51C176.99 113.96 177.26 114.57 177.53 115.19C178.08 114.75 178.62 114.29 179.17 113.84C179.85 113.28 180.54 112.71 181.22 112.14C181.82 111.64 182.41 111.13 183 110.62C183.64 110.07 184.28 109.52 184.91 108.96C185.47 108.47 186.04 107.97 186.6 107.47C187.3 106.85 188 106.22 188.69 105.59C189.17 105.15 189.66 104.72 190.14 104.28C189.65 104.14 189.2 104.05 188.84 104.16L188.86 104.17ZM177.8 109.98C177.69 110.64 177.48 111.3 176.83 111.64C176.41 111.63 176.1 111.41 176.1 111.05C176.1 110.34 176.34 109.69 177.11 109.48C177.44 109.39 177.87 109.53 177.8 109.98Z" fill="#8F9700"/>
<path d="M166.01 92.2298C166.25 91.9198 166.49 91.6098 166.61 91.2798C166.61 91.1898 166.61 91.0998 166.61 91.0098C166.61 91.0998 166.61 91.1898 166.61 91.2798C166.5 91.6098 166.26 91.9198 166.01 92.2298Z" fill="#8F9700"/>
<path d="M186.68 79.4696C186.89 79.5996 187.1 79.7496 187.31 79.8696C187.48 79.6996 187.65 79.5196 187.83 79.3496C187.66 79.5196 187.49 79.6996 187.31 79.8696C187.1 79.7496 186.89 79.5996 186.68 79.4696Z" fill="#8F9700"/>
<path d="M191.54 94.8097C191.72 94.7297 191.86 94.4197 191.93 94.0997C191.35 93.8397 190.59 93.5397 189.49 93.2197C191.43 94.0697 191.68 94.6597 191.55 94.8097H191.54Z" fill="#8F9700"/>
<path d="M185.3 99.1796C185.45 98.7896 185.62 98.3996 185.77 97.9996C186.29 97.9096 186.79 97.7296 187.3 97.5996C186.79 97.7296 186.29 97.9096 185.77 97.9996C185.62 98.3896 185.46 98.7896 185.3 99.1796Z" fill="#8F9700"/>
<path d="M95.98 91.4603C96.05 91.3803 96.13 91.3203 96.24 91.2603C96.75 91.0403 97.24 90.8703 97.7 90.7803C97.24 90.8703 96.75 91.0303 96.24 91.2603C96.13 91.3203 96.05 91.3803 95.98 91.4603Z" fill="#8F9700"/>
<path d="M194.12 78.9702C194.29 78.9102 194.45 78.9002 194.59 78.9602C194.45 78.9002 194.29 78.9102 194.12 78.9702Z" fill="#8F9700"/>
<path d="M206.46 83.5095C206.6 83.8995 206.67 84.3395 206.89 84.6795C207.23 85.1995 207.6 85.6695 207 86.2295C206.66 86.5495 206.21 86.6895 205.84 86.4295C205.34 86.0895 204.91 85.5595 205.14 84.9395C205.31 84.4695 205.8 84.1395 204.99 83.8195C204.56 83.6495 204.19 83.5795 203.82 83.9095C203.45 84.2495 203.36 84.6995 203.69 85.0395C205.85 87.2795 204.31 88.1895 202.34 89.0095C201.96 89.1695 201.64 89.4795 201.29 89.7195C201.16 91.0795 200.41 90.5295 199.73 90.2295C198.44 89.8295 197.32 89.5895 198.44 87.6995C199.24 86.3595 198.49 84.9295 197.14 84.0195C196.97 84.0195 196.8 84.0195 196.63 84.0195C196.46 84.5395 196.28 85.0495 196.11 85.5695C196.71 85.9595 197.97 86.2395 197.51 87.0395C196.45 88.8795 196.3 90.8295 196.11 92.8195C196.11 93.1595 196.11 93.5095 196.11 93.8495C196.64 94.2795 197.17 94.7095 197.7 95.1295C198.15 95.4795 198.85 95.7095 198.3 96.4995C197.84 97.1595 197.3 97.3195 196.54 96.9295C193.88 95.5595 191.43 97.4795 188.85 97.4795C188.85 97.6495 188.85 97.8195 188.85 97.9995C190.31 98.8195 191.47 100.17 193.38 100.19C193.67 100.19 194.04 100.3 194.24 100.5C196.04 98.8195 197.82 97.1295 199.6 95.4395C199.92 95.1395 200.24 94.8295 200.56 94.5295C202.06 93.0995 203.56 91.6795 205.06 90.2495C205.14 90.1695 205.23 90.0895 205.31 90.0095C205.32 89.9995 205.33 89.9895 205.34 89.9795C207.75 87.6895 210.15 85.3995 212.55 83.1095C212.57 83.0895 212.59 83.0695 212.61 83.0595C210.39 82.6095 208.38 82.2595 206.45 83.5095H206.46Z" fill="#8F9700"/>
<path d="M162.17 66.9698C162.03 66.7498 161.9 66.5198 161.71 66.3598C161.24 65.9898 162.15 64.9598 161.13 64.9698C160.78 64.9698 160.56 65.1498 160.4 65.3898C160.5 67.9398 160.64 70.4998 160.81 73.0498C162.4 72.8598 163.99 72.5898 165.57 73.1498C164.47 70.9198 167.21 71.2498 167.64 70.0498C167.53 68.8098 166.39 68.0798 166.09 66.9398C164 69.0798 163.5 69.0798 162.17 66.9598V66.9698Z" fill="#8F9700"/>
<path d="M194.59 78.96C194.73 79.02 194.83 79.15 194.89 79.35C194.83 79.14 194.73 79.02 194.59 78.96Z" fill="#8F9700"/>
<path d="M113.32 90.7402C113.49 90.7502 113.66 90.7602 113.83 90.7602C113.66 90.7602 113.49 90.7602 113.32 90.7402Z" fill="#8F9700"/>
<path d="M153.17 78.33C153.19 78.12 153.19 77.95 153.17 77.79C153.19 77.95 153.19 78.13 153.17 78.33C153.02 78.67 152.82 78.93 152.56 79.11C152.82 78.94 153.02 78.68 153.17 78.33Z" fill="#8F9700"/>
<path d="M88.48 122.32C88.6 122.8 88.66 123.27 88.65 123.74C89.33 124.03 90 124.31 90.69 124.59C90.66 124.45 90.66 124.32 90.69 124.2C91.33 121.77 89.69 122.37 88.49 122.32H88.48Z" fill="#8F9700"/>
<path d="M119.2 119.98C119.32 120.13 119.45 120.29 119.57 120.44C119.44 120.29 119.32 120.14 119.2 119.98Z" fill="#8F9700"/>
<path d="M159.89 87.1396C159.73 87.2796 159.58 87.4297 159.44 87.5797C159.57 87.4297 159.73 87.2897 159.89 87.1497C160.06 87.1497 160.23 87.1497 160.4 87.1497C160.23 87.1497 160.06 87.1497 159.89 87.1497V87.1396Z" fill="#8F9700"/>
<path d="M97.2601 124.41C97.1201 124.46 97.0001 124.47 96.8901 124.47C97.0001 124.47 97.1201 124.45 97.2601 124.41C97.2601 124.75 97.2601 125.09 97.2601 125.43C97.2601 125.09 97.2601 124.75 97.2601 124.41Z" fill="#8F9700"/>
<path d="M103.58 122.83C103.37 122.83 103.18 122.81 103.01 122.73C103.18 122.8 103.38 122.82 103.58 122.83Z" fill="#8F9700"/>
<path d="M96.7598 125.94C97.0698 126.05 97.2998 126.17 97.4698 126.31C97.2998 126.17 97.0598 126.05 96.7598 125.94Z" fill="#8F9700"/>
<path d="M101.14 126.87C101.37 126.47 101.49 126.01 101.42 125.43C101.49 126.01 101.37 126.47 101.14 126.87Z" fill="#8F9700"/>
<path d="M153.54 62.7096C153.95 62.7796 154.34 62.8196 154.64 62.7096C154.63 62.2796 154.61 61.8496 154.6 61.4096C153.98 61.0296 152.74 61.0296 153.2 60.1796C153.63 59.3896 154.06 60.1796 154.58 60.5696C154.57 60.0496 154.56 59.5296 154.55 59.0196C154.43 58.8996 154.31 58.7796 154.19 58.6596C154.12 58.6396 154.05 58.6196 153.98 58.5996C153.81 58.7996 153.64 58.9996 153.48 59.1996C152.7 60.1096 151.92 61.0296 151.16 61.9596C151.8 61.4096 152.73 62.5696 153.54 62.6996V62.7096Z" fill="#8F9700"/>
<path d="M100.89 72.6504C101.09 72.3404 101.33 72.0404 101.49 71.6904C101.33 72.0404 101.09 72.3404 100.89 72.6504Z" fill="#8F9700"/>
<path d="M103.9 122.82C104.11 122.82 104.32 122.82 104.5 122.84C104.51 123.01 104.52 123.18 104.52 123.35C104.52 123.18 104.52 123.01 104.5 122.84C104.31 122.81 104.1 122.81 103.9 122.82Z" fill="#8F9700"/>
<path d="M101.42 63.8496C101.12 64.2996 100.82 64.7396 100.52 65.1896C100.82 64.7396 101.12 64.2996 101.42 63.8496Z" fill="#8F9700"/>
<path d="M95.9399 54.79C96.0399 54.94 96.1299 55.09 96.1699 55.24C96.1199 55.08 96.0399 54.94 95.9399 54.79Z" fill="#8F9700"/>
<path d="M102.46 90.7504C102.72 90.5204 102.98 90.3404 103.24 90.1904C102.98 90.3404 102.72 90.5204 102.46 90.7504C102.29 91.2704 102.11 91.7804 101.94 92.3004C102.11 91.7804 102.29 91.2704 102.46 90.7504Z" fill="#8F9700"/>
<path d="M108.16 73.5598C107.62 72.7198 107.1 71.9098 106.58 71.1098C106.24 71.1098 105.9 71.0998 105.56 71.0898C105.9 71.0898 106.24 71.0998 106.58 71.1098C107.1 71.9198 107.62 72.7198 108.16 73.5598Z" fill="#8F9700"/>
<path d="M102.46 90.7501C102.29 90.4101 102.11 90.0601 101.94 89.7201C101.34 89.2601 100.76 88.9901 100.19 88.8701C100.76 88.9901 101.35 89.2601 101.94 89.7201C102.11 90.0601 102.29 90.4101 102.46 90.7501Z" fill="#8F9700"/>
<path d="M100.5 93.4596C100.67 93.2896 100.81 93.0796 100.91 92.8396C101.25 92.6596 101.59 92.4896 101.93 92.3096C101.59 92.4896 101.25 92.6596 100.91 92.8396C100.81 93.0796 100.67 93.2896 100.5 93.4596Z" fill="#8F9700"/>
<path d="M57.7402 51.6201C57.8302 51.8301 57.9002 52.1001 57.9502 52.4501C58.2902 52.4501 58.6402 52.4601 58.9802 52.4701C58.6402 52.4701 58.2902 52.4601 57.9502 52.4501C57.9002 52.1001 57.8302 51.8201 57.7402 51.6201Z" fill="#8F9700"/>
<path d="M64.18 87.6396C63.79 87.9396 63.39 88.1196 63 88.1996C63.39 88.1196 63.79 87.9396 64.18 87.6396Z" fill="#8F9700"/>
<path d="M62.4099 39.9704C62.3299 39.9704 62.2599 39.9504 62.1899 39.9404C62.2599 39.9604 62.3299 39.9704 62.4099 39.9704Z" fill="#8F9700"/>
<path d="M62.4102 39.9702C62.5102 39.9702 62.6002 39.9402 62.6802 39.9102C62.6002 39.9402 62.5202 39.9702 62.4102 39.9702Z" fill="#8F9700"/>
<path d="M51.22 12.6204C51.05 13.8304 50.88 15.0404 50.71 16.2404C51.05 16.8804 51.3 17.5504 51.23 18.3004C52.23 18.3904 52.83 18.7304 52.25 19.8604C53.75 20.5704 55.06 20.9804 54.66 18.4304C54.63 18.2604 55.11 18.0104 55.35 17.7904C55.46 17.8404 55.55 17.8904 55.65 17.9404C55.75 16.1704 55.88 14.4104 56.05 12.6404C56.05 12.6404 56.05 12.6404 56.04 12.6404C55.37 12.1504 54.69 11.6704 54.01 11.2004C53.93 11.1504 53.85 11.0904 53.77 11.0404C53.1 10.5804 52.42 10.1304 51.73 9.69043C51.85 10.7204 51.37 11.6504 51.2 12.6304L51.22 12.6204Z" fill="#8F9700"/>
<path d="M3.52984 18.0298C4.69984 19.3698 3.39984 19.2498 2.58984 19.3498C3.63984 23.0898 4.36984 23.7398 7.75984 23.9998C9.13984 23.3098 10.5198 22.6198 11.8898 21.9198C11.9298 20.8498 11.9798 19.7798 11.3798 18.8198C9.20984 17.6598 6.46984 17.0198 6.70984 13.6698C5.39984 13.5698 5.77984 12.2098 5.15984 11.5898C4.26984 11.4698 3.40984 11.3098 2.56984 11.0898C2.38984 11.4298 2.22984 11.7798 2.06984 12.1298C2.03984 12.1998 2.00984 12.2598 1.97984 12.3298C1.84984 12.6298 1.72984 12.9198 1.61984 13.2198C1.58984 13.2898 1.55984 13.3698 1.53984 13.4398C1.42984 13.7498 1.31984 14.0598 1.21984 14.3798C1.19984 14.4398 1.17984 14.4998 1.15984 14.5498C1.04984 14.9198 0.939844 15.2898 0.839844 15.6698C2.04984 16.0598 2.75984 17.1398 3.52984 18.0198V18.0298Z" fill="#8F9700"/>
<path d="M60.0502 48.8501C59.9902 48.6401 59.8602 48.4701 59.7002 48.3301C59.8502 48.4801 59.9802 48.6401 60.0502 48.8501Z" fill="#8F9700"/>
<path d="M7.92996 8.46035C9.10996 6.68035 10.67 7.76035 12.09 7.74035C12.47 6.72035 11.19 6.28035 11.38 5.38035C10.22 5.44035 9.28996 4.88035 8.34996 4.36035C7.86996 4.70035 7.41996 5.06035 6.98996 5.44035C6.55996 5.81035 6.14996 6.20035 5.76996 6.60035C5.40996 6.98035 5.05996 7.37035 4.73996 7.77035C4.68996 7.83035 4.63996 7.89035 4.59996 7.95035C4.28996 8.35035 3.98996 8.75035 3.70996 9.16035C4.00996 9.32035 4.30996 9.48035 4.61996 9.62035C5.84996 10.2104 7.20996 9.57035 7.95996 8.44035L7.92996 8.46035Z" fill="#8F9700"/>
<path d="M42.8801 5.01023C43.3101 5.60023 43.7001 6.25023 43.3201 6.89023C42.7201 7.91023 42.2101 6.58023 41.6101 6.70023C41.3601 6.75023 41.1301 6.85023 40.8801 6.93023C40.8401 7.49023 40.9601 8.11023 40.3501 8.48023C40.3501 8.65023 40.3501 8.82023 40.3701 8.99023C41.2001 9.45023 40.5201 10.6302 41.3801 11.0702C42.4101 9.14023 43.4501 10.4802 44.4801 11.0702C45.5701 10.8802 46.5501 11.4102 47.5801 11.5802C47.1001 10.0202 47.0001 8.45023 47.0101 6.87023C46.3301 6.50023 45.6501 6.15023 44.9501 5.80023C44.9101 5.78023 44.8701 5.76023 44.8201 5.74023C44.1201 5.39023 43.4201 5.06023 42.7101 4.74023C42.7501 4.84023 42.8001 4.93023 42.8601 5.02023L42.8801 5.01023Z" fill="#8F9700"/>
<path d="M9.3602 10.1304C9.0502 10.0904 8.7502 10.1304 8.4502 10.2404C8.7402 10.1404 9.0402 10.1004 9.3602 10.1304Z" fill="#8F9700"/>
<path d="M33.33 15.8996L33.16 11.5796C32.52 11.2596 31.84 11.1396 31.03 11.5796C31.03 11.4096 31.03 11.2396 31.03 11.0596C31.03 11.2296 31.03 11.3996 31.03 11.5796C30.42 11.9496 30.56 12.5796 30.5 13.1396C31.12 14.3896 32.32 15.0496 33.33 15.8996Z" fill="#8F9700"/>
<path d="M62.95 53.9096C62.63 53.6296 62.58 53.1196 62.59 52.5596C62.59 53.1296 62.63 53.6296 62.95 53.9096Z" fill="#8F9700"/>
<path d="M56.3301 85.2303C56.6601 85.2603 57.0401 85.1803 57.4401 85.0703C57.4701 85.6903 57.6101 86.1903 57.8601 86.5903C57.6101 86.1903 57.4701 85.6903 57.4401 85.0703C57.0401 85.1903 56.6601 85.2603 56.3301 85.2303Z" fill="#8F9700"/>
<path d="M28.2302 9.19047C28.1402 8.97047 28.0402 8.73047 27.9502 8.50047C28.2902 8.50047 28.6302 8.48047 28.9702 8.48047C28.6302 8.48047 28.2902 8.50047 27.9502 8.50047C28.0502 8.73047 28.1502 8.97047 28.2302 9.19047Z" fill="#8F9700"/>
<path d="M33.6499 58.1404C33.9899 58.1404 34.3199 58.1404 34.6599 58.1404C35.2099 57.7704 35.7899 57.6404 36.3699 57.6104C35.7799 57.6404 35.2099 57.7704 34.6599 58.1404C34.3199 58.1404 33.9899 58.1404 33.6499 58.1404Z" fill="#8F9700"/>
<path d="M55.6002 32.7796C55.4502 29.8396 55.4002 26.8996 55.4402 23.9496C55.0002 23.8996 54.5702 23.8596 54.3202 23.9996C53.4102 24.0596 53.2702 24.6896 53.2702 25.4296C53.2702 26.5196 52.5402 26.5996 51.7202 26.5896C52.0702 27.6196 52.4202 28.6596 52.7802 29.6896C54.5402 29.9796 55.0302 31.3196 55.3502 32.7996C55.4402 32.7896 55.5102 32.7896 55.5902 32.7796H55.6002Z" fill="#8F9700"/>
<path d="M50.4102 68.5195C50.7502 68.7995 51.2102 68.9695 51.7402 69.0195C52.2102 69.3195 52.7402 69.5695 53.1802 69.8995C52.7402 69.5695 52.2002 69.3295 51.7402 69.0195C51.2102 68.9695 50.7502 68.8095 50.4102 68.5195Z" fill="#8F9700"/>
<path d="M49.1501 91.7696C49.1401 91.6996 49.1101 91.6296 49.0801 91.5596C49.1201 91.6296 49.1401 91.6996 49.1501 91.7696C49.1501 91.7796 49.1401 91.7896 49.1301 91.7996C49.1301 91.7996 49.1401 91.7796 49.1501 91.7696Z" fill="#8F9700"/>
<path d="M31.37 17.2998C31.06 17.3598 30.77 17.4898 30.52 17.7798C30.17 17.8498 29.93 17.9698 29.77 18.1198C29.93 17.9698 30.17 17.8598 30.52 17.7798C30.77 17.4898 31.06 17.3598 31.37 17.2998Z" fill="#8F9700"/>
<path d="M49.1599 48.8498L49.1499 48.8398L49.1599 48.8498Z" fill="#8F9700"/>
<path d="M50.1899 78.8496C50.2199 79.1796 50.3399 79.4396 50.5199 79.6496C50.3399 79.4396 50.2199 79.1796 50.1899 78.8496Z" fill="#8F9700"/>
<path d="M50.0801 78.29C50.1401 78.39 50.1801 78.51 50.1901 78.64C50.1801 78.51 50.1401 78.4 50.0801 78.29Z" fill="#8F9700"/>
<path d="M178.59 63.2998C178.48 63.0298 178.39 62.7398 178.35 62.4198C177.45 53.5398 177.22 44.6498 177.65 35.7598C171.46 40.6898 165.61 46.0398 160.15 51.7698C160.13 54.5998 160.17 57.4298 160.23 60.2498C160.28 60.2498 160.34 60.2498 160.39 60.2298C162.06 60.3398 163.59 60.9298 164.65 58.5398C165.35 56.9698 166.84 58.7298 167.66 59.3998C168.83 60.3498 169.73 61.6498 170.74 62.7998C171.9 63.2898 173.24 63.6298 172.81 65.3998C173.5 64.5298 173.68 63.2198 175.3 63.0898C174.86 62.6198 174.67 62.3298 174.4 62.1598C173.45 61.5498 170.38 61.7798 173.47 59.6498C173.59 59.5698 173.39 59.0098 173.34 58.6798C173.28 57.7298 173.39 56.8198 173.91 55.9898C174.19 55.5498 174.5 55.0798 175.1 55.2598C175.69 55.4398 176.13 55.8998 176.31 56.4798C176.55 57.2298 176.12 57.5798 175.41 57.6498C176.53 59.3898 176.72 61.4598 177.47 63.3298C177.85 63.3498 178.21 63.3398 178.58 63.2998H178.59ZM169.46 56.8398C169.32 57.3898 168.82 57.5998 168.27 57.5998C167.84 57.5998 167.31 57.5798 167.37 57.0098C167.44 56.2698 168.09 56.1798 168.46 56.1198C169.16 56.1398 169.59 56.2998 169.46 56.8398Z" fill="#8F9700"/>
<path d="M175.41 98.5102C175.44 97.6402 175.18 96.7902 174.98 95.9502C175.18 96.8002 175.44 97.6402 175.41 98.5102Z" fill="#8F9700"/>
<path d="M177.72 84.6205C178.28 84.3705 178.73 83.8505 179.04 83.0105C179.73 83.0105 180.42 82.9905 181.11 82.9805C180.42 82.9805 179.73 83.0005 179.04 83.0105C178.73 83.8605 178.28 84.3705 177.72 84.6205Z" fill="#8F9700"/>
<path d="M175.42 84.5498C175.89 84.7098 176.33 84.7998 176.73 84.7998C176.33 84.7998 175.89 84.6998 175.42 84.5498Z" fill="#8F9700"/>
<path d="M177.79 81.8398C178.2 82.0498 178.6 82.3098 179.03 82.4898C179.03 82.6598 179.03 82.8398 179.03 83.0098C179.03 82.8398 179.03 82.6598 179.03 82.4898C178.6 82.3098 178.2 82.0598 177.79 81.8398Z" fill="#8F9700"/>
<path d="M256.04 9.48956C255.61 8.96956 255.14 8.51956 254.64 8.12956C254.52 8.02956 254.39 7.94956 254.27 7.85956C252.4 6.51956 250.15 5.89956 247.8 5.67956C245.4 5.45956 242.9 5.63956 240.64 5.84956C227.47 7.11956 215.02 12.4996 203.46 18.7196C202.7 25.6596 201.95 32.6096 201.19 39.5496C201.02 41.1196 199.84 41.9996 198.6 42.1996C197.89 42.3096 197.16 42.1996 196.59 41.8696C196.3 41.6996 196.06 41.4796 195.87 41.1996C195.78 41.0596 195.7 40.8996 195.64 40.7396C195.52 40.3996 195.48 40.0096 195.53 39.5596C196.16 33.7496 196.8 27.9396 197.43 22.1296C196.96 22.4096 196.5 22.6996 196.03 22.9796C191.77 25.5496 187.6 28.2896 183.58 31.2196C182.86 40.8896 182.93 50.5596 183.8 60.2196C183.94 60.3696 184.08 60.5396 184.21 60.7496C186.04 61.8596 185.73 63.6696 185.75 65.3796C185.97 67.1595 187.07 67.1096 188.08 66.2396C189.95 64.6296 190.86 66.6796 191.15 67.4196C191.82 69.1096 189.57 67.9596 189.1 69.1196C189.77 69.7996 192.22 69.4896 190.93 71.5996C191.57 71.9496 192.25 72.1996 193 72.1196C194.46 73.5096 195.91 74.9296 198.18 74.7096C198.52 74.7096 198.87 74.7096 199.21 74.7096C199.73 74.8796 200.25 75.0596 200.77 75.2296C200.94 75.0596 201.11 74.8896 201.29 74.7096C201.86 72.4896 203.57 72.5096 205.35 72.6496C205.79 72.6896 206.24 72.7696 206.31 73.2896C206.4 73.9896 205.88 74.0996 205.34 74.1596C204.55 74.2496 203.52 73.9096 203.37 75.1996C204.65 76.4296 205.34 77.9396 205.23 79.7196C205.19 80.3896 205.48 80.6496 205.95 80.8996C206.26 81.0396 206.79 81.3596 206.86 81.2796C208.69 79.2496 210.33 81.9596 212.14 81.4796C212.74 81.3196 213.19 81.5896 213.6 82.0996C215.35 80.4196 217.09 78.7296 218.83 77.0296C219.2 76.6696 219.57 76.3096 219.94 75.9396C221.72 74.1896 223.5 72.4396 225.26 70.6796C225.3 70.6396 225.34 70.5996 225.38 70.5496C227.04 68.8896 228.69 67.2096 230.32 65.5296C230.75 65.0896 231.17 64.6496 231.6 64.2096C233.3 62.4496 234.99 60.6896 236.66 58.8996C245.45 49.5096 255.58 39.2796 258.23 26.1996C259.29 20.9696 259.7 13.8396 256.04 9.44956V9.48956Z" fill="#8F9700"/>
<path d="M174.38 88.6802C174.55 88.6802 174.72 88.6802 174.89 88.6802C174.95 88.2202 175.13 87.9102 175.37 87.7002C175.13 87.9202 174.95 88.2202 174.89 88.6802C174.72 88.6802 174.55 88.6802 174.38 88.6802Z" fill="#8F9700"/>
<path d="M39.1901 76.9199C39.0501 77.0399 39.0501 77.2999 39.3101 77.8199C39.2401 78.0299 39.1501 78.1999 39.0601 78.3499C39.1601 78.2099 39.2401 78.0299 39.3101 77.8199C39.0401 77.2899 39.0501 77.0399 39.1901 76.9199Z" fill="#8F9700"/>
<path d="M183.7 80.9102C183.08 80.5202 182.69 79.8902 182.3 79.2402C182.69 79.8902 183.08 80.5202 183.7 80.9102C183.99 80.9002 184.31 80.9402 184.58 80.8802C184.31 80.9402 183.98 80.9002 183.7 80.9102Z" fill="#8F9700"/>
<path d="M162.1 104.45C161.84 104 161.74 103.43 161.96 102.65C162.27 102.64 162.58 102.63 162.89 102.63C162.58 102.63 162.27 102.63 161.96 102.65C161.74 103.42 161.84 103.99 162.1 104.45Z" fill="#8F9700"/>
<path d="M73.2098 29.2996C73.5898 28.9496 74.2398 29.6496 74.5098 30.2096C74.6798 30.0296 74.8598 29.8896 75.0498 29.7696C74.3898 29.0896 73.7398 28.4096 73.0798 27.7396C69.3598 23.9696 65.4698 20.2496 61.3598 16.8096C61.1098 20.3796 61.0098 23.9496 61.0398 27.5196C63.4998 26.6396 66.1698 27.1696 68.2998 29.1896C69.9198 29.3396 71.4498 30.9496 73.1998 29.3096L73.2098 29.2996ZM62.2798 26.2596C62.0998 26.2196 61.9898 25.9296 61.8398 25.7496C62.0898 25.5696 62.3098 25.3096 62.5798 25.2296C62.7698 25.1696 63.0298 25.3496 63.1098 25.3696C62.8398 26.0396 62.6498 26.3496 62.2698 26.2596H62.2798ZM66.2298 24.5196C66.8098 22.9096 67.7898 23.3196 68.8298 23.9996C68.1898 25.3196 67.5098 26.4296 66.2298 24.5196Z" fill="#8F9700"/>
<path d="M115.47 81.3896C114.93 81.7496 114.38 82.1197 113.84 82.4797C114.38 82.1197 114.93 81.7496 115.47 81.3896Z" fill="#8F9700"/>
<path d="M66.7501 35.3896C68.1201 35.5196 69.0301 34.7596 69.8501 33.8196C69.3301 32.6196 68.8201 31.4096 68.3001 30.2096C68.3001 29.8696 68.3001 29.5196 68.3001 29.1796C68.3001 29.5196 68.3001 29.8696 68.3001 30.2096C66.9801 30.1796 65.8001 30.3796 64.7101 28.9696C63.9501 27.9796 62.3601 29.4996 61.0801 29.1896C61.1201 31.1596 61.2101 33.1296 61.3501 35.0996C61.8301 35.0296 62.3001 35.0596 62.7501 35.3496C63.2901 35.6996 64.0301 35.7196 64.6801 35.8996C65.2301 35.1496 66.0401 35.4596 66.7601 35.3896H66.7501ZM62.4701 31.6596C62.1201 31.6896 61.7201 31.6096 61.8001 31.1596C61.8501 30.8896 62.1301 30.5596 62.3801 30.4496C62.7201 30.3096 63.0101 30.5296 63.0301 30.9496C63.0001 31.3096 62.8801 31.6196 62.4701 31.6496V31.6596Z" fill="#8F9700"/>
<path d="M159.88 109.38C160.38 109.35 160.88 109.33 161.33 109.4C160.88 109.33 160.38 109.35 159.88 109.38Z" fill="#8F9700"/>
<path d="M164.04 96.4601C164.25 96.0901 164.38 95.7101 164.46 95.3301C164.38 95.7101 164.25 96.0901 164.04 96.4601Z" fill="#8F9700"/>
<path d="M167.67 101.61C167.67 101.27 167.67 100.93 167.67 100.59C167.71 100.6 167.74 100.61 167.78 100.62C167.74 100.62 167.71 100.61 167.67 100.59C167.67 100.93 167.67 101.27 167.67 101.61Z" fill="#8F9700"/>
<path d="M171.27 98.0102C171.63 97.9402 171.98 97.9402 172.33 97.9702C171.98 97.9402 171.63 97.9402 171.27 98.0102Z" fill="#8F9700"/>
<path d="M169.06 115.12C169.01 114.66 168.45 114.6 168.02 114.54C167.12 114.42 166.67 113.89 166.62 112.99C166.15 111.8 164.69 111.87 164.01 110.95C163.67 110.94 163.33 110.92 162.99 110.91C161.73 110.77 160.54 111.15 159.34 111.44C159.18 111.62 159.02 111.8 158.86 111.97C157.88 113.81 159.12 115.16 159.89 116.61C161.21 117.24 162.82 115.54 164.02 117.12C164.79 117.18 165.63 117.06 166.3 117.34C167.02 117.64 168.12 118.35 166.69 119.12C164.95 120.06 166.09 120.88 166.61 121.77C166.85 122.21 167.1 122.63 167.37 123.01C169.13 121.73 170.8 120.44 172.36 119.23C172.79 118.9 173.21 118.57 173.63 118.26C174.03 117.95 174.43 117.63 174.83 117.32C174.16 116.91 173.5 116.5 172.83 116.1C171.49 116.1 169.44 118.86 169.05 115.11L169.06 115.12Z" fill="#8F9700"/>
<path d="M159.37 89.21C159.72 89.44 160.06 89.66 160.41 89.89C160.06 89.66 159.72 89.44 159.37 89.21Z" fill="#8F9700"/>
<path d="M16.5601 4.70996C16.5601 5.07996 16.5001 5.44996 16.3701 5.74996C16.5001 5.43996 16.5601 5.07996 16.5601 4.70996Z" fill="#8F9700"/>
<path d="M14.89 4.23047C14.72 4.40047 14.58 4.61047 14.48 4.86047C14.58 4.61047 14.72 4.40047 14.89 4.23047Z" fill="#8F9700"/>
<path d="M17.79 4.05019C18.06 4.00019 18.31 4.00019 18.53 4.09019C18.32 4.00019 18.06 4.01019 17.79 4.05019Z" fill="#8F9700"/>
<path d="M16.5498 4.3398C16.9498 4.2898 17.3898 4.1198 17.7898 4.0498C17.3898 4.1198 16.9498 4.2798 16.5498 4.3398Z" fill="#8F9700"/>
<path d="M32.8098 2.29953C32.7198 2.18953 32.6198 2.08953 32.5098 2.01953C32.6198 2.09953 32.7198 2.19953 32.8098 2.29953Z" fill="#8F9700"/>
<path d="M20.4399 36.0998C20.1399 35.4298 19.9999 34.6898 20.1799 33.8398C19.8399 33.8398 19.4899 33.8398 19.1499 33.8398C19.4899 33.8398 19.8399 33.8398 20.1799 33.8398C20.0099 34.6898 20.1399 35.4298 20.4399 36.0998Z" fill="#8F9700"/>
<path d="M16.5699 43.1702C16.3199 43.0302 16.0899 42.8702 15.8799 42.7002C16.0899 42.8702 16.3199 43.0202 16.5699 43.1702Z" fill="#8F9700"/>
<path d="M71.6802 30.7998C71.2602 30.8298 70.9002 30.9598 70.7202 31.2798C70.9002 30.9598 71.2602 30.8298 71.6802 30.7998C71.8602 30.8398 72.0202 30.8998 72.1402 31.0098C72.0202 30.9098 71.8602 30.8398 71.6802 30.7998Z" fill="#8F9700"/>
<path d="M19.1502 52.9697C18.9502 53.0097 18.6602 53.0397 18.4302 53.0697C18.6702 53.0297 18.9502 53.0097 19.1502 52.9697Z" fill="#8F9700"/>
<path d="M19.6698 40.05C19.6798 39.66 19.6498 39.29 19.5498 38.96C19.6498 39.29 19.6798 39.66 19.6698 40.05Z" fill="#8F9700"/>
<path d="M20.3301 50.54C20.4101 50.67 20.5401 50.8 20.7101 50.93C20.5401 50.8 20.4201 50.67 20.3301 50.54Z" fill="#8F9700"/>
<path d="M15.0102 45.7305C14.6602 45.9005 14.3102 46.0805 13.9702 46.2505C14.3202 46.0805 14.6702 45.9005 15.0102 45.7305Z" fill="#8F9700"/>
<path d="M65.5801 97.03C65.9701 96.99 66.3501 96.96 66.7401 96.96C66.3501 96.96 65.9701 96.99 65.5801 97.03Z" fill="#8F9700"/>
<path d="M69.83 35.2695C69.67 35.4695 69.51 35.6795 69.34 35.8895C69.16 35.9795 69.06 36.0995 68.98 36.2395C69.06 36.0995 69.17 35.9795 69.34 35.8895C69.5 35.6795 69.66 35.4695 69.83 35.2695Z" fill="#8F9700"/>
<path d="M65.6699 47.8095C65.8599 47.8095 66.0399 47.8095 66.2199 47.7995C66.5899 47.3695 67.0199 47.2795 67.4799 47.2695C67.0299 47.2695 66.5899 47.3695 66.2199 47.7995C66.0399 47.8195 65.8599 47.8195 65.6699 47.8095Z" fill="#8F9700"/>
<path d="M3.25 29.27C4.25 29.32 5.16 30.17 6.28 29.31C6.71 28.97 7.1 29.6 7.29 30.14C7.57 30.9 7.74 31.59 7.17 32.3C6.64 32.95 5.95 32.75 5.28 32.76C4.63 32.76 4.17 31.55 3.5 32.32C2.76 33.18 3.77 33.87 4.03 34.62C4.37 35.58 4.78 36.51 5.16 37.46C5.33 37.46 5.51 37.47 5.68 37.48C6.18 37.65 6.5 38 6.71 38.47C7.22 38.47 7.73 38.47 8.24 38.47C7.99 37.34 6.06 37.2 6.37 36.04C6.77 34.52 8.32 36.11 9.22 35.43C9.51 35.21 9.94 34.91 10.33 35.38C11.01 34.91 11.7 34.89 12.39 35.38C12.41 34.79 12.33 34.17 12.47 33.61C12.91 31.86 11.91 29.9 10.17 30.09C7.73 30.34 8.34 28.87 8.26 27.64C7.64 27.34 7.01 26.94 6.32 27.19C5.33 27.55 4.15 27.68 4.05 26.51C3.93 25.06 5.4 25.77 6.19 25.56C5.35 24.3 4.2 23.73 2.72 24.22C1.74 24.54 1.1 24.15 0.49 23.5C0.33 23.6 0.16 23.67 0 23.73H0.02C0.06 25.16 0.2 26.59 0.41 28C0.41 28.07 0.43 28.13 0.44 28.2C0.51 28.65 0.58 29.09 0.67 29.54C1.41 29.17 2.36 29.22 3.26 29.27H3.25Z" fill="#8F9700"/>
<path d="M0.36002 17.9902C0.33002 18.1902 0.30002 18.3902 0.27002 18.5902C0.35002 18.5002 0.43002 18.4202 0.51002 18.3102C0.46002 18.2002 0.40002 18.1002 0.35002 17.9902H0.36002Z" fill="#8F9700"/>
<path d="M5.16977 37.46C4.82977 37.46 4.48977 37.46 4.14977 37.46C3.76977 37.46 3.38977 37.46 3.00977 37.46C3.35977 38.34 3.72977 39.2 4.11977 40.06C4.11977 40.06 4.13977 40.06 4.14977 40.06C5.79977 39.71 4.94977 38.38 5.17977 37.47L5.16977 37.46Z" fill="#8F9700"/>
<path d="M25.3599 19.13C26.1999 18.8 26.8699 18.16 26.8999 16.76C26.8999 16.59 26.8999 16.42 26.8999 16.25C26.8999 16.42 26.8999 16.59 26.8999 16.76C26.8699 18.16 26.1999 18.8 25.3599 19.13Z" fill="#8F9700"/>
<path d="M30.3198 66.3096C30.3398 66.4896 30.3998 66.7096 30.5298 66.9496C30.6898 67.0196 30.8398 67.1096 30.9998 67.1896C30.8398 67.1096 30.6898 67.0196 30.5298 66.9496C30.4098 66.7096 30.3398 66.4896 30.3198 66.3096Z" fill="#8F9700"/>
<path d="M60.0498 83.9297C60.3398 84.0297 60.7298 84.0097 61.0498 84.0497C61.1998 84.3997 61.4798 84.6797 61.7098 84.9897C61.4798 84.6797 61.1998 84.3897 61.0498 84.0497C60.7298 84.0097 60.3398 84.0297 60.0498 83.9297Z" fill="#8F9700"/>
<path d="M27.9401 67.9902C28.1101 68.1602 28.2801 68.3402 28.4501 68.5102C28.0801 68.8302 27.7001 69.0602 27.3301 69.2202C27.7001 69.0602 28.0801 68.8402 28.4501 68.5102C28.2801 68.3402 28.1101 68.1602 27.9401 67.9902Z" fill="#8F9700"/>
<path d="M25.3501 32.2902C25.4301 31.8802 25.5401 31.5202 25.7201 31.2402C25.5401 31.5202 25.4301 31.8802 25.3501 32.2902Z" fill="#8F9700"/>
<path d="M37.4199 60.0596C37.2999 60.3996 37.2499 60.7896 37.2899 61.2396C37.5599 61.3896 37.8299 61.5396 38.0899 61.6896C37.8199 61.5396 37.5499 61.3896 37.2899 61.2396C37.2599 60.7896 37.3099 60.3996 37.4199 60.0596Z" fill="#8F9700"/>
<path d="M48.1199 45.2099C47.4499 45.0599 46.8899 45.1699 46.3999 45.4099C46.8999 45.1699 47.4499 45.0499 48.1199 45.2099C48.2099 45.0599 48.3199 44.9499 48.4399 44.8799C48.3199 44.9499 48.2099 45.0599 48.1199 45.2099Z" fill="#8F9700"/>
<path d="M41.3898 23.5C40.8698 23.5 40.3598 23.5 39.8398 23.5C40.3598 23.5 40.8698 23.5 41.3898 23.5C41.5298 23.69 41.6998 23.82 41.8898 23.9C41.6998 23.82 41.5398 23.69 41.3898 23.5Z" fill="#8F9700"/>
<path d="M47.0801 60.2305C47.0901 60.4005 47.1001 60.5705 47.1101 60.7505C47.2501 60.7905 47.3901 60.8505 47.5301 60.9105C47.3901 60.8505 47.2401 60.7905 47.1101 60.7505C47.1001 60.5805 47.0901 60.4105 47.0801 60.2305Z" fill="#8F9700"/>
<path d="M47.0801 28.14C46.7401 28 46.4801 27.79 46.3101 27.54C46.4801 27.8 46.7401 28 47.0801 28.14Z" fill="#8F9700"/>
<path d="M30.5498 5.88012C30.5498 5.71012 30.5498 5.54012 30.5498 5.37012C30.5498 5.54012 30.5498 5.71012 30.5498 5.88012C30.9898 5.93012 31.2998 6.10012 31.5498 6.34012C31.2998 6.10012 30.9898 5.93012 30.5498 5.88012Z" fill="#8F9700"/>
<path d="M31.5401 56.6198C31.3801 56.6098 31.2201 56.5998 31.0601 56.5898C31.2201 56.5898 31.3801 56.6098 31.5401 56.6198C31.7701 57.0498 32.2901 57.0598 32.7601 57.1598C32.2901 57.0698 31.7701 57.0498 31.5401 56.6198Z" fill="#8F9700"/>
<path d="M61.03 87.6296C60.69 87.6296 60.36 87.6396 60.02 87.6496C60.36 87.6496 60.69 87.6396 61.03 87.6296C61.06 87.0796 61.26 86.6596 61.65 86.3496C61.27 86.6596 61.06 87.0796 61.03 87.6296Z" fill="#8F9700"/>
<path d="M32.0801 54.5303C32.1401 54.6803 32.2201 54.8403 32.2901 55.0003C32.2101 54.8403 32.1401 54.6803 32.0801 54.5303Z" fill="#8F9700"/>
<path d="M33.3798 57.4199C33.2198 57.2799 32.9898 57.2099 32.7598 57.1699C32.9898 57.2199 33.2198 57.2799 33.3798 57.4199Z" fill="#8F9700"/>
<path d="M49.16 21.4104C49.25 19.9204 47.46 19.9404 47.07 18.8304C47.3 18.3704 47.51 18.0004 47.72 17.7104C47.51 18.0004 47.29 18.3804 47.07 18.8304C46.54 18.4704 45.69 18.4004 45.65 17.5804C45.6 16.7104 46.34 16.8104 46.91 16.7504C48.5 16.6004 47.61 15.7204 47.26 15.2404C46.6 14.3304 45.78 14.8204 45.02 15.2004C44.31 16.1404 43.62 15.4604 42.93 15.1704C42.42 15.0004 41.91 14.8204 41.41 14.6504C40.69 15.3804 39.85 15.6304 38.98 15.7004C39.01 16.4104 39.03 17.1204 39.06 17.8304C39.31 17.8304 39.57 17.8304 39.82 17.8204C42.1 17.6604 41.24 19.8304 41.87 20.9004C41.71 20.9004 41.55 20.8904 41.38 20.8904C41.54 20.8904 41.7 20.8904 41.87 20.9004C42.41 21.7404 43.06 22.4604 43.95 22.9304C44.83 21.5804 45.7 21.5704 46.57 22.9504C47.67 22.8304 49.25 23.5104 49.15 21.4004L49.16 21.4104Z" fill="#8F9700"/>
<path d="M40.7398 12.8697C40.5198 12.5597 40.2398 12.2997 39.8498 12.0997C39.6698 11.7697 39.4698 11.4597 39.2598 11.1797C39.4698 11.4597 39.6698 11.7597 39.8498 12.0997C40.2398 12.2997 40.5298 12.5697 40.7398 12.8697Z" fill="#8F9700"/>
<path d="M62.0801 86.0899C62.3301 85.9899 62.5601 85.7999 62.7901 85.6299C62.5601 85.7999 62.3301 85.9899 62.0801 86.0899Z" fill="#8F9700"/>
</g>
<defs>
<clipPath id="clip0_307_6901">
<rect width="258.97" height="198.13" fill="white"/>
</clipPath>
</defs>
</svg>
