<svg width="284" height="103" viewBox="0 0 284 103" fill="none" xmlns="http://www.w3.org/2000/svg">
<g clip-path="url(#clip0_307_6676)">
<path d="M70.0201 66.2803C69.9601 66.3903 69.9001 66.5103 69.8301 66.6203C69.8901 66.5103 69.9601 66.3903 70.0201 66.2803Z" fill="#A5AC33"/>
<path d="M72.5499 59.1402C72.4399 59.8402 72.2798 60.5402 72.0898 61.2302C72.4398 61.0802 72.7598 60.8402 73.0398 60.4602C74.0698 61.3202 75.1098 62.1802 76.1398 63.0402C76.1398 64.9202 74.6798 63.7302 73.9498 64.0602C73.5998 64.2202 73.0298 64.0002 72.8198 64.4502C72.5498 65.0502 73.0698 65.3802 73.4298 65.7102C75.8798 67.9102 76.8698 65.4602 78.3298 64.2402C79.8498 62.9902 79.8998 61.9902 78.1898 60.9702C78.1898 60.8002 78.1898 60.6302 78.1898 60.4602C78.3598 60.2802 78.5298 60.1102 78.6998 59.9302C80.2598 58.4002 79.6199 57.4802 77.8699 56.8002C77.0999 56.5002 76.1898 56.4902 75.5998 55.7802C75.5198 55.1302 75.8798 54.3102 75.1398 53.9102C74.3698 53.5002 73.8099 54.1302 73.4099 54.6502C73.1599 54.9802 72.8898 55.2002 72.5998 55.3702C72.7298 56.6002 72.7198 57.8702 72.5298 59.1302L72.5499 59.1402Z" fill="#A5AC33"/>
<path d="M71.5299 62.96C71.4999 63.04 71.4699 63.12 71.4399 63.2C71.4699 63.12 71.4999 63.04 71.5299 62.96Z" fill="#A5AC33"/>
<path d="M72.48 54.4297C72.49 54.4897 72.5 54.5497 72.51 54.6097C72.51 54.5497 72.49 54.4897 72.48 54.4297Z" fill="#A5AC33"/>
<path d="M63.6799 44.0102C63.6799 44.0102 63.6299 44.0002 63.6099 43.9902C63.6299 43.9902 63.6599 44.0002 63.6799 44.0102Z" fill="#A5AC33"/>
<path d="M72.1201 52.8701C72.1401 52.9301 72.1501 52.9901 72.1701 53.0501C72.1501 52.9901 72.1401 52.9301 72.1201 52.8701Z" fill="#A5AC33"/>
<path d="M85.6301 63.6197C85.3001 62.9497 84.5301 62.8897 83.8901 63.4197C83.1501 64.0297 83.6301 64.8797 83.6301 65.5597C83.6301 66.3497 84.5101 66.0997 85.0601 66.1397C86.2901 66.2397 87.0601 65.4797 88.0901 64.4397C87.0401 64.1897 86.1401 64.6597 85.6401 63.6197H85.6301Z" fill="#A5AC33"/>
<path d="M56.6698 27.9099C57.3398 28.5199 57.7298 29.4499 56.8698 30.4099C56.3298 30.9999 56.6798 31.6299 57.3298 31.8099C58.1298 32.0299 58.9898 32.0999 59.8098 32.0599C60.1498 32.0399 60.1198 31.3099 59.8798 31.2199C57.9898 30.4599 58.8698 28.9799 58.8398 27.6599C59.4298 27.9799 59.9298 28.3099 60.4598 28.5399C61.7598 29.0899 63.5798 29.4499 64.3098 28.5399C64.9498 27.7399 64.2098 27.2799 63.5198 26.7499C65.5398 26.6199 67.5598 26.4999 69.5798 26.3799C64.8898 26.6599 60.1998 26.9499 55.5098 27.3599C55.6998 27.3499 55.8798 27.3299 56.0698 27.3099C56.2298 27.5099 56.4298 27.7099 56.6698 27.9299V27.9099Z" fill="#A5AC33"/>
<path d="M85.3201 71.3497C84.9701 71.3697 84.6001 71.4698 84.6001 71.9098C84.6001 72.2698 84.8501 72.5898 85.2301 72.5498C85.6901 72.5098 85.9501 72.1497 86.1101 71.6997C86.0101 71.2297 85.6301 71.3297 85.3201 71.3497Z" fill="#A5AC33"/>
<path d="M78 67.8198C77.58 68.1598 77.16 68.4798 77.46 69.0798C77.66 69.4998 78.09 69.7998 78.51 69.6598C80.66 68.9498 83.12 69.5198 85.19 68.1298C82.35 66.2798 80 66.1998 78 67.8098V67.8198Z" fill="#A5AC33"/>
<path d="M82.7202 59.7897C81.4502 59.1297 80.7002 59.5697 79.9702 60.8197C81.2902 61.0797 82.1002 60.8097 82.7202 59.7897Z" fill="#A5AC33"/>
<path d="M80.3901 55.1197C80.4601 54.1397 79.5301 54.3397 78.7701 54.2197C78.4301 54.4897 77.5101 53.9397 77.4701 54.8297C77.4301 55.7197 78.2701 55.7797 78.9501 55.7897C79.5301 55.7897 80.3401 55.8497 80.4001 55.1197H80.3901Z" fill="#A5AC33"/>
<path d="M83.27 71.7302C81.99 71.0102 80.51 71.6302 79.46 70.6602C80.47 72.5802 80.89 72.6902 83.27 71.7302Z" fill="#A5AC33"/>
<path d="M70.8399 64.6396C70.7899 64.7496 70.7399 64.8496 70.6899 64.9596C70.7399 64.8596 70.7899 64.7496 70.8399 64.6396Z" fill="#A5AC33"/>
<path d="M112.68 86.1401C112.68 86.1401 112.65 86.1301 112.63 86.1201C112.65 86.1201 112.66 86.1301 112.68 86.1401Z" fill="#A5AC33"/>
<path d="M116.42 87.3601C116.42 87.3601 116.35 87.3401 116.32 87.3301C116.35 87.3401 116.39 87.3501 116.42 87.3601Z" fill="#A5AC33"/>
<path d="M278.71 27.1797C278.34 27.6897 277.96 28.1797 277.57 28.6697C277.96 28.1797 278.34 27.6797 278.71 27.1797Z" fill="#A5AC33"/>
<path d="M229.57 75.2197C227.28 76.8997 224.95 78.5097 222.58 80.0597C224.96 78.5097 227.28 76.8997 229.57 75.2197Z" fill="#A5AC33"/>
<path d="M120.21 88.6501C120.14 88.6301 120.07 88.6001 120 88.5801C120.07 88.6001 120.14 88.6301 120.21 88.6501Z" fill="#A5AC33"/>
<path d="M52.3599 27.6302C53.0799 27.5502 53.8099 27.4802 54.5299 27.4102C53.8099 27.4802 53.0799 27.5502 52.3599 27.6302Z" fill="#A5AC33"/>
<path d="M131.15 92.4296C128.62 91.5796 126.1 90.6896 123.58 89.8096C126.1 90.6896 128.62 91.5796 131.15 92.4296Z" fill="#A5AC33"/>
<path d="M71.2202 50.5596C71.2202 50.5596 71.2602 50.6396 71.2802 50.6896C71.2602 50.6496 71.2402 50.6096 71.2202 50.5596Z" fill="#A5AC33"/>
<path d="M178.2 8.73961C179.31 8.51961 180.43 8.30961 181.54 8.09961C180.43 8.30961 179.31 8.51961 178.2 8.73961Z" fill="#A5AC33"/>
<path d="M132.36 64.0705C132.94 64.0905 133.52 64.0705 134.09 64.0705C135.38 63.9605 136.46 64.3805 137.63 64.9605C138.91 65.5905 140.04 67.3005 141.85 66.1605C143.41 65.6405 144.96 65.1205 146.52 64.6005C147.73 64.3005 149.06 63.6405 148.67 62.4005C148.4 61.5405 146.9 61.9805 145.93 62.2905C145.61 62.3905 145.28 62.4505 144.95 62.5305C144.26 62.5305 143.57 62.5305 142.89 62.5305C139.97 62.9405 137.1 64.3205 134.08 63.0505C133.39 62.8805 132.7 62.7005 132.01 62.5305C131.54 63.1705 130.26 63.9905 132.35 64.0805L132.36 64.0705Z" fill="#A5AC33"/>
<path d="M132.02 62.5295L132.03 62.5195H132.02V62.5295Z" fill="#A5AC33"/>
<path d="M148.4 51.8898C148.02 51.6998 147.71 51.8898 147.64 52.2798C147.53 52.9898 148.03 53.1398 148.58 53.2098C148.76 52.7398 149.07 52.2298 148.4 51.8898Z" fill="#A5AC33"/>
<path d="M186.9 7.09984C187.84 6.92984 188.78 6.74984 189.71 6.58984C188.77 6.75984 187.83 6.92984 186.9 7.09984Z" fill="#A5AC33"/>
<path d="M283.28 14.29C283.29 14.57 283.3 14.86 283.29 15.16C283.29 14.87 283.29 14.58 283.28 14.29Z" fill="#A5AC33"/>
<path d="M174.11 53.3604C174.57 51.8004 174.71 50.7704 173.43 50.1104C172.96 51.2104 173.35 52.1004 174.11 53.3604Z" fill="#A5AC33"/>
<path d="M153.76 83.1697C154.73 83.1297 155.56 82.7497 156.14 81.9197C155.98 80.7497 154.92 81.2397 154.32 80.9497C153.36 80.4897 152.89 81.1097 152.78 82.0097C152.7 82.6897 152.99 83.2097 153.76 83.1797V83.1697Z" fill="#A5AC33"/>
<path d="M150.65 74.85C151.45 74.71 151.77 73.99 151.89 73.24C151.96 72.8 151.56 72.41 151.08 72.54C150.29 72.75 149.76 73.31 149.71 74.15C149.68 74.63 150.02 74.9 150.65 74.85Z" fill="#A5AC33"/>
<path d="M179.63 90.5102C180.82 90.9102 181.57 91.3402 182.32 90.6102C182.4 90.5302 182.27 90.0902 182.12 89.9202C181.26 89.0102 180.63 89.7002 179.63 90.5002V90.5102Z" fill="#A5AC33"/>
<path d="M173.14 87.3196C173.08 87.4296 172.65 87.3496 172.39 87.3496C171.81 86.7696 171.03 86.6196 170.99 87.5496C170.95 88.8496 172.19 88.2296 172.9 88.3996C174.49 88.2496 176.18 88.8396 177.66 87.4896C176.1 88.1296 174.97 83.9796 173.14 87.3196Z" fill="#A5AC33"/>
<path d="M150.69 82.59C151.41 82.38 152.31 81.76 151.94 80.98C151.22 79.47 149.75 80.33 147.97 80.04C149.14 81.29 148.87 83.11 150.68 82.59H150.69Z" fill="#A5AC33"/>
<path d="M158.48 83.4898C156.9 83.9598 154.56 83.5198 154.19 86.0598C155.13 86.3398 156.08 86.7998 157.05 86.8598C158.35 86.9498 159.92 86.7698 160.36 85.3798C160.73 84.1898 159.13 83.2898 158.49 83.4898H158.48Z" fill="#A5AC33"/>
<path d="M158.07 67.0702C158.79 67.0902 158.88 66.6102 158.88 66.5402C158.94 64.7502 158.26 64.5702 157.41 64.6202C156.84 64.6602 156.37 64.8602 156.62 65.5402C156.87 66.2402 157.13 67.0502 158.07 67.0702Z" fill="#A5AC33"/>
<path d="M124.04 85.2997C123.43 85.3197 122.74 85.3097 122.5 85.9597C122.1 87.0697 123.35 86.7197 123.73 87.1697C124.02 87.5297 124.2 87.8597 124.03 88.3197C123.72 89.1397 124.03 89.7597 124.84 89.8197C126.06 89.8997 125.72 88.8597 125.83 88.1297C125.8 87.7397 125.83 87.2897 125.73 86.8897C125.49 86.0497 125.14 85.2697 124.04 85.2997Z" fill="#A5AC33"/>
<path d="M123.97 80.8796C125.01 80.4996 125.55 79.5996 125.63 78.5596C125.68 77.8596 125.09 77.2696 124.29 77.3396C123.23 77.4296 122.61 77.9496 122.7 79.1796C122.76 80.0696 123.02 80.6596 123.98 80.8696L123.97 80.8796Z" fill="#A5AC33"/>
<path d="M176.16 74.0803C176.69 74.1603 176.86 73.7503 176.97 73.3203C176.99 72.9603 176.95 72.5903 176.51 72.5703C176.02 72.5403 175.73 72.8603 175.66 73.3203C175.6 73.7003 175.79 74.0203 176.16 74.0803Z" fill="#A5AC33"/>
<path d="M160.39 80.0898C161.4 80.1698 162.31 80.0598 162.52 78.8198C162.56 78.5698 162.55 78.3098 162.56 78.0498C162.22 78.0498 161.88 78.0498 161.54 78.0698C160.6 78.1398 159.9 78.5798 159.7 79.5298C159.62 79.9298 160.05 80.0698 160.39 80.0998V80.0898Z" fill="#A5AC33"/>
<path d="M115.14 81.1504C115.3 81.1904 115.48 81.1504 115.65 81.1504V81.1704C115.99 81.1704 116.34 81.2104 116.67 81.1704C117.26 81.0804 118.09 82.0904 118.4 81.0404C118.69 80.0304 117.59 79.9504 116.94 79.6504C116.56 79.4704 116.15 79.3104 115.74 79.2504C114.42 79.0304 114.07 80.9104 112.73 80.6904C112.75 80.8504 112.71 81.0604 112.79 81.1604C113.57 82.0604 114.36 80.9604 115.15 81.1604L115.14 81.1504Z" fill="#A5AC33"/>
<path d="M146.32 76.3804C146.71 76.1904 146.9 75.7304 146.56 75.3004C145.68 74.1804 144.51 74.3304 143.27 74.8204C144.45 75.1004 144.69 77.1704 146.32 76.3804Z" fill="#A5AC33"/>
<path d="M169.14 79.1898C168.45 79.1598 168.28 79.6298 168.3 80.2098C168.32 80.8498 168.71 81.1098 169.31 81.1098C169.93 81.0798 170.31 80.7998 170.19 80.1398C170.09 79.5798 169.71 79.2198 169.13 79.1898H169.14Z" fill="#A5AC33"/>
<path d="M184.59 43.4697C184.23 43.4997 183.92 43.6097 183.88 44.0197C183.85 44.3597 183.91 44.7797 184.36 44.6997C184.63 44.6597 184.96 44.3797 185.07 44.1297C185.22 43.7897 185.01 43.4997 184.59 43.4697Z" fill="#A5AC33"/>
<path d="M150.8 27.9596C150.04 28.1696 149.79 28.8196 149.79 29.5296C149.79 29.8896 150.09 30.0996 150.52 30.1196C151.17 29.7796 151.39 29.1196 151.49 28.4596C151.56 28.0196 151.13 27.8696 150.8 27.9596Z" fill="#A5AC33"/>
<path d="M211.25 81.9102C210.47 82.1702 210.71 82.8502 210.7 83.3902C210.69 83.9602 210.66 84.7202 211.54 84.6202C212.37 84.5202 212.21 83.7702 212.2 83.2102C212.2 82.5902 212.01 82.0402 211.25 81.9102Z" fill="#A5AC33"/>
<path d="M169.59 24.68C169.67 24.1 169.47 23.75 168.82 23.75C168.1 23.75 167.42 23.94 167.41 24.79C167.41 25.42 167.91 25.92 168.47 26.04C169.55 26.27 169.15 25.13 169.59 24.68Z" fill="#A5AC33"/>
<path d="M139.92 95.1904C139.02 94.9304 138.13 94.6704 137.23 94.4004C139.86 95.2004 142.51 95.9404 145.18 96.5704C144.35 96.3704 143.52 96.1704 142.69 95.9504C141.95 95.2604 140.92 95.2604 139.92 95.1904Z" fill="#A5AC33"/>
<path d="M101.55 82.4805C101.48 81.9105 100.51 82.2805 99.96 82.1905C98.84 82.2305 98.79 80.8605 97.89 80.6305C97.57 80.8905 97.24 81.0405 96.9 81.1205C97.24 81.0405 97.57 80.8905 97.89 80.6305C97.57 80.1005 96.76 79.8905 96.85 79.0805C97.92 79.2105 98.99 79.3405 100.15 79.4805C99.65 77.9005 98.47 78.0505 97.36 78.0405C96.56 77.0305 95.42 76.9805 94.27 76.9805C94.09 76.6405 93.91 76.3105 93.73 75.9705C93.79 75.5405 93.86 75.0405 94.46 75.4305C95.91 76.3705 95.74 75.2505 95.8 74.4105C95.97 74.2405 96.14 74.0605 96.31 73.8905C96.31 73.2005 96.31 72.5205 96.31 71.8305C95.35 71.4905 94.21 70.2905 93.72 72.3405C93.66 72.7905 93.67 73.1705 93.75 73.4805C93.78 73.5805 93.81 73.6805 93.86 73.7605C93.82 73.6705 93.78 73.5805 93.75 73.4805C93.67 73.1705 93.66 72.7905 93.72 72.3405C93.11 72.7305 93.36 73.4605 93.09 73.9605C92.31 75.3905 91.19 76.1305 89.85 74.7405C89.14 74.0105 88.45 73.8705 87.57 73.9105C86.6 73.9505 85.9 74.4705 85.61 75.3305C85.25 76.3905 86.22 76.6505 86.89 76.9205C88.09 77.4005 88.58 77.9805 87.53 79.0705C87.61 79.0805 87.69 79.0905 87.77 79.0905C87.69 79.0905 87.61 79.0905 87.53 79.0705C86.32 78.0705 85.11 79.2105 83.91 79.0805C83.22 78.9105 82.54 78.7405 81.85 78.5705C81.51 78.3905 81.17 78.2105 80.83 78.0305C80.61 77.6205 80.22 77.5305 79.8 77.5105C79.06 75.5405 76.96 76.3005 75.65 75.4505C75.7 75.0105 75.81 74.6205 76.3 74.4605C77.16 74.1805 78.14 73.7005 77.42 72.7305C76.79 71.8805 76.13 72.7205 75.63 73.3305C75.12 73.9605 74.44 74.2705 73.67 73.8405C71.07 72.3905 70.71 72.5605 70.47 75.4505C70.07 75.3705 69.66 75.2905 69.26 75.2105C69.15 77.4005 66.71 77.1605 65.8 78.5105C65.47 78.5105 65.15 78.5205 64.82 78.5305C64.68 76.3205 64.84 74.2705 67.36 73.3805C68.97 73.7505 70.46 73.9705 70.53 71.5705C70.53 71.2105 70.86 70.7705 71.16 70.5205C71.8 69.9905 73.04 69.6405 72.74 68.7505C72.37 67.6605 71.09 68.3605 70.21 68.2305C69.78 68.1605 69.33 68.1905 68.89 68.2105C65.62 73.2805 60.81 77.7405 56.58 81.1905C55.41 82.1405 54.18 83.0405 52.9 83.8605C53.17 84.0505 53.38 84.3105 53.41 84.7705C54.09 84.7705 54.78 84.7705 55.46 84.7705C54.78 84.7705 54.09 84.7705 53.41 84.7705C53.38 84.3005 53.17 84.0405 52.9 83.8605C47.28 87.4505 40.66 89.5205 34.01 87.8905C33.41 87.8905 32.8 87.8905 32.2 87.8905C31.97 88.3905 31.63 88.7205 31.16 88.8505C31.63 88.7205 31.97 88.3905 32.2 87.8905C32.8 87.8905 33.41 87.8905 34.01 87.8905C33.81 87.8405 33.61 87.8005 33.41 87.7505C25.43 85.5205 20.56 77.8405 20.59 69.7505C20.64 52.2205 39.41 44.4405 54.17 43.3405C56.35 43.1805 58.5 43.2505 60.5 43.6305C60.77 43.5705 61.06 43.5405 61.39 43.5705C61.66 43.5905 61.92 43.6505 62.19 43.6905C62.42 42.7305 62.46 41.7905 62.21 40.8105C63.41 40.8605 65.06 40.2605 64.41 42.6905C64.27 43.2105 64.75 43.8905 65.1 44.5405C64.87 44.4405 64.64 44.3505 64.4 44.2605C66.97 45.2005 69.05 46.9805 70.49 49.2305C70.67 49.0305 70.85 48.8205 71.01 48.5905C71.52 48.4105 72.03 48.2305 72.54 48.0505C73.46 48.0205 73.32 48.5405 73.07 49.1005C73.93 53.0405 75.99 53.8105 79.08 51.4005C79.37 51.1705 79.89 51.2405 80.3 51.1605C80.36 51.7305 80.26 52.7005 80.99 52.5705C82.6 52.2905 83.3 53.7605 84.6 53.9705C81.82 54.7605 81.77 54.8205 82.89 56.3305C82.9 57.0105 83.26 57.3505 83.93 57.3805C85.03 58.0205 86.11 58.7205 87.25 59.2705C88.25 59.7505 88.69 60.4405 88.59 61.5105C87.96 61.5505 87.39 61.7105 87.27 62.4305C87.24 62.5805 87.51 62.9005 87.69 62.9505C88.47 63.1705 89.02 62.9305 89.11 62.0305C90.18 60.8705 91.54 61.8005 92.73 61.5205C93.03 62.2105 93.56 62.5505 94.3 62.5505C94.47 63.0605 94.64 63.5705 94.81 64.0805C94.67 65.6405 95.01 66.6905 96.93 66.7505C98.01 66.7805 98.34 67.6505 97.2 68.1405C95.6 68.8305 95.8 69.5205 96.81 70.5405C97.48 71.2205 97.37 71.7305 96.34 71.8705C96.34 72.5605 96.34 73.2405 96.34 73.9305C96.95 73.1305 98.79 73.2905 98.49 72.0305C98.12 70.4905 99.14 70.8105 99.68 70.9105C100.5 71.0505 101.26 71.5305 102.05 71.8705C103.43 72.0405 104.81 72.2205 106.19 72.3905C106.37 73.6805 107.38 73.3305 108.18 73.4305C109.12 73.5505 110.24 73.0205 111.02 74.1305C110.06 74.7305 109.09 74.3305 108.2 74.4805C107.61 74.5805 107.03 75.1305 107.44 75.4505C108.53 76.3005 110.02 76.4205 111.22 77.3005C111.9 77.8005 112.87 76.6105 113.13 75.9505C113.87 74.0805 115.28 73.3205 117.05 72.9105C117.02 71.8405 115.83 72.4705 115.5 71.8505C115.12 71.2605 114.51 71.3705 113.94 71.3405C112.93 71.6805 112.34 73.4705 111.15 72.6705C109.53 71.5805 107.86 72.0005 106.19 71.8605C105.81 70.5705 103.98 71.0905 103.59 69.8005C102.73 68.8105 101.87 69.4405 101.01 69.8005C100.66 69.2805 100.32 68.7705 99.97 68.2505C99.52 66.5305 101.37 67.0505 101.96 66.2705C102.72 65.2705 102.74 64.4105 102.12 63.5305C101.66 62.8705 101.09 61.9305 100.14 62.1705C98.58 62.5605 100.85 63.5405 99.95 64.1305C99.09 63.7905 98.24 63.4405 97.38 63.1005C97.69 61.7205 98.52 60.3305 97.38 58.9505C96.94 58.7405 96.87 58.3405 96.84 57.9305C96.98 57.6405 97.13 57.3605 97.27 57.0705C98.98 58.3905 100.21 57.0005 101.47 56.1205C101.94 56.8205 101.24 57.9805 102.54 57.9305C102.62 59.2105 103.78 60.1905 103.58 61.5505C103.53 62.6505 103.79 63.5305 105.11 63.6005C105.63 63.7805 106.15 63.9505 106.67 64.1305C107.01 64.7005 107.4 65.4305 108.16 64.8405C108.95 64.2305 108.2 63.9105 107.72 63.6105C107.72 63.1805 107.8 62.7905 108.22 62.5605C108.72 62.6005 109.43 62.4805 109.58 63.0105C110.21 65.3005 112.19 65.2605 113.92 65.6705C113.88 67.8205 115.19 68.3605 117.03 68.2605C117.75 69.4905 117.23 69.8805 116 69.8005C115.81 72.5305 117.93 70.7805 118.87 71.1605C121.7 72.2705 123.03 71.2605 123.23 68.2305C123.23 68.0605 123.23 67.9005 123.23 67.7305C124.9 66.6005 127.33 66.7405 128.41 64.6305C131.45 64.3405 129.27 63.0105 128.93 62.0405C129.1 61.8705 129.27 61.6905 129.45 61.5205C130.09 62.4205 130.98 62.7005 132.03 62.5505C131.97 61.5305 132.34 60.9805 133.48 60.9905C134.77 61.0005 136.07 60.8805 137.45 60.8105C137.05 59.7805 135.81 58.9005 137.25 57.9205C137.08 57.9205 136.91 57.9205 136.75 57.9005C136.91 57.9105 137.08 57.9205 137.25 57.9205C138.11 58.0805 138.96 58.2405 139.82 58.3905H140.08H140.34C141.5 58.6505 141.46 61.3105 143.44 59.9505C144.41 59.3705 145.47 59.4305 146.54 59.4705C147.65 61.1405 148.9 60.6905 149.86 59.4505C151.08 57.8705 152.58 56.7305 154.3 55.8205C154.99 55.3005 155.68 54.7905 156.37 54.2705C155.68 54.7905 154.99 55.3005 154.3 55.8205C155.33 55.9905 156.37 56.1605 157.4 56.3405C158.58 56.3105 160.12 56.5805 158.67 54.6005C158.19 53.9505 158.71 53.3305 158.97 52.7405C160.57 51.6805 163.31 53.8605 164.25 51.1205C160.93 48.7005 157.54 51.1705 154.18 50.7205C153.45 50.6205 152.35 51.1505 153.58 52.0505C154.3 52.5805 153.46 53.4805 154.29 53.7805C153.75 54.5405 152.94 54.1905 152.24 54.2805C151.13 53.5805 149.89 53.3505 148.62 53.2505C148.3 53.8805 147.91 54.3405 147.07 54.0405C145.9 53.6305 145.64 54.4105 145.51 55.3205C143.68 54.7805 145.33 53.0805 144.48 52.2205C143.62 51.3405 142.07 51.8605 141.37 50.6705C141.37 50.3205 141.37 49.9805 141.37 49.6305C142.31 49.6305 143.36 49.8905 144.17 49.5705C145.37 49.1005 146.94 49.3205 148.19 48.9205C150.88 49.5405 153.62 49.9905 156.41 50.2605C158.04 50.4205 158.92 49.3505 159.08 48.1105C159.29 48.2905 159.51 48.4705 159.72 48.6305C160.85 49.5305 161.82 49.1305 162.08 47.5805C162.42 47.0605 162.77 46.5405 163.11 46.0205C163.8 45.7405 164.48 45.0605 165.18 46.0105C164.66 46.4505 164.11 46.8705 163.61 47.3305C163.1 47.8005 162.48 48.3105 163.15 49.0505C163.74 49.7005 164.26 49.0505 164.7 48.7505C165.49 48.2105 166.24 47.6505 167.23 47.5805C167.19 48.9705 164.68 49.1805 165.39 50.5005C166.01 51.6405 167.63 50.2605 168.79 50.6705C169.02 51.6905 168.05 52.5705 168.47 53.6305C169.2 55.4305 167.71 56.0505 166.7 55.7105C164.64 55.0205 163.82 56.5405 162.57 57.3805C162.23 57.3805 161.88 57.3805 161.54 57.3805C160.76 57.4605 159.67 57.0505 159.35 58.0205C159.07 58.8505 159.69 59.5605 160.51 59.9605C162.7 59.1405 164.95 58.0305 166.15 61.6605C166.79 60.3705 167.28 59.4005 167.76 58.4305C168.33 57.8605 168.84 57.1805 169.8 57.3705C173.01 59.4605 173.5 59.3805 174.98 56.4805C174.31 56.0605 173.54 57.3105 172.91 56.3405C171.75 54.7205 173.23 52.7405 172.16 51.0405C171.88 50.5905 172.8 50.1905 173.43 50.1405C173.64 49.4805 174.32 48.2105 173.41 48.3005C170.95 48.5605 170.42 46.2205 168.79 45.4805C168.89 44.2305 170.12 42.8205 168.27 41.8605C168.05 41.4405 167.66 41.3605 167.24 41.3405C167.07 41.5205 166.89 41.6905 166.72 41.8705C166.22 42.6505 165.35 43.1105 164.58 43.6505C165.35 43.1005 166.22 42.6505 166.72 41.8705C166.89 41.6905 167.07 41.5205 167.24 41.3405C165.55 38.6305 163.1 40.1905 160.85 39.7805C161.12 41.1005 162.18 41.0905 163.27 42.3105C160.25 41.5405 159.55 43.5305 158.48 44.8205C158.33 45.0005 158.22 45.1805 158.13 45.3505C157.7 44.9505 157.13 44.6605 156.41 44.5905C155.23 44.4805 154.06 44.3105 152.9 44.1205C153.58 43.5705 154.05 42.8205 154.32 41.8605C154.66 41.8805 155.02 41.8405 155.33 41.9405C157.24 42.5005 158.64 42.5905 157.33 39.9305C156.78 38.8105 158.23 38.9105 158.41 38.2305C159.67 38.1705 159.61 35.6605 161.44 36.6205C162.18 37.0105 163.11 37.6505 163.8 36.8705C164.15 36.4605 163.85 36.1605 163.52 35.8305C165.79 35.6005 168.06 35.3705 170.33 35.1205C170.63 35.7005 171.13 36.2005 171.88 36.4905C180.3 39.7205 188.96 42.1205 197.84 43.6705C201.4 44.2905 202.92 38.8505 199.34 38.2205C193.21 37.1505 187.2 35.6705 181.3 33.8005C192.74 32.3105 204.14 30.4805 215.47 28.3105C215.76 28.5905 216.12 28.8205 216.58 28.9705C223.82 31.3605 231.28 32.6605 238.89 32.9405C242.53 33.0705 242.52 27.4205 238.89 27.2905C234.94 27.1505 231.08 26.6805 227.26 25.9305C239.35 23.3505 251.36 20.3805 263.27 17.0305C266.77 16.0405 265.28 10.5905 261.77 11.5805C232.21 19.9105 202.01 25.9305 171.49 29.3605C169.6 29.5705 167.71 29.7805 165.82 29.9705C166.12 29.4005 166.47 28.8705 167.35 28.7805C167.95 28.7205 169.22 28.4205 168.88 27.5105C168.45 26.3805 167.34 26.8705 166.47 27.2505C165.91 27.4905 165.43 27.8105 165.18 28.4105C165 29.2105 163.42 28.9905 163.7 30.1805C158.85 30.6705 154 31.1105 149.15 31.5205C149.12 30.0505 147.82 29.9005 146.9 29.3705C145.86 28.7805 144.53 28.9605 143.55 28.1705C142.81 27.5805 141.82 26.8005 141.12 27.8205C140.34 28.9705 142.26 28.9105 142.48 29.9205C139.79 29.7205 140.26 27.2205 139.32 25.8305C139.59 25.1405 140.2 24.8305 140.8 24.5505C142.41 23.8005 142.07 23.0305 140.87 22.2105C141.88 21.1305 142.55 22.0405 143.13 22.6905C143.95 23.6005 144.9 23.8805 146.06 23.7505H146.31H146.56C148.63 23.8205 150.8 23.3005 152.41 25.3205C152.95 26.0005 153.99 25.8505 154.85 25.8305C156.75 24.2705 158.83 22.9005 160.04 20.6605C161.52 19.1905 163.09 19.6605 164.99 20.5605C163.94 20.6105 163.19 20.6205 162.45 20.6905C161.69 20.7705 161.09 21.1605 161.19 22.0005C161.28 22.8105 162.08 22.8605 162.6 22.7005C164.13 22.2205 167.55 25.4705 166.94 20.5805C166.93 20.4605 167.31 20.2805 167.52 20.1505C168.86 19.2905 167.82 18.7205 167.15 18.7105C165.24 18.6905 164.08 17.3405 162.62 16.5205C162.62 16.3505 162.62 16.1805 162.62 16.0005C165.2 16.0005 167.65 14.0805 170.31 15.4505C171.07 15.8405 171.61 15.6805 172.07 15.0205C172.62 14.2305 171.92 14.0005 171.47 13.6505C170.93 13.2305 170.41 12.8005 169.88 12.3705C169.88 12.0305 169.88 11.6805 169.88 11.3405C169.91 11.0305 169.94 10.7305 169.97 10.4305C171.15 10.1905 172.33 9.96047 173.51 9.73047C170.12 10.4005 166.74 11.0805 163.35 11.7805C164.39 12.0905 165.13 12.3805 165.69 12.6305C165.62 12.9505 165.48 13.2605 165.3 13.3405C165.43 13.2005 165.19 12.6205 163.32 11.7905C158.48 12.7805 153.65 13.7805 148.81 14.7805C148.99 15.5305 149.19 16.2805 149.17 17.0505C149.19 16.2805 148.99 15.5305 148.81 14.7805C141.26 16.3305 133.71 17.8705 126.14 19.2905C114.18 21.5405 102.17 23.5305 90.08 24.8705C83.3 25.6205 76.5 26.0205 69.7 26.4205C68.98 27.4305 70.05 29.1205 68.97 29.9905C68.03 30.3805 67.89 31.1805 67.95 32.0605C67.93 32.4005 67.92 32.7305 67.9 33.0705C66.85 33.0605 65.78 32.9805 64.84 33.6105C63.94 33.6005 63.09 33.6905 62.45 34.6405C63.17 35.0405 63.73 35.3605 64.3 35.6805C64.48 35.1605 64.66 34.6405 64.84 34.1205C64.66 34.6405 64.48 35.1605 64.3 35.6805C64.3 35.8505 64.31 36.0205 64.32 36.1905C62.77 37.3605 60.86 37.2405 59.1 37.6605C58.2 37.8805 58.47 37.1905 58.62 36.7105C60.25 36.1605 59.97 35.1505 58.83 34.6005C57.39 33.9005 55.72 33.4405 54.48 35.1605C53.44 35.1605 52.4 35.1605 51.36 35.1605C51.19 34.9905 51.03 34.8105 50.86 34.6405C52.37 34.2505 52.16 33.3705 51.09 32.9105C50.33 32.5905 50.16 32.0805 49.82 31.5505C49.73 31.5505 49.64 31.5505 49.56 31.5505C49.65 31.5505 49.74 31.5505 49.82 31.5505C53.04 31.5305 52.6 31.5505 52.53 28.9105C52.52 28.4305 52.48 28.0305 52.42 27.6905C33.37 29.7405 13.37 36.1405 3.81996 54.2105C-4.99004 70.8705 2.42996 89.3505 18.61 97.9005C36.73 107.47 57.26 101.78 73.47 91.0005C77.86 88.0805 82.01 84.8005 86 81.3605C91.28 81.3605 96.42 82.0505 101.47 83.1505C101.58 82.9905 101.63 82.7905 101.6 82.5405L101.55 82.4805ZM82.88 56.3105C83.28 56.3105 83.69 56.2905 84.09 56.3105C83.69 56.2805 83.28 56.3105 82.88 56.3105ZM166.7 56.8205C166.54 56.9205 166.37 57.0005 166.21 57.0705C166.38 57.0005 166.54 56.9205 166.7 56.8205C166.99 56.6905 167.28 56.5405 167.56 56.4205C167.28 56.5405 166.99 56.6905 166.7 56.8205ZM159.46 16.4705C159.98 16.3805 160.48 16.2005 160.99 16.0705C160.48 16.2005 159.98 16.3805 159.46 16.4705C159.31 16.8605 159.15 17.2505 158.99 17.6505C159.14 17.2605 159.31 16.8705 159.46 16.4705ZM144.96 16.4705C145.32 16.4005 145.67 16.4005 146.02 16.4305C145.67 16.4005 145.32 16.4005 144.96 16.4705ZM141.36 19.0605C141.36 19.0605 141.43 19.0805 141.47 19.0905C141.61 19.1205 141.73 19.1405 141.85 19.1605C141.73 19.1405 141.6 19.1305 141.47 19.0905C141.43 19.0905 141.4 19.0805 141.36 19.0605C141.36 19.4005 141.36 19.7405 141.36 20.0805C141.36 19.7405 141.36 19.4005 141.36 19.0605ZM78.21 41.6905C78.21 41.6905 78.21 41.7805 78.21 41.8205C78.21 41.7805 78.21 41.7305 78.21 41.6905ZM81.81 49.5705C81.81 49.9205 81.82 50.2705 81.83 50.6205C81.83 50.2705 81.82 49.9205 81.81 49.5705ZM122.72 42.0205C123.08 41.9905 123.43 41.9405 123.76 41.8305C123.43 41.9405 123.08 41.9805 122.72 42.0205ZM123.22 53.2005C123.06 53.2005 122.89 53.2005 122.73 53.2105C122.89 53.2105 123.06 53.2105 123.22 53.2005ZM99.93 42.8605C100.25 43.2105 100.56 43.5605 100.89 43.8805C100.56 43.5605 100.25 43.2105 99.93 42.8605ZM112.18 44.9605C112.4 44.9605 112.63 44.9505 112.87 44.9205C114.07 44.7505 115.28 44.5805 116.48 44.4005C115.28 44.5705 114.07 44.7405 112.87 44.9205C112.63 44.9505 112.4 44.9605 112.18 44.9605ZM88.02 48.2705C88.24 48.1005 88.4 47.7605 88.57 47.5005C88.4 47.7505 88.25 48.0905 88.02 48.2705ZM89.83 47.3705C89.55 47.5005 89.27 47.6005 88.97 47.5905C89.27 47.6005 89.55 47.5005 89.83 47.3705C89.92 47.3305 90.01 47.2805 90.1 47.2305C90.01 47.2805 89.92 47.3205 89.83 47.3705ZM96.3 55.2905C97.1 54.6305 97.9 54.3205 98.69 54.2505C97.9 54.3205 97.1 54.6305 96.3 55.2905ZM100.94 52.1905C100.99 52.3505 101.03 52.5605 101.07 52.7405C101.03 52.5605 100.99 52.3505 100.94 52.1905C99.91 52.1905 98.88 52.1905 97.86 52.1805C97.25 52.8605 96.68 53.2105 96.14 53.2805C96.68 53.2105 97.25 52.8605 97.86 52.1805C97.86 52.0005 97.86 51.8305 97.86 51.6505C97 51.4705 96.14 51.2905 95.28 51.1205C95.26 50.5305 95.13 50.0305 94.93 49.6005C95.13 50.0305 95.26 50.5305 95.28 51.1205C96.14 51.3005 97 51.4805 97.86 51.6505C98.2 51.4605 98.51 51.2405 98.83 51.0005C98.52 51.2305 98.2 51.4605 97.86 51.6505C97.86 51.8305 97.86 52.0005 97.86 52.1805C98.89 52.1805 99.92 52.1805 100.94 52.1905C101.46 52.3805 102.02 52.4605 102.57 52.5605C102.02 52.4605 101.46 52.3805 100.93 52.1905H100.94ZM105.63 54.2505C105.52 55.0705 105.52 55.8305 105.69 56.4905C105.52 55.8305 105.52 55.0705 105.63 54.2505C106.35 54.2705 106.88 54.1405 107.22 53.8305C107.3 53.7505 107.37 53.6605 107.43 53.5605C107.37 53.6605 107.3 53.7505 107.22 53.8305C106.88 54.1405 106.35 54.2705 105.63 54.2505ZM122.68 60.4605C122.52 60.4405 122.35 60.4305 122.19 60.4205C122.35 60.4205 122.52 60.4405 122.68 60.4505C123.12 60.7305 123.5 61.1105 123.9 61.4705C123.5 61.1105 123.12 60.7305 122.68 60.4505V60.4605ZM124.24 58.8905L124.26 58.8805H124.24V58.8905ZM129.42 49.6005C129.04 50.0505 128.78 50.6805 128.46 51.2205C128.78 50.6805 129.04 50.0505 129.42 49.6005ZM133.78 58.4205C133.86 58.3505 133.94 58.2605 134.02 58.1805C133.94 58.2605 133.86 58.3505 133.78 58.4205ZM134.1 45.4405C134.1 45.8805 134.04 46.3505 134.19 46.7605C134.03 46.3405 134.09 45.8805 134.1 45.4405ZM135.12 56.8605C134.86 56.9105 134.63 56.7805 134.42 56.5905C134.63 56.7805 134.86 56.9205 135.12 56.8605C135.3 57.2805 135.56 57.5105 135.87 57.6605C135.56 57.5105 135.3 57.2705 135.12 56.8605ZM142.35 48.0405C142.61 48.3105 142.87 48.5705 143.13 48.7105C142.87 48.5705 142.61 48.3105 142.35 48.0405ZM144.69 47.9805C144.6 48.0005 144.51 48.0205 144.42 48.0405C144.16 48.5405 143.9 48.7705 143.64 48.8205C143.9 48.7705 144.16 48.5405 144.42 48.0405C144.51 48.0205 144.6 48.0005 144.69 47.9805ZM153.55 36.7505C153.87 36.7205 154.19 36.6905 154.51 36.6605C154.19 37.1405 153.87 37.0405 153.55 36.7505ZM149.98 37.0505C149.98 37.0505 150.07 37.1305 150.11 37.1805C150.13 37.6105 150.22 37.9905 150.64 38.2105C150.69 39.4805 151.6 40.3205 152.2 41.3105C152.02 41.4805 151.85 41.6505 151.67 41.8105C150.2 40.6705 149.17 41.7605 148.12 42.5505C147.94 42.6805 147.77 42.8305 147.6 42.9605C145.13 42.2905 142.72 41.4505 140.37 40.4305C140.34 40.3705 140.31 40.3205 140.28 40.2605C139.81 39.4405 138.82 38.6905 139.98 37.8405C143.31 37.5905 146.64 37.3305 149.97 37.0505H149.98ZM135.63 21.1305C135.94 21.1205 136.25 21.1105 136.56 21.1105C136.25 21.1105 135.94 21.1105 135.63 21.1305C135.41 21.9005 135.51 22.4705 135.77 22.9305C135.51 22.4805 135.41 21.9105 135.63 21.1305ZM133.55 27.8505C134.05 27.8205 134.55 27.8005 135 27.8705C134.55 27.8005 134.05 27.8205 133.55 27.8505ZM132.54 30.4605C132.7 30.2805 132.86 30.1005 133.02 29.9305C134.22 29.6505 135.4 29.2605 136.67 29.4005C137.01 29.4105 137.35 29.4305 137.69 29.4405C138.37 30.3605 139.83 30.2905 140.3 31.4805C140.31 31.7505 140.38 31.9705 140.46 32.1705C137.76 32.3705 135.05 32.5705 132.34 32.7505C132.11 32.0505 132.09 31.3105 132.54 30.4605ZM127.89 28.3905C128.23 28.1905 128.59 28.0105 128.95 27.9105C128.58 28.0005 128.23 28.1905 127.89 28.3905C127.87 28.5405 127.87 28.7005 127.87 28.8605C127.87 28.7005 127.87 28.5405 127.89 28.3905ZM122.69 23.7005C123.21 23.3605 123.73 23.0205 124.25 22.6805C123.73 23.0205 123.21 23.3605 122.69 23.7005C122.35 23.5305 122.01 23.3605 121.67 23.1905C122.01 23.3605 122.35 23.5305 122.69 23.7005ZM118.56 23.7205C119.28 23.2505 120.07 23.1905 120.87 23.1905C120.07 23.1905 119.28 23.2505 118.56 23.7205ZM114.93 24.2405C115.03 24.4905 115.17 24.7005 115.34 24.8705C115.17 24.7005 115.03 24.4905 114.93 24.2405C114.72 24.2405 114.51 24.2105 114.34 24.1305C114.52 24.2105 114.72 24.2305 114.93 24.2405ZM111.31 30.4505C111.38 30.8105 111.39 31.1405 111.34 31.4305C111.39 31.1305 111.38 30.8105 111.31 30.4505C110.41 30.2805 109.68 29.4405 109.54 28.8505C109.68 29.4405 110.4 30.2905 111.31 30.4505ZM107.68 33.0405C107.74 33.4105 107.84 33.7005 107.95 33.9305C107.83 33.6905 107.74 33.4005 107.68 33.0405ZM106.97 31.5905C106.93 31.4205 106.83 31.2205 106.65 30.9605C106.57 30.6205 106.52 30.2905 106.52 29.9805C106.52 30.2905 106.57 30.6205 106.65 30.9605C106.83 31.2205 106.93 31.4205 106.97 31.5905ZM106.14 24.2305C106.28 24.3305 106.44 24.4205 106.58 24.5205C106.43 24.4205 106.27 24.3305 106.14 24.2305ZM106.23 34.1905C106.16 34.2705 106.09 34.3405 106.01 34.4005C106.09 34.3405 106.16 34.2705 106.23 34.1905ZM105.6 24.7605C105.62 25.0905 105.71 25.3505 105.88 25.5205C105.71 25.3505 105.61 25.0905 105.6 24.7605C105.26 25.2805 104.92 25.8005 104.58 26.3105C104.92 25.7905 105.26 25.2705 105.6 24.7605ZM94.75 26.8505C94.93 27.1905 95.02 27.4805 95.06 27.7105C95.07 27.7905 95.08 27.8605 95.07 27.9305C95.07 27.8605 95.07 27.7905 95.06 27.7105C95.03 27.4705 94.93 27.1905 94.75 26.8505C94.29 26.8505 93.86 26.9405 93.42 27.0405C93.85 26.9405 94.29 26.8605 94.75 26.8505ZM94.22 31.4905C94.22 31.8605 94.22 32.2405 94.34 32.5405C94.21 32.2505 94.22 31.8705 94.22 31.4905C93.81 31.3105 93.53 31.0005 93.29 30.6705C93.53 31.0105 93.81 31.3105 94.22 31.4905ZM88.57 33.0405H88.55H88.57ZM88.56 28.4005C88.04 29.0805 87.52 29.7705 87.01 30.4505C87.54 30.7205 87.95 31.0605 88.22 31.4905C87.95 31.0605 87.54 30.7305 87.01 30.4505C87.53 29.7705 88.05 29.0805 88.56 28.4005ZM86.47 29.4305C86.47 29.7705 86.48 30.1105 86.49 30.4505C86.49 30.1105 86.48 29.7705 86.47 29.4305C86.25 29.6005 86.04 29.5505 85.82 29.4005C86.03 29.5405 86.25 29.6005 86.47 29.4305ZM81.73 32.4505C81.99 32.1905 82.34 32.0205 82.78 31.9405C82.34 32.0105 81.98 32.1805 81.73 32.4505C81.47 32.7105 81.31 33.0705 81.23 33.5105C81.3 33.0605 81.47 32.7105 81.73 32.4505ZM79.22 28.8905C79.74 29.0605 80.26 29.2405 80.78 29.4105C80.26 29.2305 79.74 29.0605 79.22 28.8905ZM79.32 28.2705C79.32 27.7605 79.01 27.5405 78.62 27.4105C79.01 27.5405 79.31 27.7605 79.32 28.2705ZM75.34 27.9305C75.14 27.9705 74.95 28.0205 74.76 28.0805C74.95 28.0205 75.15 27.9705 75.34 27.9305ZM75.09 43.9105C75.18 44.6805 74.93 45.2505 74.55 45.7305C74.93 45.2505 75.18 44.6905 75.09 43.9105ZM73 28.3705C73.15 28.4005 73.3 28.4005 73.45 28.3905C73.3 28.3905 73.15 28.3905 73 28.3705ZM72.48 29.9505C72.48 30.1205 72.48 30.2905 72.48 30.4605C72.48 30.2905 72.48 30.1205 72.48 29.9505C72.34 29.9205 72.19 29.9005 72.05 29.8805C72.2 29.9105 72.34 29.9305 72.48 29.9505ZM70.93 42.8905C70.93 43.2305 70.93 43.5705 70.93 43.9105C70.93 43.5705 70.93 43.2305 70.93 42.8905C70.79 42.9405 70.67 42.9505 70.56 42.9505C70.67 42.9505 70.79 42.9305 70.93 42.8905ZM70.43 44.4205C70.66 44.5005 70.85 44.5905 71 44.6905C71.15 44.7905 71.27 44.8905 71.36 45.0005C71.27 44.8905 71.16 44.7905 71 44.6905C70.85 44.5905 70.66 44.5005 70.43 44.4205ZM69.9 45.4505C69.91 45.2405 69.95 45.0405 70.03 44.8605C69.95 45.0405 69.92 45.2405 69.9 45.4505C69.59 45.6305 69.32 45.7505 69.08 45.7905C69.32 45.7405 69.59 45.6305 69.9 45.4505ZM68.5 46.6605C68.5 46.6605 68.43 46.7105 68.39 46.7305C68.43 46.7105 68.46 46.6805 68.5 46.6605ZM57.51 39.2405C57.51 39.4205 57.51 39.6005 57.51 39.7805C57.51 39.6005 57.51 39.4205 57.51 39.2405ZM43.01 34.0905C42.92 34.0305 42.84 33.9605 42.75 33.8905C42.84 33.9605 42.92 34.0305 43.01 34.0905ZM46.63 43.0205C46.81 43.0505 46.99 43.1005 47.12 43.1905C46.99 43.1005 46.81 43.0405 46.63 43.0205C46.15 43.0705 45.84 43.3505 45.79 43.8105C45.84 43.3505 46.15 43.0705 46.63 43.0205ZM42.49 31.5005C42.75 31.8405 43.16 32.0705 43.5 32.3505C43.16 32.0705 42.75 31.8405 42.49 31.5005C42.48 31.3305 42.46 31.1405 42.39 30.9905C42.46 31.1405 42.47 31.3305 42.49 31.5005ZM37.84 33.5505C38.48 34.1005 38.95 34.7105 39.22 35.4005C38.95 34.7105 38.48 34.1005 37.84 33.5505C37.26 33.2005 36.69 32.9805 36.15 32.9005C36.68 32.9805 37.25 33.2005 37.84 33.5505ZM35.26 40.3005C34.97 40.0505 34.72 39.8305 34.5 39.6305C34.72 39.8305 34.97 40.0505 35.26 40.3005ZM31.64 44.4405C31.19 44.3005 30.98 44.1505 30.89 43.9905C30.98 44.1505 31.19 44.3005 31.64 44.4405ZM28.01 47.5405C28.17 47.0005 28.39 46.6205 28.67 46.3605C28.4 46.6205 28.17 46.9905 28.01 47.5405ZM0.589961 64.6305C0.589961 64.4505 0.579961 64.2605 0.589961 64.0805C1.20996 63.8905 1.86996 63.8305 2.49996 63.8905C1.86996 63.8405 1.20996 63.8905 0.589961 64.0805C0.569961 64.2605 0.569961 64.4405 0.589961 64.6305ZM2.65996 68.7405C2.31996 68.5605 1.97996 68.3805 1.64996 68.2005C1.98996 68.3805 2.32996 68.5605 2.65996 68.7405C3.18996 69.2605 3.70996 69.3205 4.06996 69.1005C3.70996 69.3205 3.18996 69.2605 2.65996 68.7405ZM5.65996 65.3105C5.48996 65.1105 5.27996 64.9305 5.04996 64.7705C5.27996 64.9305 5.47996 65.1105 5.65996 65.3105ZM5.62996 72.1305C5.83996 72.5105 6.17996 72.7905 6.79996 72.8605C6.16996 72.7905 5.83996 72.5105 5.62996 72.1305ZM6.27996 66.6505C6.22996 66.2105 6.02996 65.8005 5.73996 65.4405C6.02996 65.8005 6.22996 66.2105 6.27996 66.6505C6.53996 66.9705 6.81996 67.2005 7.09996 67.3505C6.80996 67.2005 6.53996 66.9705 6.27996 66.6505ZM19.77 54.5905C20.1 54.9705 20.42 55.5305 20.78 56.2905C21.33 56.4005 21.67 56.5805 21.77 56.8405C21.67 56.5805 21.33 56.4005 20.78 56.2905C20.43 55.5305 20.1 54.9605 19.77 54.5905C19.66 54.4605 19.55 54.3605 19.44 54.2805C19.55 54.3605 19.66 54.4705 19.77 54.5905ZM12.52 65.5905C12.52 64.9105 12.52 64.2405 12.52 63.5605C12.48 63.1905 12.42 62.8205 12.39 62.4505C12.42 62.8205 12.47 63.1805 12.52 63.5605C12.92 63.3305 13.02 62.9405 13.04 62.5305C13.15 62.2405 13.27 61.9605 13.4 61.6705C13.28 61.9605 13.15 62.2405 13.04 62.5305C14.02 61.0605 16.3 62.1705 17.17 60.4605C17.51 60.4605 17.86 60.4405 18.2 60.4405C19.67 63.4105 19.4 63.7905 15.6 64.0905C14.17 63.7705 13.3 64.5805 12.53 65.6005L12.52 65.5905ZM19.12 65.6705C19.01 65.6405 18.87 65.6105 18.7 65.5905C18.87 65.6105 19 65.6305 19.12 65.6705ZM16.66 67.1605C16.57 67.2105 16.48 67.2705 16.39 67.3305C16.48 67.2705 16.57 67.2105 16.66 67.1605ZM17.16 73.9305C16.95 73.9105 16.75 73.8805 16.57 73.8105C16.75 73.8805 16.95 73.9105 17.16 73.9305ZM18.19 92.5305C17.86 92.5305 17.49 92.5005 17.21 92.4105C17.49 92.5005 17.86 92.5205 18.19 92.5305ZM18.11 73.0205C18.33 72.6405 18.49 72.2205 18.72 71.8505C19.06 71.8505 19.4 71.8305 19.74 71.8305C19.4 71.8305 19.06 71.8505 18.72 71.8505C18.49 72.2205 18.33 72.6405 18.11 73.0205ZM19.74 95.1105C20.06 95.0705 20.32 95.0905 20.52 95.1605C20.32 95.0905 20.06 95.0705 19.74 95.1105ZM21.81 78.0605C21.54 77.3505 21.38 76.8105 21.36 76.3705C21.38 76.8105 21.54 77.3605 21.81 78.0605ZM25.94 86.3305C25.78 86.3305 25.62 86.3305 25.46 86.3205C25.3 86.3205 25.14 86.3005 24.99 86.2605C25.14 86.3005 25.3 86.3105 25.46 86.3205C25.62 86.3205 25.78 86.3205 25.94 86.3305ZM40.42 90.4505C40.67 90.9805 41.02 91.2805 41.42 91.4205C41.01 91.2805 40.66 90.9805 40.41 90.4505H40.42ZM43.53 93.0405C43.76 93.1505 43.95 93.2905 44.12 93.4405C43.95 93.2905 43.76 93.1505 43.53 93.0405ZM43.89 102.4C45.79 101.68 47.55 100.72 49.22 99.5905C47.56 100.72 45.8 101.68 43.89 102.4ZM52.34 97.1805C52.54 96.4205 52.4 95.4905 52.54 94.7005C52.4 95.4905 52.54 96.4205 52.34 97.1805C52.68 97.1805 53.03 97.1805 53.37 97.1805C53.03 97.1805 52.68 97.1805 52.34 97.1805ZM64.23 89.4305C64.35 89.3805 64.47 89.3205 64.57 89.2505C64.46 89.3205 64.35 89.3805 64.23 89.4305ZM64.75 93.0605C64.3 93.1405 63.85 93.2905 63.4 93.4005C63.85 93.2905 64.3 93.1405 64.75 93.0605C64.91 93.3705 65.1 93.6705 65.35 93.8505C65.1 93.6705 64.91 93.3705 64.75 93.0605ZM66.82 88.3905C67.26 88.3705 67.68 88.3905 68.04 88.5405C67.68 88.3905 67.26 88.3705 66.82 88.3905ZM71.26 92.3205C71.1 92.0505 70.86 91.8205 70.59 91.6305C70.86 91.8305 71.1 92.0505 71.26 92.3205ZM72 84.2605C72 83.9205 72 83.5505 71.89 83.2505C72 83.5405 72 83.9105 72 84.2605C72.06 84.2805 72.12 84.2805 72.17 84.2605C72.12 84.2705 72.07 84.2605 72 84.2605ZM75.09 85.2905C76.04 85.2505 76.21 85.6005 76.18 86.0505C76.2 85.6005 76.04 85.2505 75.09 85.2905ZM87.53 80.6505C87.47 80.7505 87.4 80.8405 87.33 80.9005C87.41 80.8305 87.47 80.7505 87.53 80.6505C87.8 80.6105 88.13 80.6505 88.41 80.5905C88.14 80.6505 87.81 80.6105 87.53 80.6505Z" fill="#A5AC33"/>
<path d="M157.9 96.1595C156.73 94.8395 154.16 95.3895 153.77 93.0495C151.83 90.0195 148.85 89.0995 145.49 88.9095C144.46 87.9795 142.84 88.4395 141.88 87.3695C142.45 86.7195 144.29 86.9995 143.42 85.2795C140.82 83.3295 138.08 81.4895 137.21 78.0495C137.13 76.5695 137.89 76.2395 139.13 76.7095C139.79 76.9495 140.37 76.9195 140.6 76.2195C140.84 75.4895 140.27 75.1795 139.66 74.9795C139.18 74.8195 138.71 74.6195 138.24 74.4295C137.55 74.4295 136.87 74.4195 136.18 74.4095C135.79 73.6395 135.92 73.0495 136.84 72.9295C138.34 72.7195 139.85 72.4795 141.35 72.4795C142.08 72.4795 143.05 73.0595 143.18 71.9595C143.32 70.7495 142.19 70.8495 141.35 70.7995C139.83 69.3895 138.47 67.2195 136.16 69.7595C135.2 69.8695 133.66 69.3395 133.43 70.4295C132.79 73.3595 131.2 72.6195 129.44 71.8395C128.93 71.8395 128.41 71.8395 127.9 71.8395V71.8195C127.86 71.1595 128.04 70.2195 127.17 70.1395C126.37 70.0595 125.92 70.9195 125.52 71.5595C125.12 72.1995 125.5 73.3495 124.16 73.3795C123.42 73.3995 122.26 72.2495 122.04 73.4595C121.81 74.7195 123.53 74.1295 124.18 74.7095C125.11 75.5395 126.21 75.4995 127.32 75.4595C128.22 75.4295 129.03 75.5595 129.46 76.4995C129.1 76.6695 128.75 76.9195 128.36 76.9895C127.72 77.1195 126.8 76.9495 127.02 77.9795C127.19 78.7895 127.92 78.4195 128.49 78.3295C128.79 78.2795 129.13 78.4795 129.45 78.5595C130.56 79.2495 131.8 79.4895 133.08 79.5895C133.6 79.7595 134.11 79.9395 134.63 80.1095C135.78 80.8595 135.57 81.7595 134.86 82.6495C133.8 83.9695 132.56 85.0795 131.01 85.7995C130.57 87.5995 131.22 88.4895 133.12 88.3895C133.8 88.3595 134.48 88.3795 135.15 88.3795C135.49 88.3795 135.84 88.3795 136.18 88.3795C139.07 87.9595 141.16 90.4795 143.93 90.4795C144.31 91.0695 144.93 90.9495 145.49 90.9895C145.4 91.4295 145.73 92.1595 144.95 92.1495C144.24 92.1495 143.55 91.9295 143.47 92.9495C143.39 93.9395 144.17 94.2195 144.88 94.4895C145.98 94.9195 147.11 95.2995 148.27 94.6095C149.24 94.0295 150.22 94.3595 151.19 94.5895C151.36 94.5895 151.53 94.5895 151.7 94.5895C153.05 95.7295 154.77 96.0595 156.36 96.6495C157.46 97.5095 158.55 98.3895 160.17 98.0495C159.84 96.7795 158.74 96.6195 157.92 96.1195L157.9 96.1595Z" fill="#A5AC33"/>
<path d="M267.02 40.4504C269.98 37.2804 272.92 34.0904 275.76 30.8304C276.17 30.3604 276.57 29.8904 276.97 29.4004C276.57 29.8804 276.16 30.3604 275.76 30.8304C272.91 34.0904 269.98 37.2904 267.02 40.4504Z" fill="#A5AC33"/>
<path d="M171.14 37.2595C170.2 37.2195 169.82 37.8795 169.83 38.7495C169.85 39.6195 170.27 40.2595 171.2 40.1595C171.94 40.0795 172.7 39.8295 172.85 38.7295C172.51 38.0695 172.1 37.2895 171.13 37.2595H171.14Z" fill="#A5AC33"/>
<path d="M163.78 76.2803C163.75 76.1603 163.14 76.0503 162.89 76.1503C161.85 76.5803 162.19 77.3303 162.56 78.0503C163.56 77.8703 164.04 77.3003 163.78 76.2903V76.2803Z" fill="#A5AC33"/>
<path d="M174.24 26.86C173.79 26.89 173.31 27.05 173.28 27.52C173.24 28.17 173.81 28.31 174.33 28.34C174.87 28.37 175.36 28.25 175.39 27.55C175.27 26.88 174.77 26.83 174.24 26.86Z" fill="#A5AC33"/>
<path d="M131.04 90.4897C130.5 90.3497 129.95 89.7097 129.43 90.3597C128.84 91.0997 129.61 91.5597 130.06 91.7097C130.58 91.8797 130.92 92.1197 131.14 92.4297C133.16 93.1097 135.19 93.7697 137.22 94.3897C135.88 93.6497 134.67 92.6097 133.06 92.5397C131.7 92.5397 132.15 90.7697 131.04 90.4897Z" fill="#A5AC33"/>
<path d="M170.83 27.5303C170.41 27.6303 170.31 27.9603 170.43 28.3003C170.5 28.4903 170.77 28.7303 170.94 28.7203C171.29 28.7103 171.58 28.4503 171.55 28.0703C171.52 27.6903 171.21 27.5303 170.84 27.5303H170.83Z" fill="#A5AC33"/>
<path d="M171.39 25.3002C170.83 25.2902 170.1 25.1202 169.95 25.9502C169.83 26.6402 170.39 26.8102 170.92 26.7902C171.54 26.7702 172.3 27.1002 172.68 26.2902C172.56 25.5002 172 25.3102 171.39 25.3002Z" fill="#A5AC33"/>
<path d="M148.25 97.2396C147.39 97.0696 146.54 96.8796 145.68 96.6796C146.53 96.8796 147.39 97.0696 148.25 97.2396C169.99 101.65 192.12 96.6596 211.56 86.5196C215.35 84.5396 219.02 82.3796 222.58 80.0596C219.02 82.3796 215.35 84.5396 211.56 86.5196C192.12 96.6596 169.99 101.66 148.25 97.2396Z" fill="#A5AC33"/>
<path d="M166.7 84.3403C166.48 84.2903 165.95 84.1203 166.2 84.7303C166.29 84.9503 166.53 85.1003 166.69 85.2903C166.17 85.2903 165.66 85.2903 165.14 85.2903C163.67 85.2603 164.46 86.9403 163.59 87.3603C162.48 87.6103 160.95 86.6703 160.28 87.9203C159.54 89.3003 162.19 92.6403 164.1 93.0503C164.73 93.7703 165.47 93.7203 166.14 93.2003C166.77 92.7103 166.88 92.0803 166.17 91.4903C166.09 91.1203 165.73 90.6903 166.35 90.4703C167.03 90.2303 168.1 90.1303 167.95 89.2703C167.74 88.0603 166.52 88.4803 165.66 88.3903C165.72 87.8303 165.95 87.4703 166.57 87.3603C167.13 87.2603 168.33 87.5703 167.93 86.5803C167.63 85.8503 167.9 84.6003 166.7 84.3303V84.3403Z" fill="#A5AC33"/>
<path d="M34.6299 77.7398C35.0199 77.9498 35.4499 78.1398 35.9199 78.2898C35.7999 78.0598 35.6899 77.8298 35.5899 77.5898C35.2699 77.6598 34.9499 77.7098 34.6299 77.7498V77.7398Z" fill="#8F9700"/>
<path d="M70.0199 66.2804C70.2599 65.8404 70.4799 65.4004 70.6899 64.9604C70.7399 64.8604 70.7899 64.7504 70.8399 64.6404C71.0599 64.1704 71.2599 63.6904 71.4399 63.2004C71.4699 63.1204 71.4999 63.0404 71.5299 62.9604C71.7399 62.3904 71.9299 61.8104 72.0799 61.2304C72.2699 60.5404 72.4299 59.8404 72.5399 59.1404C72.7299 57.8804 72.7399 56.6204 72.6099 55.3804C72.5799 55.1204 72.5499 54.8604 72.4999 54.6004C72.4999 54.5404 72.4799 54.4804 72.4699 54.4204C72.3899 53.9604 72.2899 53.5004 72.1599 53.0504C72.1399 52.9904 72.1299 52.9304 72.1099 52.8704C71.8899 52.1204 71.6099 51.3804 71.2799 50.6804C71.2599 50.6404 71.2399 50.6004 71.2199 50.5504C70.9899 50.0904 70.7399 49.6304 70.4599 49.2004C69.0199 46.9504 66.9399 45.1704 64.3699 44.2304C64.1399 44.1504 63.9099 44.0704 63.6699 44.0004C63.6499 44.0004 63.6199 43.9904 63.5999 43.9804C63.1299 43.8504 62.6499 43.7404 62.1499 43.6604C61.8899 43.6204 61.6299 43.5704 61.3499 43.5404C61.0199 43.5104 60.7299 43.5404 60.4599 43.6004C58.4599 43.2204 56.3099 43.1404 54.1299 43.3104C39.3699 44.4104 20.5999 52.1904 20.5499 69.7204C20.5299 77.8104 25.3899 85.5004 33.3699 87.7204C33.5699 87.7804 33.7699 87.8104 33.9699 87.8604C40.6199 89.4904 47.2499 87.4104 52.8599 83.8304C54.1399 83.0104 55.3799 82.1104 56.5399 81.1604C60.7799 77.7104 65.5899 73.2604 68.8499 68.1804C69.1899 67.6604 69.5099 67.1304 69.8099 66.5904C69.8699 66.4804 69.9399 66.3604 69.9999 66.2504L70.0199 66.2804ZM34.6399 77.7404C34.9599 77.7004 35.2799 77.6504 35.5999 77.5804C35.6999 77.8204 35.8099 78.0504 35.9299 78.2804C35.4699 78.1304 35.0299 77.9504 34.6399 77.7304V77.7404Z" fill="#424600"/>
<path d="M106.67 30.9497C106.85 31.2097 106.95 31.4097 106.99 31.5797C106.95 31.4097 106.85 31.2097 106.67 30.9497C106.59 30.6097 106.54 30.2797 106.54 29.9697C106.54 30.2797 106.59 30.6097 106.67 30.9497Z" fill="#8F9700"/>
<path d="M106.15 24.2197C106.29 24.3197 106.45 24.4097 106.59 24.5097C106.44 24.4097 106.28 24.3197 106.15 24.2197Z" fill="#8F9700"/>
<path d="M107.69 33.0303C107.75 33.4003 107.85 33.6903 107.96 33.9203C107.84 33.6803 107.75 33.3903 107.69 33.0303Z" fill="#8F9700"/>
<path d="M79.2402 28.8801C79.7602 29.0501 80.2802 29.2301 80.8002 29.4001C80.2802 29.2201 79.7602 29.0501 79.2402 28.8701V28.8801Z" fill="#8F9700"/>
<path d="M106.24 34.1797C106.17 34.2597 106.1 34.3297 106.02 34.3897C106.1 34.3297 106.17 34.2597 106.24 34.1797Z" fill="#8F9700"/>
<path d="M118.58 23.7204C119.3 23.2504 120.09 23.1904 120.89 23.1904C120.09 23.1904 119.3 23.2504 118.58 23.7204Z" fill="#8F9700"/>
<path d="M124.26 22.6797C123.74 23.0197 123.22 23.3597 122.7 23.6997C122.36 23.5297 122.02 23.3597 121.68 23.1897C122.02 23.3597 122.36 23.5297 122.7 23.6997C123.22 23.3597 123.74 23.0197 124.26 22.6797Z" fill="#8F9700"/>
<path d="M115.36 24.8601C115.19 24.6901 115.05 24.4801 114.95 24.2301C114.74 24.2301 114.53 24.2001 114.36 24.1201C114.54 24.2001 114.74 24.2201 114.95 24.2301C115.05 24.4801 115.19 24.6801 115.36 24.8601Z" fill="#8F9700"/>
<path d="M105.9 25.51C105.73 25.34 105.63 25.08 105.62 24.75C105.28 25.27 104.94 25.79 104.6 26.3C104.94 25.78 105.28 25.26 105.62 24.75C105.64 25.08 105.73 25.34 105.9 25.51Z" fill="#8F9700"/>
<path d="M88.23 31.4699C87.96 31.0399 87.55 30.7099 87.02 30.4299C87.54 29.7499 88.06 29.0599 88.57 28.3799C88.05 29.0599 87.53 29.7499 87.02 30.4299C87.55 30.6999 87.96 31.0399 88.23 31.4699Z" fill="#8F9700"/>
<path d="M88.5898 33.0195L88.5698 33.0295L88.5898 33.0195Z" fill="#8F9700"/>
<path d="M81.25 33.5004C81.32 33.0504 81.49 32.7004 81.75 32.4404C81.49 32.7004 81.33 33.0604 81.25 33.5004Z" fill="#8F9700"/>
<path d="M81.75 32.4397C82.01 32.1797 82.36 32.0097 82.8 31.9297C82.36 31.9997 82 32.1697 81.75 32.4397Z" fill="#8F9700"/>
<path d="M94.2401 31.4802C94.2401 31.8502 94.2401 32.2302 94.3601 32.5302C94.2301 32.2402 94.2401 31.8602 94.2401 31.4802C93.8301 31.3002 93.5501 30.9902 93.3101 30.6602C93.5501 31.0002 93.8301 31.3002 94.2401 31.4802Z" fill="#8F9700"/>
<path d="M95.0702 27.6998C95.0402 27.4598 94.9402 27.1798 94.7602 26.8398C94.3002 26.8398 93.8702 26.9298 93.4302 27.0298C93.8602 26.9298 94.3002 26.8498 94.7602 26.8398C94.9402 27.1798 95.0302 27.4698 95.0702 27.6998Z" fill="#8F9700"/>
<path d="M86.4898 29.4099C86.4898 29.7499 86.4998 30.0899 86.5098 30.4299C86.5098 30.0899 86.4998 29.7499 86.4898 29.4099C86.2698 29.5799 86.0598 29.5299 85.8398 29.3799C86.0498 29.5199 86.2698 29.5799 86.4898 29.4099Z" fill="#8F9700"/>
<path d="M111.33 30.4496C111.4 30.8096 111.41 31.1396 111.36 31.4296C111.41 31.1296 111.4 30.8096 111.33 30.4496C110.43 30.2796 109.7 29.4396 109.56 28.8496C109.7 29.4396 110.42 30.2896 111.33 30.4496Z" fill="#8F9700"/>
<path d="M21.8201 78.0699C21.5501 77.3599 21.3901 76.8199 21.3701 76.3799C21.3901 76.8199 21.5501 77.3699 21.8201 78.0699Z" fill="#8F9700"/>
<path d="M19.7402 95.12C20.0602 95.08 20.3202 95.1 20.5202 95.17C20.3202 95.1 20.0602 95.08 19.7402 95.12Z" fill="#8F9700"/>
<path d="M25.9502 86.3401C25.7902 86.3401 25.6302 86.3401 25.4702 86.3301C25.6302 86.3301 25.7902 86.3301 25.9502 86.3401Z" fill="#8F9700"/>
<path d="M18.19 92.5399C17.86 92.5399 17.49 92.5099 17.21 92.4199C17.49 92.5099 17.85 92.5299 18.19 92.5399Z" fill="#8F9700"/>
<path d="M21.7598 56.8496C21.6598 56.5896 21.3198 56.4096 20.7698 56.2996C20.4198 55.5396 20.0898 54.9696 19.7598 54.5996C20.0898 54.9796 20.4098 55.5396 20.7698 56.2996C21.3198 56.4096 21.6598 56.5896 21.7598 56.8496Z" fill="#8F9700"/>
<path d="M18.7199 71.8501C18.4899 72.2201 18.3299 72.6401 18.1099 73.0201C18.3299 72.6401 18.4899 72.2201 18.7199 71.8501C19.0599 71.8501 19.3999 71.8301 19.7399 71.8301C19.3999 71.8301 19.0599 71.8501 18.7199 71.8501Z" fill="#8F9700"/>
<path d="M33.9799 87.8799C33.3799 87.8799 32.7699 87.8799 32.1699 87.8799C31.9399 88.3799 31.5999 88.7099 31.1299 88.8399C31.5999 88.7099 31.9499 88.3799 32.1699 87.8799C32.7699 87.8799 33.3799 87.8799 33.9799 87.8799Z" fill="#8F9700"/>
<path d="M18.6899 65.5996C18.8599 65.6196 18.9899 65.6396 19.1099 65.6796C18.9999 65.6496 18.8599 65.6196 18.6899 65.5996Z" fill="#8F9700"/>
<path d="M5.0498 64.7695C5.2798 64.9295 5.4798 65.1095 5.6598 65.3095C5.4898 65.1095 5.2798 64.9295 5.0498 64.7695Z" fill="#8F9700"/>
<path d="M5.62988 72.1299C5.83988 72.5099 6.17988 72.7899 6.79988 72.8599C6.17988 72.7899 5.83988 72.5099 5.62988 72.1299Z" fill="#8F9700"/>
<path d="M2.6599 68.7402C2.3199 68.5602 1.9799 68.3802 1.6499 68.2002C1.9899 68.3802 2.3299 68.5602 2.6599 68.7402C3.1899 69.2602 3.7099 69.3202 4.0699 69.1002C3.7099 69.3202 3.1899 69.2602 2.6599 68.7402Z" fill="#8F9700"/>
<path d="M52.8799 83.8496C53.1499 84.0396 53.3599 84.2996 53.3899 84.7596C54.0699 84.7596 54.7599 84.7596 55.4399 84.7596C54.7599 84.7596 54.0699 84.7596 53.3899 84.7596C53.3599 84.2896 53.1499 84.0296 52.8799 83.8496Z" fill="#8F9700"/>
<path d="M18.1899 60.4397C17.8499 60.4397 17.4999 60.4497 17.1599 60.4597C16.2999 62.1697 14.0199 61.0597 13.0299 62.5297C13.1399 62.2397 13.2599 61.9597 13.3899 61.6697C13.2699 61.9597 13.1399 62.2397 13.0299 62.5297C12.9999 62.9497 12.8999 63.3297 12.5099 63.5597C12.4699 63.1897 12.4099 62.8197 12.3799 62.4497C12.4099 62.8197 12.4599 63.1797 12.5099 63.5597C12.5099 64.2397 12.5099 64.9097 12.5099 65.5897C13.2799 64.5697 14.1499 63.7597 15.5799 64.0797C19.3799 63.7797 19.6499 63.3997 18.1799 60.4297L18.1899 60.4397Z" fill="#8F9700"/>
<path d="M2.50996 63.8895C1.87996 63.8395 1.21996 63.8895 0.599961 64.0795C0.579961 64.2595 0.579961 64.4395 0.599961 64.6295C0.599961 64.4495 0.589961 64.2595 0.599961 64.0795C1.21996 63.8895 1.87996 63.8295 2.50996 63.8895Z" fill="#8F9700"/>
<path d="M63.6002 43.9901C63.6002 43.9901 63.6502 44.0001 63.6702 44.0101C63.9102 44.0801 64.1402 44.1501 64.3702 44.2401C64.6102 44.3301 64.8402 44.4201 65.0702 44.5201C64.7202 43.8701 64.2402 43.1901 64.3802 42.6701C65.0202 40.2401 63.3802 40.8401 62.1802 40.7901C62.4302 41.7701 62.3902 42.7101 62.1602 43.6701C62.6602 43.7501 63.1402 43.8601 63.6102 43.9901H63.6002Z" fill="#8F9700"/>
<path d="M6.28023 66.6602C6.23023 66.2202 6.03023 65.8102 5.74023 65.4502C6.03023 65.8102 6.23023 66.2202 6.28023 66.6602C6.54023 66.9802 6.82023 67.2102 7.10023 67.3602C6.81023 67.2102 6.54023 66.9802 6.28023 66.6602Z" fill="#8F9700"/>
<path d="M160.98 16.0801C160.47 16.2101 159.97 16.3901 159.45 16.4801C159.3 16.8701 159.14 17.2601 158.98 17.6601C159.13 17.2701 159.3 16.8801 159.45 16.4801C159.97 16.3901 160.47 16.2101 160.98 16.0801Z" fill="#8F9700"/>
<path d="M128.48 51.2196C128.8 50.6796 129.06 50.0496 129.44 49.5996C129.06 50.0496 128.8 50.6796 128.48 51.2196Z" fill="#8F9700"/>
<path d="M105.71 56.5096C105.54 55.8496 105.54 55.0896 105.65 54.2696C106.37 54.2896 106.9 54.1596 107.24 53.8496C106.9 54.1596 106.37 54.2896 105.65 54.2696C105.54 55.0896 105.54 55.8496 105.71 56.5096Z" fill="#8F9700"/>
<path d="M124.26 58.9096L124.28 58.8896L124.26 58.8997V58.9096Z" fill="#8F9700"/>
<path d="M107.45 53.5703C107.39 53.6703 107.32 53.7603 107.24 53.8403C107.32 53.7603 107.39 53.6703 107.45 53.5703Z" fill="#8F9700"/>
<path d="M134.12 45.4404C134.12 45.8804 134.06 46.3504 134.21 46.7604C134.05 46.3404 134.11 45.8804 134.12 45.4404Z" fill="#8F9700"/>
<path d="M122.21 60.4404C122.37 60.4404 122.54 60.4604 122.7 60.4804C123.14 60.7604 123.52 61.1404 123.92 61.5004C123.52 61.1404 123.14 60.7604 122.7 60.4804C122.54 60.4604 122.37 60.4504 122.21 60.4504V60.4404Z" fill="#8F9700"/>
<path d="M123.23 53.21C123.07 53.21 122.9 53.21 122.74 53.22C122.9 53.22 123.07 53.22 123.23 53.21Z" fill="#8F9700"/>
<path d="M123.76 41.8398C123.43 41.9498 123.08 41.9898 122.72 42.0298C123.08 41.9998 123.43 41.9498 123.76 41.8398Z" fill="#8F9700"/>
<path d="M135.14 56.8501C134.88 56.9001 134.65 56.7701 134.44 56.5801C134.65 56.7701 134.88 56.9101 135.14 56.8501C135.32 57.2701 135.58 57.5001 135.89 57.6501C135.58 57.5001 135.32 57.2601 135.14 56.8501Z" fill="#8F9700"/>
<path d="M141.46 19.0896C141.46 19.0896 141.39 19.0796 141.35 19.0596C141.35 19.3996 141.35 19.7396 141.35 20.0796C141.35 19.7396 141.35 19.3996 141.35 19.0596C141.39 19.0696 141.42 19.0796 141.46 19.0896Z" fill="#8F9700"/>
<path d="M141.46 19.0898C141.6 19.1198 141.72 19.1398 141.84 19.1598C141.72 19.1398 141.59 19.1298 141.46 19.0898Z" fill="#8F9700"/>
<path d="M146.01 16.4399C145.66 16.4099 145.31 16.4099 144.95 16.4799C145.31 16.4099 145.66 16.4099 146.01 16.4399Z" fill="#8F9700"/>
<path d="M17.1598 73.9403C16.9498 73.9203 16.7498 73.8903 16.5698 73.8203C16.7498 73.8903 16.9498 73.9203 17.1598 73.9403Z" fill="#8F9700"/>
<path d="M165.23 13.2797C165.41 13.1997 165.55 12.8897 165.62 12.5697C165.06 12.3197 164.32 12.0297 163.28 11.7197H163.26C165.12 12.5497 165.37 13.1297 165.24 13.2697L165.23 13.2797Z" fill="#8F9700"/>
<path d="M136.73 57.8701C136.89 57.8801 137.06 57.8901 137.23 57.8901C137.06 57.8901 136.89 57.8901 136.73 57.8701Z" fill="#8F9700"/>
<path d="M133.8 58.4197C133.88 58.3497 133.96 58.2597 134.04 58.1797C133.96 58.2597 133.88 58.3497 133.8 58.4197Z" fill="#8F9700"/>
<path d="M142.37 48.0303C142.63 48.3003 142.89 48.5603 143.15 48.7003C142.89 48.5603 142.63 48.3003 142.37 48.0303Z" fill="#8F9700"/>
<path d="M140.31 40.2598C140.34 40.3198 140.37 40.3698 140.4 40.4298C142.74 41.4498 145.16 42.2898 147.63 42.9598C147.8 42.8198 147.97 42.6798 148.15 42.5498C149.19 41.7698 150.23 40.6698 151.7 41.8098C151.88 41.6398 152.05 41.4698 152.23 41.3098C151.62 40.3198 150.71 39.4798 150.67 38.2098C150.25 37.9898 150.16 37.5998 150.14 37.1798C150.1 37.1398 150.05 37.0998 150.01 37.0498C146.68 37.3298 143.35 37.5998 140.02 37.8398C138.85 38.6798 139.84 39.4398 140.32 40.2598H140.31Z" fill="#8F9700"/>
<path d="M88.0298 48.2798C88.2498 48.1098 88.4098 47.7698 88.5798 47.5098C88.4098 47.7598 88.2598 48.0998 88.0298 48.2798Z" fill="#8F9700"/>
<path d="M87.3398 80.8998C87.4198 80.8298 87.4798 80.7498 87.5398 80.6498C87.8098 80.6098 88.1398 80.6498 88.4198 80.5898C88.1498 80.6498 87.8198 80.6098 87.5398 80.6498C87.4798 80.7498 87.4098 80.8398 87.3398 80.8998Z" fill="#8F9700"/>
<path d="M75.1001 85.2902C76.0501 85.2502 76.2201 85.6002 76.1901 86.0502C76.2101 85.6002 76.0501 85.2502 75.1001 85.2902Z" fill="#8F9700"/>
<path d="M71.8999 83.25C72.0099 83.54 71.9999 83.91 72.0099 84.26C72.0699 84.28 72.1299 84.28 72.1799 84.26C72.1299 84.27 72.0799 84.26 72.0099 84.26C72.0099 83.92 72.0099 83.55 71.8999 83.25Z" fill="#8F9700"/>
<path d="M70.6001 91.6299C70.8701 91.8299 71.1101 92.0499 71.2701 92.3199C71.1101 92.0499 70.8701 91.8199 70.6001 91.6299Z" fill="#8F9700"/>
<path d="M128.97 27.9102C128.6 28.0002 128.25 28.1902 127.91 28.3902C127.89 28.5402 127.88 28.7002 127.89 28.8602C127.89 28.7002 127.89 28.5402 127.91 28.3902C128.25 28.1902 128.61 28.0102 128.97 27.9102Z" fill="#8F9700"/>
<path d="M112.88 44.9302C112.64 44.9602 112.41 44.9702 112.19 44.9702C112.41 44.9702 112.64 44.9602 112.88 44.9302C114.08 44.7602 115.29 44.5902 116.49 44.4102C115.29 44.5802 114.08 44.7502 112.88 44.9302Z" fill="#8F9700"/>
<path d="M99.9399 42.8701C100.26 43.2201 100.57 43.5701 100.9 43.8901C100.57 43.5701 100.26 43.2201 99.9399 42.8701Z" fill="#8F9700"/>
<path d="M66.8198 88.3903C67.2598 88.3703 67.6798 88.3903 68.0398 88.5403C67.6798 88.3903 67.2598 88.3703 66.8198 88.3903Z" fill="#8F9700"/>
<path d="M94.9399 49.6104C95.1399 50.0404 95.2699 50.5404 95.2899 51.1304C96.1499 51.3104 97.0099 51.4904 97.8699 51.6604C97.0099 51.4804 96.1499 51.3004 95.2899 51.1304C95.2699 50.5404 95.1399 50.0404 94.9399 49.6104Z" fill="#8F9700"/>
<path d="M96.3198 55.2998C97.1198 54.6398 97.9198 54.3298 98.7098 54.2598C97.9198 54.3298 97.1198 54.6398 96.3198 55.2998Z" fill="#8F9700"/>
<path d="M97.8699 52.1904C97.2599 52.8704 96.6899 53.2204 96.1499 53.2904C96.6899 53.2204 97.2599 52.8704 97.8699 52.1904C98.8999 52.1904 99.9299 52.1904 100.95 52.2004C101 52.3604 101.04 52.5704 101.08 52.7504C101.04 52.5704 101 52.3604 100.95 52.2004C101.47 52.3904 102.03 52.4704 102.59 52.5704C102.04 52.4704 101.48 52.3904 100.96 52.2004C99.9299 52.2004 98.8999 52.2004 97.8799 52.1904H97.8699Z" fill="#8F9700"/>
<path d="M98.8401 51.0098C98.5301 51.2398 98.2101 51.4698 97.8701 51.6598C97.8701 51.8398 97.8701 52.0098 97.8701 52.1898C97.8701 52.0098 97.8701 51.8398 97.8701 51.6598C98.2101 51.4698 98.5201 51.2498 98.8401 51.0098Z" fill="#8F9700"/>
<path d="M89.8502 47.3799C89.5702 47.5099 89.2902 47.6099 88.9902 47.5999C89.2902 47.6099 89.5702 47.5099 89.8502 47.3799Z" fill="#8F9700"/>
<path d="M81.8101 49.5703C81.8101 49.9203 81.8201 50.2703 81.8301 50.6203C81.8301 50.2703 81.8201 49.9203 81.8101 49.5703Z" fill="#8F9700"/>
<path d="M79.3401 28.2604C79.3401 27.7504 79.0301 27.5304 78.6401 27.4004C79.0301 27.5304 79.3301 27.7504 79.3401 28.2604Z" fill="#8F9700"/>
<path d="M70.4502 44.4102C70.6802 44.4902 70.8702 44.5802 71.0202 44.6802C70.8702 44.5802 70.6802 44.4902 70.4502 44.4102Z" fill="#8F9700"/>
<path d="M35.2698 40.2803C34.9798 40.0303 34.7298 39.8104 34.5098 39.6104C34.7298 39.8104 34.9798 40.0303 35.2698 40.2803Z" fill="#8F9700"/>
<path d="M144.45 48.0297C144.19 48.5297 143.93 48.7597 143.67 48.8097C143.93 48.7597 144.19 48.5297 144.45 48.0297C144.54 48.0097 144.63 47.9897 144.72 47.9697C144.63 47.9897 144.54 48.0097 144.45 48.0297Z" fill="#8F9700"/>
<path d="M16.6601 67.1699C16.5701 67.2199 16.4801 67.2799 16.3901 67.3399C16.4801 67.2799 16.5701 67.2199 16.6601 67.1699Z" fill="#8F9700"/>
<path d="M135.02 27.86C134.57 27.79 134.07 27.81 133.57 27.84C134.07 27.81 134.57 27.79 135.02 27.86Z" fill="#8F9700"/>
<path d="M135.65 21.1196C135.96 21.1096 136.27 21.0996 136.58 21.0996C136.27 21.0996 135.96 21.0996 135.65 21.1196C135.43 21.8896 135.53 22.4596 135.79 22.9196C135.53 22.4696 135.43 21.8996 135.65 21.1196Z" fill="#8F9700"/>
<path d="M75.1001 43.9004C75.1901 44.6704 74.9401 45.2404 74.5601 45.7204C74.9401 45.2404 75.1901 44.6804 75.1001 43.9004Z" fill="#8F9700"/>
<path d="M49.76 31.4904C49.67 31.4904 49.58 31.4904 49.5 31.4904C49.59 31.4904 49.68 31.4904 49.76 31.4904C50.09 32.0204 50.27 32.5303 51.03 32.8503C52.09 33.3003 52.31 34.1904 50.8 34.5804C50.97 34.7504 51.13 34.9303 51.3 35.1003C52.34 35.1003 53.38 35.1003 54.42 35.1003C55.67 33.3803 57.34 33.8404 58.77 34.5404C59.9 35.0904 60.18 36.1004 58.56 36.6504C58.41 37.1304 58.14 37.8203 59.04 37.6003C60.8 37.1803 62.71 37.2904 64.26 36.1304C64.26 35.9604 64.24 35.7903 64.24 35.6203C63.67 35.3004 63.1 34.9804 62.39 34.5804C63.03 33.6304 63.88 33.5403 64.78 33.5504C65.72 32.9204 66.79 33.0003 67.84 33.0103C67.86 32.6703 67.87 32.3404 67.89 32.0004C67.83 31.1104 67.97 30.3204 68.91 29.9304C69.99 29.0504 68.92 27.3704 69.64 26.3604C69.64 26.3604 69.61 26.3604 69.6 26.3604C67.58 26.4804 65.56 26.6004 63.54 26.7304C64.23 27.2604 64.97 27.7204 64.33 28.5204C63.6 29.4404 61.78 29.0804 60.48 28.5204C59.95 28.2904 59.45 27.9704 58.86 27.6404C58.9 28.9604 58.01 30.4404 59.9 31.2004C60.13 31.2904 60.17 32.0204 59.83 32.0404C59.01 32.0904 58.14 32.0104 57.35 31.7904C56.7 31.6104 56.35 30.9804 56.89 30.3904C57.75 29.4404 57.36 28.5004 56.69 27.8904C56.45 27.6704 56.25 27.4704 56.09 27.2704C55.9 27.2904 55.72 27.3004 55.53 27.3204C55.21 27.3504 54.89 27.3704 54.56 27.4004C54.56 27.4004 54.55 27.4004 54.54 27.4004C53.82 27.4704 53.09 27.5404 52.37 27.6204C52.43 27.9604 52.47 28.3604 52.48 28.8404C52.55 31.4704 53 31.4604 49.77 31.4804L49.76 31.4904Z" fill="#8F9700"/>
<path d="M64.77 34.0596C64.59 34.5796 64.41 35.0996 64.23 35.6196C64.41 35.0996 64.59 34.5796 64.77 34.0596Z" fill="#8F9700"/>
<path d="M140.47 32.1603C140.38 31.9603 140.32 31.7403 140.31 31.4703C139.84 30.2803 138.38 30.3503 137.7 29.4303C137.36 29.4203 137.02 29.4003 136.68 29.3903C135.42 29.2503 134.23 29.6303 133.03 29.9203C132.87 30.1003 132.71 30.2803 132.55 30.4503C132.1 31.3003 132.12 32.0403 132.35 32.7403C135.06 32.5503 137.76 32.3603 140.47 32.1603Z" fill="#8F9700"/>
<path d="M82.8701 56.3102C83.2701 56.3102 83.6801 56.2902 84.0801 56.3102C83.6801 56.2802 83.2801 56.3102 82.8701 56.3102Z" fill="#8F9700"/>
<path d="M166.2 57.0797C166.37 57.0097 166.53 56.9297 166.69 56.8297C166.98 56.6897 167.27 56.5497 167.55 56.4297C167.27 56.5497 166.98 56.6997 166.69 56.8297C166.53 56.9297 166.36 57.0097 166.2 57.0797Z" fill="#8F9700"/>
<path d="M153.58 36.7502C153.9 37.0402 154.22 37.1402 154.54 36.6602C154.22 36.6902 153.9 36.7202 153.58 36.7502Z" fill="#8F9700"/>
<path d="M283.28 14.29C282.97 7.16997 277.5 2.76997 270.56 1.22997C269.73 1.04997 268.87 0.899971 268 0.799971C256.59 -0.540029 244.73 0.0299706 233.31 0.839971C231.83 0.949971 230.35 1.05997 228.87 1.18997C225.91 1.43997 222.95 1.73997 220 2.06997C212.62 2.89997 205.26 3.95997 197.92 5.16997C195.18 5.61997 192.45 6.09997 189.72 6.58997C188.78 6.75997 187.84 6.92997 186.91 7.09997C185.12 7.42997 183.34 7.75997 181.55 8.09997C180.44 8.30997 179.32 8.51997 178.21 8.73997C176.62 9.04997 175.03 9.35997 173.44 9.67997C172.26 9.90997 171.08 10.15 169.9 10.38C169.87 10.68 169.84 10.99 169.81 11.29C169.81 11.63 169.81 11.98 169.81 12.32C170.34 12.75 170.87 13.18 171.4 13.6C171.85 13.95 172.55 14.18 172 14.97C171.54 15.63 171 15.79 170.24 15.4C167.58 14.03 165.13 15.95 162.55 15.95C162.55 16.12 162.55 16.29 162.55 16.47C164.01 17.29 165.17 18.64 167.08 18.66C167.75 18.66 168.79 19.24 167.45 20.1C167.24 20.23 166.86 20.41 166.87 20.53C167.49 25.42 164.07 22.17 162.53 22.65C162.01 22.81 161.21 22.76 161.12 21.95C161.02 21.12 161.62 20.72 162.38 20.64C163.12 20.56 163.87 20.56 164.92 20.51C163.02 19.61 161.46 19.15 159.97 20.61C158.75 22.85 156.68 24.22 154.78 25.78C153.92 25.8 152.88 25.95 152.34 25.27C150.73 23.25 148.56 23.77 146.49 23.7H146.24H145.99C144.84 23.83 143.88 23.55 143.06 22.64C142.48 21.99 141.81 21.08 140.8 22.16C142 22.98 142.33 23.75 140.73 24.5C140.13 24.78 139.52 25.09 139.25 25.78C140.19 27.17 139.72 29.67 142.41 29.87C142.2 28.86 140.27 28.92 141.05 27.77C141.75 26.75 142.74 27.53 143.48 28.12C144.47 28.91 145.79 28.73 146.83 29.32C147.76 29.85 149.05 30 149.08 31.47C153.94 31.06 158.79 30.62 163.63 30.13C163.35 28.94 164.93 29.16 165.11 28.36C165.35 27.77 165.84 27.45 166.4 27.2C167.28 26.82 168.38 26.33 168.81 27.46C169.16 28.37 167.88 28.66 167.28 28.73C166.4 28.82 166.05 29.35 165.75 29.92C167.64 29.72 169.53 29.52 171.42 29.31C201.94 25.88 232.14 19.86 261.7 11.53C265.21 10.54 266.7 16 263.2 16.98C251.29 20.34 239.28 23.3 227.19 25.88C231.01 26.63 234.88 27.1 238.82 27.24C242.45 27.37 242.46 33.03 238.82 32.89C231.21 32.61 223.74 31.31 216.51 28.92C216.05 28.77 215.69 28.54 215.4 28.26C204.07 30.43 192.68 32.26 181.23 33.75C187.14 35.62 193.15 37.1 199.27 38.17C202.85 38.8 201.32 44.24 197.77 43.62C188.88 42.06 180.23 39.67 171.81 36.44C171.06 36.15 170.56 35.65 170.26 35.07C167.99 35.32 165.72 35.55 163.45 35.78C163.77 36.11 164.08 36.42 163.73 36.82C163.05 37.6 162.11 36.96 161.37 36.57C159.54 35.61 159.6 38.12 158.34 38.18C158.15 38.86 156.71 38.76 157.26 39.88C158.57 42.54 157.17 42.44 155.26 41.89C154.94 41.8 154.59 41.84 154.25 41.81C153.98 42.77 153.51 43.52 152.83 44.07C153.99 44.26 155.16 44.43 156.34 44.54C157.06 44.61 157.63 44.89 158.06 45.3C158.15 45.13 158.26 44.95 158.41 44.77C159.49 43.48 160.18 41.49 163.2 42.26C162.11 41.05 161.05 41.05 160.78 39.73C163.03 40.13 165.48 38.58 167.17 41.29C167.59 41.3 167.98 41.39 168.2 41.81C170.06 42.77 168.83 44.18 168.72 45.43C170.35 46.17 170.89 48.51 173.34 48.25C174.26 48.15 173.57 49.43 173.36 50.09C174.64 50.76 174.5 51.78 174.04 53.34C173.28 52.08 172.89 51.19 173.36 50.09C172.73 50.14 171.8 50.54 172.09 50.99C173.16 52.7 171.68 54.68 172.84 56.29C173.47 57.26 174.25 56.01 174.91 56.43C173.43 59.33 172.94 59.41 169.73 57.32C168.77 57.13 168.26 57.81 167.69 58.38C167.21 59.35 166.73 60.31 166.08 61.61C164.87 57.98 162.62 59.09 160.44 59.91C159.62 59.52 159 58.8 159.28 57.97C159.61 57 160.69 57.41 161.47 57.33C161.81 57.33 162.16 57.33 162.5 57.33C163.74 56.5 164.56 54.98 166.63 55.66C167.64 56 169.13 55.38 168.4 53.58C167.97 52.52 168.94 51.64 168.72 50.62C167.56 50.21 165.94 51.59 165.32 50.45C164.61 49.12 167.12 48.92 167.16 47.53C166.17 47.6 165.42 48.16 164.63 48.7C164.19 49 163.67 49.64 163.08 49C162.41 48.26 163.03 47.75 163.54 47.28C164.04 46.82 164.58 46.4 165.11 45.96C164.42 45.01 163.73 45.69 163.04 45.97C162.7 46.49 162.35 47.01 162.01 47.53C161.76 49.08 160.79 49.48 159.65 48.58C159.44 48.41 159.22 48.24 159.01 48.06C158.85 49.31 157.97 50.37 156.34 50.21C153.55 49.94 150.81 49.49 148.12 48.87C146.87 49.27 145.3 49.05 144.1 49.52C143.29 49.84 142.24 49.58 141.3 49.58C141.3 49.93 141.3 50.27 141.3 50.62C142 51.81 143.56 51.28 144.41 52.17C145.26 53.04 143.61 54.74 145.44 55.27C145.56 54.36 145.83 53.58 147 53.99C147.84 54.29 148.22 53.83 148.55 53.2C148 53.13 147.5 52.98 147.61 52.27C147.68 51.87 147.99 51.69 148.37 51.88C149.04 52.21 148.73 52.72 148.55 53.2C149.83 53.3 151.07 53.53 152.17 54.23C152.87 54.14 153.68 54.49 154.22 53.73C153.39 53.42 154.23 52.52 153.51 52C152.28 51.1 153.38 50.58 154.11 50.67C157.47 51.11 160.86 48.64 164.18 51.07C163.25 53.82 160.5 51.63 158.9 52.69C158.64 53.29 158.13 53.9 158.6 54.55C160.06 56.54 158.51 56.26 157.33 56.29C156.3 56.12 155.26 55.94 154.23 55.77C154.92 55.25 155.61 54.74 156.3 54.22C155.61 54.74 154.92 55.25 154.23 55.77C152.51 56.68 151.01 57.83 149.79 59.4C148.83 60.64 147.58 61.09 146.47 59.42C145.41 59.38 144.34 59.32 143.37 59.9C141.39 61.26 141.43 58.6 140.27 58.34H140.01H139.75C138.89 58.18 138.04 58.02 137.18 57.87C135.75 58.85 136.98 59.73 137.38 60.76C136 60.83 134.71 60.96 133.41 60.94C132.27 60.93 131.91 61.48 131.96 62.5C132.65 62.67 133.34 62.85 134.03 63.02C137.05 64.29 139.91 62.91 142.84 62.5C143.53 62.5 144.22 62.5 144.9 62.5C145.23 62.42 145.56 62.36 145.88 62.26C146.85 61.96 148.35 61.51 148.62 62.37C149.01 63.61 147.68 64.28 146.47 64.57C144.91 65.09 143.36 65.61 141.8 66.13C139.98 67.26 138.85 65.55 137.58 64.93C136.4 64.35 135.32 63.93 134.04 64.04C133.46 64.04 132.88 64.06 132.31 64.04C130.22 63.95 131.51 63.13 131.97 62.49C130.92 62.63 130.03 62.35 129.39 61.46C129.22 61.63 129.05 61.81 128.87 61.98C129.22 62.95 131.39 64.28 128.35 64.57C127.27 66.68 124.84 66.54 123.17 67.67C123.17 67.84 123.16 68 123.17 68.17C122.97 71.2 121.64 72.21 118.81 71.1C117.86 70.73 115.75 72.47 115.94 69.74C117.17 69.82 117.7 69.43 116.97 68.2C115.13 68.3 113.83 67.75 113.86 65.61C112.13 65.2 110.15 65.23 109.52 62.95C109.37 62.41 108.66 62.54 108.16 62.5C107.74 62.73 107.67 63.12 107.66 63.55C108.14 63.85 108.89 64.17 108.1 64.78C107.34 65.37 106.96 64.64 106.61 64.07C106.09 63.89 105.57 63.72 105.05 63.54C103.72 63.47 103.46 62.59 103.52 61.49C103.72 60.13 102.56 59.15 102.48 57.87C101.18 57.92 101.89 56.76 101.41 56.06C100.15 56.94 98.9202 58.32 97.2102 57.01C97.0702 57.3 96.9202 57.58 96.7802 57.87C96.8102 58.29 96.8802 58.69 97.3202 58.89C98.4602 60.27 97.6202 61.66 97.3202 63.04C98.1802 63.38 99.0302 63.73 99.8902 64.07C100.78 63.48 98.5202 62.5 100.08 62.11C101.03 61.87 101.59 62.81 102.06 63.47C102.68 64.36 102.66 65.21 101.9 66.21C101.31 66.99 99.4602 66.48 99.9102 68.19C100.26 68.71 100.6 69.22 100.95 69.74C101.81 69.38 102.67 68.76 103.53 69.74C103.91 71.03 105.74 70.51 106.13 71.8C107.8 71.94 109.47 71.52 111.09 72.61C112.28 73.41 112.88 71.62 113.88 71.28C114.45 71.3 115.06 71.19 115.44 71.79C115.77 72.41 116.96 71.79 116.99 72.85C115.22 73.26 113.8 74.02 113.07 75.89C112.81 76.55 111.84 77.74 111.16 77.24C109.96 76.36 108.47 76.25 107.38 75.39C106.97 75.07 107.55 74.52 108.14 74.42C109.04 74.27 110 74.67 110.96 74.07C110.17 72.97 109.06 73.49 108.12 73.37C107.31 73.27 106.3 73.61 106.13 72.33C104.75 72.16 103.37 71.98 101.99 71.81C101.2 71.47 100.44 71 99.6202 70.85C99.0802 70.76 98.0602 70.43 98.4302 71.97C98.7302 73.23 96.8902 73.07 96.2802 73.87C96.1102 74.04 95.9402 74.22 95.7702 74.39C95.7102 75.23 95.8802 76.35 94.4302 75.41C93.8402 75.02 93.7602 75.52 93.7002 75.95C93.8802 76.29 94.0602 76.62 94.2402 76.96C95.3902 76.96 96.5202 77.01 97.3302 78.02C98.4402 78.02 99.6102 77.88 100.12 79.46C98.9602 79.32 97.8902 79.19 96.8202 79.06C96.7302 79.87 97.5402 80.08 97.8602 80.61C98.7602 80.85 98.8202 82.22 99.9302 82.17C100.49 82.26 101.45 81.89 101.52 82.46C101.55 82.71 101.5 82.91 101.39 83.07C102.65 83.34 103.9 83.64 105.15 83.96C106.4 84.28 107.64 84.62 108.88 84.98H108.9C110.13 85.34 111.36 85.71 112.59 86.09C112.61 86.09 112.62 86.1 112.64 86.11C113.86 86.49 115.07 86.89 116.28 87.29C116.31 87.3 116.35 87.31 116.38 87.32C117.57 87.72 118.77 88.12 119.96 88.54C120.03 88.56 120.1 88.59 120.17 88.61C121.29 89 122.41 89.39 123.53 89.78C126.05 90.66 128.57 91.55 131.1 92.4C130.88 92.09 130.54 91.85 130.02 91.68C129.57 91.54 128.8 91.07 129.39 90.33C129.91 89.68 130.46 90.33 131 90.46C132.11 90.74 131.67 92.51 133.02 92.51C134.63 92.58 135.85 93.62 137.18 94.36C138.07 94.63 138.97 94.9 139.87 95.15C140.88 95.22 141.91 95.22 142.64 95.91C143.47 96.13 144.3 96.33 145.13 96.53C145.3 96.57 145.46 96.61 145.63 96.65C146.48 96.85 147.34 97.04 148.2 97.21C169.94 101.62 192.07 96.63 211.51 86.49C215.3 84.51 218.97 82.35 222.53 80.03C224.91 78.48 227.23 76.87 229.52 75.19C238.67 68.48 247.13 60.81 255.15 52.76C258.16 49.74 261.11 46.67 264.01 43.58C265 42.53 265.99 41.47 266.97 40.42C269.93 37.25 272.87 34.06 275.71 30.8C276.12 30.33 276.52 29.86 276.92 29.37C277.12 29.13 277.32 28.89 277.51 28.64C277.9 28.15 278.28 27.65 278.65 27.15C280.5 24.62 282.03 21.88 282.76 18.82C282.83 18.51 282.9 18.2 282.95 17.89C283.12 16.93 283.21 16.01 283.22 15.13C283.22 14.84 283.22 14.55 283.21 14.26L283.28 14.29ZM151.49 28.46C151.38 29.12 151.17 29.78 150.52 30.12C150.1 30.11 149.79 29.89 149.79 29.53C149.79 28.82 150.03 28.17 150.8 27.96C151.13 27.87 151.56 28.02 151.49 28.46ZM168.47 26.04C167.91 25.92 167.4 25.42 167.41 24.79C167.42 23.94 168.1 23.75 168.82 23.75C169.47 23.75 169.68 24.1 169.59 24.68C169.14 25.13 169.55 26.27 168.47 26.04ZM170.93 28.72C170.76 28.72 170.49 28.48 170.42 28.3C170.3 27.96 170.4 27.64 170.82 27.53C171.19 27.53 171.5 27.69 171.53 28.07C171.56 28.44 171.27 28.71 170.92 28.72H170.93ZM170.93 26.8C170.4 26.82 169.84 26.64 169.96 25.96C170.1 25.13 170.84 25.3 171.4 25.31C172.02 25.32 172.58 25.5 172.69 26.3C172.31 27.11 171.55 26.78 170.93 26.8ZM174.33 28.35C173.81 28.32 173.24 28.18 173.28 27.53C173.31 27.06 173.79 26.89 174.24 26.87C174.77 26.84 175.28 26.88 175.39 27.56C175.36 28.26 174.87 28.38 174.33 28.35ZM171.22 40.18C170.29 40.28 169.86 39.64 169.85 38.77C169.83 37.9 170.21 37.24 171.16 37.28C172.12 37.32 172.53 38.1 172.88 38.75C172.73 39.85 171.97 40.11 171.23 40.18H171.22ZM159.7 79.53C159.9 78.58 160.6 78.14 161.54 78.07C161.88 78.05 162.22 78.06 162.56 78.05C162.19 77.33 161.85 76.59 162.89 76.15C163.14 76.05 163.75 76.16 163.78 76.28C164.04 77.29 163.56 77.86 162.56 78.04C162.55 78.3 162.56 78.56 162.52 78.81C162.3 80.05 161.39 80.16 160.39 80.08C160.04 80.05 159.61 79.91 159.7 79.51V79.53ZM160.36 85.4C159.92 86.79 158.35 86.97 157.05 86.88C156.08 86.82 155.14 86.36 154.19 86.08C154.56 83.54 156.9 83.98 158.48 83.51C159.12 83.32 160.73 84.22 160.35 85.4H160.36ZM157.42 64.63C158.27 64.58 158.95 64.76 158.89 66.55C158.89 66.62 158.79 67.1 158.08 67.08C157.14 67.06 156.88 66.25 156.63 65.55C156.38 64.87 156.85 64.67 157.42 64.63ZM152.78 82.02C152.89 81.13 153.36 80.5 154.32 80.96C154.92 81.25 155.98 80.76 156.14 81.93C155.56 82.76 154.73 83.14 153.76 83.18C152.99 83.21 152.69 82.7 152.78 82.01V82.02ZM151.08 72.55C151.56 72.42 151.97 72.81 151.89 73.25C151.76 74 151.44 74.72 150.65 74.86C150.02 74.91 149.68 74.64 149.71 74.16C149.76 73.32 150.29 72.76 151.08 72.55ZM151.95 80.99C152.32 81.77 151.42 82.39 150.7 82.6C148.88 83.12 149.15 81.3 147.99 80.05C149.76 80.34 151.24 79.48 151.96 80.99H151.95ZM146.57 75.31C146.9 75.74 146.72 76.2 146.33 76.39C144.7 77.19 144.46 75.11 143.28 74.83C144.52 74.34 145.69 74.19 146.57 75.31ZM115.73 79.26C116.14 79.33 116.55 79.49 116.93 79.66C117.58 79.96 118.69 80.04 118.39 81.05C118.09 82.1 117.25 81.08 116.66 81.18C116.33 81.23 115.98 81.18 115.64 81.18V81.16C115.47 81.16 115.29 81.19 115.13 81.16C114.34 80.97 113.55 82.07 112.77 81.16C112.68 81.06 112.73 80.85 112.71 80.69C114.05 80.9 114.4 79.03 115.72 79.25L115.73 79.26ZM124.85 89.83C124.03 89.78 123.73 89.15 124.04 88.33C124.21 87.87 124.04 87.54 123.74 87.18C123.36 86.72 122.11 87.08 122.51 85.97C122.74 85.32 123.43 85.33 124.05 85.31C125.15 85.28 125.5 86.05 125.74 86.9C125.85 87.3 125.82 87.74 125.84 88.14C125.73 88.87 126.07 89.92 124.85 89.83ZM124.29 77.35C125.09 77.28 125.68 77.87 125.63 78.57C125.56 79.61 125.02 80.5 123.97 80.89C123.01 80.68 122.76 80.08 122.69 79.2C122.6 77.97 123.22 77.45 124.28 77.36L124.29 77.35ZM156.35 96.69C154.75 96.1 153.04 95.77 151.69 94.63C151.52 94.63 151.35 94.63 151.18 94.63C150.2 94.4 149.23 94.07 148.26 94.65C147.11 95.34 145.98 94.95 144.87 94.53C144.17 94.26 143.39 93.98 143.46 92.99C143.54 91.97 144.24 92.19 144.94 92.19C145.71 92.19 145.38 91.46 145.48 91.03C144.92 90.99 144.3 91.11 143.92 90.52C141.15 90.52 139.06 88 136.17 88.42C135.83 88.42 135.48 88.42 135.14 88.42C134.46 88.42 133.78 88.4 133.11 88.43C131.21 88.53 130.55 87.63 131 85.84C132.55 85.12 133.8 84.01 134.85 82.69C135.56 81.8 135.77 80.9 134.62 80.15C134.1 79.98 133.59 79.8 133.07 79.63C131.79 79.53 130.55 79.29 129.44 78.6C129.12 78.51 128.78 78.32 128.48 78.37C127.91 78.46 127.18 78.83 127.01 78.02C126.79 76.99 127.71 77.15 128.35 77.03C128.73 76.95 129.08 76.71 129.45 76.54C129.03 75.6 128.22 75.47 127.31 75.5C126.2 75.54 125.1 75.58 124.17 74.75C123.52 74.18 121.8 74.75 122.03 73.5C122.25 72.28 123.41 73.43 124.15 73.42C125.49 73.39 125.11 72.24 125.51 71.6C125.91 70.96 126.36 70.1 127.16 70.18C128.03 70.27 127.84 71.2 127.89 71.86V71.88C128.4 71.88 128.91 71.88 129.42 71.88C131.18 72.66 132.78 73.39 133.41 70.47C133.65 69.38 135.18 69.9 136.14 69.8C138.45 67.26 139.81 69.43 141.33 70.84C142.17 70.89 143.31 70.79 143.16 72C143.03 73.1 142.07 72.52 141.33 72.52C139.82 72.52 138.32 72.76 136.82 72.97C135.9 73.1 135.76 73.68 136.16 74.45C136.85 74.45 137.53 74.46 138.22 74.47C138.69 74.65 139.16 74.85 139.64 75.02C140.25 75.23 140.82 75.53 140.58 76.26C140.35 76.96 139.77 76.99 139.11 76.75C137.86 76.29 137.11 76.62 137.19 78.09C138.06 81.53 140.8 83.37 143.4 85.32C144.27 87.03 142.43 86.75 141.86 87.41C142.83 88.48 144.45 88.02 145.47 88.95C148.83 89.13 151.81 90.06 153.75 93.09C154.14 95.44 156.71 94.89 157.88 96.2C158.7 96.7 159.81 96.86 160.13 98.13C158.51 98.47 157.42 97.59 156.32 96.73L156.35 96.69ZM166.58 87.38C165.97 87.49 165.73 87.85 165.67 88.41C166.53 88.5 167.76 88.08 167.96 89.29C168.11 90.16 167.04 90.25 166.36 90.49C165.75 90.71 166.1 91.14 166.18 91.51C166.89 92.09 166.78 92.73 166.15 93.22C165.48 93.73 164.74 93.79 164.11 93.07C162.2 92.66 159.55 89.32 160.29 87.94C160.96 86.69 162.49 87.63 163.6 87.38C164.47 86.96 163.68 85.28 165.15 85.31C165.67 85.31 166.18 85.31 166.7 85.31C166.53 85.13 166.3 84.97 166.21 84.75C165.95 84.14 166.49 84.31 166.71 84.36C167.91 84.63 167.64 85.88 167.94 86.61C168.34 87.6 167.14 87.29 166.58 87.39V87.38ZM176.52 72.58C176.96 72.61 177.01 72.97 176.98 73.33C176.87 73.76 176.7 74.17 176.17 74.09C175.8 74.03 175.6 73.71 175.67 73.33C175.75 72.87 176.03 72.55 176.52 72.58ZM169.33 81.12C168.73 81.12 168.34 80.86 168.32 80.22C168.3 79.64 168.47 79.17 169.16 79.2C169.74 79.23 170.12 79.59 170.22 80.15C170.34 80.81 169.96 81.09 169.34 81.12H169.33ZM172.92 88.41C172.21 88.24 170.97 88.86 171.01 87.56C171.04 86.63 171.83 86.78 172.41 87.36C172.67 87.36 173.1 87.44 173.16 87.33C174.99 83.99 176.12 88.15 177.68 87.5C176.2 88.84 174.51 88.25 172.92 88.41ZM182.34 90.62C181.58 91.35 180.84 90.92 179.65 90.52C180.65 89.71 181.28 89.02 182.14 89.94C182.29 90.1 182.43 90.54 182.34 90.63V90.62ZM185.09 44.14C184.98 44.4 184.65 44.67 184.38 44.71C183.93 44.78 183.87 44.37 183.9 44.03C183.94 43.62 184.25 43.5 184.61 43.48C185.04 43.51 185.24 43.8 185.09 44.14ZM211.56 84.62C210.68 84.72 210.71 83.97 210.72 83.39C210.72 82.85 210.49 82.17 211.27 81.91C212.03 82.04 212.21 82.59 212.22 83.21C212.22 83.77 212.39 84.53 211.56 84.62Z" fill="#8F9700"/>
<path d="M96.7799 70.5196C95.7699 69.4996 95.5699 68.8096 97.1699 68.1196C98.3099 67.6296 97.9799 66.7696 96.8999 66.7296C94.9799 66.6696 94.6399 65.6196 94.7799 64.0596C94.6099 63.5496 94.4399 63.0396 94.2699 62.5296C93.5199 62.5296 92.9999 62.1896 92.6999 61.4996C91.5099 61.7796 90.1499 60.8396 89.0799 62.0096C88.9899 62.9096 88.4399 63.1496 87.6599 62.9296C87.4799 62.8796 87.2099 62.5596 87.2399 62.4096C87.3599 61.6996 87.9299 61.5296 88.5599 61.4896C88.6599 60.4096 88.2199 59.7296 87.2199 59.2496C86.0699 58.6996 84.9999 57.9996 83.8999 57.3596C83.2299 57.3296 82.8799 56.9896 82.8599 56.3096C81.7399 54.8096 81.7899 54.7396 84.5699 53.9496C83.2699 53.7496 82.5699 52.2696 80.9599 52.5496C80.2299 52.6796 80.3299 51.7096 80.2699 51.1396C79.8599 51.2096 79.3399 51.1496 79.0499 51.3796C75.9599 53.7896 73.8999 53.0196 73.0399 49.0796C73.2899 48.5096 73.4299 47.9996 72.5099 48.0296C71.9999 48.2096 71.4899 48.3896 70.9799 48.5696C70.8199 48.7996 70.6499 49.0096 70.4599 49.2096C70.7399 49.6396 70.9899 50.0896 71.2199 50.5596C71.2399 50.5996 71.2599 50.6396 71.2799 50.6896C71.6199 51.3896 71.8899 52.1196 72.1099 52.8796C72.1299 52.9396 72.1399 52.9996 72.1599 53.0596C72.2799 53.5096 72.3899 53.9696 72.4699 54.4296C72.4799 54.4896 72.4899 54.5496 72.4999 54.6096C72.5399 54.8696 72.5799 55.1296 72.6099 55.3896C72.8999 55.2196 73.1699 54.9896 73.4199 54.6696C73.8199 54.1496 74.3799 53.5196 75.1499 53.9296C75.8999 54.3296 75.5299 55.1496 75.6099 55.7996C76.1999 56.4996 77.1099 56.5196 77.8799 56.8196C79.6299 57.4996 80.2699 58.4196 78.7099 59.9496C78.5399 60.1296 78.3699 60.2996 78.1999 60.4796C78.1999 60.6496 78.1999 60.8196 78.1999 60.9896C79.8999 62.0096 79.8499 63.0096 78.3399 64.2596C76.8699 65.4796 75.8799 67.9296 73.4399 65.7296C73.0699 65.3996 72.5499 65.0696 72.8299 64.4696C73.0399 64.0196 73.5999 64.2396 73.9599 64.0796C74.6899 63.7496 76.1599 64.9396 76.1499 63.0596C75.1199 62.1996 74.0799 61.3396 73.0499 60.4796C72.7699 60.8596 72.4399 61.0996 72.0999 61.2496C71.9399 61.8296 71.7599 62.4096 71.5499 62.9796C71.5199 63.0596 71.4899 63.1396 71.4599 63.2196C71.2799 63.6996 71.0799 64.1796 70.8599 64.6596C70.8099 64.7696 70.7599 64.8696 70.7099 64.9796C70.4999 65.4196 70.2699 65.8696 70.0399 66.2996C69.9799 66.4096 69.9199 66.5296 69.8499 66.6396C69.5499 67.1796 69.2299 67.7096 68.8899 68.2296C69.3299 68.2096 69.7799 68.1896 70.2099 68.2496C71.0799 68.3896 72.3699 67.6796 72.7399 68.7696C73.0399 69.6596 71.7999 70.0096 71.1599 70.5396C70.8599 70.7896 70.5399 71.2296 70.5299 71.5896C70.4699 73.9896 68.9699 73.7796 67.3599 73.3996C64.8399 74.2896 64.6699 76.3396 64.8199 78.5496C65.1499 78.5496 65.4699 78.5396 65.7999 78.5296C66.7099 77.1796 69.1499 77.4196 69.2599 75.2296C69.6599 75.3096 70.0699 75.3896 70.4699 75.4696C70.7099 72.5796 71.0699 72.4096 73.6699 73.8596C74.4399 74.2896 75.1199 73.9696 75.6299 73.3496C76.1299 72.7396 76.7899 71.9096 77.4199 72.7496C78.1399 73.7296 77.1599 74.2096 76.2999 74.4796C75.8099 74.6396 75.6999 75.0296 75.6499 75.4696C76.9499 76.3096 79.0599 75.5496 79.7999 77.5296C80.2199 77.5496 80.6099 77.6396 80.8299 78.0496C81.1699 78.2296 81.5099 78.4096 81.8499 78.5896C82.5399 78.7596 83.2199 78.9296 83.9099 79.0996C85.1199 79.2296 86.3199 78.0896 87.5299 79.0896C87.6099 79.0996 87.6899 79.1096 87.7699 79.1096C87.6899 79.1096 87.6099 79.1096 87.5299 79.0896C88.5799 77.9996 88.0899 77.4196 86.8899 76.9396C86.2199 76.6696 85.2499 76.4096 85.6099 75.3496C85.8999 74.4896 86.5999 73.9696 87.5699 73.9296C88.4499 73.8896 89.1399 74.0296 89.8499 74.7596C91.1999 76.1596 92.3199 75.4096 93.0899 73.9796C93.3599 73.4796 93.1099 72.7496 93.7199 72.3596C93.6599 72.8096 93.6699 73.1896 93.7499 73.4996C93.6699 73.1896 93.6599 72.8096 93.7199 72.3596C94.2099 70.3096 95.3399 71.4996 96.3099 71.8496C96.3099 72.5396 96.3099 73.2196 96.3099 73.9096C96.3099 73.2196 96.3099 72.5396 96.3099 71.8496C97.3399 71.7196 97.4499 71.1996 96.7799 70.5196ZM82.7199 59.7896C82.1099 60.8096 81.2999 61.0796 79.9699 60.8196C80.6999 59.5696 81.4499 59.1196 82.7199 59.7896ZM78.9399 55.7796C78.2599 55.7696 77.4199 55.7096 77.4599 54.8196C77.4999 53.9296 78.4199 54.4796 78.7599 54.2096C79.5199 54.3396 80.4499 54.1296 80.3799 55.1096C80.3299 55.8396 79.5199 55.7796 78.9299 55.7796H78.9399ZM79.4599 70.6596C80.5099 71.6296 81.9899 71.0096 83.2699 71.7296C80.8899 72.6896 80.4699 72.5796 79.4599 70.6596ZM78.5099 69.6696C78.0899 69.8096 77.6599 69.4996 77.4599 69.0896C77.1599 68.4796 77.5899 68.1596 77.9999 67.8296C79.9899 66.2196 82.3399 66.2996 85.1899 68.1496C83.1199 69.5396 80.6599 68.9696 78.5099 69.6796V69.6696ZM85.2399 72.5496C84.8599 72.5796 84.6099 72.2696 84.6099 71.9096C84.6099 71.4796 84.9799 71.3796 85.3299 71.3496C85.6399 71.3296 86.0299 71.2296 86.1199 71.6996C85.9599 72.1396 85.6999 72.5096 85.2399 72.5496ZM85.0599 66.1396C84.5099 66.0996 83.6299 66.3496 83.6299 65.5596C83.6299 64.8696 83.1499 64.0296 83.8899 63.4196C84.5399 62.8896 85.3099 62.9496 85.6299 63.6196C86.1399 64.6596 87.0299 64.1796 88.0799 64.4396C87.0499 65.4796 86.2799 66.2396 85.0499 66.1396H85.0599Z" fill="#8F9700"/>
<path d="M97.8801 80.6299C97.5601 80.8899 97.2301 81.0399 96.8901 81.1199C97.2301 81.0399 97.5601 80.8899 97.8801 80.6299Z" fill="#8F9700"/>
<path d="M164.56 43.6196C165.33 43.0696 166.2 42.6196 166.7 41.8396C166.87 41.6596 167.05 41.4896 167.22 41.3096C167.05 41.4896 166.87 41.6596 166.7 41.8396C166.2 42.6196 165.33 43.0796 164.56 43.6196Z" fill="#8F9700"/>
<path d="M149.1 16.98C149.12 16.21 148.92 15.46 148.74 14.71C148.92 15.46 149.12 16.21 149.1 16.98Z" fill="#8F9700"/>
<path d="M31.6602 44.4197C31.2102 44.2797 31.0002 44.1297 30.9102 43.9697C31.0002 44.1297 31.2102 44.2797 31.6602 44.4197Z" fill="#8F9700"/>
<path d="M43.0198 34.0701C42.9298 34.0101 42.8498 33.9401 42.7598 33.8701C42.8498 33.9401 42.9298 34.0101 43.0198 34.0701Z" fill="#8F9700"/>
<path d="M39.2302 35.3799C38.9602 34.6899 38.4902 34.0799 37.8502 33.5299C37.2702 33.1799 36.7002 32.9599 36.1602 32.8799C36.6902 32.9599 37.2602 33.1799 37.8502 33.5299C38.4902 34.0799 38.9602 34.6899 39.2302 35.3799Z" fill="#8F9700"/>
<path d="M43.5099 32.3405C43.1699 32.0605 42.7599 31.8305 42.4999 31.4905C42.4899 31.3205 42.4699 31.1305 42.3999 30.9805C42.4699 31.1305 42.4799 31.3205 42.4999 31.4905C42.7599 31.8305 43.1699 32.0605 43.5099 32.3405Z" fill="#8F9700"/>
<path d="M28.02 47.5198C28.18 46.9798 28.4 46.5998 28.68 46.3398C28.41 46.5998 28.18 46.9698 28.02 47.5198Z" fill="#8F9700"/>
<path d="M40.4302 90.46C40.6802 90.99 41.0302 91.29 41.4402 91.43C41.0302 91.29 40.6802 90.99 40.4402 90.46H40.4302Z" fill="#8F9700"/>
<path d="M43.54 93.0498C43.77 93.1598 43.96 93.2998 44.13 93.4498C43.96 93.2998 43.77 93.1598 43.54 93.0498Z" fill="#8F9700"/>
<path d="M73.02 28.3604C73.17 28.3904 73.32 28.3904 73.47 28.3804C73.32 28.3804 73.17 28.3804 73.02 28.3604Z" fill="#8F9700"/>
<path d="M52.5398 94.71C52.3998 95.5 52.5398 96.43 52.3398 97.19C52.6898 97.19 53.0298 97.19 53.3698 97.19C53.0298 97.19 52.6798 97.19 52.3398 97.19C52.5398 96.43 52.3998 95.5 52.5398 94.71Z" fill="#8F9700"/>
<path d="M46.6501 43.0098C46.8301 43.0398 47.0101 43.0898 47.1401 43.1798C47.0101 43.0898 46.8301 43.0298 46.6501 43.0098C46.1701 43.0598 45.8601 43.3398 45.8101 43.7998C45.8601 43.3398 46.1701 43.0598 46.6501 43.0098Z" fill="#8F9700"/>
<path d="M43.8901 102.41C45.7901 101.69 47.5501 100.73 49.2201 99.5996C47.5601 100.73 45.7901 101.69 43.8901 102.41Z" fill="#8F9700"/>
<path d="M63.3999 93.4103C63.8499 93.3003 64.2999 93.1503 64.7499 93.0703C64.9099 93.3803 65.0999 93.6803 65.3499 93.8603C65.0999 93.6803 64.9099 93.3803 64.7499 93.0703C64.2999 93.1503 63.8499 93.3003 63.3999 93.4103Z" fill="#8F9700"/>
<path d="M64.23 89.4398C64.35 89.3898 64.47 89.3298 64.57 89.2598C64.46 89.3298 64.35 89.3898 64.23 89.4398Z" fill="#8F9700"/>
<path d="M70.9598 43.8999C70.9598 43.5599 70.9598 43.2199 70.9598 42.8799C70.8198 42.9299 70.6998 42.9399 70.5898 42.9399C70.6998 42.9399 70.8198 42.9199 70.9598 42.8799C70.9598 43.2199 70.9598 43.5599 70.9598 43.8999Z" fill="#8F9700"/>
<path d="M72.4998 30.4404C72.4998 30.2704 72.4998 30.1004 72.4998 29.9304C72.3598 29.9004 72.2098 29.8804 72.0698 29.8604C72.2198 29.8904 72.3598 29.9104 72.4998 29.9304C72.4998 30.1004 72.4998 30.2704 72.4998 30.4404Z" fill="#8F9700"/>
<path d="M70.0398 44.8496C69.9598 45.0296 69.9299 45.2296 69.9099 45.4396C69.5999 45.6196 69.3298 45.7396 69.0898 45.7796C69.3298 45.7296 69.5999 45.6196 69.9099 45.4396C69.9199 45.2296 69.9598 45.0296 70.0398 44.8496Z" fill="#8F9700"/>
</g>
<defs>
<clipPath id="clip0_307_6676">
<rect width="283.29" height="102.72" fill="white"/>
</clipPath>
</defs>
</svg>
