<svg width="80" height="80" viewBox="0 0 80 80" fill="none" xmlns="http://www.w3.org/2000/svg">
<path d="M63.6277 9.14893C58.0426 23.484 43.5213 21.6223 33.282 21.9947L30.6756 31.6755C43.5213 21.4361 60.2766 31.6755 58.6011 47.3138C58.1297 51.8694 56.2695 56.17 53.2725 59.6332C50.2755 63.0964 46.2865 65.5548 41.8458 66.6755C33.0958 68.7233 23.6011 65.5584 19.3192 56.8084L17.8299 53.085L26.9522 50.6648C26.9522 51.2233 27.3245 51.5957 27.5107 52.1542C33.6543 62.0212 46.1277 56.9946 47.4309 46.7553C48.9202 36.5159 34.399 30.9308 27.6969 43.0319L19.5054 39.6808L22.4841 27.3936L24.532 19.2021L25.0905 17.3404C30.3033 3.75 40.5426 2.44681 49.6649 2.44681H50.782C41.357 -0.348055 31.2284 0.474962 22.3783 4.75478C13.5283 9.03459 6.59399 16.4631 2.93262 25.5864C-0.728752 34.7097 -0.853616 44.871 2.58247 54.0815C6.01855 63.292 12.7682 70.8886 21.5104 75.3846C30.2526 79.8806 40.358 80.9523 49.8488 78.3898C59.3395 75.8274 67.5323 69.8154 72.8238 61.5304C78.1152 53.2454 80.1243 43.284 78.4579 33.5957C76.7915 23.9074 71.5694 15.1897 63.8139 9.14893H63.6277Z" fill="#E52322"/>
</svg>
