<svg width="50" height="49" viewBox="0 0 50 49" fill="none" xmlns="http://www.w3.org/2000/svg">
<path d="M24.9824 0.130859C18.5187 0.130859 12.3197 2.69857 7.74911 7.26913C3.17855 11.8397 0.61084 18.0387 0.61084 24.5024C0.61084 30.9662 3.17855 37.1652 7.74911 41.7357C12.3197 46.3063 18.5187 48.874 24.9824 48.874C31.4462 48.874 37.6452 46.3063 42.2157 41.7357C46.7863 37.1652 49.354 30.9662 49.354 24.5024C49.354 18.0387 46.7863 11.8397 42.2157 7.26913C37.6452 2.69857 31.4462 0.130859 24.9824 0.130859V0.130859Z" fill="white"/>
<path d="M38.2764 7.78474C35.2551 15.5393 27.3998 14.5322 21.8608 14.7337L20.4509 19.9705C27.3998 14.4315 36.4636 19.9705 35.5573 28.4301C35.3022 30.8944 34.296 33.2209 32.6747 35.0943C31.0535 36.9677 28.8957 38.2976 26.4935 38.9038C21.7601 40.0116 16.624 38.2996 14.3077 33.5662L13.502 31.5521L18.4367 30.2428C18.4367 30.545 18.6382 30.7464 18.7389 31.0485C22.0623 36.3861 28.8098 33.6669 29.5147 28.128C30.3204 22.589 22.4651 19.5677 18.8396 26.1138L14.4084 24.301L16.0197 17.6542L17.1275 13.223L17.4297 12.2159C20.2495 4.86418 25.7885 4.15922 30.7232 4.15922H31.3275C26.2291 2.64733 20.7499 3.09255 15.9625 5.40772C11.1751 7.72289 7.42394 11.7414 5.44331 16.6766C3.46269 21.6119 3.39514 27.1086 5.2539 32.0911C7.11265 37.0735 10.7639 41.1829 15.493 43.615C20.2221 46.0472 25.6886 46.6269 30.8227 45.2407C35.9567 43.8546 40.3886 40.6024 43.251 36.1206C46.1135 31.6388 47.2003 26.2502 46.2988 21.0093C45.3974 15.7684 42.5725 11.0525 38.3771 7.78474H38.2764Z" fill="#E52322"/>
<path d="M36.3626 6.37482C36.0587 7.5125 35.4896 8.56199 34.7019 9.43726C33.9141 10.3125 32.9302 10.9887 31.8307 11.4103C29.5144 12.4174 26.6945 12.4174 23.9754 12.4174H19.7456C22.1626 6.87837 26.2917 6.37482 30.7229 6.37482C32.601 6.27486 34.4821 6.24127 36.3626 6.27411V6.37482Z" fill="#00923A"/>
</svg>
