<svg width="224" height="225" viewBox="0 0 224 225" fill="none" xmlns="http://www.w3.org/2000/svg">
<g filter="url(#filter0_d_153_854)">
<rect x="30" y="30.54" width="164" height="164" rx="12" fill="white"/>
</g>
<path fill-rule="evenodd" clip-rule="evenodd" d="M164.679 176.5V168.696H160.776V176.5H164.679ZM82.7352 176.5H55.4199V149.185H82.7352V176.5V176.5ZM94.4402 168.696V160.892H86.6384V164.793H90.5393V168.696H86.6362V176.5H94.4402V172.597H98.3434V168.698H94.4402V168.696ZM121.756 121.872V125.773H117.852V129.676H121.756V141.381H125.656V145.284H121.756V149.185H133.461V164.793H125.659V156.991H117.852V160.892H121.756V164.793H117.852V172.599H121.756V176.5H125.656V172.597H133.461V176.5H141.265V172.597H145.168V168.698H137.364V160.894H141.265V164.795H149.069V172.601H145.168V176.5H156.873V172.599H152.972V168.696H160.776V164.793H164.679V156.991H168.58V153.088H164.677V149.182H168.58V145.282H160.776V141.381H156.873V149.185H160.776V153.088H152.972V137.48H149.069V141.381H145.168V137.48H141.262V133.577H145.166V129.676H141.262V125.773H137.361V121.872H133.461V133.577H137.364V141.381H133.461V137.48H125.659V129.676H129.56V125.773H125.656V121.872H121.756V121.872ZM110.048 168.696H106.147V172.597H110.048V168.698V168.696ZM59.3231 153.088V172.597H78.8321V153.088H59.3231ZM74.9312 168.696H63.2218V156.989H74.929V168.696H74.9312ZM168.58 164.793H164.677V168.696H168.58V164.793ZM106.147 168.698V160.894H102.244V164.795H98.3434V168.698H106.145H106.147ZM113.949 168.698V160.894H110.048V168.698H113.951H113.949ZM152.972 156.991V160.894H160.776V156.991H152.972ZM98.3412 160.892V149.182H94.438V160.89H98.3412V160.892ZM110.046 160.892V149.182H106.145V153.086H102.242V156.987H106.145V160.89H110.046V160.892ZM137.361 145.284V156.989H149.066V145.284H137.361ZM98.3412 133.577H90.5393V141.381H86.6362V153.088H90.5393V149.182H94.4402V141.381H98.3434V145.282H102.244V149.182H106.147V145.282H110.048V141.381H106.147V137.48H98.3412V133.577ZM145.166 149.185H141.262V153.088H145.166V149.182V149.185ZM113.949 145.284H110.046V149.185H113.949V145.284ZM82.7352 141.381H74.9312V145.284H82.733V141.381H82.7352ZM59.3208 129.676V125.773H55.4199V133.577H59.3208V137.48H55.4199V141.381H59.3208V145.284H67.1271V141.381H63.2218V137.48H67.1249V133.577H63.2218V129.676H59.3208V129.676ZM168.58 141.381V129.676H164.677V133.577H160.778V141.381H168.58ZM71.028 137.48H67.1271V141.381H71.028V137.48ZM149.069 133.577H145.168V137.48H149.069V133.577ZM63.224 94.5563H55.4199V114.068H59.3231V110.164H63.2218V106.263H59.3208V102.36H63.224V106.263H67.1271V110.164H71.028V114.068H67.1271V117.968H63.2218V121.872H74.929V117.968H71.028V114.068H86.6362V117.968H78.8343V121.872H82.7352V125.773H74.9312V129.676H71.028V137.478H82.7352V133.579H74.9312V129.678H82.733V133.579H90.5393V117.971H102.244V125.775H94.4424V129.678H106.147V125.775H113.949V121.874H106.147V114.07H110.048V106.261H106.147V110.162H102.244V114.065H90.5393V110.162H74.9312V106.261H71.028V94.5541H67.1271V98.4572H63.2218V94.5541L63.224 94.5563ZM110.048 133.579V129.678H106.147V137.48H113.949V133.579H110.048ZM156.873 129.678H152.972V133.579H156.873V129.678ZM71.0303 125.775H63.2218V129.678H71.0258V125.775H71.0303ZM168.58 117.971H152.972V121.872H149.069V125.773H156.873V121.872H160.776V129.673H164.679V121.872H168.58V117.968V117.971ZM63.224 121.869H59.3208V125.77H63.224V121.869ZM121.756 114.065H117.852V117.966H121.756V114.065ZM63.224 114.065H59.3208V117.966H63.224V114.065ZM113.951 114.065H110.048V117.966H113.951V114.065ZM117.852 114.065V106.261H113.951V114.063H117.852V114.065ZM125.656 110.162H121.756V114.065H125.656V110.162ZM133.461 102.36V110.162H137.364V102.36H133.461ZM125.659 98.4572V90.6531H121.756V106.261H125.656V102.358H129.56V98.4594H125.656L125.659 98.4572ZM86.6362 94.5541H78.8343V98.4572H74.929V102.358H78.8299V98.4594H82.733V102.36H78.8299V106.263H82.733V102.36H86.634V106.263H98.3412V102.36H102.242V98.4594H98.3412V94.5563H94.438V102.36H90.5393V98.4594H86.6362V94.5563V94.5541ZM168.58 98.4594H164.677V102.36H168.58V98.4594ZM113.951 102.36V94.5585H110.048V102.36H113.951ZM164.677 94.5585H156.875V98.4594H164.677V94.5563V94.5585ZM90.5393 82.8491V78.9482H86.6362V94.5563H94.4402V90.6576H90.5393V86.7544H94.4402V82.8513H90.5393V82.8491ZM137.364 94.5541V86.7522H133.461V94.5541H137.364V94.5541ZM106.147 94.5541V86.7522H102.244V94.5541H106.147ZM113.949 86.7522H110.048V90.6531H113.951V86.75L113.949 86.7522ZM98.3434 86.7522H94.4402V90.6531H98.3434V86.75V86.7522ZM129.56 86.7522H125.656V90.6531H129.56V86.75V86.7522ZM121.756 86.7522H117.852V90.6531H121.756V86.75V86.7522ZM168.58 90.6531H141.265V63.34H168.58V90.6553V90.6531ZM82.7352 90.6531H55.4199V63.34H82.7352V90.6553V90.6531ZM117.855 75.045V63.34H110.048V67.2432H113.951V71.1419H110.048V78.9459H106.147V82.8491H113.949V86.75H117.852V78.9482H113.951V75.045H117.852H117.855ZM102.244 82.8469H98.3434V86.75H102.244V82.8513V82.8469ZM59.3231 67.2454V86.7544H78.8321V67.2432H59.3231V67.2454ZM145.166 67.2454V86.7544H164.679V67.2432H145.168L145.166 67.2454ZM133.461 82.8513H129.56V86.7522H133.461V82.8513ZM74.9312 82.8513H63.2218V71.1419H74.929V82.8491L74.9312 82.8513ZM137.364 78.9482H133.461V82.8513H137.364V78.9482ZM160.776 82.8513H149.069V71.1419H160.776V82.8491V82.8513ZM106.147 75.0472V63.34H102.244V67.2432H98.3434V71.1419H90.5393V67.2432H86.6362V75.045H90.5393V78.9482H102.244V75.0472H106.147ZM94.4402 63.34H90.5393V67.2432H94.4402V63.34ZM156.873 114.068V110.164H160.776V114.068H168.58V110.164H164.679V102.363H156.873V98.4594H152.972V106.261H149.069V102.36H145.168V98.4594H152.97V94.5563H141.265V98.4594H133.463V102.36H129.56V117.968H125.656V121.872H129.56V117.968H137.361V121.872H149.069V117.968H141.267V114.068H145.168V110.164H152.97V106.263H156.873V110.164H152.972V114.068H156.873V114.068ZM125.659 86.7522V82.8513H129.562V75.0472H137.364V67.241H133.461V71.1441H121.756V75.0472H117.852V78.9482H121.756V86.7522H125.656H125.659Z" fill="black"/>
<defs>
<filter id="filter0_d_153_854" x="0" y="0.540009" width="224" height="224" filterUnits="userSpaceOnUse" color-interpolation-filters="sRGB">
<feFlood flood-opacity="0" result="BackgroundImageFix"/>
<feColorMatrix in="SourceAlpha" type="matrix" values="0 0 0 0 0 0 0 0 0 0 0 0 0 0 0 0 0 0 127 0" result="hardAlpha"/>
<feOffset/>
<feGaussianBlur stdDeviation="15"/>
<feComposite in2="hardAlpha" operator="out"/>
<feColorMatrix type="matrix" values="0 0 0 0 0 0 0 0 0 0 0 0 0 0 0 0 0 0 0.25 0"/>
<feBlend mode="normal" in2="BackgroundImageFix" result="effect1_dropShadow_153_854"/>
<feBlend mode="normal" in="SourceGraphic" in2="effect1_dropShadow_153_854" result="shape"/>
</filter>
</defs>
</svg>
