<svg width="114" height="114" viewBox="0 0 114 114" fill="none" xmlns="http://www.w3.org/2000/svg">
<path fill-rule="evenodd" clip-rule="evenodd" d="M109.679 113.5V105.696H105.776V113.5H109.679ZM27.7352 113.5H0.419922V86.1847H27.7352V113.5V113.5ZM39.4402 105.696V97.8919H31.6384V101.793H35.5393V105.696H31.6362V113.5H39.4402V109.597H43.3434V105.698H39.4402V105.696ZM66.7556 58.8716V62.7725H62.8524V66.6757H66.7556V78.3806H70.6565V82.2838H66.7556V86.1847H78.4605V101.793H70.6587V93.991H62.8524V97.8919H66.7556V101.793H62.8524V109.599H66.7556V113.5H70.6565V109.597H78.4605V113.5H86.2646V109.597H90.1677V105.698H82.3637V97.8941H86.2646V101.795H94.0687V109.601H90.1677V113.5H101.873V109.599H97.9718V105.696H105.776V101.793H109.679V93.991H113.58V90.0878H109.677V86.1825H113.58V82.2816H105.776V78.3806H101.873V86.1847H105.776V90.0878H97.9718V74.4797H94.0687V78.3806H90.1677V74.4797H86.2624V70.5766H90.1655V66.6757H86.2624V62.7725H82.3615V58.8716H78.4605V70.5766H82.3637V78.3806H78.4605V74.4797H70.6587V66.6757H74.5596V62.7725H70.6565V58.8716H66.7556V58.8716ZM55.0484 105.696H51.1474V109.597H55.0484V105.698V105.696ZM4.32306 90.0878V109.597H23.8321V90.0878H4.32306ZM19.9312 105.696H8.22177V93.9888H19.929V105.696H19.9312ZM113.58 101.793H109.677V105.696H113.58V101.793ZM51.1474 105.698V97.8941H47.2443V101.795H43.3434V105.698H51.1452H51.1474ZM58.9493 105.698V97.8941H55.0484V105.698H58.9515H58.9493ZM97.9718 93.991V97.8941H105.776V93.991H97.9718ZM43.3412 97.8919V86.1825H39.438V97.8897H43.3412V97.8919ZM55.0461 97.8919V86.1825H51.1452V90.0856H47.2421V93.9866H51.1452V97.8897H55.0461V97.8919ZM82.3615 82.2838V93.9888H94.0665V82.2838H82.3615ZM43.3412 70.5766H35.5393V78.3806H31.6362V90.0878H35.5393V86.1825H39.4402V78.3806H43.3434V82.2816H47.2443V86.1825H51.1474V82.2816H55.0484V78.3806H51.1474V74.4797H43.3412V70.5766ZM90.1655 86.1847H86.2624V90.0878H90.1655V86.1825V86.1847ZM58.9493 82.2838H55.0461V86.1847H58.9493V82.2838ZM27.7352 78.3806H19.9312V82.2838H27.733V78.3806H27.7352ZM4.32085 66.6757V62.7725H0.419922V70.5766H4.32085V74.4797H0.419922V78.3806H4.32085V82.2838H12.1271V78.3806H8.22177V74.4797H12.1249V70.5766H8.22177V66.6757H4.32085V66.6757ZM113.58 78.3806V66.6757H109.677V70.5766H105.778V78.3806H113.58ZM16.028 74.4797H12.1271V78.3806H16.028V74.4797ZM94.0687 70.5766H90.1677V74.4797H94.0687V70.5766ZM8.22398 31.5563H0.419922V51.0675H4.32306V47.1644H8.22177V43.2635H4.32085V39.3603H8.22398V43.2635H12.1271V47.1644H16.028V51.0675H12.1271V54.9685H8.22177V58.8716H19.929V54.9685H16.028V51.0675H31.6362V54.9685H23.8343V58.8716H27.7352V62.7725H19.9312V66.6757H16.028V74.4775H27.7352V70.5788H19.9312V66.6779H27.733V70.5788H35.5393V54.9707H47.2443V62.7747H39.4424V66.6779H51.1474V62.7747H58.9493V58.8738H51.1474V51.0697H55.0484V43.2613H51.1474V47.1622H47.2443V51.0653H35.5393V47.1622H19.9312V43.2613H16.028V31.5541H12.1271V35.4572H8.22177V31.5541L8.22398 31.5563ZM55.0484 70.5788V66.6779H51.1474V74.4797H58.9493V70.5788H55.0484ZM101.873 66.6779H97.9718V70.5788H101.873V66.6779ZM16.0303 62.7747H8.22177V66.6779H16.0258V62.7747H16.0303ZM113.58 54.9707H97.9718V58.8716H94.0687V62.7725H101.873V58.8716H105.776V66.6734H109.679V58.8716H113.58V54.9685V54.9707ZM8.22398 58.8694H4.32085V62.7703H8.22398V58.8694ZM66.7556 51.0653H62.8524V54.9663H66.7556V51.0653ZM8.22398 51.0653H4.32085V54.9663H8.22398V51.0653ZM58.9515 51.0653H55.0484V54.9663H58.9515V51.0653ZM62.8524 51.0653V43.2613H58.9515V51.0631H62.8524V51.0653ZM70.6565 47.1622H66.7556V51.0653H70.6565V47.1622ZM78.4605 39.3603V47.1622H82.3637V39.3603H78.4605ZM70.6587 35.4572V27.6531H66.7556V43.2613H70.6565V39.3581H74.5596V35.4594H70.6565L70.6587 35.4572ZM31.6362 31.5541H23.8343V35.4572H19.929V39.3581H23.8299V35.4594H27.733V39.3603H23.8299V43.2635H27.733V39.3603H31.634V43.2635H43.3412V39.3603H47.2421V35.4594H43.3412V31.5563H39.438V39.3603H35.5393V35.4594H31.6362V31.5563V31.5541ZM113.58 35.4594H109.677V39.3603H113.58V35.4594ZM58.9515 39.3603V31.5585H55.0484V39.3603H58.9515ZM109.677 31.5585H101.875V35.4594H109.677V31.5563V31.5585ZM35.5393 19.8491V15.9482H31.6362V31.5563H39.4402V27.6576H35.5393V23.7544H39.4402V19.8513H35.5393V19.8491ZM82.3637 31.5541V23.7522H78.4605V31.5541H82.3637V31.5541ZM51.1474 31.5541V23.7522H47.2443V31.5541H51.1474ZM58.9493 23.7522H55.0484V27.6531H58.9515V23.75L58.9493 23.7522ZM43.3434 23.7522H39.4402V27.6531H43.3434V23.75V23.7522ZM74.5596 23.7522H70.6565V27.6531H74.5596V23.75V23.7522ZM66.7556 23.7522H62.8524V27.6531H66.7556V23.75V23.7522ZM113.58 27.6531H86.2646V0.340027H113.58V27.6553V27.6531ZM27.7352 27.6531H0.419922V0.340027H27.7352V27.6553V27.6531ZM62.8546 12.045V0.340027H55.0484V4.24316H58.9515V8.14188H55.0484V15.9459H51.1474V19.8491H58.9493V23.75H62.8524V15.9482H58.9515V12.045H62.8524H62.8546ZM47.2443 19.8469H43.3434V23.75H47.2443V19.8513V19.8469ZM4.32306 4.24537V23.7544H23.8321V4.24316H4.32306V4.24537ZM90.1655 4.24537V23.7544H109.679V4.24316H90.1677L90.1655 4.24537ZM78.4605 19.8513H74.5596V23.7522H78.4605V19.8513ZM19.9312 19.8513H8.22177V8.14188H19.929V19.8491L19.9312 19.8513ZM82.3637 15.9482H78.4605V19.8513H82.3637V15.9482ZM105.776 19.8513H94.0687V8.14188H105.776V19.8491V19.8513ZM51.1474 12.0472V0.340027H47.2443V4.24316H43.3434V8.14188H35.5393V4.24316H31.6362V12.045H35.5393V15.9482H47.2443V12.0472H51.1474ZM39.4402 0.340027H35.5393V4.24316H39.4402V0.340027ZM101.873 51.0675V47.1644H105.776V51.0675H113.58V47.1644H109.679V39.3625H101.873V35.4594H97.9718V43.2613H94.0687V39.3603H90.1677V35.4594H97.9696V31.5563H86.2646V35.4594H78.4627V39.3603H74.5596V54.9685H70.6565V58.8716H74.5596V54.9685H82.3615V58.8716H94.0687V54.9685H86.2668V51.0675H90.1677V47.1644H97.9696V43.2635H101.873V47.1644H97.9718V51.0675H101.873V51.0675ZM70.6587 23.7522V19.8513H74.5618V12.0472H82.3637V4.24095H78.4605V8.14409H66.7556V12.0472H62.8524V15.9482H66.7556V23.7522H70.6565H70.6587Z" fill="black"/>
</svg>
